<svg width="20" height="20" viewBox="0 0 20 20" fill="none" xmlns="http://www.w3.org/2000/svg">
<path d="M10.5 18C9.94772 18 9.5 18.4477 9.5 19C9.5 19.5523 9.94772 20 10.5 20V18ZM14 6V17H16V6H14ZM13 18H10.5V20H13V18ZM6 12.5V6H4V12.5H6ZM14 17C14 17.5523 13.5523 18 13 18V20C14.6569 20 16 18.6569 16 17H14ZM10 2C12.2091 2 14 3.79086 14 6H16C16 2.68629 13.3137 0 10 0V2ZM10 0C6.68629 0 4 2.68629 4 6H6C6 3.79086 7.79086 2 10 2V0Z" fill="#5C7FF3"/>
<mask id="path-2-inside-1" fill="white">
<path d="M0 11C0 8.79086 1.79086 7 4 7C5.10457 7 6 7.89543 6 9V14C6 14.5523 5.55228 15 5 15H4C1.79086 15 0 13.2091 0 11Z"/>
</mask>
<path d="M0 11C0 8.79086 1.79086 7 4 7C5.10457 7 6 7.89543 6 9V14C6 14.5523 5.55228 15 5 15H4C1.79086 15 0 13.2091 0 11Z" stroke="#5C7FF3" stroke-width="4" mask="url(#path-2-inside-1)"/>
<path d="M15 9C15 8.44772 15.4477 8 16 8C17.6569 8 19 9.34315 19 11C19 12.6569 17.6569 14 16 14C15.4477 14 15 13.5523 15 13V9Z" stroke="#5C7FF3" stroke-width="2"/>
</svg>
