<svg width="40" height="40" viewBox="0 0 40 40" fill="none" xmlns="http://www.w3.org/2000/svg">
<path fill-rule="evenodd" clip-rule="evenodd" d="M2 0H0V2V30V32H2H12V28H4V4H15V8V10H21V14H25V10V8V7V6.17157L24.4142 5.58579L19.4142 0.585786L18.8284 0H18H17H15H2ZM21 8H17V4H17.1716L21 7.82843V8ZM6 12V14L18 14V12H6ZM6 18V16H15V18H6ZM6 20V22H12V20H6Z" fill="#4A5568"/>
<path fill-rule="evenodd" clip-rule="evenodd" d="M27.5 36C32.1944 36 36 32.1944 36 27.5C36 22.8056 32.1944 19 27.5 19C22.8056 19 19 22.8056 19 27.5C19 32.1944 22.8056 36 27.5 36ZM27.5 40C34.4036 40 40 34.4036 40 27.5C40 20.5964 34.4036 15 27.5 15C20.5964 15 15 20.5964 15 27.5C15 34.4036 20.5964 40 27.5 40ZM30 26V27.5981L33 25L30 22.4019V24H22V26H30ZM25 29V27.4019L22 30L25 32.5981V31H33V29H25Z" fill="#3499FE"/>
</svg>
