<svg width="18" height="19" viewBox="0 0 18 19" fill="none" xmlns="http://www.w3.org/2000/svg">
<path d="M3.87793 6.09766C3.10319 6.09766 2.47168 5.86003 1.9834 5.38477C1.49837 4.90951 1.25586 4.27637 1.25586 3.48535V3.34863C1.25586 2.81803 1.3584 2.3444 1.56348 1.92773C1.76855 1.50781 2.05827 1.18555 2.43262 0.960938C2.81022 0.733073 3.23991 0.619141 3.72168 0.619141C4.44434 0.619141 5.01237 0.847005 5.42578 1.30273C5.84245 1.75846 6.05078 2.40462 6.05078 3.24121V3.81738H2.68652C2.7321 4.16243 2.86882 4.43913 3.09668 4.64746C3.3278 4.85579 3.61914 4.95996 3.9707 4.95996C4.51432 4.95996 4.93913 4.76302 5.24512 4.36914L5.93848 5.14551C5.72689 5.44499 5.44043 5.67936 5.0791 5.84863C4.71777 6.01465 4.31738 6.09766 3.87793 6.09766ZM3.7168 1.76172C3.43685 1.76172 3.20898 1.85612 3.0332 2.04492C2.86068 2.23372 2.75 2.50391 2.70117 2.85547H4.66406V2.74316C4.65755 2.43066 4.57292 2.18978 4.41016 2.02051C4.2474 1.84798 4.01628 1.76172 3.7168 1.76172ZM9.71777 4.54004C9.71777 4.36751 9.63151 4.23242 9.45898 4.13477C9.28971 4.03385 9.01628 3.94434 8.63867 3.86621C7.38216 3.60254 6.75391 3.06868 6.75391 2.26465C6.75391 1.7959 6.94759 1.40527 7.33496 1.09277C7.72559 0.777018 8.23503 0.619141 8.86328 0.619141C9.53385 0.619141 10.0693 0.777018 10.4697 1.09277C10.8734 1.40853 11.0752 1.81868 11.0752 2.32324H9.66406C9.66406 2.12142 9.59896 1.9554 9.46875 1.8252C9.33854 1.69173 9.13509 1.625 8.8584 1.625C8.62077 1.625 8.43685 1.67871 8.30664 1.78613C8.17643 1.89355 8.11133 2.03027 8.11133 2.19629C8.11133 2.35254 8.18457 2.47949 8.33105 2.57715C8.48079 2.67155 8.73145 2.75456 9.08301 2.82617C9.43457 2.89453 9.73079 2.97266 9.97168 3.06055C10.7171 3.33398 11.0898 3.80762 11.0898 4.48145C11.0898 4.96322 10.8831 5.35384 10.4697 5.65332C10.0563 5.94954 9.52246 6.09766 8.86816 6.09766C8.42546 6.09766 8.03158 6.01953 7.68652 5.86328C7.34473 5.70378 7.07617 5.4873 6.88086 5.21387C6.68555 4.93717 6.58789 4.63932 6.58789 4.32031H7.92578C7.9388 4.57096 8.03158 4.76302 8.2041 4.89648C8.37663 5.02995 8.60775 5.09668 8.89746 5.09668C9.16764 5.09668 9.37109 5.04622 9.50781 4.94531C9.64779 4.84115 9.71777 4.70605 9.71777 4.54004ZM16.7588 3.40723C16.7588 4.22103 16.5732 4.8737 16.2021 5.36523C15.8343 5.85352 15.3363 6.09766 14.708 6.09766C14.1742 6.09766 13.7428 5.91211 13.4141 5.54102V8.03125H12.0029V0.716797H13.3115L13.3604 1.23438C13.7021 0.824219 14.1481 0.619141 14.6982 0.619141C15.3493 0.619141 15.8555 0.860026 16.2168 1.3418C16.5781 1.82357 16.7588 2.48763 16.7588 3.33398V3.40723ZM15.3477 3.30469C15.3477 2.81315 15.2598 2.43392 15.084 2.16699C14.9115 1.90007 14.6592 1.7666 14.3271 1.7666C13.8844 1.7666 13.5801 1.93587 13.4141 2.27441V4.4375C13.5866 4.78581 13.8942 4.95996 14.3369 4.95996C15.0107 4.95996 15.3477 4.4082 15.3477 3.30469ZM2.30566 13.8203H3.05762C3.41569 13.8203 3.68099 13.7308 3.85352 13.5518C4.02604 13.3727 4.1123 13.1351 4.1123 12.8389C4.1123 12.5524 4.02604 12.3294 3.85352 12.1699C3.68424 12.0104 3.44987 11.9307 3.15039 11.9307C2.88021 11.9307 2.65397 12.0055 2.47168 12.1553C2.28939 12.3018 2.19824 12.4938 2.19824 12.7314H0.787109C0.787109 12.3604 0.886393 12.0283 1.08496 11.7354C1.28678 11.4391 1.56673 11.208 1.9248 11.042C2.28613 10.876 2.68327 10.793 3.11621 10.793C3.86816 10.793 4.45736 10.9736 4.88379 11.335C5.31022 11.693 5.52344 12.1878 5.52344 12.8193C5.52344 13.1449 5.42415 13.4443 5.22559 13.7178C5.02702 13.9912 4.7666 14.2012 4.44434 14.3477C4.84473 14.4909 5.14258 14.7057 5.33789 14.9922C5.53646 15.2786 5.63574 15.6172 5.63574 16.0078C5.63574 16.6393 5.40462 17.1455 4.94238 17.5264C4.4834 17.9072 3.87467 18.0977 3.11621 18.0977C2.40658 18.0977 1.82552 17.9105 1.37305 17.5361C0.923828 17.1618 0.699219 16.667 0.699219 16.0518H2.11035C2.11035 16.3187 2.20964 16.5368 2.4082 16.7061C2.61003 16.8753 2.85742 16.96 3.15039 16.96C3.48568 16.96 3.74772 16.8721 3.93652 16.6963C4.12858 16.5173 4.22461 16.2812 4.22461 15.9883C4.22461 15.2786 3.83398 14.9238 3.05273 14.9238H2.30566V13.8203ZM10.4404 10.8174V11.9795H10.3037C9.66569 11.9893 9.15137 12.1553 8.76074 12.4775C8.37337 12.7998 8.14062 13.2474 8.0625 13.8203C8.4401 13.4362 8.91699 13.2441 9.49316 13.2441C10.1117 13.2441 10.6032 13.4655 10.9678 13.9082C11.3324 14.3509 11.5146 14.9336 11.5146 15.6562C11.5146 16.1185 11.4137 16.5368 11.2119 16.9111C11.0133 17.2855 10.7301 17.5768 10.3623 17.7852C9.99772 17.9935 9.58431 18.0977 9.12207 18.0977C8.37337 18.0977 7.7679 17.8372 7.30566 17.3164C6.84668 16.7956 6.61719 16.1006 6.61719 15.2314V14.7236C6.61719 13.9521 6.76204 13.2718 7.05176 12.6826C7.34473 12.0902 7.76302 11.6328 8.30664 11.3105C8.85352 10.985 9.48665 10.8206 10.2061 10.8174H10.4404ZM9.06348 14.377C8.83561 14.377 8.62891 14.4372 8.44336 14.5576C8.25781 14.6748 8.12109 14.8311 8.0332 15.0264V15.4561C8.0332 15.9281 8.12598 16.2975 8.31152 16.5645C8.49707 16.8281 8.75749 16.96 9.09277 16.96C9.39551 16.96 9.63965 16.8411 9.8252 16.6035C10.014 16.3626 10.1084 16.0518 10.1084 15.6709C10.1084 15.2835 10.014 14.971 9.8252 14.7334C9.63639 14.4958 9.38249 14.377 9.06348 14.377ZM17.1396 15.0605C17.1396 16.0436 16.9362 16.7956 16.5293 17.3164C16.1224 17.8372 15.5267 18.0977 14.7422 18.0977C13.9674 18.0977 13.375 17.8421 12.9648 17.3311C12.5547 16.82 12.3447 16.0876 12.335 15.1338V13.8252C12.335 12.8324 12.54 12.0788 12.9502 11.5645C13.3636 11.0501 13.9577 10.793 14.7324 10.793C15.5072 10.793 16.0996 11.0485 16.5098 11.5596C16.9199 12.0674 17.1299 12.7982 17.1396 13.752V15.0605ZM15.7285 13.625C15.7285 13.0358 15.6471 12.6077 15.4844 12.3408C15.3249 12.0706 15.0742 11.9355 14.7324 11.9355C14.4004 11.9355 14.1546 12.0641 13.9951 12.3213C13.8389 12.5752 13.7559 12.974 13.7461 13.5176V15.2461C13.7461 15.8255 13.8242 16.2568 13.9805 16.54C14.14 16.82 14.3939 16.96 14.7422 16.96C15.0872 16.96 15.3363 16.8249 15.4893 16.5547C15.6423 16.2845 15.722 15.8711 15.7285 15.3145V13.625Z" class="fill"/>
</svg>
