<svg width="20" height="20" viewBox="0 0 20 20" fill="none" xmlns="http://www.w3.org/2000/svg">
<path fill-rule="evenodd" clip-rule="evenodd" d="M0 0H1H17H18V1V5V6V9H16V6H5L5 16H9V18H5H4H1H0V17V1V0ZM4 16L4 6H2V16H4ZM4 5H5H16V2H2V5H4ZM6 4H3V3L6 3V4ZM7 4H10V3L7 3V4Z" fill="#4A5568"/>
<path fill-rule="evenodd" clip-rule="evenodd" d="M13.5 18C15.9853 18 18 15.9853 18 13.5C18 11.0147 15.9853 9 13.5 9C11.0147 9 9 11.0147 9 13.5C9 15.9853 11.0147 18 13.5 18ZM13.5 20C17.0899 20 20 17.0899 20 13.5C20 9.91015 17.0899 7 13.5 7C9.91015 7 7 9.91015 7 13.5C7 17.0899 9.91015 20 13.5 20ZM14 10V13H16V14H14H13V10H14Z" fill="#3499FE"/>
</svg>
