<svg width="20" height="20" viewBox="0 0 20 20" fill="none" xmlns="http://www.w3.org/2000/svg">
<path d="M19.4263 12.1238C19.5704 11.4719 19.6458 10.7979 19.6458 10.105C19.6458 4.91118 15.3755 0.700508 10.1069 0.700508C9.55111 0.700508 9.00633 0.748279 8.47499 0.837799C7.62322 0.307902 6.61387 0 5.53246 0C2.47674 0 0 2.44234 0 5.45553C0 6.46193 0.278089 7.40411 0.760164 8.21381C0.63313 8.82439 0.567171 9.45746 0.567171 10.105C0.567171 15.3 4.83744 19.5106 10.1065 19.5106C10.7038 19.5106 11.2864 19.4565 11.8528 19.3533C12.6321 19.7656 13.5221 20 14.4684 20C17.5237 20 20 17.5581 20 14.5457C20.0004 13.6754 19.7936 12.854 19.4263 12.1238ZM14.9993 14.5999C14.5587 15.2153 13.9065 15.7034 13.0612 16.0495C12.2245 16.3923 11.2217 16.5665 10.0808 16.5665C8.71074 16.5665 7.56133 16.3285 6.66517 15.8596C6.0239 15.5188 5.49582 15.0571 5.09436 14.4851C4.68964 13.9098 4.48444 13.3382 4.48444 12.7862C4.48444 12.4421 4.61798 12.1431 4.88182 11.8986C5.14322 11.6561 5.4779 11.5333 5.87773 11.5333C6.20549 11.5333 6.48847 11.6296 6.7181 11.8207C6.93756 12.005 7.12526 12.2768 7.27713 12.6272C7.44651 13.0098 7.63014 13.3321 7.82517 13.5846C8.01287 13.8295 8.28159 14.0346 8.62523 14.1952C8.97132 14.3562 9.43792 14.4385 10.0104 14.4385C10.7995 14.4385 11.4464 14.2727 11.9326 13.9451C12.4081 13.6256 12.6378 13.2414 12.6378 12.7717C12.6378 12.4004 12.5177 12.1094 12.2705 11.8793C12.0095 11.6397 11.6679 11.4546 11.2518 11.3257C10.8186 11.1929 10.2298 11.0484 9.50225 10.8978C8.51123 10.6891 7.67085 10.441 7.00189 10.1612C6.31705 9.87375 5.76576 9.47552 5.36268 8.97854C4.95348 8.47233 4.74542 7.83967 4.74542 7.0938C4.74542 6.38325 4.96325 5.74216 5.39321 5.19058C5.81951 4.64182 6.44287 4.21469 7.24497 3.92325C8.03607 3.63461 8.97783 3.48809 10.0442 3.48809C10.896 3.48809 11.6443 3.58604 12.2701 3.77672C12.8992 3.96941 13.4289 4.23034 13.8454 4.55109C14.2644 4.87465 14.5771 5.21949 14.7733 5.57917C14.9704 5.94127 15.0705 6.30256 15.0705 6.65141C15.0705 6.98782 14.9394 7.29331 14.6793 7.56027C14.4175 7.82762 14.0885 7.96331 13.6996 7.96331C13.3466 7.96331 13.0698 7.8778 12.878 7.71161C12.6997 7.55465 12.5144 7.31218 12.3088 6.96333C12.071 6.51854 11.7831 6.16688 11.4529 5.91919C11.1317 5.67793 10.5959 5.55709 9.85933 5.55709C9.17612 5.55709 8.61953 5.69198 8.20667 5.95974C7.80888 6.21625 7.61507 6.51131 7.61507 6.86096C7.61507 7.07573 7.67778 7.25397 7.80684 7.40812C7.94202 7.57231 8.13379 7.71442 8.37483 7.83445C8.62523 7.95929 8.88459 8.05765 9.14314 8.1275C9.40779 8.20056 9.85241 8.30774 10.4623 8.44664C11.2343 8.61043 11.9448 8.79308 12.5714 8.99139C13.2074 9.19211 13.7554 9.43819 14.2041 9.72602C14.6605 10.0191 15.0225 10.3952 15.2794 10.8456C15.5371 11.2972 15.6674 11.8544 15.6674 12.5024C15.6674 13.2755 15.4423 13.9829 14.9993 14.5999Z" fill="#718096"/>
</svg>
