<svg width="237" height="40" viewBox="0 0 237 40" fill="none" xmlns="http://www.w3.org/2000/svg">
<path d="M33.9523 40C29.9665 39.9998 26.1235 38.5545 23.1709 35.9454C20.2184 33.3363 18.3677 29.7501 17.9789 25.8846H1.5625C1.1481 25.8846 0.75067 25.7242 0.457645 25.4386C0.16462 25.1531 3.36612e-10 24.7658 3.36611e-10 24.362C-2.56527e-05 19.5436 1.46621 14.8334 4.21329 10.8271C6.96036 6.82076 10.8649 3.69822 15.4331 1.85435C20.0013 0.0104808 25.0281 -0.471902 29.8776 0.468203C34.7272 1.40831 39.1818 3.72868 42.6781 7.13587C45.0067 9.39283 46.8528 12.0774 48.1096 15.0343C49.3664 17.9911 50.0089 21.1615 49.9999 24.362C49.9999 32.9853 42.8007 40 33.9523 40ZM21.1211 25.8846C21.8843 32.1814 27.3023 36.9548 33.9523 36.9548C41.078 36.9548 46.8749 31.3059 46.8749 24.362C46.8749 12.6082 37.0617 3.04537 25 3.04537C13.464 3.04537 3.98437 11.7936 3.18046 22.8394H18.0375C18.3796 20.7179 19.3897 18.7525 20.9281 17.2148C21.8909 16.2384 23.0455 15.4609 24.3231 14.9284C25.6007 14.3959 26.9752 14.1195 28.3648 14.1155H28.4179C29.7989 14.1153 31.1663 14.3802 32.4422 14.8951C33.7181 15.4099 34.8775 16.1646 35.854 17.1161C36.8306 18.0676 37.6052 19.1972 38.1338 20.4405C38.6623 21.6837 38.9343 23.0163 38.9343 24.362C38.9343 24.7658 38.7697 25.1531 38.4767 25.4386C38.1836 25.7242 37.7862 25.8846 37.3718 25.8846H21.1211ZM21.2187 22.8394H35.6452C35.2868 21.2313 34.3746 19.7912 33.0601 18.7582C31.7457 17.7252 30.1081 17.1615 28.4195 17.1608H28.382C27.4082 17.1646 26.4452 17.3592 25.5503 17.7331C24.6553 18.1071 23.8467 18.6526 23.1726 19.3374C22.2023 20.3067 21.5261 21.5187 21.2187 22.8394Z" fill="#E71539"/>
<path d="M72.264 18.16C72.264 18.352 72.192 18.52 72.048 18.664C71.904 18.792 71.736 18.856 71.544 18.856H62.472C62.472 19.816 62.664 20.68 63.048 21.448C63.448 22.2 64.008 22.8 64.728 23.248C65.464 23.68 66.328 23.896 67.32 23.896C68.088 23.896 68.776 23.736 69.384 23.416C69.992 23.096 70.48 22.688 70.848 22.192C71.024 22.048 71.192 21.976 71.352 21.976C71.512 21.976 71.656 22.04 71.784 22.168C71.912 22.296 71.976 22.44 71.976 22.6C71.976 22.776 71.896 22.944 71.736 23.104C71.224 23.728 70.576 24.24 69.792 24.64C69.024 25.04 68.208 25.24 67.344 25.24C66.112 25.24 65.024 24.976 64.08 24.448C63.136 23.92 62.4 23.184 61.872 22.24C61.344 21.28 61.08 20.176 61.08 18.928C61.08 17.616 61.336 16.472 61.848 15.496C62.376 14.504 63.072 13.752 63.936 13.24C64.8 12.712 65.72 12.448 66.696 12.448C67.656 12.448 68.552 12.672 69.384 13.12C70.232 13.568 70.92 14.224 71.448 15.088C71.976 15.952 72.248 16.976 72.264 18.16ZM66.696 13.84C65.768 13.84 64.904 14.16 64.104 14.8C63.32 15.44 62.816 16.36 62.592 17.56H70.776V17.368C70.696 16.648 70.456 16.024 70.056 15.496C69.656 14.952 69.152 14.544 68.544 14.272C67.952 13.984 67.336 13.84 66.696 13.84ZM89.1519 12.64C90.5919 12.64 91.6479 13.088 92.3199 13.984C93.0079 14.864 93.3519 16.032 93.3519 17.488V24.28C93.3519 24.488 93.2799 24.664 93.1359 24.808C93.0079 24.936 92.8399 25 92.6319 25C92.4239 25 92.2479 24.936 92.1039 24.808C91.9759 24.664 91.9119 24.488 91.9119 24.28V17.56C91.9119 16.504 91.6559 15.648 91.1439 14.992C90.6479 14.32 89.8719 13.984 88.8159 13.984C88.1439 13.984 87.5039 14.144 86.8959 14.464C86.3039 14.784 85.8239 15.224 85.4559 15.784C85.0879 16.328 84.9039 16.92 84.9039 17.56V24.28C84.9039 24.488 84.8319 24.664 84.6879 24.808C84.5599 24.936 84.3919 25 84.1839 25C83.9759 25 83.7999 24.936 83.6559 24.808C83.5279 24.664 83.4639 24.488 83.4639 24.28V17.488C83.4639 16.448 83.2239 15.608 82.7439 14.968C82.2639 14.312 81.5119 13.984 80.4879 13.984C79.8319 13.984 79.2079 14.144 78.6159 14.464C78.0399 14.784 77.5679 15.216 77.1999 15.76C76.8479 16.288 76.6719 16.864 76.6719 17.488V24.28C76.6719 24.488 76.5999 24.664 76.4559 24.808C76.3279 24.936 76.1599 25 75.9519 25C75.7439 25 75.5679 24.936 75.4239 24.808C75.2959 24.664 75.2319 24.488 75.2319 24.28V13.528C75.2319 13.32 75.2959 13.152 75.4239 13.024C75.5679 12.88 75.7439 12.808 75.9519 12.808C76.1599 12.808 76.3279 12.88 76.4559 13.024C76.5999 13.152 76.6719 13.32 76.6719 13.528V14.92C77.1039 14.264 77.6879 13.72 78.4239 13.288C79.1599 12.856 79.9359 12.64 80.7519 12.64C81.6799 12.64 82.4799 12.864 83.1519 13.312C83.8239 13.76 84.3039 14.416 84.5919 15.28C84.9279 14.576 85.5439 13.96 86.4399 13.432C87.3359 12.904 88.2399 12.64 89.1519 12.64ZM102.955 12.64C104.011 12.64 104.971 12.912 105.835 13.456C106.699 13.984 107.371 14.728 107.851 15.688C108.347 16.632 108.595 17.696 108.595 18.88C108.595 20.08 108.347 21.16 107.851 22.12C107.371 23.064 106.699 23.808 105.835 24.352C104.987 24.896 104.035 25.168 102.979 25.168C102.051 25.168 101.195 24.952 100.411 24.52C99.6426 24.072 99.0266 23.48 98.5626 22.744V29.08C98.5626 29.288 98.4906 29.456 98.3466 29.584C98.2186 29.728 98.0506 29.8 97.8426 29.8C97.6346 29.8 97.4586 29.728 97.3146 29.584C97.1866 29.456 97.1226 29.288 97.1226 29.08V13.432C97.1226 13.224 97.1866 13.048 97.3146 12.904C97.4586 12.76 97.6346 12.688 97.8426 12.688C98.0506 12.688 98.2186 12.76 98.3466 12.904C98.4906 13.048 98.5626 13.224 98.5626 13.432V15.064C98.9786 14.312 99.5786 13.72 100.363 13.288C101.147 12.856 102.011 12.64 102.955 12.64ZM102.835 23.824C103.667 23.824 104.411 23.616 105.067 23.2C105.739 22.768 106.259 22.176 106.627 21.424C107.011 20.672 107.203 19.824 107.203 18.88C107.203 17.952 107.011 17.12 106.627 16.384C106.259 15.632 105.739 15.048 105.067 14.632C104.411 14.2 103.667 13.984 102.835 13.984C101.987 13.984 101.227 14.192 100.555 14.608C99.8826 15.024 99.3626 15.608 98.9946 16.36C98.6266 17.096 98.4426 17.936 98.4426 18.88C98.4426 19.824 98.6266 20.672 98.9946 21.424C99.3626 22.176 99.8826 22.768 100.555 23.2C101.227 23.616 101.987 23.824 102.835 23.824ZM122.888 18.856C122.888 20.056 122.624 21.144 122.096 22.12C121.568 23.096 120.84 23.864 119.912 24.424C118.984 24.968 117.952 25.24 116.816 25.24C115.68 25.24 114.648 24.968 113.72 24.424C112.792 23.864 112.064 23.096 111.536 22.12C111.008 21.144 110.744 20.056 110.744 18.856C110.744 17.656 111.008 16.568 111.536 15.592C112.064 14.616 112.792 13.848 113.72 13.288C114.648 12.728 115.68 12.448 116.816 12.448C117.952 12.448 118.984 12.728 119.912 13.288C120.84 13.848 121.568 14.616 122.096 15.592C122.624 16.568 122.888 17.656 122.888 18.856ZM121.448 18.856C121.448 17.896 121.248 17.032 120.848 16.264C120.448 15.496 119.888 14.896 119.168 14.464C118.464 14.016 117.68 13.792 116.816 13.792C115.952 13.792 115.168 14.016 114.464 14.464C113.76 14.896 113.2 15.496 112.784 16.264C112.384 17.032 112.184 17.896 112.184 18.856C112.184 19.8 112.384 20.656 112.784 21.424C113.2 22.192 113.76 22.8 114.464 23.248C115.168 23.68 115.952 23.896 116.816 23.896C117.68 23.896 118.464 23.68 119.168 23.248C119.888 22.816 120.448 22.216 120.848 21.448C121.248 20.68 121.448 19.816 121.448 18.856ZM140.402 12.472C140.61 12.472 140.778 12.536 140.906 12.664C141.05 12.792 141.122 12.968 141.122 13.192C141.122 13.208 141.098 13.312 141.05 13.504L137.354 24.544C137.274 24.688 137.17 24.808 137.042 24.904C136.914 24.984 136.778 25.016 136.634 25C136.49 25 136.362 24.96 136.25 24.88C136.138 24.8 136.05 24.688 135.986 24.544L132.842 17.152L130.034 24.544C129.97 24.672 129.874 24.784 129.746 24.88C129.634 24.96 129.514 25 129.386 25C129.226 25.016 129.074 24.984 128.93 24.904C128.802 24.808 128.714 24.688 128.666 24.544L124.874 13.504C124.826 13.408 124.802 13.304 124.802 13.192C124.802 12.984 124.874 12.816 125.018 12.688C125.162 12.544 125.338 12.472 125.546 12.472C125.69 12.472 125.818 12.52 125.93 12.616C126.058 12.696 126.146 12.808 126.194 12.952L129.386 22.528L132.242 15.352C132.354 15.048 132.578 14.896 132.914 14.896C133.234 14.896 133.458 15.048 133.586 15.352L136.586 22.48L139.73 12.952C139.826 12.632 140.05 12.472 140.402 12.472ZM154.248 18.16C154.248 18.352 154.176 18.52 154.032 18.664C153.888 18.792 153.72 18.856 153.528 18.856H144.456C144.456 19.816 144.648 20.68 145.032 21.448C145.432 22.2 145.992 22.8 146.712 23.248C147.448 23.68 148.312 23.896 149.304 23.896C150.072 23.896 150.76 23.736 151.368 23.416C151.976 23.096 152.464 22.688 152.832 22.192C153.008 22.048 153.176 21.976 153.336 21.976C153.496 21.976 153.64 22.04 153.768 22.168C153.896 22.296 153.96 22.44 153.96 22.6C153.96 22.776 153.88 22.944 153.72 23.104C153.208 23.728 152.56 24.24 151.776 24.64C151.008 25.04 150.192 25.24 149.328 25.24C148.096 25.24 147.008 24.976 146.064 24.448C145.12 23.92 144.384 23.184 143.856 22.24C143.328 21.28 143.064 20.176 143.064 18.928C143.064 17.616 143.32 16.472 143.832 15.496C144.36 14.504 145.056 13.752 145.92 13.24C146.784 12.712 147.704 12.448 148.68 12.448C149.64 12.448 150.536 12.672 151.368 13.12C152.216 13.568 152.904 14.224 153.432 15.088C153.96 15.952 154.232 16.976 154.248 18.16ZM148.68 13.84C147.752 13.84 146.888 14.16 146.088 14.8C145.304 15.44 144.8 16.36 144.576 17.56H152.76V17.368C152.68 16.648 152.44 16.024 152.04 15.496C151.64 14.952 151.136 14.544 150.528 14.272C149.936 13.984 149.32 13.84 148.68 13.84ZM162.952 12.448C163.272 12.448 163.56 12.512 163.816 12.64C164.072 12.768 164.2 12.96 164.2 13.216C164.2 13.44 164.136 13.624 164.008 13.768C163.88 13.896 163.728 13.96 163.552 13.96C163.472 13.96 163.312 13.92 163.072 13.84C162.848 13.76 162.632 13.72 162.424 13.72C161.832 13.72 161.24 13.952 160.648 14.416C160.072 14.864 159.592 15.448 159.208 16.168C158.84 16.888 158.656 17.616 158.656 18.352V24.28C158.656 24.488 158.584 24.664 158.44 24.808C158.312 24.936 158.144 25 157.936 25C157.728 25 157.552 24.936 157.408 24.808C157.28 24.664 157.216 24.488 157.216 24.28V13.528C157.216 13.32 157.28 13.152 157.408 13.024C157.552 12.88 157.728 12.808 157.936 12.808C158.144 12.808 158.312 12.88 158.44 13.024C158.584 13.152 158.656 13.32 158.656 13.528V15.64C159.024 14.728 159.576 13.976 160.312 13.384C161.064 12.776 161.944 12.464 162.952 12.448ZM172.307 22.288C172.531 22.288 172.731 22.4 172.907 22.624C173.099 22.832 173.195 23.112 173.195 23.464C173.195 23.896 172.955 24.264 172.475 24.568C172.011 24.856 171.483 25 170.891 25C169.899 25 169.059 24.792 168.371 24.376C167.699 23.944 167.363 23.04 167.363 21.664V15.04H166.259C165.875 15.04 165.555 14.912 165.299 14.656C165.043 14.4 164.915 14.08 164.915 13.696C164.915 13.328 165.043 13.024 165.299 12.784C165.555 12.528 165.875 12.4 166.259 12.4H167.363V10.864C167.363 10.448 167.499 10.104 167.771 9.832C168.059 9.544 168.411 9.4 168.827 9.4C169.227 9.4 169.563 9.544 169.835 9.832C170.107 10.104 170.243 10.448 170.243 10.864V12.4H171.947C172.331 12.4 172.651 12.528 172.907 12.784C173.163 13.04 173.291 13.36 173.291 13.744C173.291 14.112 173.163 14.424 172.907 14.68C172.651 14.92 172.331 15.04 171.947 15.04H170.243V21.544C170.243 21.88 170.331 22.128 170.507 22.288C170.683 22.432 170.923 22.504 171.227 22.504C171.355 22.504 171.531 22.472 171.755 22.408C171.947 22.328 172.131 22.288 172.307 22.288ZM187.338 18.28C187.322 18.664 187.17 18.976 186.882 19.216C186.594 19.456 186.258 19.576 185.874 19.576H177.954C178.146 20.52 178.586 21.264 179.274 21.808C179.962 22.336 180.738 22.6 181.602 22.6C182.258 22.6 182.77 22.544 183.138 22.432C183.506 22.304 183.794 22.176 184.002 22.048C184.226 21.904 184.378 21.808 184.458 21.76C184.746 21.616 185.018 21.544 185.274 21.544C185.61 21.544 185.898 21.664 186.138 21.904C186.378 22.144 186.498 22.424 186.498 22.744C186.498 23.176 186.274 23.568 185.826 23.92C185.378 24.288 184.778 24.6 184.026 24.856C183.274 25.112 182.514 25.24 181.746 25.24C180.402 25.24 179.226 24.96 178.218 24.4C177.226 23.84 176.458 23.072 175.914 22.096C175.37 21.104 175.098 19.992 175.098 18.76C175.098 17.384 175.386 16.176 175.962 15.136C176.538 14.096 177.298 13.304 178.242 12.76C179.186 12.2 180.194 11.92 181.266 11.92C182.322 11.92 183.314 12.208 184.242 12.784C185.186 13.36 185.938 14.136 186.498 15.112C187.058 16.088 187.338 17.144 187.338 18.28ZM181.266 14.56C179.41 14.56 178.314 15.432 177.978 17.176H184.266V17.008C184.202 16.336 183.874 15.76 183.282 15.28C182.69 14.8 182.018 14.56 181.266 14.56ZM200.225 11.92C200.641 11.92 200.985 12.056 201.257 12.328C201.529 12.6 201.665 12.952 201.665 13.384V23.536C201.665 23.952 201.529 24.304 201.257 24.592C200.985 24.864 200.641 25 200.225 25C199.809 25 199.465 24.864 199.193 24.592C198.937 24.32 198.801 23.976 198.785 23.56C198.385 24.024 197.841 24.424 197.153 24.76C196.481 25.08 195.769 25.24 195.017 25.24C193.913 25.24 192.913 24.96 192.017 24.4C191.121 23.824 190.409 23.032 189.881 22.024C189.369 21.016 189.113 19.872 189.113 18.592C189.113 17.312 189.369 16.168 189.881 15.16C190.393 14.136 191.089 13.344 191.969 12.784C192.865 12.208 193.849 11.92 194.921 11.92C195.689 11.92 196.409 12.064 197.081 12.352C197.753 12.624 198.321 12.976 198.785 13.408V13.384C198.785 12.968 198.921 12.624 199.193 12.352C199.465 12.064 199.809 11.92 200.225 11.92ZM195.377 22.6C196.417 22.6 197.265 22.224 197.921 21.472C198.577 20.704 198.905 19.744 198.905 18.592C198.905 17.44 198.577 16.48 197.921 15.712C197.265 14.944 196.417 14.56 195.377 14.56C194.353 14.56 193.513 14.944 192.857 15.712C192.201 16.48 191.873 17.44 191.873 18.592C191.873 19.744 192.193 20.704 192.833 21.472C193.489 22.224 194.337 22.6 195.377 22.6ZM219.595 11.92C221.179 11.92 222.275 12.408 222.883 13.384C223.491 14.344 223.795 15.68 223.795 17.392V23.536C223.795 23.952 223.659 24.304 223.387 24.592C223.115 24.864 222.771 25 222.355 25C221.939 25 221.595 24.864 221.323 24.592C221.051 24.304 220.915 23.952 220.915 23.536V17.392C220.915 16.512 220.739 15.824 220.387 15.328C220.051 14.816 219.451 14.56 218.587 14.56C217.691 14.56 216.987 14.832 216.475 15.376C215.979 15.904 215.731 16.576 215.731 17.392V23.536C215.731 23.952 215.595 24.304 215.323 24.592C215.051 24.864 214.707 25 214.291 25C213.875 25 213.531 24.864 213.259 24.592C212.987 24.304 212.851 23.952 212.851 23.536V17.392C212.851 16.512 212.675 15.824 212.323 15.328C211.987 14.816 211.387 14.56 210.523 14.56C209.627 14.56 208.923 14.832 208.411 15.376C207.915 15.904 207.667 16.576 207.667 17.392V23.536C207.667 23.952 207.531 24.304 207.259 24.592C206.987 24.864 206.643 25 206.227 25C205.811 25 205.467 24.864 205.195 24.592C204.923 24.304 204.787 23.952 204.787 23.536V13.624C204.787 13.208 204.923 12.864 205.195 12.592C205.467 12.304 205.811 12.16 206.227 12.16C206.643 12.16 206.987 12.304 207.259 12.592C207.531 12.864 207.667 13.208 207.667 13.624V14.008C208.099 13.432 208.643 12.944 209.299 12.544C209.971 12.128 210.715 11.92 211.531 11.92C213.547 11.92 214.835 12.8 215.395 14.56C215.763 13.888 216.315 13.28 217.051 12.736C217.803 12.192 218.651 11.92 219.595 11.92ZM226.168 23.008C226.024 22.816 225.952 22.576 225.952 22.288C225.952 21.872 226.16 21.52 226.576 21.232C226.8 21.088 227.032 21.016 227.272 21.016C227.608 21.016 227.928 21.168 228.232 21.472C228.712 21.968 229.208 22.336 229.72 22.576C230.248 22.816 230.88 22.936 231.616 22.936C232.864 22.888 233.488 22.416 233.488 21.52C233.488 21.056 233.272 20.704 232.84 20.464C232.424 20.224 231.768 19.984 230.872 19.744C229.944 19.488 229.184 19.232 228.592 18.976C228.016 18.72 227.512 18.336 227.08 17.824C226.664 17.296 226.456 16.592 226.456 15.712C226.456 14.944 226.672 14.28 227.104 13.72C227.552 13.144 228.128 12.704 228.832 12.4C229.552 12.08 230.312 11.92 231.112 11.92C231.928 11.92 232.744 12.072 233.56 12.376C234.376 12.68 235.016 13.128 235.48 13.72C235.688 13.976 235.792 14.264 235.792 14.584C235.792 14.952 235.64 15.256 235.336 15.496C235.112 15.672 234.856 15.76 234.568 15.76C234.216 15.76 233.928 15.648 233.704 15.424C233.416 15.072 233.04 14.792 232.576 14.584C232.128 14.376 231.616 14.272 231.04 14.272C229.824 14.272 229.216 14.712 229.216 15.592C229.216 15.944 229.328 16.232 229.552 16.456C229.776 16.664 230.056 16.832 230.392 16.96C230.744 17.072 231.232 17.216 231.856 17.392C232.72 17.632 233.44 17.88 234.016 18.136C234.592 18.392 235.08 18.784 235.48 19.312C235.88 19.84 236.08 20.536 236.08 21.4C236.08 22.184 235.848 22.872 235.384 23.464C234.92 24.04 234.32 24.48 233.584 24.784C232.864 25.088 232.12 25.24 231.352 25.24C230.296 25.24 229.312 25.064 228.4 24.712C227.488 24.36 226.744 23.792 226.168 23.008Z" fill="#006F7D"/>
</svg>
