<svg width="21" height="20" viewBox="0 0 21 20" fill="none" xmlns="http://www.w3.org/2000/svg">
<path fill-rule="evenodd" clip-rule="evenodd" d="M10 2H2L2 18H10V2ZM2 0C0.895431 0 0 0.895431 0 2V18C0 19.1046 0.895431 20 2 20H10C11.1046 20 12 19.1046 12 18V2C12 0.895431 11.1046 0 10 0H2Z" fill="#393F5A"/>
<path d="M0.989014 4H10.989V6H0.989014V4Z" fill="#393F5A"/>
<path d="M0.989014 8H10.989V10H0.989014V8Z" fill="#393F5A"/>
<path d="M0.989014 12H10.989V14H0.989014V12Z" fill="#393F5A"/>
<path d="M4.98901 19L4.98901 1L6.98901 1L6.98901 19L4.98901 19Z" fill="#393F5A"/>
<path d="M10.6734 8.47929C10.9511 8.64736 11.2828 8.64689 11.5604 8.47929C11.8381 8.31121 12.004 8.01082 12.004 7.67514V7.39286C12.004 6.62493 12.6009 6 13.3345 6H14.2215C14.9551 6 15.552 6.62493 15.552 7.39286V7.67468C15.552 8.01036 15.7179 8.31075 15.9955 8.47882C16.2727 8.64689 16.6049 8.64689 16.8825 8.47882L17.1158 8.33814C17.7509 7.95418 18.5665 8.18261 18.9333 8.84793L19.3768 9.65207C19.7445 10.3188 19.5267 11.1694 18.8899 11.5547L18.6566 11.6959C18.3789 11.8635 18.2131 12.1643 18.2131 12.5C18.2131 12.8357 18.3789 13.1365 18.6566 13.3041L18.8899 13.4453C19.5267 13.8302 19.7445 14.6812 19.3768 15.3479L18.9333 16.1521C18.5665 16.8169 17.7509 17.0454 17.1158 16.6619L16.8825 16.5207C16.6049 16.3526 16.2727 16.3531 15.9955 16.5207C15.7179 16.6888 15.552 16.9892 15.552 17.3249V17.6071C15.552 18.3751 14.9551 19 14.2215 19H13.3345C12.6009 19 12.004 18.3751 12.004 17.6071V17.3253C12.004 16.9896 11.8381 16.6892 11.5604 16.5212C11.2828 16.3536 10.9511 16.3526 10.6734 16.5212" stroke="#393F5A" stroke-width="2"/>
<circle cx="13.7778" cy="12.5" r="1.41667" stroke="#393F5A" stroke-width="1.5"/>
</svg>
