<svg width="20" height="20" viewBox="0 0 20 20" fill="none" xmlns="http://www.w3.org/2000/svg">
<path fill-rule="evenodd" clip-rule="evenodd" d="M8.58579 0.999971C9.36684 0.218921 10.6332 0.218924 11.4142 0.999971L19.7071 9.29286C20.0976 9.68339 20.0976 10.3166 19.7071 10.7071C19.3166 11.0976 18.6834 11.0976 18.2929 10.7071L10 2.41418L1.70711 10.7071C1.31658 11.0976 0.683417 11.0976 0.292893 10.7071C-0.0976311 10.3166 -0.0976311 9.68339 0.292893 9.29286L8.58579 0.999971Z" fill="#393F5A"/>
<path fill-rule="evenodd" clip-rule="evenodd" d="M4 6C4.55228 6 5 6.44772 5 7V18H15V7C15 6.44772 15.4477 6 16 6C16.5523 6 17 6.44772 17 7V18C17 19.1046 16.1046 20 15 20H5C3.89543 20 3 19.1046 3 18V7C3 6.44772 3.44772 6 4 6Z" fill="#393F5A"/>
<path fill-rule="evenodd" clip-rule="evenodd" d="M12 20C11.4477 20 11 19.5523 11 19L11 13L9 13L9 19C9 19.5523 8.55229 20 8 20C7.44772 20 7 19.5523 7 19L7 13C7 11.8954 7.89543 11 9 11L11 11C12.1046 11 13 11.8954 13 13L13 19C13 19.5523 12.5523 20 12 20Z" fill="#393F5A"/>
</svg>
