<svg width="40" height="40" viewBox="0 0 40 40" fill="none" xmlns="http://www.w3.org/2000/svg">
<path fill-rule="evenodd" clip-rule="evenodd" d="M2 0H0V2V30V32H2H16V28H4V4H15V8V10H21V12H25V10V8V7V6.17157L24.4142 5.58579L19.4142 0.585786L18.8284 0H18H17H15H2ZM21 8H17V4H17.1716L21 7.82843V8ZM6 12V14L19 14V12L6 12ZM6 18V16H16V18H6ZM6 20V22H13V20H6Z" fill="#A0AEC0"/>
<path fill-rule="evenodd" clip-rule="evenodd" d="M24 14H34V16H30V18.0448C31.1655 18.1499 32.2786 18.4367 33.3107 18.8768L30.1014 22.0861C29.7426 22.0294 29.3747 22 29 22C25.134 22 22 25.134 22 29C22 32.866 25.134 36 29 36C32.866 36 36 32.866 36 29C36 28.5323 35.9541 28.0753 35.8667 27.6333L39.0279 24.4721C39.6524 25.853 40 27.3859 40 29C40 35.0751 35.0751 40 29 40C22.9249 40 18 35.0751 18 29C18 23.262 22.3935 18.5501 28 18.0448V16H24V14ZM27 31V28.292L34.9867 20.3054L37.6946 23.0133L29.708 31H27ZM39.7888 19.901C40.0704 20.1826 40.0704 20.6376 39.7888 20.9192L38.4673 22.2407L35.7593 19.5327L37.0808 18.2112C37.3624 17.9296 37.8174 17.9296 38.099 18.2112L39.7888 19.901Z" fill="#A0AEC0"/>
</svg>
