<svg width="40" height="40" viewBox="0 0 40 40" fill="none" xmlns="http://www.w3.org/2000/svg">
<path fill-rule="evenodd" clip-rule="evenodd" d="M2 0H0V2V30V32H2H16V28H4V4H15V8V10H21V12H25V10V8V7V6.17157L24.4142 5.58579L19.4142 0.585786L18.8284 0H18H17H15H2ZM21 8H17V4H17.1716L21 7.82843V8ZM7.46667 14.1818L6 15.6364L10.4 20L17 13.4545L15.5333 12L10.4 17.0909L7.46667 14.1818Z" fill="#4A5568"/>
<path fill-rule="evenodd" clip-rule="evenodd" d="M34 14H24V16H28V18.0448C22.3935 18.5501 18 23.262 18 29C18 35.0751 22.9249 40 29 40C35.0751 40 40 35.0751 40 29C40 23.262 35.6065 18.5501 30 18.0448V16H34V14ZM36 29C36 32.866 32.866 36 29 36C25.134 36 22 32.866 22 29C22 25.134 25.134 22 29 22C32.866 22 36 25.134 36 29ZM29 29V24C31.7614 24 34 26.2386 34 29C34 31.7614 31.7614 34 29 34C26.2386 34 24 31.7614 24 29C24 27.6193 24.5596 26.3693 25.4645 25.4645L29 29Z" fill="#0575E6"/>
</svg>
