<svg width="40" height="40" viewBox="0 0 40 40" fill="none" xmlns="http://www.w3.org/2000/svg">
<path fill-rule="evenodd" clip-rule="evenodd" d="M2 0H0V2V30V32H2H12V28H4V4H15V8V10H21V14H25V10V8V7V6.17157L24.4142 5.58579L19.4142 0.585786L18.8284 0H18H17H15H2ZM21 8H17V4H17.1716L21 7.82843V8ZM6 20V22H15V20H6ZM6 26V24H12V26H6ZM10.2617 13.4951C10.4115 13.6514 10.4863 13.863 10.4863 14.1299C10.4863 14.387 10.4033 14.5921 10.2373 14.7451C10.0713 14.8949 9.84505 14.9697 9.55859 14.9697C9.21354 14.9697 8.94824 14.8672 8.7627 14.6621C8.5804 14.4538 8.48926 14.1559 8.48926 13.7686H7.07812C7.07812 14.4359 7.26042 14.9714 7.625 15.375C7.99284 15.7754 8.51042 16.0114 9.17773 16.083V17.0498H9.9541V16.0781C10.5596 16.0163 11.0348 15.8128 11.3799 15.4678C11.7249 15.1227 11.8975 14.6735 11.8975 14.1201C11.8975 13.8239 11.8519 13.5651 11.7607 13.3438C11.6696 13.1191 11.5378 12.9206 11.3652 12.748C11.1927 12.5723 10.9811 12.416 10.7305 12.2793C10.4798 12.1393 10.1592 11.9912 9.76855 11.835C9.38118 11.6787 9.11589 11.5257 8.97266 11.376C8.82943 11.2262 8.75781 11.0277 8.75781 10.7803C8.75781 10.5133 8.83105 10.305 8.97754 10.1553C9.12402 10.0023 9.33073 9.92578 9.59766 9.92578C9.86784 9.92578 10.0827 10.0234 10.2422 10.2188C10.4049 10.4108 10.4863 10.7021 10.4863 11.0928H11.8975C11.8975 10.458 11.7347 9.94206 11.4092 9.54492C11.0837 9.14453 10.6328 8.90365 10.0566 8.82227V7.7627H9.27539V8.80762C8.69271 8.86621 8.22559 9.07129 7.87402 9.42285C7.52246 9.77441 7.34668 10.2253 7.34668 10.7754C7.34668 11.0944 7.39714 11.3695 7.49805 11.6006C7.60221 11.8317 7.74544 12.0335 7.92773 12.2061C8.11328 12.3753 8.33464 12.5267 8.5918 12.6602C8.84896 12.7904 9.15495 12.9222 9.50977 13.0557C9.86458 13.1891 10.1152 13.3356 10.2617 13.4951Z" fill="#4A5568"/>
<path fill-rule="evenodd" clip-rule="evenodd" d="M36 28C36 32.4183 32.4183 36 28 36C23.5817 36 20 32.4183 20 28C20 23.5817 23.5817 20 28 20C32.4183 20 36 23.5817 36 28ZM40 28C40 34.6274 34.6274 40 28 40C21.3726 40 16 34.6274 16 28C16 21.3726 21.3726 16 28 16C34.6274 16 40 21.3726 40 28ZM29.162 33.6075V31.3084C29.162 31.0717 29.0317 30.9533 28.7712 30.9533H26.9409C26.6667 30.9533 26.5296 31.0779 26.5296 31.3271V33.5888C26.5296 33.8629 26.6667 34 26.9409 34H28.7712C29.0317 34 29.162 33.8692 29.162 33.6075ZM29.1414 29.3458V28.8598C29.1414 28.5607 29.3196 28.2617 29.6761 27.9626L31.0746 26.9346C31.6915 26.4486 32 25.9003 32 25.2897V25.028C32 24.0561 31.7052 23.3084 31.1157 22.785C30.5261 22.2617 29.6898 22 28.6067 22H27.3933C26.3102 22 25.4739 22.2617 24.8843 22.785C24.2948 23.3084 24 24.0561 24 25.028V25.4579C24 25.7321 24.144 25.8692 24.4319 25.8692H26.1799C26.4679 25.8692 26.6118 25.7321 26.6118 25.4579V25.0654C26.6118 24.6667 26.7009 24.3863 26.8792 24.2243C27.0711 24.0623 27.3796 23.9813 27.8046 23.9813H28.1748C28.6272 23.9813 28.9494 24.0685 29.1414 24.243C29.347 24.405 29.4499 24.6791 29.4499 25.0654V25.1776C29.4499 25.5514 29.2305 25.8941 28.7918 26.2056L27.6401 27.0654C27.2836 27.3271 27.03 27.5888 26.8792 27.8505C26.7284 28.0997 26.653 28.4299 26.653 28.8411V29.3458C26.653 29.6075 26.7969 29.7383 27.0848 29.7383H28.7095C28.9974 29.7383 29.1414 29.6075 29.1414 29.3458Z" fill="#0575E6"/>
</svg>
