<svg width="40" height="40" viewBox="0 0 40 40" fill="none" xmlns="http://www.w3.org/2000/svg">
<path fill-rule="evenodd" clip-rule="evenodd" d="M2 0H0V2V30V32H2H13V28H4V4H15V8V10H21V13H25V10V8V7V6.17157L24.4142 5.58579L19.4142 0.585786L18.8284 0H18H17H15H2ZM21 8H17V4H17.1716L21 7.82843V8ZM6 12V14L18 14V12H6ZM6 18V16H15V18H6ZM6 20V22H12V20H6Z" fill="#A0AEC0"/>
<path fill-rule="evenodd" clip-rule="evenodd" d="M37.0509 28.7125C37.1023 28.3125 37.1408 27.9125 37.1408 27.5C37.1408 27.0875 37.1023 26.675 37.0509 26.25L39.7624 24.2125C40.0065 24.025 40.0708 23.6875 39.9166 23.4125L37.3464 19.0875C37.1922 18.8125 36.8453 18.7 36.5626 18.8125L33.3627 20.0625C32.6945 19.575 32.0006 19.15 31.191 18.8375L30.7155 15.525C30.6641 15.225 30.3942 15 30.073 15H24.9327C24.6114 15 24.3416 15.225 24.2902 15.525L23.8147 18.8375C23.0051 19.15 22.3112 19.575 21.6429 20.0625L18.4431 18.8125C18.1604 18.7 17.8134 18.8125 17.6592 19.0875L15.0891 23.4125C14.922 23.6875 14.9991 24.025 15.2433 24.2125L17.9548 26.25C17.9034 26.675 17.8648 27.0875 17.8648 27.5C17.8648 27.9125 17.9034 28.3125 17.9548 28.7125L15.2433 30.7875C14.9991 30.975 14.922 31.3125 15.0891 31.5875L17.6592 35.9125C17.8134 36.1875 18.1604 36.2875 18.4431 36.1875L21.6429 34.925C22.3112 35.425 23.0051 35.85 23.8147 36.1625L24.2902 39.475C24.3416 39.775 24.6114 40 24.9327 40H30.073C30.3942 40 30.6641 39.775 30.7155 39.475L31.191 36.1625C32.0006 35.8375 32.6945 35.425 33.3627 34.925L36.5626 36.1875C36.8453 36.2875 37.1922 36.1875 37.3464 35.9125L39.9166 31.5875C40.0708 31.3125 40.0065 30.975 39.7624 30.7875L37.0509 28.7125ZM34 27.5C34 31.0899 31.0899 34 27.5 34C23.9101 34 21 31.0899 21 27.5C21 23.9101 23.9101 21 27.5 21C31.0899 21 34 23.9101 34 27.5ZM24.2 25.9091L23 27.1818L26.6 31L32 25.2727L30.8 24L26.6 28.4545L24.2 25.9091Z" fill="#A0AEC0"/>
</svg>
