<svg width="20" height="20" viewBox="0 0 20 20" fill="none" xmlns="http://www.w3.org/2000/svg">
<path fill-rule="evenodd" clip-rule="evenodd" d="M12.0706 2.27259L10 0L7.92945 2.27259L5 1.33975L4.34315 4.34315L1.33975 5L2.27259 7.92945L0 10L2.27259 12.0706L1.33975 15L4.34315 15.6569L5 18.6603L7.92945 17.7274L10 20L12.0706 17.7274L15 18.6603L15.6569 15.6569L18.6603 15L17.7274 12.0706L20 10L17.7274 7.92945L18.6603 5L15.6569 4.34315L15 1.33975L12.0706 2.27259ZM13.5152 3.91152L11.4557 4.56735L10 2.96963L8.54432 4.56735L6.48482 3.91152L6.02302 6.02302L3.91152 6.48482L4.56735 8.54432L2.96963 10L4.56735 11.4557L3.91152 13.5152L6.02302 13.977L6.48482 16.0885L8.54432 15.4326L10 17.0304L11.4557 15.4326L13.5152 16.0885L13.977 13.977L16.0885 13.5152L15.4326 11.4557L17.0304 10L15.4326 8.54432L16.0885 6.48482L13.977 6.02302L13.5152 3.91152Z" fill="#4A5568"/>
<path fill-rule="evenodd" clip-rule="evenodd" d="M11 5.5H9V11.5H11V5.5ZM11 12.5H9V14.5H11V12.5Z" fill="#0575E6"/>
</svg>
