<svg width="20" height="20" viewBox="0 0 20 20" fill="none" xmlns="http://www.w3.org/2000/svg">
<path fill-rule="evenodd" clip-rule="evenodd" d="M0 18V0H0.000977393H2H13H15H15.001V0.000976563L18 3V5V9H16V5H13V2H2L2 16H5.00098V18H2H0.000977393H0ZM11 4H4V5H11V4ZM4 7H9V8H4V7Z" fill="#718096"/>
<path d="M13 13C12.4937 13 12.0081 13.2107 11.6501 13.5858C11.292 13.9609 11.0909 14.4696 11.0909 15C11.0909 15.5304 11.292 16.0391 11.6501 16.4142C12.0081 16.7893 12.4937 17 13 17C13.5063 17 13.9919 16.7893 14.3499 16.4142C14.708 16.0391 14.9091 15.5304 14.9091 15C14.9091 14.4696 14.708 13.9609 14.3499 13.5858C13.9919 13.2107 13.5063 13 13 13ZM13 18.3333C12.1561 18.3333 11.3468 17.9821 10.7501 17.357C10.1534 16.7319 9.81818 15.8841 9.81818 15C9.81818 14.1159 10.1534 13.2681 10.7501 12.643C11.3468 12.0179 12.1561 11.6667 13 11.6667C13.8439 11.6667 14.6532 12.0179 15.2499 12.643C15.8466 13.2681 16.1818 14.1159 16.1818 15C16.1818 15.8841 15.8466 16.7319 15.2499 17.357C14.6532 17.9821 13.8439 18.3333 13 18.3333V18.3333ZM13 10C9.81818 10 7.10091 12.0733 6 15C7.10091 17.9267 9.81818 20 13 20C16.1818 20 18.8991 17.9267 20 15C18.8991 12.0733 16.1818 10 13 10Z" fill="#718096"/>
</svg>
