<svg width="20" height="20" viewBox="0 0 20 20" fill="none" xmlns="http://www.w3.org/2000/svg">
<path fill-rule="evenodd" clip-rule="evenodd" d="M5.00024 6V4H2V18H18.001V4H15.0007V6H14.0007V4H12.0005V6H11.0005V4H9.00039V6H8.00039V4H6.00024V6H5.00024ZM11.0005 2H9.00039V0H8.00039V2H6.00024V0H5.00024V2H2H0V4V18V20H2H18.001H20.001V18V4V2H18.001H15.0007V0H14.0007V2H12.0005V0H11.0005V2Z" fill="#A0AEC0"/>
<path d="M5.59985 14.1671V16.0002H7.43302L12.8396 10.5938L11.0065 8.76076L5.59985 14.1671ZM14.2573 9.17625C14.4479 8.98561 14.4479 8.67766 14.2573 8.48702L13.1134 7.34318C12.9228 7.15254 12.6148 7.15254 12.4241 7.34318L11.5295 8.23772L13.3627 10.0708L14.2573 9.17625V9.17625Z" fill="#A0AEC0"/>
</svg>
