<svg width="20" height="20" viewBox="0 0 20 20" fill="none" xmlns="http://www.w3.org/2000/svg">
<path d="M5 2V4C5 4.55228 5.44772 5 6 5L14 5C14.5523 5 15 4.55228 15 4V2C15 1.44772 14.5523 1 14 1L6 1C5.44772 1 5 1.44772 5 2Z" stroke="#5C7FF3" stroke-width="2"/>
<path d="M5 11L15 11C15.5523 11 16 10.5523 16 10C16 9.44772 15.5523 9 15 9L5 9C4.44771 9 4 9.44772 4 10C4 10.5523 4.44771 11 5 11Z" fill="#5C7FF3"/>
<path d="M5 15H11C11.5523 15 12 14.5523 12 14C12 13.4477 11.5523 13 11 13H5C4.44772 13 4 13.4477 4 14C4 14.5523 4.44772 15 5 15Z" fill="#5C7FF3"/>
<path fill-rule="evenodd" clip-rule="evenodd" d="M14 4H18V18H2V4H6V2H2C0.895431 2 0 2.89543 0 4V18C0 19.1046 0.895431 20 2 20H18C19.1046 20 20 19.1046 20 18V4C20 2.89543 19.1046 2 18 2H14V4Z" fill="#5C7FF3"/>
</svg>
