<svg width="20" height="20" viewBox="0 0 21 20" fill="none" xmlns="http://www.w3.org/2000/svg">
<path fill-rule="evenodd" clip-rule="evenodd" d="M10.989 2H2.98901L2.98901 18H10.989V2ZM2.98901 0C1.88444 0 0.989014 0.895431 0.989014 2V18C0.989014 19.1046 1.88444 20 2.98901 20H10.989C12.0936 20 12.989 19.1046 12.989 18V2C12.989 0.895431 12.0936 0 10.989 0H2.98901Z" fill="#5C7FF3"/>
<path fill-rule="evenodd" clip-rule="evenodd" d="M18.989 8H12.989V18H15.989C17.6459 18 18.989 16.6569 18.989 15V8ZM12.989 6C11.8844 6 10.989 6.89543 10.989 8V20H15.989C18.7504 20 20.989 17.7614 20.989 15V8C20.989 6.89543 20.0936 6 18.989 6H12.989Z" fill="#5C7FF3"/>
<path d="M1.98901 4H11.989V6H1.98901V4Z" fill="#5C7FF3"/>
<path d="M1.98901 8H11.989V10H1.98901V8Z" fill="#5C7FF3"/>
<path d="M1.98901 12H11.989V14H1.98901V12Z" fill="#5C7FF3"/>
<path d="M5.98901 19L5.98901 1L7.98901 1L7.98901 19L5.98901 19Z" fill="#5C7FF3"/>
<path d="M13.989 11C13.989 10.4477 14.4367 10 14.989 10H16.989C17.5413 10 17.989 10.4477 17.989 11C17.989 11.5523 17.5413 12 16.989 12H14.989C14.4367 12 13.989 11.5523 13.989 11Z" fill="#5C7FF3"/>
<path d="M13.989 15C13.989 14.4477 14.4367 14 14.989 14H16.989C17.5413 14 17.989 14.4477 17.989 15C17.989 15.5523 17.5413 16 16.989 16H14.989C14.4367 16 13.989 15.5523 13.989 15Z" fill="#5C7FF3"/>
</svg>
