<svg width="20" height="20" viewBox="0 0 20 20" fill="none" xmlns="http://www.w3.org/2000/svg">
<path d="M9.98901 19C14.4073 19 17.989 15.4183 17.989 11C17.989 6.58172 14.4073 3 9.98901 3C5.57074 3 1.98901 6.58172 1.98901 11C1.98901 15.4183 5.57074 19 9.98901 19Z" stroke="#5C7FF3" stroke-width="2"/>
<path d="M15 11C15 13.7614 12.7614 16 10 16C7.57879 16 5.55953 14.279 5.09873 11.9936C4.98957 11.4522 5.44745 11 5.99973 11C7.67216 11 10 11 10 11C10 11 10 8.67216 10 6.99973C10 6.44745 10.4522 5.98957 10.9936 6.09873C13.279 6.55953 15 8.57879 15 11Z" fill="#5C7FF3"/>
<path d="M13.989 0H5.98901C5.43673 0 4.98901 0.447715 4.98901 1C4.98901 1.55228 5.43673 2 5.98901 2H13.989C14.5413 2 14.989 1.55228 14.989 1C14.989 0.447715 14.5413 0 13.989 0Z" fill="#5C7FF3"/>
<path d="M7.98901 1V3L11.989 3V1L7.98901 1Z" fill="#5C7FF3"/>
</svg>
