<svg width="20" height="20" viewBox="0 0 20 20" fill="none" xmlns="http://www.w3.org/2000/svg">
<path d="M12 1H4C2.34315 1 1 2.34315 1 4V14.865L4.80355 11.6953C5.34269 11.246 6.02229 11 6.7241 11H12C13.6569 11 15 9.65685 15 8V4C15 2.34315 13.6569 1 12 1Z" stroke="#5C7FF3" stroke-width="2"/>
<path fill-rule="evenodd" clip-rule="evenodd" d="M8 11V12C8 13.1046 8.89543 14 10 14H13.3944C14.1841 14 14.9562 14.2338 15.6132 14.6718L18 16.263V8C18 6.89543 17.1046 6 16 6H15L15 4H16C18.2091 4 20 5.79086 20 8V18.1315C20 18.9302 19.1099 19.4066 18.4453 18.9635L14.5038 16.3359C14.1753 16.1169 13.7893 16 13.3944 16H10C7.79086 16 6 14.2091 6 12V11L8 11Z" fill="#5C7FF3"/>
</svg>
