<svg width="21" height="20" viewBox="0 0 21 20" fill="none" xmlns="http://www.w3.org/2000/svg">
<path d="M12.4355 13.435L13.5568 12.3137C13.9473 11.9232 14.5805 11.9232 14.971 12.3137L17.0923 14.435C17.4829 14.8255 17.4829 15.4587 17.0923 15.8492L15.6781 17.2634L15.111 17.8305C15.0703 17.8712 15.0508 17.8844 15.0478 17.8864C14.7585 18.0355 13.7661 18.4639 12.2222 18.2408C10.679 18.0177 8.47087 17.1273 5.77862 14.435C3.08636 11.7428 2.19589 9.53467 1.97284 7.99146C1.7497 6.44756 2.17817 5.45512 2.32727 5.16584C2.32925 5.16277 2.34244 5.14328 2.38312 5.1026L2.95019 4.53553L4.3644 3.12131C4.75493 2.73079 5.38809 2.73079 5.77862 3.12131L7.89994 5.24263C8.29046 5.63316 8.29046 6.26632 7.89994 6.65685L6.77862 7.77817C6.41539 8.1414 6.13161 8.71888 6.26229 9.38154C6.39565 10.0578 6.78492 11.1987 7.89994 12.3137C9.01496 13.4287 10.1559 13.818 10.8321 13.9513C11.4948 14.082 12.0722 13.7983 12.4355 13.435Z" stroke="#9FA5B7" stroke-width="2"/>
<path d="M12.0117 4.52201C12.8717 4.68981 13.6621 5.11042 14.2817 5.73001C14.9013 6.3496 15.3219 7.13998 15.4897 8M12.0117 1C13.7985 1.1985 15.4647 1.99864 16.7367 3.26906C18.0087 4.53948 18.811 6.20466 19.0117 7.99119" stroke="#9FA5B7" stroke-width="2" stroke-linecap="round" stroke-linejoin="round"/>
</svg>
