<svg width="20" height="21" viewBox="0 0 20 21" fill="none" xmlns="http://www.w3.org/2000/svg">
<path d="M10.8892 11.3213C10.8892 11.0723 10.8013 10.8818 10.6255 10.75C10.4497 10.6152 10.1333 10.4746 9.67627 10.3281C9.21924 10.1787 8.85742 10.0322 8.59082 9.88867C7.86426 9.49609 7.50098 8.96729 7.50098 8.30225C7.50098 7.95654 7.59766 7.64893 7.79102 7.37939C7.9873 7.10693 8.26709 6.89453 8.63037 6.74219C8.99658 6.58984 9.40674 6.51367 9.86084 6.51367C10.3179 6.51367 10.7251 6.59717 11.0825 6.76416C11.4399 6.92822 11.7168 7.16113 11.9131 7.46289C12.1123 7.76465 12.2119 8.10742 12.2119 8.49121H10.8936C10.8936 8.19824 10.8013 7.97119 10.6167 7.81006C10.4321 7.646 10.1729 7.56396 9.83887 7.56396C9.5166 7.56396 9.26611 7.63281 9.0874 7.77051C8.90869 7.90527 8.81934 8.08398 8.81934 8.30664C8.81934 8.51465 8.92334 8.68896 9.13135 8.82959C9.34229 8.97021 9.65137 9.10205 10.0586 9.2251C10.8086 9.45068 11.355 9.73047 11.6978 10.0645C12.0405 10.3984 12.2119 10.8145 12.2119 11.3125C12.2119 11.8662 12.0024 12.3013 11.5835 12.6177C11.1646 12.9312 10.6006 13.0879 9.8916 13.0879C9.39941 13.0879 8.95117 12.9985 8.54688 12.8198C8.14258 12.6382 7.8335 12.3906 7.61963 12.0771C7.40869 11.7637 7.30322 11.4004 7.30322 10.9873H8.62598C8.62598 11.6934 9.04785 12.0464 9.8916 12.0464C10.2051 12.0464 10.4497 11.9834 10.6255 11.8574C10.8013 11.7285 10.8892 11.5498 10.8892 11.3213Z" fill="#9FA5B7"/>
<rect x="9" y="5.20001" width="2" height="2" rx="0.5" fill="#9FA5B7"/>
<rect x="9" y="12.1" width="2" height="2" rx="0.5" fill="#9FA5B7"/>
<rect x="4" y="6" width="6" height="2" rx="1" transform="rotate(-90 4 6)" fill="#9FA5B7"/>
<rect x="14" y="6" width="6" height="2" rx="1" transform="rotate(-90 14 6)" fill="#9FA5B7"/>
<path d="M18 9.5C18 10.0523 18.4477 10.5 19 10.5C19.5523 10.5 20 10.0523 20 9.5H18ZM3 4H17V2H3V4ZM2 14V5H0V14H2ZM18 5V9.5H20V5H18ZM11.45 15H3V17H11.45V15ZM0 14C0 15.6569 1.34314 17 3 17V15C2.44771 15 2 14.5523 2 14H0ZM17 4C17.5523 4 18 4.44772 18 5H20C20 3.34315 18.6569 2 17 2V4ZM3 2C1.34315 2 0 3.34315 0 5H2C2 4.44772 2.44772 4 3 4V2Z" fill="#9FA5B7"/>
<path d="M15 12L19 16L15 20" stroke="#9FA5B7" stroke-width="2" stroke-linecap="round" stroke-linejoin="round"/>
<path d="M8 16L17 16" stroke="#9FA5B7" stroke-width="2" stroke-linecap="round"/>
</svg>
