<svg width="20" height="20" viewBox="0 0 20 20" fill="none" xmlns="http://www.w3.org/2000/svg">
<path fill-rule="evenodd" clip-rule="evenodd" d="M4 2H16C17.1046 2 18 2.89543 18 4V11C18 12.1046 17.1046 13 16 13H6.7241C5.78835 13 4.88222 13.3281 4.16336 13.9271L2 15.7299V4C2 2.89543 2.89543 2 4 2ZM16 0C18.2091 0 20 1.79086 20 4V11C20 13.2091 18.2091 15 16 15H6.7241C6.25623 15 5.80316 15.164 5.44373 15.4636L1.64018 18.6332C0.988857 19.176 0 18.7128 0 17.865V4C0 1.79086 1.79086 0 4 0H16Z" fill="#9FA5B7"/>
<circle cx="7.5" cy="5.5" r="1.5" fill="#9FA5B7"/>
<circle cx="12.5" cy="5.5" r="1.5" fill="#9FA5B7"/>
<circle cx="7.5" cy="9.5" r="1.5" fill="#9FA5B7"/>
<circle cx="12.5" cy="9.5" r="1.5" fill="#9FA5B7"/>
</svg>
