<svg width="20" height="20" viewBox="0 0 20 20" fill="none" xmlns="http://www.w3.org/2000/svg">
<rect x="6" y="16" width="6" height="2" rx="1" transform="rotate(180 6 16)" fill="#9FA5B7"/>
<rect x="6" y="6" width="6" height="2" rx="1" transform="rotate(180 6 6)" fill="#9FA5B7"/>
<rect x="6" y="11" width="6" height="2" rx="1" transform="rotate(180 6 11)" fill="#9FA5B7"/>
<path fill-rule="evenodd" clip-rule="evenodd" d="M4 2L4 18L16 18C17.1046 18 18 17.1046 18 16L18 4C18 2.89543 17.1046 2 16 2L4 2ZM2 18C2 19.1046 2.89543 20 4 20L16 20C18.2091 20 20 18.2091 20 16L20 4C20 1.79086 18.2091 -7.08524e-07 16 -6.11959e-07L4 -8.74228e-08C2.89543 -3.91405e-08 2 0.895432 2 2L2 18Z" fill="#9FA5B7"/>
<path fill-rule="evenodd" clip-rule="evenodd" d="M12 9C13.1046 9 14 8.10457 14 7C14 5.89543 13.1046 5 12 5C10.8954 5 10 5.89543 10 7C10 8.10457 10.8954 9 12 9Z" fill="#9FA5B7"/>
<path fill-rule="evenodd" clip-rule="evenodd" d="M10.8901 10C9.29393 10 8 11.2939 8 12.8901C8 13.1221 8.13839 13.3305 8.35806 13.4051C8.97568 13.6148 10.3365 14 12 14C13.6635 14 15.0243 13.6148 15.6419 13.4051C15.8616 13.3305 16 13.1221 16 12.8901C16 11.2939 14.7061 10 13.1099 10H10.8901Z" fill="#9FA5B7"/>
</svg>
