<svg width="20" height="20" viewBox="0 0 20 20" fill="none" xmlns="http://www.w3.org/2000/svg">
<rect x="1.98828" y="18" width="16" height="2" rx="1" fill="#9FA5B7"/>
<path d="M15.9883 7C15.9883 7.49416 15.8231 8.14386 15.4809 8.92672C15.144 9.69728 14.6653 10.5309 14.109 11.3738C12.9966 13.0595 11.6268 14.7041 10.6207 15.8401C10.2764 16.2288 9.70012 16.2288 9.35591 15.8401C8.3498 14.7041 6.97999 13.0595 5.86754 11.3738C5.31131 10.5309 4.83254 9.69728 4.4957 8.92672C4.1535 8.14386 3.98828 7.49416 3.98828 7C3.98828 3.68629 6.67457 1 9.98828 1C13.302 1 15.9883 3.68629 15.9883 7Z" stroke="#9FA5B7" stroke-width="2"/>
<circle cx="9.98828" cy="7" r="2" stroke="#9FA5B7" stroke-width="2"/>
</svg>
