<svg width="21" height="20" viewBox="0 0 21 20" fill="none" xmlns="http://www.w3.org/2000/svg">
<path fill-rule="evenodd" clip-rule="evenodd" d="M10.989 2H2.98901L2.98901 14H10.989V2ZM2.98901 0C1.88444 0 0.989014 0.895431 0.989014 2V14C0.989014 15.1046 1.88444 16 2.98901 16H10.989C12.0936 16 12.989 15.1046 12.989 14V2C12.989 0.895431 12.0936 0 10.989 0H2.98901Z" fill="#9FA5B7"/>
<path d="M1.98901 4H11.989V6H1.98901V4Z" fill="#9FA5B7"/>
<path d="M1.98901 8H11.989V10H1.98901V8Z" fill="#9FA5B7"/>
<path d="M6 15L6 1L8 1L8 15L6 15Z" fill="#9FA5B7"/>
<path fill-rule="evenodd" clip-rule="evenodd" d="M15.2929 10.2929C14.9024 10.6834 14.9024 11.3166 15.2929 11.7071L18.5858 15L15.2929 18.2929C14.9024 18.6834 14.9024 19.3166 15.2929 19.7071C15.6834 20.0976 16.3166 20.0976 16.7071 19.7071L20.7071 15.7071C21.0976 15.3166 21.0976 14.6834 20.7071 14.2929L16.7071 10.2929C16.3166 9.90237 15.6834 9.90237 15.2929 10.2929Z" fill="#9FA5B7"/>
<path fill-rule="evenodd" clip-rule="evenodd" d="M8 15C8 14.4477 8.44772 14 9 14L18 14C18.5523 14 19 14.4477 19 15C19 15.5523 18.5523 16 18 16L9 16C8.44772 16 8 15.5523 8 15Z" fill="#9FA5B7"/>
</svg>
