<svg width="40" height="40" viewBox="0 0 40 40" fill="none" xmlns="http://www.w3.org/2000/svg">
<path d="M0 14C0 11.7909 1.79086 10 4 10H33V40H4C1.79086 40 0 38.2091 0 36V14Z" fill="#D7E4FE"/>
<path fill-rule="evenodd" clip-rule="evenodd" d="M18.0035 33.0042C17.4905 33.0051 16.9772 32.8099 16.5858 32.4184C16.5596 32.3923 16.5343 32.3655 16.5099 32.3383L11.5858 27.4143C10.8047 26.6333 10.8047 25.3669 11.5858 24.5859C12.3668 23.8048 13.6331 23.8048 14.4142 24.5859L18.0021 28.1737L26.59 19.5858C27.3711 18.8047 28.6374 18.8047 29.4184 19.5858C30.1995 20.3668 30.1995 21.6332 29.4184 22.4142L19.4943 32.3383C19.4699 32.3655 19.4446 32.3923 19.4185 32.4184C19.0277 32.8092 18.5156 33.0044 18.0035 33.0042Z" fill="#3356E6"/>
<path fill-rule="evenodd" clip-rule="evenodd" d="M36 12H4C2.89543 12 2 12.8954 2 14V36C2 37.1046 2.89543 38 4 38H36C37.1046 38 38 37.1046 38 36V14C38 12.8954 37.1046 12 36 12ZM4 10C1.79086 10 0 11.7909 0 14V36C0 38.2091 1.79086 40 4 40H36C38.2091 40 40 38.2091 40 36V14C40 11.7909 38.2091 10 36 10H4Z" fill="#88A6FC"/>
<path fill-rule="evenodd" clip-rule="evenodd" d="M8 9V3C8 2.44772 7.55228 2 7 2C6.44772 2 6 2.44772 6 3V9C6 9.55228 6.44772 10 7 10C7.55228 10 8 9.55228 8 9ZM7 0C5.34315 0 4 1.34315 4 3V9C4 10.6569 5.34315 12 7 12C8.65685 12 10 10.6569 10 9V3C10 1.34315 8.65685 0 7 0Z" fill="#3356E6"/>
<path fill-rule="evenodd" clip-rule="evenodd" d="M34 9V3C34 2.44772 33.5523 2 33 2C32.4477 2 32 2.44772 32 3V9C32 9.55228 32.4477 10 33 10C33.5523 10 34 9.55228 34 9ZM33 0C31.3431 0 30 1.34315 30 3V9C30 10.6569 31.3431 12 33 12C34.6569 12 36 10.6569 36 9V3C36 1.34315 34.6569 0 33 0Z" fill="#3356E6"/>
<path fill-rule="evenodd" clip-rule="evenodd" d="M4 5V9C4 10.6569 5.34315 12 7 12C8.65685 12 10 10.6569 10 9V5H30V9C30 10.6569 31.3431 12 33 12C34.6569 12 36 10.6569 36 9V5H38C39.1046 5 40 5.89543 40 7V15H0V7C0 5.89543 0.895431 5 2 5H4Z" fill="#3356E6"/>
</svg>
