<svg width="40" height="40" viewBox="0 0 40 40" fill="none" xmlns="http://www.w3.org/2000/svg">
<path fill-rule="evenodd" clip-rule="evenodd" d="M20 38C27.732 38 34 31.732 34 24C34 16.268 27.732 10 20 10C12.268 10 6 16.268 6 24C6 31.732 12.268 38 20 38ZM20 40C28.8366 40 36 32.8366 36 24C36 15.1634 28.8366 8 20 8C11.1634 8 4 15.1634 4 24C4 32.8366 11.1634 40 20 40Z" fill="#88A6FC"/>
<path d="M32 24C32 30.6274 26.6274 36 20 36C13.3726 36 8 30.6274 8 24C8 17.3726 13.3726 12 20 12C26.6274 12 32 17.3726 32 24Z" fill="#5C7FF3" fill-opacity="0.2"/>
<path fill-rule="evenodd" clip-rule="evenodd" d="M26 2H14C13.4477 2 13 2.44772 13 3C13 3.55228 13.4477 4 14 4H26C26.5523 4 27 3.55228 27 3C27 2.44772 26.5523 2 26 2ZM14 0C12.3431 0 11 1.34315 11 3C11 4.65685 12.3431 6 14 6H26C27.6569 6 29 4.65685 29 3C29 1.34315 27.6569 0 26 0H14Z" fill="#88A6FC"/>
<path fill-rule="evenodd" clip-rule="evenodd" d="M21 6H19V8H21V6ZM17 4V10H23V4H17Z" fill="#88A6FC"/>
<path fill-rule="evenodd" clip-rule="evenodd" d="M34.4142 17.5858C33.6332 16.8047 32.3668 16.8047 31.5858 17.5858C30.8047 18.3668 30.8047 19.6332 31.5858 20.4142L33.1716 22H14.6552C13.741 22 13 22.8954 13 24C13 25.1046 13.741 26 14.6552 26H33.1716L31.5858 27.5858C30.8047 28.3668 30.8047 29.6332 31.5858 30.4142C32.3668 31.1953 33.6332 31.1953 34.4142 30.4142L39.4142 25.4142C40.1953 24.6332 40.1953 23.3668 39.4142 22.5858L34.4142 17.5858Z" fill="#88A6FC"/>
</svg>
