<svg width="40" height="40" viewBox="0 0 40 40" fill="none" xmlns="http://www.w3.org/2000/svg">
<path d="M0 4C0 1.79086 1.79086 0 4 0H33V40H4C1.79086 40 0 38.2091 0 36V4Z" fill="#F0F5FE"/>
<path fill-rule="evenodd" clip-rule="evenodd" d="M36 2H4C2.89543 2 2 2.89543 2 4V36C2 37.1046 2.89543 38 4 38H36C37.1046 38 38 37.1046 38 36V4C38 2.89543 37.1046 2 36 2ZM4 0C1.79086 0 0 1.79086 0 4V36C0 38.2091 1.79086 40 4 40H36C38.2091 40 40 38.2091 40 36V4C40 1.79086 38.2091 0 36 0H4Z" fill="#88A6FC"/>
<path d="M20 18C21.1935 18 22.3381 18.4741 23.182 19.318C24.0259 20.1619 24.5 21.3065 24.5 22.5C24.5 23.6935 24.0259 24.8381 23.182 25.682C22.3381 26.5259 21.1935 27 20 27C18.8065 27 17.6619 26.5259 16.818 25.682C15.9741 24.8381 15.5 23.6935 15.5 22.5C15.5 21.3065 15.9741 20.1619 16.818 19.318C17.6619 18.4741 18.8065 18 20 18ZM20 29.25C24.9725 29.25 29 31.2638 29 33.75V40H11V33.75C11 31.2638 15.0275 29.25 20 29.25Z" fill="#88A6FC"/>
<path d="M4 11C4 9.89543 4.89543 9 6 9H31C32.1046 9 33 9.89543 33 11V11C33 12.1046 32.1046 13 31 13H6C4.89543 13 4 12.1046 4 11V11Z" fill="#88A6FC"/>
<path fill-rule="evenodd" clip-rule="evenodd" d="M27.5858 4.58579C28.3668 3.80474 29.6332 3.80474 30.4142 4.58579L35.4142 9.58579C36.1953 10.3668 36.1953 11.6332 35.4142 12.4142L30.4142 17.4142C29.6332 18.1953 28.3668 18.1953 27.5858 17.4142C26.8047 16.6332 26.8047 15.3668 27.5858 14.5858L31.1716 11L27.5858 7.41421C26.8047 6.63317 26.8047 5.36683 27.5858 4.58579Z" fill="#88A6FC"/>
</svg>
