<svg width="40" height="40" viewBox="0 0 40 40" fill="none" xmlns="http://www.w3.org/2000/svg">
<path d="M0 14C0 11.7909 1.79086 10 4 10H33V40H4C1.79086 40 0 38.2091 0 36V14Z" fill="#D7E4FE"/>
<path fill-rule="evenodd" clip-rule="evenodd" d="M36 12H4C2.89543 12 2 12.8954 2 14V36C2 37.1046 2.89543 38 4 38H36C37.1046 38 38 37.1046 38 36V14C38 12.8954 37.1046 12 36 12ZM4 10C1.79086 10 0 11.7909 0 14V36C0 38.2091 1.79086 40 4 40H36C38.2091 40 40 38.2091 40 36V14C40 11.7909 38.2091 10 36 10H4Z" fill="#88A6FC"/>
<path fill-rule="evenodd" clip-rule="evenodd" d="M8 9V3C8 2.44772 7.55228 2 7 2C6.44772 2 6 2.44772 6 3V9C6 9.55228 6.44772 10 7 10C7.55228 10 8 9.55228 8 9ZM7 0C5.34315 0 4 1.34315 4 3V9C4 10.6569 5.34315 12 7 12C8.65685 12 10 10.6569 10 9V3C10 1.34315 8.65685 0 7 0Z" fill="#3356E6"/>
<path fill-rule="evenodd" clip-rule="evenodd" d="M34 9V3C34 2.44772 33.5523 2 33 2C32.4477 2 32 2.44772 32 3V9C32 9.55228 32.4477 10 33 10C33.5523 10 34 9.55228 34 9ZM33 0C31.3431 0 30 1.34315 30 3V9C30 10.6569 31.3431 12 33 12C34.6569 12 36 10.6569 36 9V3C36 1.34315 34.6569 0 33 0Z" fill="#3356E6"/>
<path fill-rule="evenodd" clip-rule="evenodd" d="M4 5V9C4 10.6569 5.34315 12 7 12C8.65685 12 10 10.6569 10 9V5H30V9C30 10.6569 31.3431 12 33 12C34.6569 12 36 10.6569 36 9V5H38C39.1046 5 40 5.89543 40 7V15H0V7C0 5.89543 0.895431 5 2 5H4Z" fill="#3356E6"/>
<path fill-rule="evenodd" clip-rule="evenodd" d="M22.5858 19.5858C21.8047 20.3668 21.8047 21.6332 22.5858 22.4142L26.1716 26L22.5858 29.5858C21.8047 30.3668 21.8047 31.6332 22.5858 32.4142C23.3668 33.1953 24.6332 33.1953 25.4142 32.4142L30.4142 27.4142C31.1953 26.6332 31.1953 25.3668 30.4142 24.5858L25.4142 19.5858C24.6332 18.8047 23.3668 18.8047 22.5858 19.5858Z" fill="#3356E6"/>
<path fill-rule="evenodd" clip-rule="evenodd" d="M31 26C31 24.8954 30.1046 24 29 24H12C10.8954 24 10 24.8954 10 26C10 27.1046 10.8954 28 12 28H29C30.1046 28 31 27.1046 31 26Z" fill="#3356E6"/>
</svg>
