<svg width="40" height="40" viewBox="0 0 40 40" fill="none" xmlns="http://www.w3.org/2000/svg">
<path d="M20 1L26 1.5V11.5L37 12V39H20V1Z" fill="#D7E4FE"/>
<path fill-rule="evenodd" clip-rule="evenodd" d="M25.3431 2H6C4.89543 2 4 2.89543 4 4V38H36V12.6569C36 12.1264 35.7893 11.6177 35.4142 11.2426L26.7574 2.58579C26.3823 2.21071 25.8736 2 25.3431 2ZM6 0C3.79086 0 2 1.79086 2 4V38C2 39.1046 2.89543 40 4 40H36C37.1046 40 38 39.1046 38 38V12.6569C38 11.596 37.5786 10.5786 36.8284 9.82843L28.1716 1.17157C27.4214 0.421427 26.404 0 25.3431 0H6Z" fill="#88A6FC"/>
<path fill-rule="evenodd" clip-rule="evenodd" d="M25 10V1.5H27V10C27 10.5523 27.4477 11 28 11H36V13H28C26.3431 13 25 11.6569 25 10Z" fill="#88A6FC"/>
<path d="M16.75 20.2857H13.25C12.7859 20.2857 12.3408 20.1051 12.0126 19.7836C11.6844 19.4621 11.5 19.0261 11.5 18.5714C11.5 18.1168 11.6844 17.6807 12.0126 17.3592C12.3408 17.0378 12.7859 16.8571 13.25 16.8571H20.25C20.7141 16.8571 21.1592 16.6765 21.4874 16.355C21.8156 16.0335 22 15.5975 22 15.1429C22 14.6882 21.8156 14.2522 21.4874 13.9307C21.1592 13.6092 20.7141 13.4286 20.25 13.4286H16.75V11.7143C16.75 11.2596 16.5656 10.8236 16.2374 10.5021C15.9092 10.1806 15.4641 10 15 10C14.5359 10 14.0908 10.1806 13.7626 10.5021C13.4344 10.8236 13.25 11.2596 13.25 11.7143V13.4286C11.8576 13.4286 10.5223 13.9704 9.53769 14.9349C8.55312 15.8994 8 17.2075 8 18.5714C8 19.9354 8.55312 21.2435 9.53769 22.208C10.5223 23.1725 11.8576 23.7143 13.25 23.7143H16.75C17.2141 23.7143 17.6592 23.8949 17.9874 24.2164C18.3156 24.5379 18.5 24.9739 18.5 25.4286C18.5 25.8832 18.3156 26.3193 17.9874 26.6408C17.6592 26.9622 17.2141 27.1429 16.75 27.1429H9.75C9.28587 27.1429 8.84075 27.3235 8.51256 27.645C8.18437 27.9665 8 28.4025 8 28.8571C8 29.3118 8.18437 29.7478 8.51256 30.0693C8.84075 30.3908 9.28587 30.5714 9.75 30.5714H13.25V32.2857C13.25 32.7404 13.4344 33.1764 13.7626 33.4979C14.0908 33.8194 14.5359 34 15 34C15.4641 34 15.9092 33.8194 16.2374 33.4979C16.5656 33.1764 16.75 32.7404 16.75 32.2857V30.5714C18.1424 30.5714 19.4777 30.0296 20.4623 29.0651C21.4469 28.1006 22 26.7925 22 25.4286C22 24.0646 21.4469 22.7565 20.4623 21.792C19.4777 20.8276 18.1424 20.2857 16.75 20.2857V20.2857Z" fill="#3356E6"/>
</svg>
