<svg width="40" height="40" viewBox="0 0 40 40" fill="none" xmlns="http://www.w3.org/2000/svg">
<path d="M20 1L26 1.5V11.5L37 12V39H20V1Z" fill="#5C7FF3" fill-opacity="0.2"/>
<path fill-rule="evenodd" clip-rule="evenodd" d="M25.3431 2H6C4.89543 2 4 2.89543 4 4V38H36V12.6569C36 12.1264 35.7893 11.6177 35.4142 11.2426L26.7574 2.58579C26.3823 2.21071 25.8736 2 25.3431 2ZM6 0C3.79086 0 2 1.79086 2 4V38C2 39.1046 2.89543 40 4 40H36C37.1046 40 38 39.1046 38 38V12.6569C38 11.596 37.5786 10.5786 36.8284 9.82843L28.1716 1.17157C27.4214 0.421427 26.404 0 25.3431 0H6Z" fill="#88A6FC"/>
<path fill-rule="evenodd" clip-rule="evenodd" d="M25 10V1.5H27V10C27 10.5523 27.4477 11 28 11H36V13H28C26.3431 13 25 11.6569 25 10Z" fill="#88A6FC"/>
<path d="M13.625 12.8571H11.375C11.0766 12.8571 10.7905 12.7367 10.5795 12.5224C10.3685 12.3081 10.25 12.0174 10.25 11.7143C10.25 11.4112 10.3685 11.1205 10.5795 10.9062C10.7905 10.6918 11.0766 10.5714 11.375 10.5714H15.875C16.1734 10.5714 16.4595 10.451 16.6705 10.2367C16.8815 10.0224 17 9.73168 17 9.42857C17 9.12547 16.8815 8.83478 16.6705 8.62045C16.4595 8.40612 16.1734 8.28571 15.875 8.28571H13.625V7.14286C13.625 6.83975 13.5065 6.54906 13.2955 6.33474C13.0845 6.12041 12.7984 6 12.5 6C12.2016 6 11.9155 6.12041 11.7045 6.33474C11.4935 6.54906 11.375 6.83975 11.375 7.14286V8.28571C10.4799 8.28571 9.62145 8.64694 8.98851 9.28992C8.35558 9.9329 8 10.805 8 11.7143C8 12.6236 8.35558 13.4957 8.98851 14.1387C9.62145 14.7816 10.4799 15.1429 11.375 15.1429H13.625C13.9234 15.1429 14.2095 15.2633 14.4205 15.4776C14.6315 15.6919 14.75 15.9826 14.75 16.2857C14.75 16.5888 14.6315 16.8795 14.4205 17.0938C14.2095 17.3082 13.9234 17.4286 13.625 17.4286H9.125C8.82663 17.4286 8.54048 17.549 8.3295 17.7633C8.11853 17.9776 8 18.2683 8 18.5714C8 18.8745 8.11853 19.1652 8.3295 19.3796C8.54048 19.5939 8.82663 19.7143 9.125 19.7143H11.375V20.8571C11.375 21.1602 11.4935 21.4509 11.7045 21.6653C11.9155 21.8796 12.2016 22 12.5 22C12.7984 22 13.0845 21.8796 13.2955 21.6653C13.5065 21.4509 13.625 21.1602 13.625 20.8571V19.7143C14.5201 19.7143 15.3785 19.3531 16.0115 18.7101C16.6444 18.0671 17 17.195 17 16.2857C17 15.3764 16.6444 14.5043 16.0115 13.8613C15.3785 13.2184 14.5201 12.8571 13.625 12.8571V12.8571Z" fill="#88A6FC"/>
<path fill-rule="evenodd" clip-rule="evenodd" d="M34.4142 22.5858C33.6332 21.8047 32.3668 21.8047 31.5858 22.5858C30.8047 23.3668 30.8047 24.6332 31.5858 25.4142L33.1716 27H10.931C9.86455 27 9 27.8954 9 29C9 30.1046 9.86455 31 10.931 31H33.1716L31.5858 32.5858C30.8047 33.3668 30.8047 34.6332 31.5858 35.4142C32.3668 36.1953 33.6332 36.1953 34.4142 35.4142L39.4142 30.4142C40.1953 29.6332 40.1953 28.3668 39.4142 27.5858L34.4142 22.5858Z" fill="#88A6FC"/>
</svg>
