<svg width="40" height="40" viewBox="0 0 40 40" fill="none" xmlns="http://www.w3.org/2000/svg">
<path d="M1 3C1 1.89543 1.89543 1 3 1H32V39H5C2.79086 39 1 37.2091 1 35V3Z" fill="#D7E4FE"/>
<path fill-rule="evenodd" clip-rule="evenodd" d="M36 2H4C2.89543 2 2 2.89543 2 4V36C2 37.1046 2.89543 38 4 38H36C37.1046 38 38 37.1046 38 36V4C38 2.89543 37.1046 2 36 2ZM4 0C1.79086 0 0 1.79086 0 4V36C0 38.2091 1.79086 40 4 40H36C38.2091 40 40 38.2091 40 36V4C40 1.79086 38.2091 0 36 0H4Z" fill="#88A6FC"/>
<path fill-rule="evenodd" clip-rule="evenodd" d="M1 8V10H39V8H1Z" fill="#88A6FC"/>
<path fill-rule="evenodd" clip-rule="evenodd" d="M6 4H4V6H6V4Z" fill="#88A6FC"/>
<path fill-rule="evenodd" clip-rule="evenodd" d="M9 4H7V6H9V4Z" fill="#88A6FC"/>
<path fill-rule="evenodd" clip-rule="evenodd" d="M12 4H10V6H12V4Z" fill="#88A6FC"/>
<path d="M20 12C14.4778 12 10 16.3964 10 21.8182V29.4545C10 31.26 11.4944 32.7273 13.3333 32.7273H14.6667C15.7712 32.7273 16.6667 31.8318 16.6667 30.7273V26C16.6667 24.8954 15.7712 24 14.6667 24H12.2222V21.8182C12.2222 17.6018 15.7056 14.1818 20 14.1818C24.2944 14.1818 27.7778 17.6018 27.7778 21.8182V24H25.3333C24.2288 24 23.3333 24.8954 23.3333 26V30.7273C23.3333 31.8318 24.2288 32.7273 25.3333 32.7273H27.7778V33.8182H21.0909C20.4884 33.8182 20 34.3066 20 34.9091V34.9091C20 35.5116 20.4884 36 21.0909 36H26.6667C28.5056 36 30 34.5327 30 32.7273V21.8182C30 16.3964 25.5222 12 20 12Z" fill="#3356E6"/>
</svg>
