<svg width="40" height="40" viewBox="0 0 40 40" fill="none" xmlns="http://www.w3.org/2000/svg">
<path d="M1 3C1 1.89543 1.89543 1 3 1H32V39H5C2.79086 39 1 37.2091 1 35V3Z" fill="#D7E4FE"/>
<path fill-rule="evenodd" clip-rule="evenodd" d="M36 2H4C2.89543 2 2 2.89543 2 4V36C2 37.1046 2.89543 38 4 38H36C37.1046 38 38 37.1046 38 36V4C38 2.89543 37.1046 2 36 2ZM4 0C1.79086 0 0 1.79086 0 4V36C0 38.2091 1.79086 40 4 40H36C38.2091 40 40 38.2091 40 36V4C40 1.79086 38.2091 0 36 0H4Z" fill="#88A6FC"/>
<path d="M11 0H29V5C29 6.10457 28.1046 7 27 7H13C11.8954 7 11 6.10457 11 5V0Z" fill="#3356E6"/>
<path d="M6 13C6 11.8954 6.89543 11 8 11H14C15.1046 11 16 11.8954 16 13V19C16 20.1046 15.1046 21 14 21H8C6.89543 21 6 20.1046 6 19V13Z" fill="#3356E6"/>
<path fill-rule="evenodd" clip-rule="evenodd" d="M14.7071 13.2929C15.0976 13.6834 15.0976 14.3166 14.7071 14.7071L10.7071 18.7071C10.3166 19.0976 9.68342 19.0976 9.29289 18.7071L7.29289 16.7071C6.90237 16.3166 6.90237 15.6834 7.29289 15.2929C7.68342 14.9024 8.31658 14.9024 8.70711 15.2929L10 16.5858L13.2929 13.2929C13.6834 12.9024 14.3166 12.9024 14.7071 13.2929Z" fill="#D7E4FE"/>
<path d="M6 26C6 24.8954 6.89543 24 8 24H14C15.1046 24 16 24.8954 16 26V32C16 33.1046 15.1046 34 14 34H8C6.89543 34 6 33.1046 6 32V26Z" fill="#3356E6"/>
<path fill-rule="evenodd" clip-rule="evenodd" d="M14.7071 26.2929C15.0976 26.6834 15.0976 27.3166 14.7071 27.7071L10.7071 31.7071C10.3166 32.0976 9.68342 32.0976 9.29289 31.7071L7.29289 29.7071C6.90237 29.3166 6.90237 28.6834 7.29289 28.2929C7.68342 27.9024 8.31658 27.9024 8.70711 28.2929L10 29.5858L13.2929 26.2929C13.6834 25.9024 14.3166 25.9024 14.7071 26.2929Z" fill="#D7E4FE"/>
<path d="M19 14C19 13.4477 19.4477 13 20 13H33C33.5523 13 34 13.4477 34 14C34 14.5523 33.5523 15 33 15H20C19.4477 15 19 14.5523 19 14Z" fill="#3356E6"/>
<path d="M19 18C19 17.4477 19.4477 17 20 17H26C26.5523 17 27 17.4477 27 18C27 18.5523 26.5523 19 26 19H20C19.4477 19 19 18.5523 19 18Z" fill="#3356E6"/>
<path d="M19 29C19 28.4477 19.4477 28 20 28H29C29.5523 28 30 28.4477 30 29C30 29.5523 29.5523 30 29 30H20C19.4477 30 19 29.5523 19 29Z" fill="#3356E6"/>
</svg>
