<svg width="40" height="40" viewBox="0 0 40 40" fill="none" xmlns="http://www.w3.org/2000/svg">
<path d="M0 4C0 1.79086 1.79086 0 4 0H33V40H4C1.79086 40 0 38.2091 0 36V4Z" fill="#D7E4FE"/>
<path fill-rule="evenodd" clip-rule="evenodd" d="M36 2H4C2.89543 2 2 2.89543 2 4V36C2 37.1046 2.89543 38 4 38H36C37.1046 38 38 37.1046 38 36V4C38 2.89543 37.1046 2 36 2ZM4 0C1.79086 0 0 1.79086 0 4V36C0 38.2091 1.79086 40 4 40H36C38.2091 40 40 38.2091 40 36V4C40 1.79086 38.2091 0 36 0H4Z" fill="#88A6FC"/>
<path d="M15 18C16.1935 18 17.3381 18.4741 18.182 19.318C19.0259 20.1619 19.5 21.3065 19.5 22.5C19.5 23.6935 19.0259 24.8381 18.182 25.682C17.3381 26.5259 16.1935 27 15 27C13.8065 27 12.6619 26.5259 11.818 25.682C10.9741 24.8381 10.5 23.6935 10.5 22.5C10.5 21.3065 10.9741 20.1619 11.818 19.318C12.6619 18.4741 13.8065 18 15 18ZM15 29.25C19.9725 29.25 24 31.2638 24 33.75V40H6V33.75C6 31.2638 10.0275 29.25 15 29.25Z" fill="#3356E6"/>
<path d="M4 11C4 9.89543 4.89543 9 6 9H31C32.1046 9 33 9.89543 33 11V11C33 12.1046 32.1046 13 31 13H6C4.89543 13 4 12.1046 4 11V11Z" fill="#3356E6"/>
<path fill-rule="evenodd" clip-rule="evenodd" d="M27.5858 4.58579C28.3668 3.80474 29.6332 3.80474 30.4142 4.58579L35.4142 9.58579C36.1953 10.3668 36.1953 11.6332 35.4142 12.4142L30.4142 17.4142C29.6332 18.1953 28.3668 18.1953 27.5858 17.4142C26.8047 16.6332 26.8047 15.3668 27.5858 14.5858L31.1716 11L27.5858 7.41421C26.8047 6.63317 26.8047 5.36683 27.5858 4.58579Z" fill="#3356E6"/>
<path d="M27 22C27.9283 22 28.8185 22.3687 29.4749 23.0251C30.1313 23.6815 30.5 24.5717 30.5 25.5C30.5 26.4283 30.1313 27.3185 29.4749 27.9749C28.8185 28.6313 27.9283 29 27 29C26.0717 29 25.1815 28.6313 24.5251 27.9749C23.8687 27.3185 23.5 26.4283 23.5 25.5C23.5 24.5717 23.8687 23.6815 24.5251 23.0251C25.1815 22.3687 26.0717 22 27 22ZM27 30.75C30.8675 30.75 34 32.3162 34 34.25V40H20V34.25C20 32.3162 23.1325 30.75 27 30.75Z" fill="#3356E6"/>
</svg>
