<svg width="20" height="20" viewBox="0 0 20 20" fill="none" xmlns="http://www.w3.org/2000/svg">
<rect x="4" y="6" width="6" height="2" rx="1" transform="rotate(-90 4 6)" fill="#5C7FF3"/>
<rect x="14" y="6" width="6" height="2" rx="1" transform="rotate(-90 14 6)" fill="#5C7FF3"/>
<path fill-rule="evenodd" clip-rule="evenodd" d="M11.2819 8.29289C10.8914 8.68342 10.8914 9.31658 11.2819 9.70711L13.5748 12L11.2819 14.2929C10.8914 14.6834 10.8914 15.3166 11.2819 15.7071C11.6724 16.0976 12.3056 16.0976 12.6961 15.7071L15.6961 12.7071C16.0866 12.3166 16.0866 11.6834 15.6961 11.2929L12.6961 8.29289C12.3056 7.90237 11.6724 7.90237 11.2819 8.29289Z" fill="#5C7FF3"/>
<path fill-rule="evenodd" clip-rule="evenodd" d="M3.98901 12C3.98901 11.4477 4.43673 11 4.98901 11L13.989 11C14.5413 11 14.989 11.4477 14.989 12C14.989 12.5523 14.5413 13 13.989 13L4.98901 13C4.43673 13 3.98901 12.5523 3.98901 12Z" fill="#5C7FF3"/>
<path fill-rule="evenodd" clip-rule="evenodd" d="M18 4H2V16C2 17.1046 2.89543 18 4 18H16C17.1046 18 18 17.1046 18 16V4ZM2 2C0.895431 2 0 2.89543 0 4V16C0 18.2091 1.79086 20 4 20H16C18.2091 20 20 18.2091 20 16V4C20 2.89543 19.1046 2 18 2H2Z" fill="#5C7FF3"/>
</svg>
