<svg width="20" height="20" viewBox="0 0 20 20" fill="none" xmlns="http://www.w3.org/2000/svg">
<path fill-rule="evenodd" clip-rule="evenodd" d="M4 2H16C17.1046 2 18 2.89543 18 4V11C18 12.1046 17.1046 13 16 13H6.7241C5.78835 13 4.88222 13.3281 4.16336 13.9271L2 15.7299V4C2 2.89543 2.89543 2 4 2ZM16 0C18.2091 0 20 1.79086 20 4V11C20 13.2091 18.2091 15 16 15H6.7241C6.25623 15 5.80316 15.164 5.44373 15.4636L1.64018 18.6332C0.988857 19.176 0 18.7128 0 17.865V4C0 1.79086 1.79086 0 4 0H16Z" fill="#5C7FF3"/>
<path d="M11.3213 9.13477C11.3213 8.85807 11.2236 8.64648 11.0283 8.5C10.833 8.35026 10.4814 8.19401 9.97363 8.03125C9.46582 7.86523 9.0638 7.70247 8.76758 7.54297C7.96029 7.10677 7.55664 6.51921 7.55664 5.78027C7.55664 5.39616 7.66406 5.05436 7.87891 4.75488C8.09701 4.45215 8.40788 4.21615 8.81152 4.04688C9.21842 3.8776 9.67415 3.79297 10.1787 3.79297C10.6865 3.79297 11.139 3.88574 11.5361 4.07129C11.9333 4.25358 12.2409 4.51237 12.459 4.84766C12.6803 5.18294 12.791 5.5638 12.791 5.99023H11.3262C11.3262 5.66471 11.2236 5.41243 11.0186 5.2334C10.8135 5.05111 10.5254 4.95996 10.1543 4.95996C9.79622 4.95996 9.5179 5.03646 9.31934 5.18945C9.12077 5.33919 9.02148 5.53776 9.02148 5.78516C9.02148 6.01628 9.13704 6.20996 9.36816 6.36621C9.60254 6.52246 9.94596 6.66895 10.3984 6.80566C11.2318 7.05632 11.8389 7.36719 12.2197 7.73828C12.6006 8.10938 12.791 8.57161 12.791 9.125C12.791 9.74023 12.5583 10.2236 12.0928 10.5752C11.6273 10.9235 11.0007 11.0977 10.2129 11.0977C9.66602 11.0977 9.16797 10.9984 8.71875 10.7998C8.26953 10.598 7.92611 10.3229 7.68848 9.97461C7.4541 9.6263 7.33691 9.22266 7.33691 8.76367H8.80664C8.80664 9.54818 9.27539 9.94043 10.2129 9.94043C10.5612 9.94043 10.833 9.87044 11.0283 9.73047C11.2236 9.58724 11.3213 9.38867 11.3213 9.13477Z" fill="#5C7FF3"/>
<rect x="9.20001" y="2.79999" width="2" height="2" rx="0.5" fill="#5C7FF3"/>
<rect x="9.20001" y="10.1" width="2" height="2" rx="0.5" fill="#5C7FF3"/>
</svg>
