<svg width="20" height="20" viewBox="0 0 20 20" fill="none" xmlns="http://www.w3.org/2000/svg">
<rect x="4" y="6" width="6" height="2" rx="1" transform="rotate(-90 4 6)" fill="#5C7FF3"/>
<rect x="14" y="6" width="6" height="2" rx="1" transform="rotate(-90 14 6)" fill="#5C7FF3"/>
<path fill-rule="evenodd" clip-rule="evenodd" d="M18 4H2V16C2 17.1046 2.89543 18 4 18H16C17.1046 18 18 17.1046 18 16V4ZM2 2C0.895431 2 0 2.89543 0 4V16C0 18.2091 1.79086 20 4 20H16C18.2091 20 20 18.2091 20 16V4C20 2.89543 19.1046 2 18 2H2Z" fill="#5C7FF3"/>
<path fill-rule="evenodd" clip-rule="evenodd" d="M10 11C10.5523 11 11 10.5523 11 10C11 9.44772 10.5523 9 10 9C9.44772 9 9 9.44772 9 10C9 10.5523 9.44772 11 10 11ZM10 13C11.6569 13 13 11.6569 13 10C13 8.34315 11.6569 7 10 7C8.34315 7 7 8.34315 7 10C7 11.6569 8.34315 13 10 13Z" fill="#5C7FF3"/>
<path fill-rule="evenodd" clip-rule="evenodd" d="M11.102 16H8.98863C7.6893 16 6.58364 16.8292 6.1719 17.9872C6.42593 17.9867 6.70196 17.9864 7 17.9864C7.0733 17.9864 7.36651 17.9873 7.80465 17.9886C8.66921 17.9911 10.0981 17.9954 11.5152 17.9979C12.3337 17.9993 13.1504 18.0002 13.8582 17.9999C13.4802 16.839 12.3891 16 11.102 16ZM16 19.9864V18.898C16 16.1929 13.8071 14 11.102 14H8.98863C6.23349 14 4 16.2335 4 18.9886C4 19.545 4.4543 19.9948 5.01061 19.9916C5.49768 19.9888 6.16081 19.9864 7 19.9864C7.07285 19.9864 7.36272 19.9873 7.79672 19.9886C9.95241 19.9949 15.664 20.0119 16 19.9864Z" fill="#5C7FF3"/>
</svg>
