<svg width="40" height="40" viewBox="0 0 40 40" fill="none" xmlns="http://www.w3.org/2000/svg">
<path fill-rule="evenodd" clip-rule="evenodd" d="M2 0H0V2V30V32H2H14V28H10L10 12L26 12V14H30V2V0H28H17.1667H2ZM8 12H4V28H8L8 12ZM26 10V4H17.1667H4V10L26 10ZM6 8V6H8V8H6ZM20 6V8H24V6H20ZM14 8V6H18V8H14Z" fill="#4A5568"/>
<path fill-rule="evenodd" clip-rule="evenodd" d="M26.0421 32.0841C29.379 32.0841 32.0841 29.379 32.0841 26.0421C32.0841 22.7051 29.379 20 26.0421 20C22.7051 20 20 22.7051 20 26.0421C20 29.379 22.7051 32.0841 26.0421 32.0841ZM34.4203 31.58C35.4718 29.9925 36.0841 28.0888 36.0841 26.0421C36.0841 20.496 31.5881 16 26.0421 16C20.496 16 16 20.496 16 26.0421C16 31.5881 20.496 36.0841 26.0421 36.0841C28.0888 36.0841 29.9925 35.4718 31.58 34.4203L37.1597 40L40 37.1597L34.4203 31.58ZM29.0589 26.0421C29.0589 24.3759 27.7082 23.0252 26.0421 23.0252V21.0252C28.8128 21.0252 31.0589 23.2713 31.0589 26.0421H29.0589Z" fill="#3499FE"/>
</svg>
