<svg width="20" height="20" viewBox="0 0 20 20" fill="none" xmlns="http://www.w3.org/2000/svg">
<path fill-rule="evenodd" clip-rule="evenodd" d="M15 10C15 11.1046 14.1046 12 13 12C11.8954 12 11 11.1046 11 10C11 8.89543 11.8954 8 13 8C14.1046 8 15 8.89543 15 10ZM9 15.6667C9 15.6667 9.95 13 13 13C16.05 13 17 15.6667 17 15.6667V17H9V15.6667Z" fill="#3499FE"/>
<path fill-rule="evenodd" clip-rule="evenodd" d="M7 0L9 2H18H20V4V18V20H18H2H0V18V2V0H2H7ZM9 4H18V6H2V2H6.17157L7.58579 3.41421L8.17157 4H9ZM2 7V18H18V7H2Z" fill="#4A5568"/>
</svg>
