<svg width="40" height="40" viewBox="0 0 40 40" fill="none" xmlns="http://www.w3.org/2000/svg">
<path fill-rule="evenodd" clip-rule="evenodd" d="M0 0H2H15H17H18H18.8284L19.4142 0.585786L24.4142 5.58579L25 6.17157V7V8V10V14H21V10H15V8V4H4V28H14V32H2H0V30V2V0ZM17 8H21V7.82843L17.1716 4H17V8ZM6 22V20H14V22H6ZM6 24V26H14V24H6ZM10 13C11.1046 13 12 12.1046 12 11C12 9.89543 11.1046 9 10 9C8.89543 9 8 9.89543 8 11C8 12.1046 8.89543 13 10 13ZM6 16.6667C6 16.6667 6.95 14 10 14C13.05 14 14 16.6667 14 16.6667V18H6V16.6667Z" fill="#4A5568"/>
<path fill-rule="evenodd" clip-rule="evenodd" d="M20 20H36V36H20V20ZM16 16H20H36H40V20V36V40H36H20H16V36V20V16ZM31.6048 33.25L27.9998 31.0742L24.3948 33.25L25.3515 29.1492L22.1665 26.39L26.3607 26.0342L27.9998 22.1667L29.639 26.0342L33.8332 26.39L30.6482 29.1492L31.6048 33.25Z" fill="#3499FE"/>
</svg>
