<svg width="20" height="20" viewBox="0 0 20 20" fill="none" xmlns="http://www.w3.org/2000/svg">
<path d="M20 19.9993V12.2625C20 8.11678 17.885 6.1878 15.065 6.1878C12.7894 6.1878 11.7694 7.49755 11.2013 8.41692V6.50494H6.91375C6.97063 7.77153 6.91375 19.9993 6.91375 19.9993H11.2013V12.4632C11.2013 12.0611 11.2288 11.6576 11.3425 11.3699C11.6519 10.5637 12.3575 9.72929 13.5413 9.72929C15.0931 9.72929 15.7131 10.9665 15.7131 12.7804V20H20V19.9993ZM2.39688 4.66292C3.89125 4.66292 4.82313 3.62584 4.82313 2.33048C4.79563 1.007 3.89187 0 2.42563 0C0.959375 0 0 1.00634 0 2.33048C0 3.62584 0.930625 4.66292 2.37 4.66292H2.39688ZM4.54062 19.9993V6.50494H0.25375V19.9993H4.54062Z" fill="#718096"/>
</svg>
