<svg width="40" height="40" viewBox="0 0 40 40" fill="none" xmlns="http://www.w3.org/2000/svg">
<path fill-rule="evenodd" clip-rule="evenodd" d="M2 0H0V2V30V32H2H13V28H4V4H15V8V10H21V13H25V10V8V7V6.17157L24.4142 5.58579L19.4142 0.585786L18.8284 0H18H17H15H2ZM21 8H17V4H17.1716L21 7.82843V8ZM6 12V14L19 14V12L6 12ZM6 18V16H13V18H6ZM6 20V22H13V20H6Z" fill="#4A5568"/>
<path fill-rule="evenodd" clip-rule="evenodd" d="M21 21V23H23V21H32V23H34V21H36V36H19V21H21ZM23 17H32V15H34V17H36H40V21V36V40H36H19H15V36V21V17H19H21V15H23V17ZM22 35V32.7086L28.7579 25.9507L31.0493 28.2421L24.2913 35H22ZM32.8213 25.6085C33.0596 25.8468 33.0596 26.2318 32.8213 26.4701L31.7031 27.5883L29.4117 25.2969L30.5299 24.1787C30.7682 23.9404 31.1532 23.9404 31.3915 24.1787L32.8213 25.6085Z" fill="#3499FE"/>
</svg>
