<svg width="40" height="40" viewBox="0 0 40 40" fill="none" xmlns="http://www.w3.org/2000/svg">
<path fill-rule="evenodd" clip-rule="evenodd" d="M2 0H0V2V30V32H2H12V28H4V4H15V8V10H21V14H25V10V8V7V6.17157L24.4142 5.58579L19.4142 0.585786L18.8284 0H18H17H15H2ZM21 8H17V4H17.1716L21 7.82843V8ZM6 12V14L18 14V12H6ZM6 18V16H15V18H6ZM6 20V22H12V20H6Z" fill="#4A5568"/>
<path fill-rule="evenodd" clip-rule="evenodd" d="M34.4023 21.1868C35.4405 22.2916 36.2127 23.6148 36.6612 25.0574L39.8525 26.0496C40.0492 27.3385 40.0492 28.6494 39.8525 29.9383L36.6612 30.9447C36.2127 32.3872 35.4405 33.7105 34.4023 34.8152L35.1255 38.0537C34.0981 38.8696 32.9515 39.5259 31.725 40L29.2548 37.7598C27.7703 38.0979 26.2277 38.0979 24.7432 37.7598L22.273 40C21.0472 39.5256 19.9013 38.8694 18.8746 38.0537L19.5977 34.8152C18.5615 33.7145 17.7893 32.3963 17.3388 30.9587L14.1476 29.9524C13.9508 28.6635 13.9508 27.3526 14.1476 26.0637L17.3388 25.0574C17.787 23.6141 18.5593 22.2901 19.5977 21.1848L18.8746 17.9463C19.9013 17.1306 21.0472 16.4744 22.273 16L24.7452 18.2402C26.2297 17.9021 27.7723 17.9021 29.2569 18.2402L31.727 16C32.9528 16.4744 34.0988 17.1306 35.1255 17.9463L34.4023 21.1868ZM27 35C30.866 35 34 31.866 34 28C34 24.134 30.866 21 27 21C23.134 21 20 24.134 20 28C20 31.866 23.134 35 27 35ZM26 27V24H28V27H31V29H28V32H26V29H23V27H26Z" fill="#3499FE"/>
</svg>
