<svg width="40" height="40" viewBox="0 0 40 40" fill="none" xmlns="http://www.w3.org/2000/svg">
<path fill-rule="evenodd" clip-rule="evenodd" d="M2 0H0V2V30V32H2H14V28H10L10 12L26 12V14H30V2V0H28H17.1667H2ZM8 12H4V28H8L8 12ZM26 10V4H17.1667H4V10L26 10ZM6 8V6H8V8H6ZM20 6V8H24V6H20ZM14 8V6H18V8H14Z" class="fill"/><path fill-rule="evenodd" clip-rule="evenodd" d="M40 40V34.3431V20V16H36H20H16V20V32V36H20H36L40 40ZM20 20H36V32H20V20ZM30.847 28.8388C31.2463 28.3785 31.5434 27.8272 31.7158 27.2261L32.9433 26.8126C33.0189 26.2756 33.0189 25.7294 32.9433 25.1924L31.7158 24.7731C31.5434 24.172 31.2463 23.6206 30.847 23.1603L31.1252 21.811C30.7301 21.471 30.289 21.1976 29.8173 21L28.8672 21.9334C28.2963 21.7926 27.703 21.7926 27.132 21.9334L26.1819 21C25.7105 21.1976 25.2697 21.4711 24.8748 21.811L25.153 23.1603C24.7544 23.619 24.4574 24.1682 24.2842 24.7672L23.0568 25.1865C22.9811 25.7235 22.9811 26.2697 23.0568 26.8068L24.2842 27.2261C24.4566 27.8275 24.7536 28.3791 25.153 28.8397L24.8748 30.189C25.2697 30.5289 25.7105 30.8024 26.1819 31L27.1328 30.0666C27.7037 30.2074 28.297 30.2074 28.868 30.0666L29.8181 31C30.2896 30.8024 30.7303 30.5289 31.1252 30.189L30.847 28.8388ZM27.016 24.4192C27.3073 24.2103 27.6497 24.0988 28 24.0988C28.4698 24.0988 28.9203 24.2991 29.2524 24.6556C29.5846 25.0122 29.7712 25.4958 29.7712 26C29.7712 26.376 29.6673 26.7436 29.4727 27.0563C29.2781 27.3689 29.0015 27.6126 28.6778 27.7565C28.3542 27.9004 27.998 27.938 27.6545 27.8647C27.3109 27.7913 26.9953 27.6102 26.7476 27.3444C26.4999 27.0785 26.3312 26.7397 26.2628 26.3709C26.1945 26.0021 26.2296 25.6198 26.3636 25.2724C26.4977 24.925 26.7247 24.6281 27.016 24.4192Z" fill="#3499FE"/>
</svg>
