<svg width="20" height="20" viewBox="0 0 21 20" fill="none" xmlns="http://www.w3.org/2000/svg">
<path d="M15.9454 11.9121L15.0743 15.184C14.9459 15.6644 14.5311 16 14.0653 16H9.34998C9.15644 16 9 15.832 9 15.625V10.375C9 10.2944 9.02415 10.2156 9.0693 10.1511C9.0693 10.1511 11.3333 7.96429 11.625 7.64286C11.9167 7.32143 12.1766 7 12.5 7C13.0841 7 13.0833 7.33841 13.0833 7.96429V10.2143H14.5417C14.9844 10.2143 15.4498 10.2171 15.7162 10.5959C15.9836 10.9754 16.0669 11.455 15.9454 11.9121Z" fill="#9FA5B7"/>
<rect x="6" y="10" width="2" height="6" rx="1" fill="#9FA5B7"/>
<path d="M2.98901 19H18.989C19.5413 19 19.989 18.5523 19.989 18V5C19.989 4.44771 19.5413 4 18.989 4H2.98901C2.43673 4 1.98901 4.44772 1.98901 5V18C1.98901 18.5523 2.43673 19 2.98901 19Z" stroke="#9FA5B7" stroke-width="2"/>
<path fill-rule="evenodd" clip-rule="evenodd" d="M0.989014 2V6H2.98901V2H18.989V6H20.989V2C20.989 0.89543 20.0936 0 18.989 0H2.98901C1.88444 0 0.989014 0.895431 0.989014 2Z" fill="#9FA5B7"/>
</svg>
