<svg width="20" height="20" viewBox="0 0 20 20" fill="none" xmlns="http://www.w3.org/2000/svg">
<rect x="9" width="2" height="6" rx="1" fill="#9FA5B7"/>
<rect x="3" y="16" width="2" height="14" transform="rotate(-90 3 16)" fill="#9FA5B7"/>
<path fill-rule="evenodd" clip-rule="evenodd" d="M2 18C2 19.1046 2.89543 20 4 20H16C17.1046 20 18 19.1046 18 18V12H16V18H4V12H2V18Z" fill="#9FA5B7"/>
<path fill-rule="evenodd" clip-rule="evenodd" d="M2.47584 10.9956C2.2075 10.9616 2 10.7325 2 10.455V8C2 7.44772 2.44772 7 3 7H17C17.5523 7 18 7.44772 18 8V10.455C18 10.7325 17.7925 10.9616 17.5242 10.9956L15.8257 9.7375C14.9973 9.1239 13.8382 9.24045 13.1486 10.0067L12.5648 10.6554L11.1905 9.63735C10.4833 9.1135 9.51674 9.1135 8.80955 9.63735L7.43521 10.6554L6.85138 10.0067C6.16176 9.24045 5.00271 9.1239 4.17434 9.7375L2.47584 10.9956ZM0 10.455C0 11.8605 1.13946 13 2.54504 13C2.92496 13 3.29482 12.8779 3.6001 12.6518L5.36479 11.3446L5.94862 11.9933C6.63824 12.7596 7.79729 12.8761 8.62566 12.2625L10 11.2445L11.3743 12.2625C12.2027 12.8761 13.3618 12.7596 14.0514 11.9933L14.6352 11.3446L16.3999 12.6518C16.7052 12.8779 17.075 13 17.455 13C18.8605 13 20 11.8605 20 10.455V8C20 6.34315 18.6569 5 17 5H3C1.34315 5 0 6.34315 0 8V10.455Z" fill="#9FA5B7"/>
</svg>
