<svg width="20" height="20" viewBox="0 0 20 20" fill="none" xmlns="http://www.w3.org/2000/svg">
<rect x="5" y="5" width="4" height="10" rx="1" transform="rotate(-90 5 5)" stroke="#9FA5B7" stroke-width="2"/>
<rect x="16" y="11" width="12" height="2" rx="1" transform="rotate(180 16 11)" fill="#9FA5B7"/>
<rect x="12" y="15" width="8" height="2" rx="1" transform="rotate(180 12 15)" fill="#9FA5B7"/>
<path fill-rule="evenodd" clip-rule="evenodd" d="M14 4H18V18H2V4H6L6 2H2C0.895431 2 0 2.89543 0 4V18C0 19.1046 0.895431 20 2 20H18C19.1046 20 20 19.1046 20 18V4C20 2.89543 19.1046 2 18 2H14V4Z" fill="#9FA5B7"/>
</svg>
