<svg width="20" height="20" viewBox="0 0 20 20" fill="none" xmlns="http://www.w3.org/2000/svg">
<path d="M5 6C4.44772 6 4 5.55228 4 5L4 1C4 0.447715 4.44772 -1.95703e-08 5 -4.37114e-08V-4.37114e-08C5.55228 -6.78525e-08 6 0.447715 6 1L6 5C6 5.55228 5.55228 6 5 6V6Z" fill="#393F5A"/>
<path d="M15 6C14.4477 6 14 5.55228 14 5L14 1C14 0.447715 14.4477 -1.95703e-08 15 -4.37114e-08V-4.37114e-08C15.5523 -6.78525e-08 16 0.447715 16 1L16 5C16 5.55228 15.5523 6 15 6V6Z" fill="#393F5A"/>
<path fill-rule="evenodd" clip-rule="evenodd" d="M18 4H2V16C2 17.1046 2.89543 18 4 18H16C17.1046 18 18 17.1046 18 16V4ZM2 2C0.895431 2 0 2.89543 0 4V16C0 18.2091 1.79086 20 4 20H16C18.2091 20 20 18.2091 20 16V4C20 2.89543 19.1046 2 18 2H2Z" fill="#393F5A"/>
<path fill-rule="evenodd" clip-rule="evenodd" d="M6 11C6.55228 11 7 10.5523 7 10C7 9.44772 6.55228 9 6 9C5.44772 9 5 9.44772 5 10C5 10.5523 5.44772 11 6 11ZM6 13C7.65685 13 9 11.6569 9 10C9 8.34315 7.65685 7 6 7C4.34315 7 3 8.34315 3 10C3 11.6569 4.34315 13 6 13Z" fill="#393F5A"/>
<path fill-rule="evenodd" clip-rule="evenodd" d="M12.2929 8.29289C11.9024 8.68342 11.9024 9.31658 12.2929 9.70711L14.5858 12L12.2929 14.2929C11.9024 14.6834 11.9024 15.3166 12.2929 15.7071C12.6834 16.0976 13.3166 16.0976 13.7071 15.7071L16.7071 12.7071C17.0976 12.3166 17.0976 11.6834 16.7071 11.2929L13.7071 8.29289C13.3166 7.90237 12.6834 7.90237 12.2929 8.29289Z" fill="#393F5A"/>
<path fill-rule="evenodd" clip-rule="evenodd" d="M10 12C10 11.4477 10.4477 11 11 11L14 11C14.5523 11 15 11.4477 15 12C15 12.5523 14.5523 13 14 13L11 13C10.4477 13 10 12.5523 10 12Z" fill="#393F5A"/>
<path fill-rule="evenodd" clip-rule="evenodd" d="M1 15.5654V16C1.16667 17 2 19 4 19H11.8223C11.9393 18.8589 12 18.675 12 18.4841C12 16.0076 9.9924 14 7.51589 14H4.3351C2.99403 14 1.79519 14.6089 1 15.5654ZM4.3351 16H7.51589C8.64384 16 9.5962 16.7518 9.89927 17.7816C9.5588 17.9034 9.13921 18 8.66667 18H8.65498H8.64337H8.63183H8.62035H8.60895H8.59761H8.58634H8.57515H8.56402H8.55295H8.54196H8.53103H8.52017H8.50938H8.49865H8.48799H8.4774H8.46687H8.45641H8.44601H8.43568H8.42542H8.41521H8.40508H8.395H8.38499H8.37504H8.36516H8.35534H8.34558H8.33589H8.32626H8.31668H8.30717H8.29773H8.28834H8.27901H8.26975H8.26054H8.2514H8.24231H8.23329H8.22432H8.21542H8.20657H8.19778H8.18905H8.18037H8.17176H8.1632H8.1547H8.14625H8.13787H8.12954H8.12126H8.11304H8.10488H8.09677H8.08872H8.08072H8.07277H8.06489H8.05705H8.04927H8.04154H8.03387H8.02625H8.01868H8.01116H8.0037H7.99628H7.98892H7.98161H7.97435H7.96715H7.95999H7.95288H7.94583H7.93882H7.93186H7.92496H7.9181H7.91129H7.90453H7.89782H7.89115H7.88453H7.87796H7.87144H7.86496H7.85854H7.85215H7.84582H7.83953H7.83328H7.82708H7.82093H7.81482H7.80875H7.80273H7.79675H7.79082H7.78493H7.77909H7.77328H7.76752H7.7618H7.75613H7.75049H7.7449H7.73935H7.73384H7.72837H7.72294H7.71756H7.71221H7.7069H7.70163H7.6964H7.69121H7.68606H7.68095H7.67587H7.67084H7.66584H7.66088H7.65595H7.65107H7.64621H7.6414H7.63662H7.63188H7.62717H7.6225H7.61787H7.61327H7.6087H7.60417H7.59967H7.5952H7.59077H7.58637H7.58201H7.57768H7.57338H7.56911H7.56487H7.56067H7.5565H7.55235H7.54824H7.54416H7.54011H7.53609H7.5321H7.52814H7.52421H7.52031H7.51644H7.51259H7.50878H7.50499H7.50123H7.4975H7.49379H7.49011H7.48646H7.48283H7.47923H7.47566H7.47211H7.46859H7.46509H7.46161H7.45817H7.45474H7.45134H7.44796H7.44461H7.44128H7.43797H7.43469H7.43143H7.42819H7.42497H7.42178H7.4186H7.41545H7.41231H7.4092H7.40611H7.40304H7.39999H7.39696H7.39394H7.39095H7.38797H7.38502H7.38208H7.37916H7.37626H7.37337H7.3705H7.36765H7.36482H7.362H7.3592H7.35641H7.35364H7.35088H7.34814H7.34542H7.34271H7.34001H7.33733H7.33466H7.33201H7.32936H7.32673H7.32412H7.32151H7.31892H7.31634H7.31378H7.31122H7.30867H7.30614H7.30361H7.3011H7.2986H7.2961H7.29362H7.29114H7.28868H7.28622H7.28377H7.28133H7.2789H7.27647H7.27406H7.27165H7.26924H7.26685H7.26446H7.26207H7.25969H7.25732H7.25495H7.25259H7.25023H7.24788H7.24553H7.24319H7.24085H7.23851H7.23617H7.23384H7.23151H7.22919H7.22686H7.22454H7.22222H7.2199H7.21759H7.21527H7.21295H7.21064H7.20832H7.206H7.20369H7.20137H7.19905H7.19673H7.19441H7.19209H7.18976H7.18744H7.18511H7.18277H7.18044H7.1781H7.17576H7.17341H7.17106H7.1687H7.16634H7.16398H7.16161H7.15923H7.15685H7.15447H7.15207H7.14967H7.14727H7.14485H7.14243H7.14H7.13757H7.13512H7.13267H7.13021H7.12774H7.12526H7.12277H7.12027H7.11776H7.11524H7.11272H7.11018H7.10762H7.10506H7.10249H7.0999H7.09731H7.0947H7.09207H7.08944H7.08679H7.08413H7.08145H7.07877H7.07606H7.07334H7.07061H7.06786H7.0651H7.06232H7.05953H7.05672H7.0539H7.05105H7.04819H7.04532H7.04242H7.03951H7.03658H7.03364H7.03067H7.02769H7.02468H7.02166H7.01862H7.01556H7.01248H7.00938H7.00626H7.00311H6.99995H6.99677H6.99356H6.99033H6.98708H6.98381H6.98051H6.9772H6.97386H6.97049H6.9671H6.96369H6.96026H6.95679H6.95331H6.9498H6.94626H6.9427H6.93912H6.93551H6.93187H6.9282H6.92451H6.92079H6.91704H6.91327H6.90947H6.90564H6.90178H6.89789H6.89398H6.89003H6.88606H6.88206H6.87802H6.87396H6.86986H6.86574H6.86158H6.85739H6.85317H6.84892H6.84464H6.84033H6.83598H6.8316H6.82718H6.82274H6.81826H6.81374H6.80919H6.80461H6.79999H6.79534H6.79065H6.78593H6.78117H6.77637H6.77154H6.76667H6.76177H6.75683H6.75185H6.74683H6.74177H6.73668H6.73155H6.72638H6.72117H6.71592H6.71064H6.70531H6.69994H6.69454H6.68909H6.6836H6.67807H6.6725H6.66689H6.66123H6.65554H6.6498H6.64402H6.6382H6.63233H6.62642H6.62047H6.61447H6.60843H6.60234H6.59621H6.59003H6.58381H6.57755H6.57123H6.56487H6.55847H6.55202H6.54552H6.53898H6.53238H6.52574H6.51906H6.51232H6.50554H6.4987H6.49182H6.48489H6.47791H6.47088H6.4638H6.45667H6.44949H6.44226H6.43497H6.42764H6.42026H6.41282H6.40533H6.39779H6.39019H6.38255H6.37485H6.36709H6.35929H6.35143H6.34351H6.33554H6.32752H6.31944H6.3113H6.30311H6.29487H6.28657H6.27821H6.26979H6.26132H6.25279H6.24421H6.23557H6.22686H6.21811H6.20929H6.20041H6.19148H6.18248H6.17343H6.16432H6.15514H6.14591H6.13661H6.12726H6.11784H6.10837H6.09883H6.08923H6.07957H6.06984H6.06005H6.0502H6.04029H6.03031H6.02027H6.01017H6C4.45456 18 3.10057 17.7473 2.15289 17.5023C2.48831 16.6239 3.33885 16 4.3351 16Z" fill="#393F5A"/>
</svg>
