<svg width="20" height="20" viewBox="0 0 20 20" fill="none" xmlns="http://www.w3.org/2000/svg">
<g clip-path="url(#clip0)">
<path fill-rule="evenodd" clip-rule="evenodd" d="M4 2H16C17.1046 2 18 2.89543 18 4V12C18 13.1046 17.1046 14 16 14H7C6.06425 14 5.15812 14.3281 4.43926 14.9271L2 16.865V4C2 2.89543 2.89543 2 4 2ZM16 0C18.2091 0 20 1.79086 20 4V12C20 14.2091 18.2091 16 16 16H7C6.53213 16 6.07906 16.164 5.71963 16.4636L1.64018 19.7682C0.988857 20.311 0 19.8478 0 19V4C0 1.79086 1.79086 0 4 0H16Z" fill="#393F5A"/>
<path d="M7.01357 9.95956V9.71073C7.01357 9.53655 7.1086 9.44946 7.29864 9.44946H8.45249C8.64253 9.44946 8.73756 9.53655 8.73756 9.71073V9.81026C8.73756 10.1255 8.80543 10.3411 8.94118 10.4572C9.07692 10.5734 9.32579 10.6314 9.68778 10.6314H10.3258C10.6787 10.6314 10.9231 10.5692 11.0588 10.4448C11.2036 10.3204 11.276 10.0881 11.276 9.74806V9.59876C11.276 9.35822 11.1674 9.17574 10.9502 9.05132C10.7421 8.91861 10.4796 8.83981 10.1629 8.81493C9.84615 8.79005 9.50226 8.74443 9.13122 8.67807C8.76923 8.60342 8.42986 8.51218 8.11312 8.40435C7.79638 8.28823 7.52941 8.06843 7.31222 7.74495C7.10407 7.41317 7 6.99015 7 6.47589V6.04043C7 5.39347 7.1991 4.89165 7.59729 4.53499C7.99548 4.17833 8.54751 4 9.25339 4H10.6109C11.3258 4 11.8824 4.17833 12.2805 4.53499C12.6787 4.89165 12.8778 5.39347 12.8778 6.04043V6.27683C12.8778 6.45101 12.7828 6.5381 12.5928 6.5381H11.4389C11.2489 6.5381 11.1538 6.45101 11.1538 6.27683V6.20218C11.1538 5.87869 11.086 5.65889 10.9502 5.54277C10.8145 5.42665 10.5656 5.36858 10.2036 5.36858H9.67421C9.30317 5.36858 9.04977 5.43494 8.91403 5.56765C8.78733 5.69207 8.72398 5.9409 8.72398 6.31415V6.55054C8.72398 6.94038 9.09502 7.16433 9.8371 7.22239C10.6063 7.28046 11.2896 7.42146 11.8869 7.64541C12.2036 7.76983 12.4661 7.99378 12.6742 8.31726C12.8914 8.63245 13 9.03888 13 9.53655V9.95956C13 10.6065 12.8009 11.1083 12.4027 11.465C12.0045 11.8217 11.4525 12 10.7466 12H9.26697C8.56109 12 8.00905 11.8217 7.61086 11.465C7.21267 11.1083 7.01357 10.6065 7.01357 9.95956Z" fill="#393F5A"/>
<rect x="9" y="3" width="2" height="2" rx="0.5" fill="#393F5A"/>
<rect x="9" y="11" width="2" height="2" rx="0.5" fill="#393F5A"/>
</g>
<defs>
<clipPath id="clip0">
<rect width="20" height="20" fill="white"/>
</clipPath>
</defs>
</svg>
