<svg width="20" height="20" viewBox="0 0 20 20" fill="none" xmlns="http://www.w3.org/2000/svg">
<path fill-rule="evenodd" clip-rule="evenodd" d="M16 11H4V18H16V11ZM2 9V18C2 19.1046 2.89543 20 4 20H16C17.1046 20 18 19.1046 18 18V9H2Z" fill="#393F5A"/>
<path fill-rule="evenodd" clip-rule="evenodd" d="M18 7H2V9H18V7ZM2 5C0.895431 5 0 5.89543 0 7V9C0 10.1046 0.895431 11 2 11H18C19.1046 11 20 10.1046 20 9V7C20 5.89543 19.1046 5 18 5H2Z" fill="#393F5A"/>
<path fill-rule="evenodd" clip-rule="evenodd" d="M6 3.5C6 4.32843 6.67157 5 7.5 5H9V3.5C9 2.67157 8.32843 2 7.5 2C6.67157 2 6 2.67157 6 3.5ZM11 7V3.5C11 1.567 9.433 0 7.5 0C5.567 0 4 1.567 4 3.5C4 5.433 5.567 7 7.5 7H11Z" fill="#393F5A"/>
<path fill-rule="evenodd" clip-rule="evenodd" d="M14 3.5C14 4.32843 13.3284 5 12.5 5H11V3.5C11 2.67157 11.6716 2 12.5 2C13.3284 2 14 2.67157 14 3.5ZM9 7V3.5C9 1.567 10.567 0 12.5 0C14.433 0 16 1.567 16 3.5C16 5.433 14.433 7 12.5 7H9Z" fill="#393F5A"/>
<path d="M9 10H11V19H9V10Z" fill="#393F5A"/>
</svg>
