<svg width="20" height="20" viewBox="0 0 20 20" fill="none" xmlns="http://www.w3.org/2000/svg">
<g clip-path="url(#clip0_743_6529)">
<path fill-rule="evenodd" clip-rule="evenodd" d="M3 17L3 4H2L2 18H16V17H5H3ZM16 15H18V5H15V2H5V15H16ZM18 17H20V16V15L20 5L20 3L17 0H15H5H3V2L2 2L0 2V4V20H0.000976562H2H18.001V18H18V17Z" fill="#393F5A"/>
<path d="M12.3154 10.1152C12.3154 9.85807 12.252 9.65625 12.125 9.50977C11.998 9.36328 11.7751 9.22494 11.4561 9.09473C11.137 8.96452 10.8424 8.83268 10.5723 8.69922C10.3021 8.56576 10.0693 8.41113 9.87402 8.23535C9.67871 8.05957 9.52897 7.85612 9.4248 7.625C9.32064 7.39388 9.26855 7.11393 9.26855 6.78516C9.26855 6.23503 9.4541 5.78255 9.8252 5.42773C10.1963 5.06966 10.6911 4.86133 11.3096 4.80273V3.77246H12.0859V4.82227C12.6816 4.91016 13.1488 5.15592 13.4873 5.55957C13.8291 5.95996 14 6.4694 14 7.08789H12.3496C12.3496 6.74935 12.2845 6.48893 12.1543 6.30664C12.0241 6.12435 11.8385 6.0332 11.5977 6.0332C11.3828 6.0332 11.2152 6.10156 11.0947 6.23828C10.9775 6.37174 10.9189 6.55729 10.9189 6.79492C10.9189 7.03581 10.9873 7.22786 11.124 7.37109C11.2607 7.51107 11.4805 7.64616 11.7832 7.77637C12.0859 7.90332 12.3708 8.03678 12.6377 8.17676C12.9079 8.31348 13.1406 8.46973 13.3359 8.64551C13.5312 8.82129 13.6842 9.02637 13.7949 9.26074C13.9056 9.49512 13.9609 9.77669 13.9609 10.1055C13.9609 10.6621 13.7835 11.1162 13.4287 11.4678C13.0771 11.8193 12.597 12.0244 11.9883 12.083V13.0645H11.2119V12.0781C10.5023 12.0033 9.95703 11.7607 9.57617 11.3506C9.19857 10.9372 9.00977 10.3936 9.00977 9.71973H10.6553C10.6553 10.0908 10.7367 10.374 10.8994 10.5693C11.0654 10.7614 11.2998 10.8574 11.6025 10.8574C11.8239 10.8574 11.998 10.7923 12.125 10.6621C12.252 10.5286 12.3154 10.3464 12.3154 10.1152Z" fill="#393F5A"/>
</g>
<defs>
<clipPath id="clip0_743_6529">
<rect width="20" height="20" fill="white"/>
</clipPath>
</defs>
</svg>
