<svg width="20" height="20" viewBox="0 0 20 20" fill="none" xmlns="http://www.w3.org/2000/svg">
<path fill-rule="evenodd" clip-rule="evenodd" d="M4.91396 10L2.88989 16.0933L16.4333 10L2.88989 3.90673L4.91396 10ZM2.61324 10L0.0483426 17.7214C-0.228127 18.5537 0.733799 19.2809 1.59727 18.8925L19.3907 10.8871C20.2031 10.5216 20.2031 9.47843 19.3907 9.11295L1.59726 1.10753C0.733796 0.719051 -0.228127 1.44632 0.048342 2.2786L2.61324 10Z" fill="white"/>
<path fill-rule="evenodd" clip-rule="evenodd" d="M3 10C3 9.44772 3.44772 9 4 9L17 9C17.5523 9 18 9.44772 18 10C18 10.5523 17.5523 11 17 11L4 11C3.44772 11 3 10.5523 3 10Z" fill="white"/>
</svg>
