<svg width="30" height="30" viewBox="0 0 30 30" fill="none" xmlns="http://www.w3.org/2000/svg">
<path fill-rule="evenodd" clip-rule="evenodd" d="M26.5707 15C26.5707 15.5063 26.5322 15.9937 26.4743 16.4625L29.6951 18.9375C30.0037 19.1625 30.0808 19.5562 29.8879 19.8937L26.8022 25.0875C26.6093 25.425 26.2043 25.5563 25.8571 25.425L22.0192 23.925C21.2285 24.5063 20.3606 25.0125 19.4156 25.3875L18.837 29.3625C18.7984 29.7375 18.4705 30 18.0848 30H11.9132C11.5275 30 11.2189 29.7375 11.1418 29.3625L10.5632 25.3875C9.61818 25.0125 8.76959 24.525 7.95957 23.925L4.12163 25.425C3.77447 25.5375 3.36946 25.425 3.1766 25.0875L0.0908166 19.8937C-0.0827589 19.575 -0.00561441 19.1625 0.283678 18.9375L3.54304 16.4625C3.4659 15.9937 3.42732 15.4875 3.42732 15C3.42732 14.5125 3.48518 14.0063 3.56233 13.5375L0.302965 11.0625C-0.00561392 10.8375 -0.0827589 10.4437 0.110103 10.1062L3.19589 4.9125C3.38875 4.575 3.79376 4.44375 4.14091 4.575L7.97886 6.075C8.76959 5.49375 9.63747 4.9875 10.5825 4.6125L11.1611 0.6375C11.2189 0.2625 11.5275 0 11.9132 0H18.0848C18.4705 0 18.7984 0.2625 18.8563 0.6375L19.4348 4.6125C20.3799 4.9875 21.2285 5.475 22.0385 6.075L25.8764 4.575C26.2236 4.4625 26.6286 4.575 26.8214 4.9125L29.9072 10.1062C30.0808 10.425 30.0037 10.8375 29.7144 11.0625L26.455 13.5375C26.5321 14.0063 26.5707 14.4937 26.5707 15ZM14.999 23C19.4173 23 22.999 19.4183 22.999 15C22.999 10.5817 19.4173 7 14.999 7C10.5807 7 6.99902 10.5817 6.99902 15C6.99902 19.4183 10.5807 23 14.999 23Z" fill="#718096"/>
<path fill-rule="evenodd" clip-rule="evenodd" d="M11.6654 10L9.9987 11.6667L13.3318 14.9998L9.99805 18.3335L11.6647 20.0002L14.9985 16.6664L18.332 20L19.9987 18.3333L16.6651 14.9998L19.998 11.6668L18.3314 10.0002L14.9985 13.3331L11.6654 10Z" fill="#718096"/>
</svg>
