<svg width="30" height="30" viewBox="0 0 30 30" fill="none" xmlns="http://www.w3.org/2000/svg">
<circle cx="14.999" cy="15" r="15" fill="#0575E6"/>
<path d="M22.2718 14.0909H24.999V15.9091H22.2718V14.0909ZM4.99902 14.0909H7.7263V15.9091H4.99902V14.0909ZM15.9081 5V7.72727H14.0899V5H15.9081ZM8.56266 7.27273L10.499 9.21818L9.20811 10.5L7.27175 8.57273L8.56266 7.27273ZM19.499 9.20909L21.4263 7.27273L22.7263 8.57273L20.7899 10.5L19.499 9.20909ZM14.999 9.54545C16.4457 9.54545 17.833 10.1201 18.856 11.1431C19.8789 12.166 20.4536 13.5534 20.4536 15C20.4536 17.0182 19.3536 18.7818 17.7263 19.7273V21.3636C17.7263 21.6047 17.7263 21.7663 17.7263 22.2727C17.2653 22.2727 17.0583 22.2727 16.8172 22.2727H13.1808C12.9397 22.2727 12.499 22.2727 12.2718 22.2727C12.2718 22.0977 12.2718 21.6047 12.2718 21.3636V19.7273C10.6445 18.7818 9.54448 17.0182 9.54448 15C9.54448 13.5534 10.1192 12.166 11.1421 11.1431C12.165 10.1201 13.5524 9.54545 14.999 9.54545ZM16.8172 23.1818V24.0909C16.8172 24.332 16.8172 24.6719 16.8172 25C16.499 25 16.1492 25 15.9081 25H14.0899C13.8488 25 13.499 25 13.1808 25C13.1808 24.6719 13.1808 24.332 13.1808 24.0909V23.1818H16.8172ZM14.0899 20.4545H15.9081V18.5182C17.4808 18.1182 18.6354 16.6909 18.6354 15C18.6354 14.0356 18.2523 13.1107 17.5703 12.4287C16.8884 11.7468 15.9634 11.3636 14.999 11.3636C14.0346 11.3636 13.1097 11.7468 12.4277 12.4287C11.7458 13.1107 11.3627 14.0356 11.3627 15C11.3627 16.6909 12.5172 18.1182 14.0899 18.5182V20.4545Z" fill="white"/>
</svg>
