<svg width="30" height="30" viewBox="0 0 30 30" fill="none" xmlns="http://www.w3.org/2000/svg">
<ellipse cx="14.9998" cy="15" rx="14.9998" ry="15" fill="#2ECC71"/>
<path d="M22 13.85C22 13.1285 21.4682 12.55 20.8182 12.55H17.0836L17.6509 9.5795C17.6627 9.5145 17.6686 9.443 17.6686 9.3715C17.6686 9.105 17.5682 8.858 17.4086 8.6825L16.7823 8L12.8941 12.277C12.6755 12.5175 12.5455 12.8425 12.5455 13.2V19.7C12.5455 20.0448 12.67 20.3754 12.8916 20.6192C13.1132 20.863 13.4138 21 13.7273 21H19.0455C19.5359 21 19.9555 20.675 20.1327 20.207L21.9173 15.6245C21.9705 15.475 22 15.319 22 15.15V13.85ZM9 21H11.3636V13.2H9V21Z" fill="white"/>
</svg>
