<svg width="40" height="40" viewBox="0 0 40 40" fill="none" xmlns="http://www.w3.org/2000/svg">
<path fill-rule="evenodd" clip-rule="evenodd" d="M2 0H28V14H24V4H6V7H8V9H6V11H8V13H6V15H8V17H6V19H8V21H6V23H8V25H6V28H14V32H2V25H0V23H2V21H0V19H2V17H0V15H2V13H0V11H2V9H0V7H2V0ZM17.5273 13.1288L19.7148 14.0664C19.816 14.1104 19.8987 14.1883 19.9486 14.2867C19.9986 14.3851 20.0126 14.4978 19.9885 14.6054L19.5197 16.6367C19.4958 16.74 19.4377 16.8322 19.3546 16.8982C19.2716 16.9642 19.1687 17.0001 19.0627 17C14.0606 17 10 12.9472 10 7.93734C9.99998 7.83133 10.0359 7.72845 10.1019 7.64548C10.1678 7.5625 10.26 7.50435 10.3633 7.4805L12.3946 7.01174C12.5017 6.98739 12.614 7.00118 12.712 7.05074C12.8101 7.1003 12.8878 7.18252 12.9317 7.28323L13.8692 9.47077C13.9092 9.56418 13.9177 9.6681 13.8934 9.76678C13.8691 9.86545 13.8133 9.95352 13.7344 10.0176L12.5508 10.9864C13.2677 12.5068 14.4912 13.7304 16.0116 14.4472L16.9804 13.2636C17.0446 13.1849 17.1327 13.1292 17.2313 13.1049C17.33 13.0806 17.4338 13.089 17.5273 13.1288Z" fill="#4A5568"/>
<path fill-rule="evenodd" clip-rule="evenodd" d="M28 36C32.4183 36 36 32.4183 36 28C36 23.5817 32.4183 20 28 20C23.5817 20 20 23.5817 20 28C20 32.4183 23.5817 36 28 36ZM28 40C34.6274 40 40 34.6274 40 28C40 21.3726 34.6274 16 28 16C21.3726 16 16 21.3726 16 28C16 34.6274 21.3726 40 28 40ZM29 22V30H27V22H29ZM27 32V34H29V32H27Z" fill="#0575E6"/>
</svg>
