<svg width="20" height="20" viewBox="0 0 20 20" fill="none" xmlns="http://www.w3.org/2000/svg">
<path fill-rule="evenodd" clip-rule="evenodd" d="M0 18V0H0.000977393H2H13H15H15.001V0.000976563L18 3V5V9H16V5H13V2H2L2 18H12.001V20H0.000976562V18H0ZM10.8182 8C10.6864 8 10.5364 8 10.3773 8.025C10.9045 8.445 11.2727 9 11.2727 9.75V11H14V9.75C14 8.585 11.8773 8 10.8182 8ZM7.18182 8C6.12273 8 4 8.585 4 9.75V12H10.3636V9.75C10.3636 8.585 8.24091 8 7.18182 8ZM8.5 5.5C8.5 6.32843 7.82843 7 7 7C6.17157 7 5.5 6.32843 5.5 5.5C5.5 4.67157 6.17157 4 7 4C7.82843 4 8.5 4.67157 8.5 5.5ZM11 7C11.8284 7 12.5 6.32843 12.5 5.5C12.5 4.67157 11.8284 4 11 4C10.1716 4 9.5 4.67157 9.5 5.5C9.5 6.32843 10.1716 7 11 7Z" fill="#A0AEC0"/>
<path fill-rule="evenodd" clip-rule="evenodd" d="M14 12.5L15.5 11L20 15.5L15.5 20L14 18.5L16 16.5H4V14.5H16L14 12.5Z" fill="#A0AEC0"/>
</svg>
