<svg width="20" height="20" viewBox="0 0 20 20" fill="none" xmlns="http://www.w3.org/2000/svg">
<path fill-rule="evenodd" clip-rule="evenodd" d="M9.75 3.21169C9.75 4.92991 8.29493 6.32279 6.5 6.32279C4.70507 6.32279 3.25 4.92991 3.25 3.21169C3.25 1.49347 4.70507 0.100586 6.5 0.100586C8.29493 0.100586 9.75 1.49347 9.75 3.21169ZM0 12.0266C0 12.0266 1.54375 7.87842 6.5 7.87842C7.71063 7.87842 8.66935 8.12591 9.5 8.5V9.5H6.5V14.1006H0V12.0266Z" fill="#4A5568"/>
<path fill-rule="evenodd" clip-rule="evenodd" d="M11 8H13V11H15V8H17V11H20V13H17V15H20V17H17V20H15V17H13V20H11V17H8V15H11V13H8V11H11V8ZM13 13V15L15 15V13L13 13Z" fill="#0575E6"/>
</svg>
