<svg width="20" height="20" viewBox="0 0 20 20" fill="none" xmlns="http://www.w3.org/2000/svg">
<path d="M6.70887 1.22995C6.82023 0.508258 7.43288 0 8.14845 0H11.8516C12.5358 0 13.1867 0.478269 13.3027 1.22995L13.304 1.23839L13.5717 3.07765C13.8435 3.21095 14.1035 3.3587 14.3547 3.52025L16.1903 2.80285L16.2185 2.79373C16.795 2.60691 17.5652 2.76769 17.9567 3.44224L19.8145 6.56908L19.8235 6.58552C20.1528 7.19029 20.0186 7.97952 19.4435 8.42677L19.4344 8.43388L17.9301 9.57604C17.9389 9.71608 17.9433 9.85742 17.9433 10C17.9433 10.1433 17.9389 10.2833 17.9311 10.4199L17.8186 12.8556L15.823 11.3222L15.893 10.755C15.9241 10.5035 15.9434 10.2531 15.9434 10C15.9434 9.74711 15.9241 9.50907 15.8872 9.28487L15.7894 8.69046L17.8287 7.14197L16.463 4.84342L14.0729 5.77751L13.6287 5.44845C13.2051 5.1347 12.7713 4.88672 12.2928 4.69686L11.7554 4.48361L11.3938 1.99983H8.61775L8.25621 4.48361L7.71878 4.69686C7.2433 4.88553 6.79688 5.14416 6.37997 5.45062L5.93643 5.77664L3.54858 4.84342L2.18289 7.14197L4.22219 8.69046L4.12436 9.28487C4.08306 9.53578 4.05663 9.7813 4.05663 10C4.05663 10.2427 4.07604 10.4919 4.11279 10.7151L4.21062 11.3095L2.17132 12.858L3.53701 15.1566L5.92707 14.2225L6.37133 14.5516C6.79492 14.8653 7.22872 15.1133 7.70721 15.3031L8.24463 15.5164L8.60618 18.0002H11.3823L11.8516 15.7799L13.4993 17.4985L13.2946 18.7462C13.1997 19.5341 12.516 20 11.8516 20H8.14845C7.424 20 6.84428 19.4906 6.70612 18.8191L6.70024 18.7905L6.42831 16.9224C6.15649 16.7891 5.89648 16.6413 5.64532 16.4797L3.80971 17.1971L3.78154 17.2063C3.20507 17.3931 2.43484 17.2323 2.04331 16.5578L0.185453 13.4309L0.176499 13.4145C-0.152835 12.8097 -0.0185641 12.0205 0.556505 11.5732L0.56564 11.5661L2.07023 10.4237C2.06118 10.2814 2.05673 10.1394 2.05673 10C2.05673 9.85534 2.06343 9.71135 2.07471 9.57088L0.582967 8.43816C-0.024624 7.98763 -0.156515 7.18809 0.198061 6.56762L0.202264 6.56026L2.05496 3.44206C2.42607 2.8032 3.19141 2.56501 3.83848 2.80964L3.84887 2.81357L5.6585 3.52088C5.9068 3.3617 6.1672 3.21303 6.43973 3.07868L6.70887 1.22995Z" fill="#A0AEC0"/>
<path d="M19.816 17.1573L14.034 11.34C14.6058 9.86968 14.2882 8.14366 13.0809 6.92906C11.8102 5.65053 9.90402 5.39482 8.3791 6.09802L11.1112 8.84685L9.2051 10.7646L6.40942 8.01581C5.64696 9.55005 5.96466 11.4678 7.23542 12.7464C8.44264 13.961 10.1582 14.2806 11.6195 13.7053L17.4015 19.5226C17.6557 19.7783 18.0369 19.7783 18.2911 19.5226L19.7524 18.0523C20.0701 17.7966 20.0701 17.3491 19.816 17.1573Z" fill="#A0AEC0"/>
</svg>
