<svg width="20" height="20" viewBox="0 0 20 20" fill="none" xmlns="http://www.w3.org/2000/svg">
<path d="M18.8265 8.31375C15.9456 8.31236 13.0648 8.31305 10.1839 8.31338C10.1843 9.48433 10.1825 10.6553 10.1846 11.8259C11.853 11.8255 13.5214 11.8252 15.1895 11.8259C14.9962 12.9479 14.3157 13.974 13.3507 14.6057C12.7441 15.0054 12.0471 15.2649 11.3286 15.3882C10.6054 15.5092 9.85819 15.5246 9.13683 15.3815C8.40325 15.2381 7.70302 14.9386 7.09215 14.5164C6.11537 13.8439 5.36993 12.86 4.98718 11.7527C4.59581 10.6264 4.59294 9.37319 4.98897 8.24797C5.26376 7.45492 5.72113 6.72233 6.32195 6.12616C7.06307 5.38268 8.02659 4.85118 9.0647 4.63323C9.95361 4.44728 10.8909 4.48277 11.7612 4.74078C12.5009 4.96085 13.1828 5.35806 13.7413 5.88077C14.306 5.33062 14.8677 4.77732 15.4313 4.22614C15.7268 3.92947 16.0375 3.64578 16.3238 3.34101C15.4679 2.56482 14.4645 1.94088 13.3683 1.54646C11.3946 0.834654 9.16874 0.819545 7.18181 1.49345C4.94268 2.24466 3.03609 3.88557 1.97898 5.95961C1.61094 6.67427 1.34224 7.43707 1.18082 8.22167C0.774745 10.1765 1.05778 12.2607 1.97789 14.0412C2.57588 15.2033 3.43321 16.2365 4.47315 17.0464C5.45425 17.8131 6.59782 18.3794 7.8103 18.6954C9.34024 19.0976 10.9688 19.0884 12.5088 18.745C13.9006 18.4311 15.2175 17.7793 16.2689 16.8281C17.3802 15.8273 18.1729 14.5087 18.5926 13.0917C19.0504 11.5461 19.1135 9.89598 18.8265 8.31375Z" fill="#00AEC5"/>
</svg>
