<svg width="20" height="20" viewBox="0 0 20 20" fill="none" xmlns="http://www.w3.org/2000/svg">
<path d="M18 10.8C18 11.688 17.3455 12.4 16.5455 12.4H11.9491L12.6473 16.056C12.6618 16.136 12.6691 16.224 12.6691 16.312C12.6691 16.64 12.5455 16.944 12.3491 17.16L11.5782 18L6.79273 12.736C6.52364 12.44 6.36364 12.04 6.36364 11.6V3.6C6.36364 3.17565 6.51688 2.76869 6.78966 2.46863C7.06244 2.16857 7.43241 2 7.81818 2H14.3636C14.9673 2 15.4836 2.4 15.7018 2.976L17.8982 8.616C17.9636 8.8 18 8.992 18 9.2V10.8ZM2 2H4.90909V11.6H2V2Z" fill="#4A5568"/>
<rect x="2" y="2" width="3" height="10" fill="#0575E6"/>
</svg>
