<svg width="20" height="20" viewBox="0 0 20 20" fill="none" xmlns="http://www.w3.org/2000/svg">
<g clip-path="url(#clip0)">
<path fill-rule="evenodd" clip-rule="evenodd" d="M1.74845e-07 2L13 2L13 4L0 4L1.74845e-07 2Z" fill="#A0AEC0"/>
<path fill-rule="evenodd" clip-rule="evenodd" d="M17 2L20 2L20 4L17 4L17 2Z" fill="#A0AEC0"/>
<rect x="13" y="1" width="4" height="4" stroke="#A0AEC0" stroke-width="2"/>
<path fill-rule="evenodd" clip-rule="evenodd" d="M-3.01992e-07 9L3 9L3 11L-4.76837e-07 11L-3.01992e-07 9Z" fill="#A0AEC0"/>
<path fill-rule="evenodd" clip-rule="evenodd" d="M7 9L20 9L20 11L7 11L7 9Z" fill="#A0AEC0"/>
<rect x="3" y="8" width="4" height="4" stroke="#A0AEC0" stroke-width="2"/>
<path fill-rule="evenodd" clip-rule="evenodd" d="M1.74845e-07 16L8 16L8 18L0 18L1.74845e-07 16Z" fill="#A0AEC0"/>
<path fill-rule="evenodd" clip-rule="evenodd" d="M12 16L20 16L20 18L12 18L12 16Z" fill="#A0AEC0"/>
<rect x="8" y="15" width="4" height="4" stroke="#A0AEC0" stroke-width="2"/>
</g>
<defs>
<clipPath id="clip0">
<path d="M0 0H20V20H0V0Z" fill="white"/>
</clipPath>
</defs>
</svg>
