<svg width="20" height="20" viewBox="0 0 20 20" fill="none" xmlns="http://www.w3.org/2000/svg">
<path d="M7 0C7.92826 0 8.8185 0.368749 9.47487 1.02513C10.1313 1.6815 10.5 2.57174 10.5 3.5C10.5 4.42826 10.1313 5.3185 9.47487 5.97487C8.8185 6.63125 7.92826 7 7 7C6.07174 7 5.1815 6.63125 4.52513 5.97487C3.86875 5.3185 3.5 4.42826 3.5 3.5C3.5 2.57174 3.86875 1.6815 4.52513 1.02513C5.1815 0.368749 6.07174 0 7 0ZM7 8.75C7.70312 8.75 8.5 9 8.5 9C7.5 10.5 7.5 10.5 6 12.5L8 14H0V12.25C0 10.3162 3.1325 8.75 7 8.75Z" fill="white"/>
<path d="M14.0014 16.1C13.4288 16.1 12.8797 15.8788 12.4748 15.4849C12.0699 15.0911 11.8425 14.557 11.8425 14C11.8425 13.443 12.0699 12.9089 12.4748 12.5151C12.8797 12.1212 13.4288 11.9 14.0014 11.9C14.5739 11.9 15.1231 12.1212 15.5279 12.5151C15.9328 12.9089 16.1603 13.443 16.1603 14C16.1603 14.557 15.9328 15.0911 15.5279 15.4849C15.1231 15.8788 14.5739 16.1 14.0014 16.1ZM18.5844 14.582C18.6091 14.39 18.6276 14.198 18.6276 14C18.6276 13.802 18.6091 13.604 18.5844 13.4L19.8859 12.422C20.0031 12.332 20.034 12.17 19.96 12.038L18.7263 9.962C18.6523 9.83 18.4857 9.776 18.35 9.83L16.8141 10.43C16.4934 10.196 16.1603 9.992 15.7717 9.842L15.5434 8.252C15.5188 8.108 15.3892 8 15.235 8H12.7677C12.6135 8 12.484 8.108 12.4593 8.252L12.2311 9.842C11.8425 9.992 11.5094 10.196 11.1886 10.43L9.6527 9.83C9.51699 9.776 9.35045 9.83 9.27643 9.962L8.04277 12.038C7.96258 12.17 7.99959 12.332 8.11679 12.422L9.4183 13.4C9.39363 13.604 9.37512 13.802 9.37512 14C9.37512 14.198 9.39363 14.39 9.4183 14.582L8.11679 15.578C7.99959 15.668 7.96258 15.83 8.04277 15.962L9.27643 18.038C9.35045 18.17 9.51699 18.218 9.6527 18.17L11.1886 17.564C11.5094 17.804 11.8425 18.008 12.2311 18.158L12.4593 19.748C12.484 19.892 12.6135 20 12.7677 20H15.235C15.3892 20 15.5188 19.892 15.5434 19.748L15.7717 18.158C16.1603 18.002 16.4934 17.804 16.8141 17.564L18.35 18.17C18.4857 18.218 18.6523 18.17 18.7263 18.038L19.96 15.962C20.034 15.83 20.0031 15.668 19.8859 15.578L18.5844 14.582Z" fill="white"/>
</svg>
