<svg width="20" height="20" viewBox="0 0 20 20" fill="none" xmlns="http://www.w3.org/2000/svg">
<path fill-rule="evenodd" clip-rule="evenodd" d="M7 0H13L14.5 2H19H20V3V19V20H19H1H0V19V3V2H1H5.5L7 0ZM6 4H4H2V18H18V4H16H14H6ZM11 2C11 2.55228 10.5523 3 10 3C9.44772 3 9 2.55228 9 2C9 1.44772 9.44772 1 10 1C10.5523 1 11 1.44772 11 2Z" fill="#718096"/>
<path fill-rule="evenodd" clip-rule="evenodd" d="M4 6H6V8H4V6ZM6 10H4V12H6V10ZM16 10H8V12H16V10ZM16 6H8V8H16V6ZM4 14H6V16H4V14ZM16 14H8V16H16V14Z" fill="#718096"/>
</svg>
