<svg width="20" height="20" viewBox="0 0 20 20" fill="none" xmlns="http://www.w3.org/2000/svg">
<path fill-rule="evenodd" clip-rule="evenodd" d="M8 0H16V2H13V4.12527C16.9354 4.78871 20 8.01266 20 12C20 16.4824 16.1273 20 11.4982 20C9.20358 20 7.10998 19.1432 5.57324 17.738L6.92285 16.262C8.0922 17.3312 9.7048 18 11.4982 18C15.1554 18 18 15.2496 18 12C18 8.75037 15.1554 6 11.4982 6C9.7048 6 8.0922 6.66878 6.92285 7.738L5.57324 6.262C6.99802 4.95923 8.90146 4.12777 11 4.01353V2H8V0Z" fill="#4A5568"/>
<path fill-rule="evenodd" clip-rule="evenodd" d="M9.5 9.5L11 8L15 12L11 16L9.5 14.5L11 13H0V11H11L9.5 9.5Z" fill="#0575E6"/>
</svg>
