<svg width="20" height="20" viewBox="0 0 20 20" fill="none" xmlns="http://www.w3.org/2000/svg">
<path d="M10 0C6.68286 0 4 2.6605 4 5.95C4 10.4125 10 17 10 17C10 17 16 10.4125 16 5.95C16 2.6605 13.3171 0 10 0ZM10 8.075C8.81714 8.075 7.85714 7.123 7.85714 5.95C7.85714 4.777 8.81714 3.825 10 3.825C11.1829 3.825 12.1429 4.777 12.1429 5.95C12.1429 7.123 11.1829 8.075 10 8.075Z" fill="#A0AEC0"/>
<path fill-rule="evenodd" clip-rule="evenodd" d="M0 18V14H2L2 18H18V14H20V18V20H18H2H0V18Z" fill="#A0AEC0"/>
</svg>
