<svg width="20" height="20" viewBox="0 0 20 20" fill="none" xmlns="http://www.w3.org/2000/svg">
<path fill-rule="evenodd" clip-rule="evenodd" d="M15.7016 14L18 15.8388V2H2V14H15.7016ZM20 20L15 16H0V0H20V20Z" fill="white"/>
<path d="M14 6.71267C14 6.77736 13.9583 6.84793 13.875 6.92439L12.1298 8.48582L12.5433 10.6912C12.5465 10.7118 12.5481 10.7412 12.5481 10.7795C12.5481 10.8412 12.5313 10.8934 12.4976 10.936C12.4639 10.9787 12.4151 11 12.351 11C12.2901 11 12.226 10.9824 12.1587 10.9471L10 9.90611L7.84135 10.9471C7.77083 10.9824 7.70673 11 7.64904 11C7.58173 11 7.53125 10.9787 7.4976 10.936C7.46394 10.8934 7.44712 10.8412 7.44712 10.7795C7.44712 10.7618 7.45032 10.7324 7.45673 10.6912L7.87019 8.48582L6.12019 6.92439C6.04006 6.84499 6 6.77442 6 6.71267C6 6.60386 6.08974 6.53623 6.26923 6.50977L8.68269 6.18778L9.76442 4.18084C9.82532 4.06028 9.90385 4 10 4C10.0962 4 10.1747 4.06028 10.2356 4.18084L11.3173 6.18778L13.7308 6.50977C13.9103 6.53623 14 6.60386 14 6.71267Z" fill="white"/>
</svg>
