<svg width="20" height="20" viewBox="0 0 20 20" fill="none" xmlns="http://www.w3.org/2000/svg">
<path fill-rule="evenodd" clip-rule="evenodd" d="M15 5.10102C16.2372 6.36355 17 8.09269 17 10C17 12.3787 15.8135 14.4804 14 15.7453V18.0645C16.9634 16.5918 19 13.5337 19 10C19 6.87958 17.412 4.13007 15 2.51555V5.10102ZM13 1.51212C12.0617 1.18046 11.0519 1 10 1C5.02944 1 1 5.02944 1 10C1 10.6874 1.07706 11.3568 1.22302 12H3.28988C3.10128 11.3663 3 10.695 3 10C3 6.13401 6.13401 3 10 3C11.0736 3 12.0907 3.24169 13 3.67363V1.51212ZM10 17C10.695 17 11.3663 16.8987 12 16.7101V18.777C11.3568 18.9229 10.6874 19 10 19C6.46628 19 3.40822 16.9634 1.93552 14H4.25469C5.51964 15.8135 7.62125 17 10 17Z" fill="#718096"/>
<path fill-rule="evenodd" clip-rule="evenodd" d="M7 0H13V6H7V0ZM0 14H6V20H0V14ZM20 14H14V20H20V14Z" fill="#718096"/>
</svg>
