<svg width="20" height="20" viewBox="0 0 20 20" fill="none" xmlns="http://www.w3.org/2000/svg">
<rect x="1" y="8" width="18" height="3" stroke="#A0AEC0" stroke-width="2"/>
<rect x="3" y="11" width="14" height="8" stroke="#A0AEC0" stroke-width="2"/>
<rect x="9" y="11" width="2" height="8" fill="#A0AEC0"/>
<rect x="3" y="16" width="2" height="14" transform="rotate(-90 3 16)" fill="#A0AEC0"/>
<path d="M8 3V3.00492V3.00987V3.01484V3.01985V3.02489V3.02996V3.03506V3.04018V3.04534V3.05052V3.05573V3.06098V3.06625V3.07155V3.07687V3.08223V3.08761V3.09302V3.09846V3.10392V3.10942V3.11494V3.12048V3.12606V3.13166V3.13728V3.14293V3.14861V3.15432V3.16005V3.16581V3.17159V3.17739V3.18323V3.18908V3.19497V3.20087V3.20681V3.21276V3.21874V3.22475V3.23078V3.23683V3.2429V3.249V3.25513V3.26127V3.26744V3.27363V3.27985V3.28609V3.29235V3.29863V3.30493V3.31126V3.3176V3.32397V3.33036V3.33678V3.34321V3.34966V3.35614V3.36264V3.36915V3.37569V3.38225V3.38882V3.39542V3.40204V3.40867V3.41533V3.422V3.4287V3.43541V3.44214V3.44889V3.45566V3.46245V3.46925V3.47608V3.48292V3.48978V3.49665V3.50355V3.51046V3.51739V3.52433V3.5313V3.53828V3.54527V3.55228V3.55931V3.56635V3.57341V3.58049V3.58758V3.59469V3.60181V3.60895V3.6161V3.62326V3.63044V3.63764V3.64485V3.65207V3.65931V3.66656V3.67383V3.68111V3.6884V3.6957V3.70302V3.71035V3.7177V3.72505V3.73242V3.7398V3.7472V3.7546V3.76202V3.76945V3.77689V3.78434V3.7918V3.79928V3.80676V3.81426V3.82176V3.82928V3.83681V3.84434V3.85189V3.85945V3.86701V3.87459V3.88217V3.88977V3.89737V3.90498V3.9126V3.92023V3.92787V3.93551V3.94316V3.95083V3.95849V3.96617V3.97386V3.98155V3.98925V3.99695V4.00466V4.01238V4.02011V4.02784V4.03558V4.04332V4.05107V4.05883V4.06659V4.07435V4.08213V4.0899V4.09768V4.10547V4.11326V4.12106V4.12886V4.13666V4.14447V4.15228V4.1601V4.16792V4.17574V4.18356V4.19139V4.19922V4.20706V4.2149V4.22273V4.23058V4.23842V4.24627V4.25411V4.26196V4.26981V4.27767V4.28552V4.29337V4.30123V4.30908V4.31694V4.3248V4.33265V4.34051V4.34837V4.35623V4.36408V4.37194V4.37979V4.38765V4.3955V4.40335V4.41121V4.41906V4.4269V4.43475V4.44259V4.45044V4.45828V4.46611V4.47395V4.48178V4.48961V4.49744V4.50526V4.51308V4.5209V4.52871V4.53652V4.54432V4.55212V4.55992V4.56771V4.5755V4.58328V4.59106V4.59883V4.6066V4.61436V4.62212V4.62987V4.63762V4.64536V4.65309V4.66082V4.66854V4.67625V4.68396V4.69166V4.69935V4.70704V4.71471V4.72238V4.73005V4.7377V4.74535V4.75299V4.76062V4.76824V4.77586V4.78346V4.79106V4.79864V4.80622V4.81379V4.82135V4.8289V4.83644V4.84396V4.85148V4.85899V4.86649V4.87398V4.88145V4.88892V4.89637V4.90382V4.91125V4.91867V4.92607V4.93347V4.94085V4.94823V4.95559V4.96293V4.97027V4.97759V4.9849V4.99219V4.99947V5H7.99388H7.98657H7.97925H7.97191H7.96456H7.9572H7.94982H7.94244H7.93504H7.92763H7.9202H7.91277H7.90532H7.89786H7.89039H7.88291H7.87542H7.86792H7.86041H7.85288H7.84535H7.83781H7.83025H7.82269H7.81511H7.80753H7.79994H7.79234H7.78473H7.77711H7.76948H7.76184H7.7542H7.74654H7.73888H7.73121H7.72353H7.71585H7.70815H7.70045H7.69275H7.68503H7.67731H7.66958H7.66185H7.65411H7.64636H7.63861H7.63085H7.62309H7.61532H7.60754H7.59976H7.59197H7.58418H7.57639H7.56859H7.56078H7.55297H7.54516H7.53734H7.52952H7.5217H7.51387H7.50603H7.4982H7.49036H7.48252H7.47468H7.46683H7.45898H7.45113H7.44328H7.43542H7.42757H7.41971H7.41185H7.40399H7.39612H7.38826H7.3804H7.37253H7.36467H7.3568H7.34893H7.34107H7.3332H7.32534H7.31747H7.30961H7.30174H7.29388H7.28602H7.27816H7.2703H7.26244H7.25458H7.24673H7.23888H7.23103H7.22318H7.21533H7.20749H7.19965H7.19181H7.18398H7.17615H7.16832H7.1605H7.15268H7.14486H7.13705H7.12924H7.12144H7.11364H7.10585H7.09806H7.09027H7.0825H7.07472H7.06695H7.05919H7.05143H7.04368H7.03594H7.0282H7.02047H7.01274H7.00503H6.99731H6.98961H6.98191H6.97422H6.96654H6.95887H6.9512H6.94354H6.93589H6.92825H6.92061H6.91299H6.90537H6.89777H6.89017H6.88258H6.875H6.86743H6.85987H6.85232H6.84478H6.83725H6.82973H6.82222H6.81472H6.80723H6.79976H6.79229H6.78484H6.7774H6.76997H6.76255H6.75514H6.74775H6.74036H6.73299H6.72564H6.71829H6.71096H6.70364H6.69634H6.68905H6.68177H6.6745H6.66725H6.66002H6.65279H6.64558H6.63839H6.63121H6.62405H6.6169H6.60976H6.60265H6.59554H6.58845H6.58138H6.57433H6.56729H6.56026H6.55326H6.54627H6.53929H6.53234H6.5254H6.51847H6.51157H6.50468H6.49781H6.49096H6.48412H6.47731H6.47051H6.46373H6.45697H6.45023H6.4435H6.4368H6.43011H6.42345H6.4168H6.41018H6.40357H6.39698H6.39042H6.38387H6.37735H6.37084H6.36436H6.3579H6.35146H6.34504H6.33864H6.33226H6.3259H6.31957H6.31326H6.30697H6.30071H6.29446H6.28824H6.28204H6.27587H6.26972H6.26359H6.25748H6.2514H6.24534H6.23931H6.2333H6.22731H6.22135H6.21542H6.20951H6.20362H6.19776H6.19192H6.18611H6.18033H6.17457H6.16884H6.16313H6.15745H6.15179H6.14617H6.14057H6.13499H6.12944H6.12392H6.11843H6.11296H6.10753H6.10212H6.09674H6.09138H6.08606H6.08076H6.07549H6.07025H6.06504H6.05986H6.0547H6.04958H6.04449H6.03942H6.03439H6.02939H6.02441H6.01947H6.01455H6.00967H6.00482H6C4.89543 5 4 4.10457 4 3C4 1.89543 4.89543 1 6 1C7.10457 1 8 1.89543 8 3Z" stroke="#A0AEC0" stroke-width="2"/>
<path d="M12 3V3.00492V3.00987V3.01484V3.01985V3.02489V3.02996V3.03506V3.04018V3.04534V3.05052V3.05573V3.06098V3.06625V3.07155V3.07687V3.08223V3.08761V3.09302V3.09846V3.10392V3.10942V3.11494V3.12048V3.12606V3.13166V3.13728V3.14293V3.14861V3.15432V3.16005V3.16581V3.17159V3.17739V3.18323V3.18908V3.19497V3.20087V3.20681V3.21276V3.21874V3.22475V3.23078V3.23683V3.2429V3.249V3.25513V3.26127V3.26744V3.27363V3.27985V3.28609V3.29235V3.29863V3.30493V3.31126V3.3176V3.32397V3.33036V3.33678V3.34321V3.34966V3.35614V3.36264V3.36915V3.37569V3.38225V3.38882V3.39542V3.40204V3.40867V3.41533V3.422V3.4287V3.43541V3.44214V3.44889V3.45566V3.46245V3.46925V3.47608V3.48292V3.48978V3.49665V3.50355V3.51046V3.51739V3.52433V3.5313V3.53828V3.54527V3.55228V3.55931V3.56635V3.57341V3.58049V3.58758V3.59469V3.60181V3.60895V3.6161V3.62326V3.63044V3.63764V3.64485V3.65207V3.65931V3.66656V3.67383V3.68111V3.6884V3.6957V3.70302V3.71035V3.7177V3.72505V3.73242V3.7398V3.7472V3.7546V3.76202V3.76945V3.77689V3.78434V3.7918V3.79928V3.80676V3.81426V3.82176V3.82928V3.83681V3.84434V3.85189V3.85945V3.86701V3.87459V3.88217V3.88977V3.89737V3.90498V3.9126V3.92023V3.92787V3.93551V3.94316V3.95083V3.95849V3.96617V3.97386V3.98155V3.98925V3.99695V4.00466V4.01238V4.02011V4.02784V4.03558V4.04332V4.05107V4.05883V4.06659V4.07435V4.08213V4.0899V4.09768V4.10547V4.11326V4.12106V4.12886V4.13666V4.14447V4.15228V4.1601V4.16792V4.17574V4.18356V4.19139V4.19922V4.20706V4.2149V4.22273V4.23058V4.23842V4.24627V4.25411V4.26196V4.26981V4.27767V4.28552V4.29337V4.30123V4.30908V4.31694V4.3248V4.33265V4.34051V4.34837V4.35623V4.36408V4.37194V4.37979V4.38765V4.3955V4.40335V4.41121V4.41906V4.4269V4.43475V4.44259V4.45044V4.45828V4.46611V4.47395V4.48178V4.48961V4.49744V4.50526V4.51308V4.5209V4.52871V4.53652V4.54432V4.55212V4.55992V4.56771V4.5755V4.58328V4.59106V4.59883V4.6066V4.61436V4.62212V4.62987V4.63762V4.64536V4.65309V4.66082V4.66854V4.67625V4.68396V4.69166V4.69935V4.70704V4.71471V4.72238V4.73005V4.7377V4.74535V4.75299V4.76062V4.76824V4.77586V4.78346V4.79106V4.79864V4.80622V4.81379V4.82135V4.8289V4.83644V4.84396V4.85148V4.85899V4.86649V4.87398V4.88145V4.88892V4.89637V4.90382V4.91125V4.91867V4.92607V4.93347V4.94085V4.94823V4.95559V4.96293V4.97027V4.97759V4.9849V4.99219V4.99947V5H12.0061H12.0134H12.0208H12.0281H12.0354H12.0428H12.0502H12.0576H12.065H12.0724H12.0798H12.0872H12.0947H12.1021H12.1096H12.1171H12.1246H12.1321H12.1396H12.1471H12.1547H12.1622H12.1697H12.1773H12.1849H12.1925H12.2001H12.2077H12.2153H12.2229H12.2305H12.2382H12.2458H12.2535H12.2611H12.2688H12.2765H12.2842H12.2918H12.2995H12.3073H12.315H12.3227H12.3304H12.3382H12.3459H12.3536H12.3614H12.3691H12.3769H12.3847H12.3925H12.4002H12.408H12.4158H12.4236H12.4314H12.4392H12.447H12.4548H12.4627H12.4705H12.4783H12.4861H12.494H12.5018H12.5096H12.5175H12.5253H12.5332H12.541H12.5489H12.5567H12.5646H12.5724H12.5803H12.5882H12.596H12.6039H12.6117H12.6196H12.6275H12.6353H12.6432H12.6511H12.6589H12.6668H12.6747H12.6825H12.6904H12.6983H12.7061H12.714H12.7218H12.7297H12.7376H12.7454H12.7533H12.7611H12.769H12.7768H12.7847H12.7925H12.8003H12.8082H12.816H12.8239H12.8317H12.8395H12.8473H12.8551H12.8629H12.8708H12.8786H12.8864H12.8942H12.9019H12.9097H12.9175H12.9253H12.933H12.9408H12.9486H12.9563H12.9641H12.9718H12.9795H12.9873H12.995H13.0027H13.0104H13.0181H13.0258H13.0335H13.0411H13.0488H13.0565H13.0641H13.0718H13.0794H13.087H13.0946H13.1022H13.1098H13.1174H13.125H13.1326H13.1401H13.1477H13.1552H13.1628H13.1703H13.1778H13.1853H13.1928H13.2002H13.2077H13.2152H13.2226H13.23H13.2375H13.2449H13.2523H13.2596H13.267H13.2744H13.2817H13.289H13.2964H13.3037H13.311H13.3182H13.3255H13.3327H13.34H13.3472H13.3544H13.3616H13.3688H13.376H13.3831H13.3902H13.3974H13.4045H13.4115H13.4186H13.4257H13.4327H13.4397H13.4467H13.4537H13.4607H13.4677H13.4746H13.4815H13.4884H13.4953H13.5022H13.509H13.5159H13.5227H13.5295H13.5363H13.543H13.5498H13.5565H13.5632H13.5699H13.5766H13.5832H13.5898H13.5964H13.603H13.6096H13.6161H13.6227H13.6292H13.6356H13.6421H13.6485H13.655H13.6614H13.6677H13.6741H13.6804H13.6867H13.693H13.6993H13.7055H13.7118H13.718H13.7241H13.7303H13.7364H13.7425H13.7486H13.7547H13.7607H13.7667H13.7727H13.7786H13.7846H13.7905H13.7964H13.8022H13.8081H13.8139H13.8197H13.8254H13.8312H13.8369H13.8426H13.8482H13.8538H13.8594H13.865H13.8706H13.8761H13.8816H13.887H13.8925H13.8979H13.9033H13.9086H13.9139H13.9192H13.9245H13.9297H13.935H13.9401H13.9453H13.9504H13.9555H13.9606H13.9656H13.9706H13.9756H13.9805H13.9854H13.9903H13.9952H14C15.1046 5 16 4.10457 16 3C16 1.89543 15.1046 1 14 1C12.8954 1 12 1.89543 12 3Z" stroke="#A0AEC0" stroke-width="2"/>
<rect x="7" y="4" width="6" height="2" fill="#A0AEC0"/>
</svg>
