<svg width="20" height="20" viewBox="0 0 20 20" fill="none" xmlns="http://www.w3.org/2000/svg">
<path fill-rule="evenodd" clip-rule="evenodd" d="M7.69636 1.29289C8.08689 1.68342 8.08689 2.31658 7.69636 2.70711L3.40347 7L7.69636 11.2929C8.08689 11.6834 8.08689 12.3166 7.69636 12.7071C7.30584 13.0976 6.67267 13.0976 6.28215 12.7071L1.28215 7.70711C0.891627 7.31658 0.891627 6.68342 1.28215 6.29289L6.28215 1.29289C6.67268 0.902369 7.30584 0.902369 7.69636 1.29289Z" fill="#53C01E"/>
<path fill-rule="evenodd" clip-rule="evenodd" d="M2 7C2 6.44772 2.44772 6 3 6H13C16.3137 6 19 8.68629 19 12C19 15.3137 16.3137 18 13 18H2C1.44772 18 1 17.5523 1 17C1 16.4477 1.44772 16 2 16H13C15.2091 16 17 14.2091 17 12C17 9.79086 15.2091 8 13 8H3C2.44772 8 2 7.55228 2 7Z" fill="#53C01E"/>
</svg>
