<svg width="40" height="40" viewBox="0 0 40 40" fill="none" xmlns="http://www.w3.org/2000/svg">
<path fill-rule="evenodd" clip-rule="evenodd" d="M2 0H0V2V30V32H2H16V28H4V4H15V8V10H21V12H25V10V8V7V6.17157L24.4142 5.58579L19.4142 0.585786L18.8284 0H18H17H15H2ZM21 8H17V4H17.1716L21 7.82843V8ZM7 25V22.5003L14.3723 15.128L16.872 17.6277L9.49965 25H7ZM18.805 14.7548C19.065 15.0147 19.065 15.4347 18.805 15.6946L17.5852 16.9145L15.0855 14.4148L16.3054 13.195C16.5653 12.935 16.9853 12.935 17.2452 13.195L18.805 14.7548Z" fill="#4A5568"/>
<path fill-rule="evenodd" clip-rule="evenodd" d="M24 14H34V16H30V18.0448C35.6065 18.5501 40 23.262 40 29C40 35.0751 35.0751 40 29 40C22.9249 40 18 35.0751 18 29C18 23.262 22.3935 18.5501 28 18.0448V16H24V14ZM29 36C32.866 36 36 32.866 36 29C36 25.134 32.866 22 29 22C25.134 22 22 25.134 22 29C22 32.866 25.134 36 29 36ZM30 24V30H29.9998L27 33L25.5 32L28 29.5V24H30Z" fill="#3499FE"/>
</svg>
