<svg width="40" height="40" viewBox="0 0 40 40" fill="none" xmlns="http://www.w3.org/2000/svg">
<path fill-rule="evenodd" clip-rule="evenodd" d="M2 0H0V2V30V32H2H12V28H4V4H15V8V10H21V14H25V10V8V7V6.17157L24.4142 5.58579L19.4142 0.585786L18.8284 0H18H17H15H2ZM21 8H17V4H17.1716L21 7.82843V8ZM6 20V22H15V20H6ZM6 26V24H12V26H6ZM10.2617 13.4951C10.4115 13.6514 10.4863 13.863 10.4863 14.1299C10.4863 14.387 10.4033 14.5921 10.2373 14.7451C10.0713 14.8949 9.84505 14.9697 9.55859 14.9697C9.21354 14.9697 8.94824 14.8672 8.7627 14.6621C8.5804 14.4538 8.48926 14.1559 8.48926 13.7686H7.07812C7.07812 14.4359 7.26042 14.9714 7.625 15.375C7.99284 15.7754 8.51042 16.0114 9.17773 16.083V17.0498H9.9541V16.0781C10.5596 16.0163 11.0348 15.8128 11.3799 15.4678C11.7249 15.1227 11.8975 14.6735 11.8975 14.1201C11.8975 13.8239 11.8519 13.5651 11.7607 13.3438C11.6696 13.1191 11.5378 12.9206 11.3652 12.748C11.1927 12.5723 10.9811 12.416 10.7305 12.2793C10.4798 12.1393 10.1592 11.9912 9.76855 11.835C9.38118 11.6787 9.11589 11.5257 8.97266 11.376C8.82943 11.2262 8.75781 11.0277 8.75781 10.7803C8.75781 10.5133 8.83105 10.305 8.97754 10.1553C9.12402 10.0023 9.33073 9.92578 9.59766 9.92578C9.86784 9.92578 10.0827 10.0234 10.2422 10.2188C10.4049 10.4108 10.4863 10.7021 10.4863 11.0928H11.8975C11.8975 10.458 11.7347 9.94206 11.4092 9.54492C11.0837 9.14453 10.6328 8.90365 10.0566 8.82227V7.7627H9.27539V8.80762C8.69271 8.86621 8.22559 9.07129 7.87402 9.42285C7.52246 9.77441 7.34668 10.2253 7.34668 10.7754C7.34668 11.0944 7.39714 11.3695 7.49805 11.6006C7.60221 11.8317 7.74544 12.0335 7.92773 12.2061C8.11328 12.3753 8.33464 12.5267 8.5918 12.6602C8.84896 12.7904 9.15495 12.9222 9.50977 13.0557C9.86458 13.1891 10.1152 13.3356 10.2617 13.4951Z" fill="#4A5568"/>
<path fill-rule="evenodd" clip-rule="evenodd" d="M36 28C36 32.4183 32.4183 36 28 36C23.5817 36 20 32.4183 20 28C20 23.5817 23.5817 20 28 20C32.4183 20 36 23.5817 36 28ZM40 28C40 34.6274 34.6274 40 28 40C21.3726 40 16 34.6274 16 28C16 21.3726 21.3726 16 28 16C34.6274 16 40 21.3726 40 28ZM27.1182 28.4199C26.9632 28.7982 26.8857 29.3063 26.8857 29.9443H28.6357L28.6631 29.5273C28.7132 29.0807 28.9115 28.6911 29.2578 28.3584L29.8115 27.832C30.2445 27.4128 30.5475 27.0322 30.7207 26.6904C30.8939 26.3441 30.9805 25.9772 30.9805 25.5898C30.9805 24.7376 30.7139 24.0791 30.1807 23.6143C29.6475 23.1449 28.8978 22.9102 27.9316 22.9102C26.9746 22.9102 26.2181 23.1562 25.6621 23.6484C25.1107 24.1406 24.8304 24.8219 24.8213 25.6924H26.8037C26.8128 25.3278 26.9176 25.043 27.1182 24.8379C27.3232 24.6283 27.5944 24.5234 27.9316 24.5234C28.6426 24.5234 28.998 24.9085 28.998 25.6787C28.998 25.9339 28.9297 26.1777 28.793 26.4102C28.6562 26.638 28.3805 26.9365 27.9658 27.3057C27.5557 27.6702 27.2731 28.0417 27.1182 28.4199ZM26.9951 31.291C26.79 31.487 26.6875 31.7376 26.6875 32.043C26.6875 32.3438 26.7878 32.5921 26.9883 32.7881C27.1934 32.984 27.4622 33.082 27.7949 33.082C28.1276 33.082 28.3942 32.984 28.5947 32.7881C28.7998 32.5921 28.9023 32.3438 28.9023 32.043C28.9023 31.7376 28.7975 31.487 28.5879 31.291C28.3828 31.0905 28.1185 30.9902 27.7949 30.9902C27.4714 30.9902 27.2048 31.0905 26.9951 31.291Z" fill="#3499FE"/>
</svg>
