<svg width="40" height="40" viewBox="0 0 40 40" fill="none" xmlns="http://www.w3.org/2000/svg">
<path fill-rule="evenodd" clip-rule="evenodd" d="M2 0H0V2V30V32H2H12V28H4V4H15V8V10H21V14H25V10V8V7V6.17157L24.4142 5.58579L19.4142 0.585786L18.8284 0H18H17H15H2ZM21 8H17V4H17.1716L21 7.82843V8ZM6 12V14L18 14V12H6ZM6 18V16H15V18H6ZM6 20V22H12V20H6Z" fill="#4A5568"/>
<path fill-rule="evenodd" clip-rule="evenodd" d="M36.6612 25.0574C36.2127 23.6148 35.4405 22.2916 34.4023 21.1868L35.1255 17.9463C34.0988 17.1306 32.9528 16.4744 31.727 16L29.2569 18.2402C27.7723 17.9021 26.2297 17.9021 24.7452 18.2402L22.273 16C21.0472 16.4744 19.9013 17.1306 18.8746 17.9463L19.5977 21.1848C18.5593 22.2901 17.787 23.6141 17.3388 25.0574L14.1476 26.0637C13.9508 27.3526 13.9508 28.6635 14.1476 29.9524L17.3388 30.9587C17.7893 32.3963 18.5615 33.7145 19.5977 34.8152L18.8746 38.0537C19.9013 38.8694 21.0472 39.5256 22.273 40L24.7432 37.7598C26.2277 38.0979 27.7703 38.0979 29.2548 37.7598L31.725 40C32.9515 39.5259 34.0981 38.8696 35.1255 38.0537L34.4023 34.8152C35.4405 33.7105 36.2127 32.3872 36.6612 30.9447L39.8525 29.9383C40.0492 28.6494 40.0492 27.3385 39.8525 26.0496L36.6612 25.0574ZM34 28C34 31.866 30.866 35 27 35C23.134 35 20 31.866 20 28C20 24.134 23.134 21 27 21C30.866 21 34 24.134 34 28ZM23.3333 26.9091L22 28.1818L26 32L32 26.2727L30.6667 25L26 29.4545L23.3333 26.9091Z" fill="#3499FE"/>
</svg>
