<svg width="20" height="21" viewBox="0 0 20 21" fill="none" xmlns="http://www.w3.org/2000/svg">
<path fill-rule="evenodd" clip-rule="evenodd" d="M15.7172 8.48654L15.9474 5.86671L13.497 5.28165L12.2489 3.07433L10 4.08942L7.75106 3.07433L6.50135 5.28451L4.05298 5.86195L4.28265 8.47493L2.60364 10.4929L4.28266 12.5037L4.05215 15.1332L6.50296 15.7183L7.74874 17.9216L9.99718 16.8998L12.2489 17.9161L13.497 15.7088L15.9474 15.1237L15.7172 12.5039L17.3944 10.4952L15.7172 8.48654ZM20 10.4952L17.7818 13.1517L18.0909 16.6682L14.8091 17.4517L13.0909 20.4904L10 19.0953L6.90909 20.5L5.19091 17.4613L1.90909 16.6777L2.21818 13.1517L0 10.4952L2.21818 7.82919L1.90909 4.31271L5.19091 3.5387L6.90909 0.5L10 1.89513L13.0909 0.5L14.8091 3.5387L18.0909 4.32226L17.7818 7.83875L20 10.4952Z" class="fill"/><path fill-rule="evenodd" clip-rule="evenodd" d="M11 6H9V12H11V6ZM11 13H9V15H11V13Z" class="fill-color"/>
</svg>
