<?xml version="1.0" encoding="UTF-8"?>
<svg enable-background="new 0 0 640 525.4" version="1.1" viewBox="0 0 640 525.4" xml:space="preserve" xmlns="http://www.w3.org/2000/svg">
<path d="m434.6 525.4c-53.9 0-104.9-20.7-143.5-58.4-35-34.2-56.3-78.8-61-127h-210.1c-11 0-20-9-20-20 0-85.5 33.3-165.8 93.7-226.3 60.5-60.4 140.8-93.7 226.3-93.7s165.8 33.3 226.3 93.7c60.4 60.5 93.7 140.8 93.7 226.3 0 113.3-92.1 205.4-205.4 205.4zm-164.3-185.4c9.8 82.7 79.1 145.4 164.2 145.4 91.2 0 165.4-74.2 165.4-165.4 0-154.4-125.6-280-280-280-147.6 0-268.9 114.9-279.2 260h190.2c4.4-27.7 17.1-53.3 37-73.9 25.3-26.1 59.1-40.5 95.2-40.7h0.7c35.8 0 69.5 13.9 94.9 39.2 25.6 25.4 39.7 59.3 39.7 95.4 0 11-9 20-20 20h-208.1zm1.3-40h184.7c-3.8-17.7-12.6-34-25.8-47.1-17.9-17.8-41.5-27.5-66.7-27.5h-0.5c-25.3 0.1-48.9 10.3-66.7 28.6-12.6 12.9-21.1 28.8-25 46z"/>
</svg>
