<svg width="20" height="20" viewBox="0 0 20 20" fill="none" xmlns="http://www.w3.org/2000/svg">
<rect x="4.5" y="5.5" width="5" height="1" rx="0.5" transform="rotate(-90 4.5 5.5)" fill="#5C7FF3" stroke="#5C7FF3"/>
<rect x="14" y="6" width="6" height="2" rx="1" transform="rotate(-90 14 6)" fill="#5C7FF3"/>
<path d="M1 4C1 3.44772 1.44772 3 2 3H18C18.5523 3 19 3.44772 19 4V16C19 17.6569 17.6569 19 16 19H4C2.34315 19 1 17.6569 1 16V4Z" stroke="#5C7FF3" stroke-width="2"/>
<circle cx="9.98828" cy="8" r="2" stroke="#5C7FF3" stroke-width="2"/>
<path d="M9.98828 16C8.24943 16 6.79037 15.6364 5.99781 15.3879C6.11177 14.0502 7.23367 13 8.60087 13H11.3757C12.7429 13 13.8648 14.0502 13.9788 15.3879C13.1862 15.6364 11.7271 16 9.98828 16Z" stroke="#5C7FF3" stroke-width="2"/>
</svg>
