<svg width="20" height="20" viewBox="0 0 20 20" fill="none" xmlns="http://www.w3.org/2000/svg">
<path d="M7 0C7.92826 0 8.8185 0.368749 9.47487 1.02513C10.1313 1.6815 10.5 2.57174 10.5 3.5C10.5 4.42826 10.1313 5.3185 9.47487 5.97487C8.8185 6.63125 7.92826 7 7 7C6.07174 7 5.1815 6.63125 4.52513 5.97487C3.86875 5.3185 3.5 4.42826 3.5 3.5C3.5 2.57174 3.86875 1.6815 4.52513 1.02513C5.1815 0.368749 6.07174 0 7 0ZM7 8.75C7.70312 8.75 8.5 9 8.5 9C8 9.5 7.5 10 7 11.5C6.5 13 6.5 14 6.5 14H0V12.25C0 10.3162 3.1325 8.75 7 8.75Z" fill="#A0AEC0"/>
<path fill-rule="evenodd" clip-rule="evenodd" d="M14 20C17.3137 20 20 17.3137 20 14C20 10.6863 17.3137 8 14 8C10.6863 8 8 10.6863 8 14C8 17.3137 10.6863 20 14 20ZM10.2891 11.7109L11.7109 10.2891L14 12.5781L16.2891 10.2891L17.7109 11.7109L15.4219 14L17.7109 16.2891L16.2891 17.7109L14 15.4219L11.7109 17.7109L10.2891 16.2891L12.5781 14L10.2891 11.7109Z" fill="#A0AEC0"/>
</svg>
