<svg width="20" height="20" viewBox="0 0 20 20" fill="none" xmlns="http://www.w3.org/2000/svg">
<path d="M14.8 14.8C15.2243 14.8 15.6313 14.9686 15.9314 15.2686C16.2314 15.5687 16.4 15.9757 16.4 16.4C16.4 16.8243 16.2314 17.2313 15.9314 17.5314C15.6313 17.8314 15.2243 18 14.8 18C13.912 18 13.2 17.28 13.2 16.4C13.2 15.512 13.912 14.8 14.8 14.8ZM2 2H4.616L5.368 3.6H17.2C17.4122 3.6 17.6157 3.68429 17.7657 3.83431C17.9157 3.98434 18 4.18783 18 4.4C18 4.536 17.96 4.672 17.904 4.8L15.04 9.976C14.768 10.464 14.24 10.8 13.64 10.8H7.68L6.96 12.104L6.936 12.2C6.936 12.253 6.95707 12.3039 6.99458 12.3414C7.03209 12.3789 7.08296 12.4 7.136 12.4H16.4V14H6.8C5.912 14 5.2 13.28 5.2 12.4C5.2 12.12 5.272 11.856 5.392 11.632L6.48 9.672L3.6 3.6H2V2ZM6.8 14.8C7.22435 14.8 7.63131 14.9686 7.93137 15.2686C8.23143 15.5687 8.4 15.9757 8.4 16.4C8.4 16.8243 8.23143 17.2313 7.93137 17.5314C7.63131 17.8314 7.22435 18 6.8 18C5.912 18 5.2 17.28 5.2 16.4C5.2 15.512 5.912 14.8 6.8 14.8ZM14 9.2L16.224 5.2H6.112L8 9.2H14Z" fill="#4A5568"/>
</svg>
