<svg width="20" height="20" viewBox="0 0 20 20" fill="none" xmlns="http://www.w3.org/2000/svg">
<path fill-rule="evenodd" clip-rule="evenodd" d="M10 12C12.7614 12 15 9.76142 15 7C15 4.23858 12.7614 2 10 2C7.23858 2 5 4.23858 5 7C5 9.76142 7.23858 12 10 12ZM10 14C13.866 14 17 10.866 17 7C17 3.13401 13.866 0 10 0C6.13401 0 3 3.13401 3 7C3 10.866 6.13401 14 10 14Z" fill="#00AEC5"/>
<circle cx="10" cy="7" r="4" fill="#00AEC5"/>
<path fill-rule="evenodd" clip-rule="evenodd" d="M3.17252 11.1719L0 16.6669L4.22008 16.0241L5.7735 20.0002L8.71919 14.8981C6.37203 14.5204 4.36641 13.1216 3.17252 11.1719Z" fill="#00AEC5"/>
<path fill-rule="evenodd" clip-rule="evenodd" d="M16.8275 11.1719L20 16.6668L15.7799 16.0241L14.2265 20.0002L11.2808 14.8981C13.628 14.5204 15.6336 13.1216 16.8275 11.1719Z" fill="#00AEC5"/>
</svg>
