<svg width="20" height="20" viewBox="0 0 20 20" fill="none" xmlns="http://www.w3.org/2000/svg">
<path fill-rule="evenodd" clip-rule="evenodd" d="M10 18C14.4183 18 18 14.4183 18 10C18 5.58172 14.4183 2 10 2C5.58172 2 2 5.58172 2 10C2 14.4183 5.58172 18 10 18ZM10 20C15.5228 20 20 15.5228 20 10C20 4.47715 15.5228 0 10 0C4.47715 0 0 4.47715 0 10C0 15.5228 4.47715 20 10 20Z" fill="#A0AEC0"/>
<path d="M11.162 13.3084V15.6075C11.162 15.8692 11.0317 16 10.7712 16H8.94087C8.66667 16 8.52956 15.8629 8.52956 15.5888V13.3271C8.52956 13.0779 8.66667 12.9533 8.94087 12.9533H10.7712C11.0317 12.9533 11.162 13.0717 11.162 13.3084ZM11.1414 10.8598V11.3458C11.1414 11.6075 10.9974 11.7383 10.7095 11.7383H9.08483C8.79692 11.7383 8.65296 11.6075 8.65296 11.3458V10.8411C8.65296 10.4299 8.72836 10.0997 8.87918 9.85047C9.02999 9.58878 9.28363 9.3271 9.6401 9.06542L10.7918 8.20561C11.2305 7.89408 11.4499 7.5514 11.4499 7.17757V7.06542C11.4499 6.67913 11.347 6.40499 11.1414 6.24299C10.9494 6.06854 10.6272 5.98131 10.1748 5.98131H9.80463C9.37961 5.98131 9.07112 6.06231 8.87918 6.2243C8.70094 6.38629 8.61183 6.66667 8.61183 7.06542V7.45794C8.61183 7.73209 8.46787 7.86916 8.17995 7.86916H6.43188C6.14396 7.86916 6 7.73209 6 7.45794V7.02804C6 6.05608 6.29477 5.30841 6.88432 4.78505C7.47386 4.26168 8.3102 4 9.39332 4H10.6067C11.6898 4 12.5261 4.26168 13.1157 4.78505C13.7052 5.30841 14 6.05608 14 7.02804V7.28972C14 7.90031 13.6915 8.4486 13.0746 8.93458L11.6761 9.96262C11.3196 10.2617 11.1414 10.5607 11.1414 10.8598Z" fill="#A0AEC0"/>
</svg>
