<svg width="20" height="20" viewBox="0 0 20 20" fill="none" xmlns="http://www.w3.org/2000/svg">
<path d="M10.9334 19.9841C10.8458 19.9881 10.7897 19.996 10.7336 19.996C9.53505 19.996 8.33995 19.9921 7.14136 20C6.97313 20 6.92757 19.9484 6.92757 19.7579C6.93107 16.5985 6.93108 13.4352 6.93108 10.2759C6.93108 10.1925 6.93108 10.1092 6.93108 10.002C6.27921 10.002 5.64486 10.002 5 10.002C5 8.87478 5 7.76742 5 6.62831C5.06659 6.62831 5.12967 6.62831 5.18925 6.62831C5.71495 6.62831 6.24065 6.62434 6.76636 6.63228C6.89953 6.63228 6.93458 6.58862 6.93458 6.44176C6.92757 5.55667 6.92757 4.6676 6.93458 3.78251C6.93808 3.16333 7.0257 2.56004 7.27804 2.00041C7.63902 1.21057 8.21028 0.698561 8.93224 0.381038C9.52103 0.119081 10.1414 0.0238242 10.7652 0.011917C11.7815 -0.00395911 12.7979 0.00397896 13.8143 9.92264e-06C13.9089 9.92264e-06 13.986 -0.00395912 13.986 0.146864C13.9825 1.23835 13.9825 2.32984 13.9825 3.42132C13.9825 3.43323 13.979 3.44514 13.965 3.49673C13.9054 3.49673 13.8388 3.49673 13.7722 3.49673C13.1414 3.49673 12.5105 3.49276 11.8797 3.49673C11.5152 3.49673 11.2208 3.66343 11.035 4.02462C10.979 4.13178 10.9439 4.2707 10.9439 4.39771C10.9334 5.07244 10.9439 5.74718 10.9369 6.42192C10.9369 6.58068 10.979 6.62434 11.1157 6.62434C11.9918 6.6164 12.868 6.62037 13.7442 6.62037C13.8143 6.62037 13.8808 6.62037 14 6.62037C13.8773 7.75551 13.7582 8.86685 13.6355 9.99008C12.7243 9.99008 11.8376 9.99008 10.9334 9.99008C10.9334 13.328 10.9334 16.6462 10.9334 19.9841Z" fill="#4A5568"/>
</svg>
