<svg width="20" height="20" viewBox="0 0 20 20" fill="none" xmlns="http://www.w3.org/2000/svg">
<path fill-rule="evenodd" clip-rule="evenodd" d="M10 18C14.4183 18 18 14.4183 18 10C18 5.58172 14.4183 2 10 2C5.58172 2 2 5.58172 2 10C2 14.4183 5.58172 18 10 18ZM10 20C15.5228 20 20 15.5228 20 10C20 4.47715 15.5228 0 10 0C4.47715 0 0 4.47715 0 10C0 15.5228 4.47715 20 10 20Z" fill="#718096"/>
<path d="M10.9844 15H9.00195V7.60352H10.9844V15ZM8.88574 5.68945C8.88574 5.39323 8.98372 5.14941 9.17969 4.95801C9.38021 4.7666 9.65137 4.6709 9.99316 4.6709C10.3304 4.6709 10.5993 4.7666 10.7998 4.95801C11.0003 5.14941 11.1006 5.39323 11.1006 5.68945C11.1006 5.99023 10.998 6.23633 10.793 6.42773C10.5924 6.61914 10.3258 6.71484 9.99316 6.71484C9.66048 6.71484 9.3916 6.61914 9.18652 6.42773C8.986 6.23633 8.88574 5.99023 8.88574 5.68945Z" fill="#718096"/>
</svg>
