<svg width="20" height="20" viewBox="0 0 20 20" fill="none" xmlns="http://www.w3.org/2000/svg">
<path fill-rule="evenodd" clip-rule="evenodd" d="M13.75 7.22222C13.75 8.44952 12.7426 9.44445 11.5 9.44445C10.2574 9.44445 9.25 8.44952 9.25 7.22222C9.25 5.99492 10.2574 5 11.5 5C12.7426 5 13.75 5.99492 13.75 7.22222ZM7 13.5185C7 13.5185 8.06875 10.5555 11.5 10.5555C14.9313 10.5555 16 13.5185 16 13.5185V15H7V13.5185Z" fill="white"/>
<path fill-rule="evenodd" clip-rule="evenodd" d="M18 2H4V5H6V6H4V8H6V9H4V11H6V12H4V14H6V15H4V18H18V2ZM2 15V18V20H4H18H20V18V2V0H18H4H2V2V5H0V6H2V8H0V9H2V11H0V12H2V14H0V15H2Z" fill="white"/>
</svg>
