<svg width="20" height="20" viewBox="0 0 20 20" fill="none" xmlns="http://www.w3.org/2000/svg">
<path fill-rule="evenodd" clip-rule="evenodd" d="M8 4H16V8H8V4ZM7 3H8H16H17V4V8V9H16H8H7V8V4V3ZM12 11H7V10L12 10V11ZM14 13L7 13V12L14 12V13ZM7 15H10V14H7V15ZM15 11H13V10H15V11Z" fill="white"/>
<path fill-rule="evenodd" clip-rule="evenodd" d="M4 0H5H19H20V1V18V20H18H3C1.34315 20 0 18.6569 0 17V5H1H2H4V1V0ZM5.82929 18H18V2H6V5V7V17C6 17.3506 5.93985 17.6872 5.82929 18ZM4 17V7H2L2 17C2 17.5523 2.44772 18 3 18C3.55228 18 4 17.5523 4 17Z" fill="white"/>
</svg>
