<svg width="20" height="20" viewBox="0 0 20 20" fill="none" xmlns="http://www.w3.org/2000/svg">
<path fill-rule="evenodd" clip-rule="evenodd" d="M0 18V0H0.000977393H2H13H15H15.001V0.000976563L18 3V5V7H16V5H13V2H2L2 16H6.00098V18H2H0.000977393H0ZM11 4H4V5H11V4ZM4 7H9V8H4V7Z" fill="#A0AEC0"/>
<path fill-rule="evenodd" clip-rule="evenodd" d="M18 14C18 16.2091 16.2091 18 14 18C11.7909 18 10 16.2091 10 14C10 11.7909 11.7909 10 14 10C16.2091 10 18 11.7909 18 14ZM20 14C20 17.3137 17.3137 20 14 20C10.6863 20 8 17.3137 8 14C8 10.6863 10.6863 8 14 8C17.3137 8 20 10.6863 20 14ZM11.7385 13.7692L13.0308 15.1538L16.2615 11.6923L17.2308 12.7308L13.0308 17.2308L10.7692 14.8077L11.7385 13.7692Z" fill="#A0AEC0"/>
</svg>
