<svg width="20" height="20" viewBox="0 0 20 20" fill="none" xmlns="http://www.w3.org/2000/svg">
<path fill-rule="evenodd" clip-rule="evenodd" d="M0 18V0H0.000977393H2H13H15H15.001V0.000976563L18 3V5V7H16V5H13V2H2L2 16H6.00098V18H2H0.000977393H0ZM11 4H4V5H11V4ZM4 7H9V8H4V7Z" fill="white"/>
<path fill-rule="evenodd" clip-rule="evenodd" d="M10 8H11V9H16V8H17V9H18H20V11V18V20H18H9H7V18V14V13V11V9H9H10V8ZM9 14V18H18V14H9ZM18 13H9V11H10V12H11V11H16V12H17V11H18V13ZM12 17V15H10V17H12Z" fill="white"/>
</svg>
