<svg width="20" height="20" viewBox="0 0 20 20" fill="none" xmlns="http://www.w3.org/2000/svg">
<path fill-rule="evenodd" clip-rule="evenodd" d="M18 2H2V18H18V2ZM0 0V20H20V0H0Z" fill="white"/>
<path d="M16 13.4773C16 13.6307 15.9716 13.831 15.9148 14.0781C15.858 14.3253 15.7983 14.5199 15.7358 14.6619C15.6165 14.946 15.2699 15.2472 14.696 15.5653C14.1619 15.8551 13.6335 16 13.1108 16C12.9574 16 12.8082 15.9901 12.6634 15.9702C12.5185 15.9503 12.3551 15.9148 12.1733 15.8636C11.9915 15.8125 11.8565 15.7713 11.7685 15.7401C11.6804 15.7088 11.5227 15.6506 11.2955 15.5653C11.0682 15.4801 10.929 15.429 10.8778 15.4119C10.321 15.2131 9.82386 14.9773 9.38636 14.7045C8.65909 14.2557 7.90767 13.6435 7.1321 12.8679C6.35653 12.0923 5.74432 11.3409 5.29545 10.6136C5.02273 10.1761 4.78693 9.67898 4.58807 9.12216C4.57102 9.07102 4.51989 8.93182 4.43466 8.70455C4.34943 8.47727 4.29119 8.3196 4.25994 8.23153C4.22869 8.14347 4.1875 8.00852 4.13636 7.8267C4.08523 7.64489 4.04972 7.48153 4.02983 7.33665C4.00994 7.19176 4 7.04261 4 6.8892C4 6.36648 4.14489 5.83807 4.43466 5.30398C4.75284 4.73011 5.05398 4.38352 5.33807 4.2642C5.48011 4.2017 5.67472 4.14205 5.92188 4.08523C6.16903 4.02841 6.36932 4 6.52273 4C6.60227 4 6.66193 4.00852 6.7017 4.02557C6.80398 4.05966 6.95455 4.27557 7.15341 4.6733C7.21591 4.78125 7.30114 4.93466 7.40909 5.13352C7.51705 5.33239 7.61648 5.51278 7.70739 5.67472C7.7983 5.83665 7.88636 5.98864 7.97159 6.13068C7.98864 6.15341 8.03835 6.22443 8.12074 6.34375C8.20313 6.46307 8.2642 6.56392 8.30398 6.64631C8.34375 6.72869 8.36364 6.80966 8.36364 6.8892C8.36364 7.00284 8.28267 7.14489 8.12074 7.31534C7.95881 7.4858 7.78267 7.64205 7.59233 7.78409C7.40199 7.92614 7.22585 8.0767 7.06392 8.2358C6.90199 8.39489 6.82102 8.52557 6.82102 8.62784C6.82102 8.67898 6.83523 8.7429 6.86364 8.8196C6.89205 8.89631 6.91619 8.95455 6.93608 8.99432C6.95597 9.03409 6.99574 9.10227 7.0554 9.19886C7.11506 9.29545 7.14773 9.34943 7.15341 9.3608C7.58523 10.1392 8.07955 10.8068 8.63636 11.3636C9.19318 11.9205 9.8608 12.4148 10.6392 12.8466C10.6506 12.8523 10.7045 12.8849 10.8011 12.9446C10.8977 13.0043 10.9659 13.044 11.0057 13.0639C11.0455 13.0838 11.1037 13.108 11.1804 13.1364C11.2571 13.1648 11.321 13.179 11.3722 13.179C11.4744 13.179 11.6051 13.098 11.7642 12.9361C11.9233 12.7741 12.0739 12.598 12.2159 12.4077C12.358 12.2173 12.5142 12.0412 12.6847 11.8793C12.8551 11.7173 12.9972 11.6364 13.1108 11.6364C13.1903 11.6364 13.2713 11.6563 13.3537 11.696C13.4361 11.7358 13.5369 11.7969 13.6563 11.8793C13.7756 11.9616 13.8466 12.0114 13.8693 12.0284C14.0114 12.1136 14.1634 12.2017 14.3253 12.2926C14.4872 12.3835 14.6676 12.483 14.8665 12.5909C15.0653 12.6989 15.2188 12.7841 15.3267 12.8466C15.7244 13.0455 15.9403 13.196 15.9744 13.2983C15.9915 13.3381 16 13.3977 16 13.4773Z" fill="white"/>
</svg>
