<svg width="20" height="20" viewBox="0 0 20 20" fill="none" xmlns="http://www.w3.org/2000/svg">
<rect x="4" y="6" width="6" height="2" rx="1" transform="rotate(-90 4 6)" fill="white"/>
<rect x="14" y="6" width="6" height="2" rx="1" transform="rotate(-90 14 6)" fill="white"/>
<path d="M1 4C1 3.44772 1.44772 3 2 3H18C18.5523 3 19 3.44772 19 4V16C19 17.6569 17.6569 19 16 19H4C2.34315 19 1 17.6569 1 16V4Z" stroke="white" stroke-width="2"/>
<circle cx="7" cy="10" r="2" stroke="white" stroke-width="2"/>
<path d="M4 18.9864C2.98471 18.9864 2.32036 18.5076 2.00163 18.2049C2.05701 16.4255 3.51693 15 5.30979 15H8.10202C10.2548 15 12 16.7452 12 18.898V18.898V18.898V18.8981V18.8982V18.8983V18.8983V18.8985V18.8986V18.8987V18.8989V18.8991V18.8992V18.8994V18.8997V18.8999V18.9001V18.9004V18.9007V18.901V18.9013V18.9016V18.9019V18.9022V18.9026V18.903V18.9034V18.9038V18.9042V18.9046V18.905V18.9055V18.906V18.9065V18.907V18.9075V18.908V18.9085V18.9091V18.9097V18.9102V18.9108V18.9114V18.9121V18.9127V18.9133V18.914V18.9147V18.9154V18.9161V18.9168V18.9175V18.9182V18.919V18.9197V18.9205V18.9213V18.9221V18.9229V18.9238V18.9246V18.9255V18.9263V18.9272V18.9281V18.929V18.9299V18.9309V18.9318V18.9328V18.9337V18.9347V18.9357V18.9367V18.9377V18.9387V18.9398V18.9408V18.9419V18.943V18.9441V18.9452V18.9463V18.9474V18.9485V18.9497V18.9508V18.952V18.9532V18.9544V18.9556V18.9568V18.958V18.9593V18.9605V18.9618V18.9631V18.9643V18.9656V18.9669V18.9683V18.9696V18.9709V18.9723V18.9736V18.975V18.9764V18.9778V18.9792V18.9806V18.982V18.9835V18.9849V18.9864V18.9879V18.9893V18.9908V18.9923V18.9938V18.9954V18.9969V18.998C11.842 18.9985 11.6687 18.999 11.4829 18.9993C10.656 19.0007 9.58573 18.9998 8.51342 18.9979C7.09179 18.9953 5.6634 18.9911 4.8007 18.9886C4.36462 18.9873 4.07308 18.9864 4 18.9864Z" stroke="white" stroke-width="2"/>
<circle cx="13.5" cy="11.5" r="1.5" stroke="white" stroke-width="2"/>
<path fill-rule="evenodd" clip-rule="evenodd" d="M10.6074 19.6317C11.3779 19.8268 12.3777 20 13.5 20H15.5C16.5435 20 17.3451 19.56 17.7363 19.2922C17.911 19.1726 18 18.9702 18 18.7584C18 16.6827 16.3173 15 14.2416 15H12.6305C11.8254 15 11.0816 15.262 10.4796 15.7055C11.0155 16.1141 11.4283 16.676 11.6526 17.3257C11.925 17.1212 12.2636 17 12.6305 17H14.2416C14.9297 17 15.5255 17.3952 15.8143 17.9711C15.7144 17.9893 15.6092 18 15.5 18H15.4913H15.4825H15.4739H15.4653H15.4567H15.4482H15.4398H15.4314H15.423H15.4147H15.4065H15.3983H15.3901H15.3821H15.374H15.366H15.3581H15.3502H15.3423H15.3345H15.3268H15.3191H15.3114H15.3038H15.2963H15.2888H15.2813H15.2739H15.2665H15.2592H15.2519H15.2447H15.2375H15.2304H15.2233H15.2163H15.2093H15.2023H15.1954H15.1886H15.1818H15.175H15.1683H15.1616H15.1549H15.1484H15.1418H15.1353H15.1288H15.1224H15.116H15.1097H15.1034H15.0972H15.091H15.0848H15.0787H15.0726H15.0666H15.0606H15.0546H15.0487H15.0428H15.037H15.0312H15.0254H15.0197H15.014H15.0084H15.0028H14.9972H14.9917H14.9862H14.9808H14.9754H14.97H14.9647H14.9594H14.9541H14.9489H14.9437H14.9386H14.9335H14.9284H14.9234H14.9184H14.9134H14.9085H14.9036H14.8987H14.8939H14.8891H14.8844H14.8797H14.875H14.8703H14.8657H14.8611H14.8566H14.8521H14.8476H14.8431H14.8387H14.8343H14.83H14.8257H14.8214H14.8171H14.8129H14.8087H14.8045H14.8004H14.7963H14.7922H14.7882H14.7842H14.7802H14.7762H14.7723H14.7684H14.7646H14.7607H14.7569H14.7531H14.7494H14.7457H14.742H14.7383H14.7347H14.7311H14.7275H14.7239H14.7204H14.7169H14.7134H14.71H14.7065H14.7031H14.6998H14.6964H14.6931H14.6898H14.6865H14.6833H14.68H14.6768H14.6737H14.6705H14.6674H14.6643H14.6612H14.6581H14.6551H14.6521H14.6491H14.6461H14.6432H14.6403H14.6373H14.6345H14.6316H14.6288H14.6259H14.6231H14.6204H14.6176H14.6149H14.6121H14.6094H14.6068H14.6041H14.6015H14.5988H14.5962H14.5936H14.5911H14.5885H14.586H14.5835H14.581H14.5785H14.576H14.5736H14.5712H14.5687H14.5663H14.564H14.5616H14.5593H14.5569H14.5546H14.5523H14.55H14.5477H14.5455H14.5432H14.541H14.5388H14.5366H14.5344H14.5322H14.53H14.5279H14.5258H14.5236H14.5215H14.5194H14.5173H14.5152H14.5132H14.5111H14.5091H14.507H14.505H14.503H14.501H14.499H14.497H14.4951H14.4931H14.4912H14.4892H14.4873H14.4853H14.4834H14.4815H14.4796H14.4777H14.4758H14.474H14.4721H14.4702H14.4684H14.4665H14.4647H14.4628H14.461H14.4592H14.4574H14.4556H14.4538H14.4519H14.4502H14.4484H14.4466H14.4448H14.443H14.4412H14.4395H14.4377H14.4359H14.4342H14.4324H14.4307H14.4289H14.4271H14.4254H14.4237H14.4219H14.4202H14.4184H14.4167H14.4149H14.4132H14.4115H14.4097H14.408H14.4063H14.4045H14.4028H14.401H14.3993H14.3976H14.3958H14.3941H14.3923H14.3906H14.3888H14.3871H14.3853H14.3836H14.3818H14.3801H14.3783H14.3765H14.3748H14.373H14.3712H14.3694H14.3677H14.3659H14.3641H14.3623H14.3605H14.3587H14.3568H14.355H14.3532H14.3514H14.3495H14.3477H14.3458H14.344H14.3421H14.3402H14.3383H14.3365H14.3346H14.3326H14.3307H14.3288H14.3269H14.3249H14.323H14.321H14.3191H14.3171H14.3151H14.3131H14.3111H14.3091H14.3071H14.305H14.303H14.3009H14.2988H14.2968H14.2947H14.2926H14.2904H14.2883H14.2862H14.284H14.2818H14.2797H14.2775H14.2752H14.273H14.2708H14.2685H14.2663H14.264H14.2617H14.2594H14.2571H14.2547H14.2524H14.25H14.2476H14.2452H14.2428H14.2403H14.2379H14.2354H14.2329H14.2304H14.2279H14.2253H14.2228H14.2202H14.2176H14.215H14.2124H14.2097H14.207H14.2044H14.2016H14.1989H14.1962H14.1934H14.1906H14.1878H14.185H14.1821H14.1792H14.1764H14.1734H14.1705H14.1675H14.1646H14.1616H14.1585H14.1555H14.1524H14.1493H14.1462H14.1431H14.1399H14.1367H14.1335H14.1303H14.127H14.1237H14.1204H14.1171H14.1137H14.1103H14.1069H14.1035H14.1H14.0965H14.093H14.0895H14.0859H14.0823H14.0787H14.075H14.0713H14.0676H14.0639H14.0601H14.0563H14.0525H14.0487H14.0448H14.0409H14.037H14.033H14.029H14.025H14.0209H14.0168H14.0127H14.0086H14.0044H14.0002H13.9959H13.9917H13.9874H13.983H13.9787H13.9743H13.9698H13.9654H13.9609H13.9563H13.9518H13.9472H13.9425H13.9379H13.9332H13.9284H13.9237H13.9189H13.914H13.9092H13.9042H13.8993H13.8943H13.8893H13.8843H13.8792H13.874H13.8689H13.8637H13.8584H13.8532H13.8479H13.8425H13.8371H13.8317H13.8262H13.8207H13.8152H13.8096H13.804H13.7984H13.7927H13.7869H13.7812H13.7753H13.7695H13.7636H13.7576H13.7517H13.7457H13.7396H13.7335H13.7274H13.7212H13.7149H13.7087H13.7024H13.696H13.6896H13.6832H13.6767H13.6702H13.6636H13.657H13.6503H13.6436H13.6369H13.6301H13.6233H13.6164H13.6094H13.6025H13.5955H13.5884H13.5813H13.5741H13.5669H13.5597H13.5524H13.5451H13.5377H13.5302H13.5228H13.5152H13.5076H13.5C12.8759 18 12.295 17.9345 11.787 17.8423C11.8224 18.0406 11.8408 18.2447 11.8408 18.4531V18.6793C11.8408 18.9351 11.7083 19.1719 11.4778 19.2826C11.2665 19.3839 10.97 19.5119 10.6074 19.6317Z" fill="white"/>
</svg>
