<svg width="20" height="20" viewBox="0 0 20 20" fill="none" xmlns="http://www.w3.org/2000/svg">
<rect x="4" y="6" width="6" height="2" rx="1" transform="rotate(-90 4 6)" fill="white"/>
<rect x="20" y="9" width="20" height="2" rx="1" transform="rotate(180 20 9)" fill="white"/>
<rect x="14" y="6" width="6" height="2" rx="1" transform="rotate(-90 14 6)" fill="white"/>
<path d="M1 4C1 3.44772 1.44772 3 2 3H18C18.5523 3 19 3.44772 19 4V16C19 17.6569 17.6569 19 16 19H4C2.34315 19 1 17.6569 1 16V4Z" stroke="white" stroke-width="2"/>
<rect x="3.98828" y="11" width="5" height="5" rx="2" fill="white"/>
</svg>
