<svg width="20" height="20" viewBox="0 0 20 20" fill="none" xmlns="http://www.w3.org/2000/svg">
<path fill-rule="evenodd" clip-rule="evenodd" d="M6 2L6 4L14 4L14 2L6 2ZM4 4C4 5.10457 4.89543 6 6 6L14 6C15.1046 6 16 5.10457 16 4L16 2C16 0.895431 15.1046 -8.55899e-09 14 3.97233e-08L6 3.89414e-07C4.89543 4.37697e-07 4 0.895431 4 2L4 4Z" fill="white"/>
<path d="M16 10C16 10.5523 15.5523 11 15 11L5 11C4.44771 11 4 10.5523 4 10C4 9.44772 4.44772 9 5 9L15 9C15.5523 9 16 9.44771 16 10Z" fill="white"/>
<path d="M12 14C12 14.5523 11.5523 15 11 15L5 15C4.44772 15 4 14.5523 4 14C4 13.4477 4.44772 13 5 13L11 13C11.5523 13 12 13.4477 12 14Z" fill="white"/>
<path fill-rule="evenodd" clip-rule="evenodd" d="M14 4H18V18H2V4H6L6 2H2C0.895431 2 0 2.89543 0 4V18C0 19.1046 0.895431 20 2 20H18C19.1046 20 20 19.1046 20 18V4C20 2.89543 19.1046 2 18 2H14V4Z" fill="white"/>
</svg>
