<svg width="20" height="20" viewBox="0 0 20 20" fill="none" xmlns="http://www.w3.org/2000/svg">
<path fill-rule="evenodd" clip-rule="evenodd" d="M14 2H2V15C2 16.6569 3.34315 18 5 18H14V2ZM2 0C0.895431 0 0 0.895431 0 2V15C0 17.7614 2.23858 20 5 20H16V2C16 0.895431 15.1046 0 14 0H2Z" fill="#393F5A"/>
<path d="M12 12C12 12.5523 11.5523 13 11 13L5 13C4.44772 13 4 12.5523 4 12C4 11.4477 4.44772 11 5 11L11 11C11.5523 11 12 11.4477 12 12Z" fill="#393F5A"/>
<path fill-rule="evenodd" clip-rule="evenodd" d="M6 8L10 8L10 6L6 6L6 8ZM10 10C11.1046 10 12 9.10457 12 8L12 6C12 4.89543 11.1046 4 10 4L6 4C4.89543 4 4 4.89543 4 6L4 8C4 9.10457 4.89543 10 6 10L10 10Z" fill="#393F5A"/>
<path d="M8 15C8 15.5523 7.55228 16 7 16L5 16C4.44772 16 4 15.5523 4 15C4 14.4477 4.44772 14 5 14L7 14C7.55228 14 8 14.4477 8 15Z" fill="#393F5A"/>
<path fill-rule="evenodd" clip-rule="evenodd" d="M18 6H16V18H18V6ZM14 4V20H18C19.1046 20 20 19.1046 20 18V6C20 4.89543 19.1046 4 18 4H14Z" fill="#393F5A"/>
</svg>
