<svg width="150" height="150" viewBox="0 0 150 150" fill="none" xmlns="http://www.w3.org/2000/svg">
<path fill-rule="evenodd" clip-rule="evenodd" d="M64.2 39.5H85.8L93.1506 49.3008H107.4H109.4V51.3008V108.901V110.901H107.4H42.6H40.6V108.901V51.3008V49.3008H42.6H56.8494L64.2 39.5ZM53.8494 53.3008H44.6V106.901H105.4V53.3008H96.1506L96.6 53.9H53.4L53.8494 53.3008ZM78.6 46.7C78.6 48.6882 76.9882 50.3 75 50.3C73.0118 50.3 71.4 48.6882 71.4 46.7C71.4 44.7118 73.0118 43.1 75 43.1C76.9882 43.1 78.6 44.7118 78.6 46.7Z" fill="#CBD5E0"/>
<path d="M93 73.8879C93 74.1929 92.8125 74.5256 92.4375 74.886L84.5841 82.2471L86.4447 92.644C86.4591 92.7411 86.4663 92.8797 86.4663 93.0599C86.4663 93.351 86.3906 93.5971 86.2392 93.7981C86.0877 93.9991 85.8678 94.0996 85.5793 94.0996C85.3053 94.0996 85.0168 94.0164 84.7139 93.8501L75 88.9427L65.2861 93.8501C64.9688 94.0164 64.6803 94.0996 64.4207 94.0996C64.1178 94.0996 63.8906 93.9991 63.7392 93.7981C63.5877 93.5971 63.512 93.351 63.512 93.0599C63.512 92.9767 63.5264 92.8381 63.5553 92.644L65.4159 82.2471L57.5409 74.886C57.1803 74.5117 57 74.179 57 73.8879C57 73.375 57.4038 73.0561 58.2115 72.9314L69.0721 71.4134L73.9399 61.9522C74.2139 61.3838 74.5673 61.0996 75 61.0996C75.4327 61.0996 75.7861 61.3838 76.0601 61.9522L80.9279 71.4134L91.7885 72.9314C92.5962 73.0561 93 73.375 93 73.8879Z" fill="#CBD5E0"/>
<circle cx="75" cy="75" r="74.5" stroke="#CBD5E0"/>
</svg>
