<svg width="20" height="20" viewBox="0 0 20 20" fill="none" xmlns="http://www.w3.org/2000/svg">
<path fill-rule="evenodd" clip-rule="evenodd" d="M12 0H4.00002V2H7.00002V4.12527C3.06458 4.78871 0 8.01266 0 12C0 16.4824 3.87272 20 8.5018 20C10.7964 20 12.89 19.1432 14.4268 17.738L13.0772 16.262C11.9078 17.3312 10.2952 18 8.5018 18C4.84462 18 2 15.2496 2 12C2 8.75037 4.84462 6 8.5018 6C10.2952 6 11.9078 6.66878 13.0772 7.738L14.4268 6.262C13.002 4.95923 11.0986 4.12777 9.00002 4.01353V2H12V0Z" fill="#006F7D"/>
<path fill-rule="evenodd" clip-rule="evenodd" d="M14 9.5L15.5 8L19.5 12L15.5 16L14 14.5L15.5 13H6V11H15.5L14 9.5Z" fill="#006F7D"/>
</svg>
