<svg width="30" height="30" viewBox="0 0 30 30" fill="none" xmlns="http://www.w3.org/2000/svg">
<circle cx="15" cy="15.0005" r="15" fill="#53C01E"/>
<path d="M14.5438 7.90898C14.7272 7.53736 15.2571 7.53736 15.4406 7.90898L17.227 11.5287C17.2998 11.6763 17.4406 11.7786 17.6035 11.8022L21.5981 12.3827C22.0082 12.4423 22.1719 12.9462 21.8752 13.2355L18.9846 16.0531C18.8668 16.1679 18.813 16.3334 18.8408 16.4956L19.5232 20.4741C19.5933 20.8825 19.1645 21.194 18.7977 21.0012L15.2249 19.1228C15.0792 19.0462 14.9052 19.0462 14.7595 19.1228L11.1866 21.0012C10.8198 21.194 10.3911 20.8825 10.4612 20.4741L11.1435 16.4956C11.1713 16.3334 11.1176 16.1679 10.9997 16.0531L8.10921 13.2355C7.81245 12.9462 7.97621 12.4423 8.38632 12.3827L12.3809 11.8022C12.5438 11.7786 12.6846 11.6763 12.7574 11.5287L14.5438 7.90898Z" stroke="white" stroke-width="2"/>
</svg>
