<svg width="20" height="20" viewBox="0 0 20 20" fill="none" xmlns="http://www.w3.org/2000/svg">
<path fill-rule="evenodd" clip-rule="evenodd" d="M6.0001 0H14.0001V2H11.0002V2.05495C12.0841 2.1748 13.11 2.48713 14.043 2.95702L12.5291 4.47085C11.7447 4.16678 10.8918 4 10 4C6.13401 4 3 7.13401 3 11C3 14.866 6.13401 18 10 18C13.866 18 17 14.866 17 11C17 10.2437 16.8801 9.51537 16.6581 8.83307L18.2019 7.28934C18.7145 8.42073 19 9.67703 19 11C19 15.9706 14.9706 20 10 20C5.02944 20 1 15.9706 1 11C1 6.36738 4.50015 2.55226 9.0002 2.05491V2H6.0001V0Z" fill="#718096"/>
<path d="M7 11.5003V14H9.49965L16.872 6.62769L14.3723 4.12804L7 11.5003ZM18.805 4.69463C19.065 4.43466 19.065 4.01472 18.805 3.75476L17.2452 2.19497C16.9853 1.93501 16.5653 1.93501 16.3054 2.19497L15.0855 3.4148L17.5852 5.91446L18.805 4.69463V4.69463Z" fill="#718096"/>
</svg>
