<svg width="21" height="20" viewBox="0 0 21 20" fill="none" xmlns="http://www.w3.org/2000/svg">
<rect x="12.376" y="13.875" width="2.82843" height="8.66206" transform="rotate(-45 12.376 13.875)" fill="white"/>
<path fill-rule="evenodd" clip-rule="evenodd" d="M14.501 8C14.501 11.3137 11.8147 14 8.50098 14C5.18727 14 2.50098 11.3137 2.50098 8C2.50098 4.68629 5.18727 2 8.50098 2C11.8147 2 14.501 4.68629 14.501 8ZM16.501 8C16.501 12.4183 12.9193 16 8.50098 16C4.0827 16 0.500977 12.4183 0.500977 8C0.500977 3.58172 4.0827 0 8.50098 0C12.9193 0 16.501 3.58172 16.501 8ZM8.50098 4.5C10.434 4.5 12.001 6.067 12.001 8H13.001C13.001 5.51472 10.9863 3.5 8.50098 3.5V4.5Z" fill="white"/>
</svg>
