<svg width="20" height="20" viewBox="0 0 20 20" fill="none" xmlns="http://www.w3.org/2000/svg">
<path fill-rule="evenodd" clip-rule="evenodd" d="M5 0H4V2H2H0V4V18V20H2H18H20V18V4V2H18H16V0H15V2H5V0ZM15 6V4H5V6H4V4H2V7H18V4H16V6H15ZM18 8H2V18H18V8Z" fill="white"/>
<path d="M14 11.7127C14 11.7774 13.9583 11.8479 13.875 11.9244L12.1298 13.4858L12.5433 15.6912C12.5465 15.7118 12.5481 15.7412 12.5481 15.7795C12.5481 15.8412 12.5313 15.8934 12.4976 15.936C12.4639 15.9787 12.4151 16 12.351 16C12.2901 16 12.226 15.9824 12.1587 15.9471L10 14.9061L7.84135 15.9471C7.77083 15.9824 7.70673 16 7.64904 16C7.58173 16 7.53125 15.9787 7.4976 15.936C7.46394 15.8934 7.44712 15.8412 7.44712 15.7795C7.44712 15.7618 7.45032 15.7324 7.45673 15.6912L7.87019 13.4858L6.12019 11.9244C6.04006 11.845 6 11.7744 6 11.7127C6 11.6039 6.08974 11.5362 6.26923 11.5098L8.68269 11.1878L9.76442 9.18084C9.82532 9.06028 9.90385 9 10 9C10.0962 9 10.1747 9.06028 10.2356 9.18084L11.3173 11.1878L13.7308 11.5098C13.9103 11.5362 14 11.6039 14 11.7127Z" fill="white"/>
</svg>
