<svg width="20" height="20" viewBox="0 0 20 20" fill="none" xmlns="http://www.w3.org/2000/svg">
<path fill-rule="evenodd" clip-rule="evenodd" d="M0 18V0H0.000977393H2H13H15H15.001V0.000977516L18 3V5V10H16V5H13V2H2L2 16H10.001V18H2H0.000977393H0ZM8 4C8.53043 4 9.03914 4.21071 9.41421 4.58579C9.78929 4.96086 10 5.46957 10 6C10 6.53043 9.78929 7.03914 9.41421 7.41421C9.03914 7.78929 8.53043 8 8 8C7.46957 8 6.96086 7.78929 6.58579 7.41421C6.21071 7.03914 6 6.53043 6 6C6 5.46957 6.21071 4.96086 6.58579 4.58579C6.96086 4.21071 7.46957 4 8 4ZM8 9C9.335 9 12 9.67 12 11V12H4V11C4 9.67 6.665 9 8 9Z" fill="#A0AEC0"/>
<path fill-rule="evenodd" clip-rule="evenodd" d="M17 12H15V15L12 15V17H15V20H17V17H20V15L17 15V12Z" fill="#A0AEC0"/>
</svg>
