<svg width="20" height="20" viewBox="0 0 20 20" fill="none" xmlns="http://www.w3.org/2000/svg">
<path fill-rule="evenodd" clip-rule="evenodd" d="M18 2H2V18H18V2ZM0 0V20H20V0H0Z" fill="#A0AEC0"/>
<path d="M13.6013 15.9906V11.1415C13.6013 11.1415 13.4668 9.84429 12.2908 9.84429C11.1156 9.84429 10.9006 11.0775 10.9006 11.0775V15.9906H8.47853L8.51804 7.98049H10.8611L10.8421 8.98733C10.8421 8.98733 11.3306 7.67141 13.1713 7.67141C15.0113 7.67141 15.845 8.80001 16 10.9104C16 13.0217 16 15.9906 16 15.9906H13.6013ZM5.50796 6.84255C4.67573 6.84255 4 6.20722 4 5.42206C4 4.6369 4.67573 4 5.50796 4C6.3402 4 7.01593 4.63688 7.01593 5.42206C7.01593 6.20724 6.34018 6.84255 5.50796 6.84255ZM7.00275 16H4.02488V8.00079L7.00275 7.98049V16Z" fill="#A0AEC0"/>
</svg>
