<svg width="20" height="21" viewBox="0 0 20 21" fill="none" xmlns="http://www.w3.org/2000/svg">
<path fill-rule="evenodd" clip-rule="evenodd" d="M6.70921 1.23005C6.82057 0.5083 7.43325 0 8.14885 0H11.8521C12.5364 0 13.1874 0.478309 13.3034 1.23005L13.3047 1.23849L13.5724 3.07791C13.8442 3.21122 14.1042 3.35898 14.3554 3.52055L16.1911 2.80309L16.2193 2.79396C16.7958 2.60713 17.5661 2.76792 17.9576 3.44253L19.8155 6.56963L19.8245 6.58608C20.1538 7.19089 20.0196 7.9802 19.4445 8.42748L19.4353 8.43458L17.931 9.57685C17.9398 9.7169 17.9442 9.85825 17.9442 10.0008C17.9442 10.1441 17.9397 10.2842 17.932 10.4208L19.4208 11.5649C20.026 12.0159 20.157 12.814 19.8029 13.4335L19.7987 13.4409L17.9459 16.5593C17.5748 17.1982 16.8094 17.4365 16.1623 17.1918L16.1519 17.1879L14.3422 16.4805C14.0939 16.6397 13.8335 16.7884 13.5609 16.9227L13.2953 18.7478C13.2004 19.5357 12.5166 20.0017 11.8521 20.0017H8.14885C7.42437 20.0017 6.84462 19.4923 6.70645 18.8206L6.70057 18.7921L6.42863 16.9238C6.15679 16.7905 5.89678 16.6427 5.6456 16.4811L3.80989 17.1986L3.78173 17.2077C3.20522 17.3945 2.43497 17.2338 2.04342 16.5592L0.185463 13.4321L0.176508 13.4156C-0.152843 12.8108 -0.0185651 12.0215 0.556533 11.5742L0.565668 11.5671L2.07033 10.4246C2.06128 10.2823 2.05683 10.1402 2.05683 10.0008C2.05683 9.85617 2.06353 9.71217 2.07481 9.57168L0.582996 8.43887C-0.0246252 7.9883 -0.156523 7.18869 0.198071 6.56817L0.202274 6.56081L2.05506 3.44235C2.42619 2.80344 3.19157 2.56523 3.83867 2.80988L3.84906 2.81381L5.65879 3.52117C5.9071 3.36198 6.16751 3.2133 6.44005 3.07894L6.70921 1.23005ZM8.61818 2L8.25662 4.48398L7.71917 4.69725C7.24365 4.88594 6.79721 5.1446 6.38028 5.45107L5.93672 5.77713L3.54876 4.84383L2.183 7.14257L4.2224 8.69119L4.12456 9.28565C4.08327 9.53658 4.05683 9.78212 4.05683 10.0008C4.05683 10.2435 4.07625 10.4928 4.11299 10.716L4.21082 11.3105L2.17143 12.8591L3.53719 15.1579L5.92737 14.2237L6.37165 14.5528C6.79525 14.8666 7.22908 15.1145 7.7076 15.3044L8.24504 15.5177L8.6066 18.0017H11.3828L11.7444 15.5177L12.2818 15.3044C12.7573 15.1157 13.2038 14.8571 13.6207 14.5506L14.0643 14.2246L16.4522 15.1579L17.8195 12.8567L15.8238 11.3231L15.8938 10.7559C15.9249 10.5044 15.9442 10.254 15.9442 10.0008C15.9442 9.74793 15.9249 9.50987 15.888 9.28565L15.7902 8.69119L17.8296 7.14257L16.4638 4.84383L14.0736 5.77799L13.6293 5.4489C13.2057 5.13513 12.7719 4.88713 12.2934 4.69725L11.7559 4.48398L11.3944 2H8.61818Z" fill="#718096"/>
<path fill-rule="evenodd" clip-rule="evenodd" d="M9.99975 12.6006C11.4359 12.6006 12.6001 11.4364 12.6001 10.0002C12.6001 8.56411 11.4359 7.3999 9.99975 7.3999C8.56362 7.3999 7.39941 8.56411 7.39941 10.0002C7.39941 11.4364 8.56362 12.6006 9.99975 12.6006ZM9.99975 13.6006C11.9882 13.6006 13.6001 11.9886 13.6001 10.0002C13.6001 8.01183 11.9882 6.3999 9.99975 6.3999C8.01134 6.3999 6.39941 8.01183 6.39941 10.0002C6.39941 11.9886 8.01134 13.6006 9.99975 13.6006Z" fill="#718096"/>
</svg>
