<svg width="20" height="20" viewBox="0 0 20 20" fill="none" xmlns="http://www.w3.org/2000/svg">
<path d="M19 10C19 15.0103 14.9175 19 10 19C5.08247 19 1 15.0103 1 10C1 4.98969 4.98969 1 10 1C15.0103 1 19 4.98969 19 10ZM9.90722 14.268C9.90722 14.0825 9.81443 13.9897 9.62887 13.8969C9.07216 13.7113 8.51546 13.7113 8.05155 13.2474C7.95876 13.0619 7.95876 12.8763 7.86598 12.6907C7.68041 12.5052 7.21649 12.4124 6.93814 12.3196C6.56701 12.3196 6.19588 12.3196 5.73196 12.3196C5.54639 12.3196 5.26804 12.3196 5.08247 12.3196C4.80412 12.2268 4.61856 11.8557 4.43299 11.5773C4.43299 11.4845 4.43299 11.299 4.24742 11.299C4.06186 11.2062 3.87629 11.3918 3.69072 11.299C3.59794 11.2062 3.59794 11.1134 3.59794 11.0206C3.59794 10.7423 3.7835 10.4639 3.96907 10.2783C4.24742 10.0928 4.52577 10.3711 4.80412 10.3711C4.89691 10.3711 4.89691 10.3711 4.98969 10.4639C5.26804 10.5567 5.36082 10.9278 5.36082 11.2062C5.36082 11.299 5.36082 11.3918 5.36082 11.3918C5.36082 11.4845 5.45361 11.4845 5.54639 11.4845C5.63917 11.0206 5.63918 10.5567 5.73196 10.0928C5.73196 9.53608 6.28866 8.97938 6.75258 8.79381C6.93814 8.70103 7.03093 8.8866 7.21649 8.79381C7.7732 8.60825 9.16495 8.05155 8.8866 7.30928C8.70103 6.65979 8.14433 6.01031 7.40206 6.10309C7.21649 6.19588 7.12371 6.28866 6.93814 6.38144C6.65979 6.56701 6.10309 7.12371 5.82474 7.12371C5.36082 7.03093 5.36082 6.38144 5.45361 6.10309C5.54639 5.73196 6.38144 4.52577 6.93814 4.71134C7.03093 4.80412 7.21649 4.98969 7.30928 5.08247C7.49484 5.17526 7.77319 5.17526 8.05155 5.17526C8.14433 5.17526 8.23711 5.17526 8.3299 5.08247C8.42268 4.98969 8.42268 4.98969 8.42268 4.89691C8.42268 4.61856 8.14433 4.34021 7.95876 4.15464C7.7732 3.96907 7.49484 3.7835 7.21649 3.69072C6.28866 3.41237 4.80412 3.7835 4.06186 4.43299C3.31959 5.08247 2.76289 6.19588 2.39175 7.12371C2.20619 7.68041 2.02062 8.42268 1.92783 9.07216C1.83505 9.53608 1.74227 9.90722 2.02062 10.3711C2.29897 10.9278 2.85567 11.4845 3.41237 11.8557C3.78351 12.134 4.52577 12.134 4.89691 12.5979C5.17526 12.9691 5.08247 13.433 5.08247 13.8969C5.08247 14.4536 5.45361 14.9175 5.63917 15.3814C5.73196 15.6598 5.82474 16.0309 5.91753 16.3093C5.91753 16.4021 6.01031 16.9588 6.01031 17.0515C6.56701 17.3299 7.03093 17.6082 7.68041 17.7938C7.7732 17.7938 8.14433 17.2371 8.14433 17.1443C8.42268 16.866 8.60825 16.4948 8.8866 16.3093C9.07216 16.2165 9.25773 16.1237 9.4433 15.9381C9.62887 15.7526 9.72165 15.3814 9.81443 15.1031C9.90722 14.9175 10 14.5464 9.90722 14.268ZM10.0928 5.73196C10.1856 5.73196 10.2783 5.63917 10.4639 5.54639C10.7423 5.36082 11.0206 5.08247 11.299 4.89691C11.5773 4.71134 11.8557 4.43299 12.0412 4.24742C12.3196 4.06186 12.5052 3.69072 12.5979 3.41237C12.6907 3.2268 12.9691 2.85567 12.8763 2.57732C12.7835 2.39175 12.3196 2.29897 12.134 2.20619C11.3918 2.02062 10.7423 1.92783 10 1.92783C9.72165 1.92783 9.35051 2.02062 9.25773 2.29897C9.16495 2.76289 9.53608 2.6701 9.90722 2.76289C9.90722 2.76289 10 3.50515 10 3.59794C10.0928 4.06186 9.81443 4.34021 9.81443 4.80412C9.81443 5.08247 9.81443 5.54639 10 5.73196H10.0928ZM17.8866 12.2268C17.9794 12.0412 17.9794 11.7629 18.0722 11.5773C18.1649 11.1134 18.1649 10.6495 18.1649 10.1856C18.1649 9.25773 18.0722 8.3299 17.7938 7.49484C17.6082 7.21649 17.5155 6.93814 17.4227 6.65979C17.2371 6.19588 16.9588 5.73196 16.5876 5.36082C16.2165 4.89691 15.7526 3.59794 14.9175 3.96907C14.6392 4.06186 14.4536 4.43299 14.268 4.61856C14.0825 4.89691 13.8969 5.17526 13.7113 5.45361C13.6186 5.54639 13.5258 5.73196 13.6186 5.82474C13.6186 5.91753 13.7113 5.91753 13.8041 5.91753C13.9897 6.01031 14.0825 6.01031 14.268 6.10309C14.3608 6.10309 14.4536 6.19588 14.3608 6.28866C14.3608 6.28866 14.3608 6.38144 14.268 6.38144C13.8041 6.84536 13.3402 7.21649 12.8763 7.68041C12.7835 7.7732 12.6907 7.95876 12.6907 8.05155C12.6907 8.14433 12.7835 8.14433 12.7835 8.23711C12.7835 8.3299 12.6907 8.3299 12.5979 8.42268C12.4124 8.51546 12.2268 8.60825 12.134 8.70103C12.0412 8.8866 12.134 9.16495 12.0412 9.35052C11.9485 9.81443 11.6701 10.1856 11.4845 10.6495C11.299 10.9278 11.2062 11.2062 11.0206 11.4845C11.0206 11.8557 10.9278 12.134 11.1134 12.4124C11.5773 13.0619 12.4124 12.6907 13.0619 12.9691C13.2474 13.0619 13.433 13.0619 13.5258 13.2474C13.8041 13.5258 13.8041 13.9897 13.8969 14.268C13.9897 14.6392 14.0825 15.0103 14.268 15.3814C14.3608 15.8454 14.5464 16.3093 14.6392 16.6804C15.4742 16.0309 16.2165 15.2887 16.7732 14.3608C17.3299 13.7113 17.6082 12.9691 17.8866 12.2268Z" fill="#CBD5E0"/>
<path d="M2 10C2 5.60228 5.60228 2 10 2C14.3977 2 18 5.60228 18 10C18 14.3977 14.3977 18 10 18C5.60228 18 2 14.3977 2 10Z" stroke="#CBD5E0" stroke-width="2"/>
</svg>
