<svg width="40" height="40" viewBox="0 0 40 40" fill="none" xmlns="http://www.w3.org/2000/svg">
<path fill-rule="evenodd" clip-rule="evenodd" d="M0 0H2H15H17H18H18.8284L19.4142 0.585786L24.4142 5.58579L25 6.17157V7V8V10V16H21V10H15V8V4H4V28H14V32H2H0V30V2V0ZM17 8H21V7.82843L17.1716 4H17V8ZM6 22V20H14V22H6ZM12 11C12 12.1046 11.1046 13 10 13C8.89543 13 8 12.1046 8 11C8 9.89543 8.89543 9 10 9C11.1046 9 12 9.89543 12 11ZM10 14C6.95 14 6 16.6667 6 16.6667V18H14V16.6667C14 16.6667 13.05 14 10 14ZM6 24V26H12V24H6Z" fill="#4A5568"/>
<path fill-rule="evenodd" clip-rule="evenodd" d="M29 23C29 25.7614 26.7614 28 24 28C21.2386 28 19 25.7614 19 23C19 20.2386 21.2386 18 24 18C26.7614 18 29 20.2386 29 23ZM14 36.6667C14 36.6667 16.375 30 24 30C31.625 30 34 36.6667 34 36.6667V40H14V36.6667ZM36 33H34V29H30V27H34V23H36V27H40V29H36V33Z" fill="#3499FE"/>
</svg>
