<svg width="40" height="40" viewBox="0 0 40 40" fill="none" xmlns="http://www.w3.org/2000/svg">
<path fill-rule="evenodd" clip-rule="evenodd" d="M6 0H8H28H30V2V13.5H26V4H10V5V7V25H6L6 7H4V27H10V31H2H0V29V5V3H2H6V2V0ZM24 6L12 6V8L24 8V6ZM12 12V10H21V12H12ZM12 14V16H18V14H12Z" fill="black"/><path fill-rule="evenodd" clip-rule="evenodd" d="M35 32.5981L36 33.1606V16.8394L35 17.4019V32.5981ZM33 31.4731V18.5269L28 21.3394V23V27V28.6606L33 31.4731ZM36 12.25L24 19H16H12V23V27V31H15V36V40H19H21H25V36V31.5625L36 37.75L40 40V35.4106V14.5894V10L36 12.25ZM16 23H24V27H21H19H16V23ZM21 31H19V36H21V31Z" fill="black"/>
</svg>
