<svg width="40" height="40" viewBox="0 0 40 40" fill="none" xmlns="http://www.w3.org/2000/svg">
<path fill-rule="evenodd" clip-rule="evenodd" d="M2 0H0V2V30V32H2H13V28H4V4H15V8V10H21V13H25V10V8V7V6.17157L24.4142 5.58579L19.4142 0.585786L18.8284 0H18H17H15H2ZM21 8H17V4H17.1716L21 7.82843V8ZM6 12V14L19 14V12L6 12ZM6 18V16H13V18H6ZM6 20V22H13V20H6Z" fill="#4A5568"/>
<path fill-rule="evenodd" clip-rule="evenodd" d="M21 23V21H19V24H36V21H34V23H32V21H23V23H21ZM32 17H23V15H21V17H15V40H40V32L36 36H19V26H36L40 30V26V24V17H34V15H32V17ZM21 30H23V32H21V30ZM34 30H25V32H34V35L38 31L34 27V30Z" fill="#3499FE"/>
</svg>
