<svg width="40" height="40" viewBox="0 0 40 40" fill="none" xmlns="http://www.w3.org/2000/svg">
<path fill-rule="evenodd" clip-rule="evenodd" d="M2 0H0V2V30V32H2H12V28H4V4H15V8V10H21V14H25V10V8V7V6.17157L24.4142 5.58579L19.4142 0.585786L18.8284 0H18H17H15H2ZM21 8H17V4H17.1716L21 7.82843V8ZM8 16V14H17V16L8 16ZM6 18V16L6 14V12H8H17H19V14V16V18H17H8H6ZM6 22V20H15V22H6ZM6 24V26H12V24H6Z" fill="#4A5568"/>
<path fill-rule="evenodd" clip-rule="evenodd" d="M36 28C36 32.4183 32.4183 36 28 36C23.5817 36 20 32.4183 20 28C20 23.5817 23.5817 20 28 20C32.4183 20 36 23.5817 36 28ZM40 28C40 34.6274 34.6274 40 28 40C21.3726 40 16 34.6274 16 28C16 21.3726 21.3726 16 28 16C34.6274 16 40 21.3726 40 28ZM27.1182 28.4199C26.9632 28.7982 26.8857 29.3063 26.8857 29.9443H28.6357L28.6631 29.5273C28.7132 29.0807 28.9115 28.6911 29.2578 28.3584L29.8115 27.832C30.2445 27.4128 30.5475 27.0322 30.7207 26.6904C30.8939 26.3441 30.9805 25.9772 30.9805 25.5898C30.9805 24.7376 30.7139 24.0791 30.1807 23.6143C29.6475 23.1449 28.8978 22.9102 27.9316 22.9102C26.9746 22.9102 26.2181 23.1562 25.6621 23.6484C25.1107 24.1406 24.8304 24.8219 24.8213 25.6924H26.8037C26.8128 25.3278 26.9176 25.043 27.1182 24.8379C27.3232 24.6283 27.5944 24.5234 27.9316 24.5234C28.6426 24.5234 28.998 24.9085 28.998 25.6787C28.998 25.9339 28.9297 26.1777 28.793 26.4102C28.6562 26.638 28.3805 26.9365 27.9658 27.3057C27.5557 27.6702 27.2731 28.0417 27.1182 28.4199ZM26.9951 31.291C26.79 31.487 26.6875 31.7376 26.6875 32.043C26.6875 32.3438 26.7878 32.5921 26.9883 32.7881C27.1934 32.984 27.4622 33.082 27.7949 33.082C28.1276 33.082 28.3942 32.984 28.5947 32.7881C28.7998 32.5921 28.9023 32.3438 28.9023 32.043C28.9023 31.7376 28.7975 31.487 28.5879 31.291C28.3828 31.0905 28.1185 30.9902 27.7949 30.9902C27.4714 30.9902 27.2048 31.0905 26.9951 31.291Z" fill="#3499FE"/>
</svg>
