<svg width="40" height="40" viewBox="0 0 40 40" fill="none" xmlns="http://www.w3.org/2000/svg">
<path fill-rule="evenodd" clip-rule="evenodd" d="M2 0H0V2V30V32H2H16V28H4V4H15V8V10H21V12H25V10V8V7V6.17157L24.4142 5.58579L19.4142 0.585786L18.8284 0H18H17H15H2ZM21 8H17V4H17.1716L21 7.82843V8ZM7.46667 14.1818L6 15.6364L10.4 20L17 13.4545L15.5333 12L10.4 17.0909L7.46667 14.1818Z" fill="#4A5568"/>
<path fill-rule="evenodd" clip-rule="evenodd" d="M24 14H34V16H30V18.0448C35.6065 18.5501 40 23.262 40 29C40 35.0751 35.0751 40 29 40C22.9249 40 18 35.0751 18 29C18 23.262 22.3935 18.5501 28 18.0448V16H24V14ZM29 36C32.866 36 36 32.866 36 29C36 25.134 32.866 22 29 22C25.134 22 22 25.134 22 29C22 32.866 25.134 36 29 36ZM30 24V30H29.9998L27 33L25.5 32L28 29.5V24H30Z" fill="#3499FE"/>
</svg>
