<svg width="40" height="40" viewBox="0 0 40 40" fill="none" xmlns="http://www.w3.org/2000/svg">
<path d="M1 3C1 1.89543 2.71495 1 3 1H9V39H4C3.4299 39 1 37.2091 1 35V3Z" fill="#5C7FF3" fill-opacity="0.2"/>
<path fill-rule="evenodd" clip-rule="evenodd" d="M4 2H26C27.1046 2 28 2.89543 28 4V15H30V4C30 1.79086 28.2091 0 26 0H4C1.79086 0 0 1.79086 0 4V36C0 38.2091 1.79086 40 4 40H23V38H4C2.89543 38 2 37.1046 2 36V4C2 2.89543 2.89543 2 4 2Z" fill="#88A6FC"/>
<rect x="14" y="1" width="2" height="38" fill="#88A6FC"/>
<rect x="1" y="9" width="2" height="28" transform="rotate(-90 1 9)" fill="#88A6FC"/>
<rect x="1" y="16" width="2" height="28" transform="rotate(-90 1 16)" fill="#88A6FC"/>
<rect x="1" y="23" width="2" height="15" transform="rotate(-90 1 23)" fill="#88A6FC"/>
<rect x="1" y="30" width="2" height="15" transform="rotate(-90 1 30)" fill="#88A6FC"/>
<path fill-rule="evenodd" clip-rule="evenodd" d="M37.2353 26.0512C37.2353 26.6657 38.0487 27.2803 39.2688 27.6899C39.7772 27.8948 40.0822 28.4069 39.8788 28.8166C39.4721 30.5577 38.7604 32.2988 37.7436 33.8352C37.4386 34.2448 36.9302 34.3473 36.4218 34.1424C35.3034 33.5279 34.185 33.4255 33.7783 33.8352C33.3715 34.2448 33.4732 35.3715 34.0833 36.4981C34.3883 37.0102 34.185 37.5223 33.7783 37.8295C32.2531 38.9562 30.6263 39.5707 28.7961 39.9804H28.5928C28.0844 39.9804 27.6777 39.6731 27.576 39.2634C27.271 38.0344 26.5592 37.215 25.9492 37.215C25.3391 37.215 24.729 38.0344 24.3223 39.2634C24.119 39.7755 23.6106 40.0828 23.1022 39.9804C21.3737 39.5707 19.6452 38.8538 18.1201 37.8295C17.7134 37.5223 17.6117 37.0102 17.815 36.4981C18.4251 35.3715 18.5268 34.2448 18.1201 33.8352C17.7134 33.4255 16.5949 33.5279 15.4765 34.1424C14.9681 34.4497 14.4597 34.2448 14.1547 33.8352C13.0362 32.2988 12.4262 30.6601 12.0195 28.8166C11.9178 28.3045 12.2228 27.7924 12.7312 27.5875C13.9513 27.2803 14.7647 26.5633 14.7647 25.9488C14.7647 25.3343 13.9513 24.7197 12.7312 24.3101C12.2228 24.1052 11.9178 23.5931 12.0195 23.081C12.4262 21.3399 13.1379 19.5987 14.1547 18.0624C14.4597 17.6527 14.9681 17.5503 15.4765 17.7552C16.6966 18.3697 17.7134 18.4721 18.1201 18.0624C18.5268 17.6527 18.4251 16.5261 17.815 15.3995C17.6117 14.9898 17.7134 14.3753 18.2217 14.1705C19.7469 13.0438 21.3737 12.4293 23.2039 12.0196C23.7123 11.9172 24.2207 12.2245 24.424 12.7366C24.729 13.9656 25.4408 14.785 26.0508 14.785C26.6609 14.785 27.271 13.9656 27.6777 12.7366C27.881 12.2245 28.3894 11.9172 28.8978 12.0196C30.6263 12.4293 32.3548 13.1462 33.8799 14.1705C34.2866 14.4777 34.3883 14.9898 34.185 15.5019C33.5749 16.6285 33.4732 17.7552 33.8799 18.1648C34.2866 18.5745 35.4051 18.4721 36.5235 17.8576C37.0319 17.5503 37.5403 17.7552 37.8453 18.1648C38.9638 19.7011 39.5738 21.3399 39.9805 23.1834C40.0822 23.6955 39.7772 24.2076 39.2688 24.4125C38.0487 24.7197 37.2353 25.4367 37.2353 26.0512ZM26 32C29.3137 32 32 29.3137 32 26C32 22.6863 29.3137 20 26 20C22.6863 20 20 22.6863 20 26C20 29.3137 22.6863 32 26 32Z" fill="#88A6FC"/>
</svg>
