<svg width="40" height="40" viewBox="0 0 40 40" fill="none" xmlns="http://www.w3.org/2000/svg">
<path d="M0 14C0 11.7909 1.79086 10 4 10H27V40H4C1.79086 40 0 38.2091 0 36V14Z" fill="#5C7FF3" fill-opacity="0.2"/>
<path fill-rule="evenodd" clip-rule="evenodd" d="M32.4 12H3.6C2.60589 12 1.8 12.8954 1.8 14V36C1.8 37.1046 2.60589 38 3.6 38H32.4C33.3941 38 34.2 37.1046 34.2 36V14C34.2 12.8954 33.3941 12 32.4 12ZM3.6 10C1.61177 10 0 11.7909 0 14V36C0 38.2091 1.61178 40 3.6 40H32.4C34.3882 40 36 38.2091 36 36V14C36 11.7909 34.3882 10 32.4 10H3.6Z" fill="#88A6FC"/>
<path fill-rule="evenodd" clip-rule="evenodd" d="M7 10V4C7 3.44772 6.55228 3 6 3C5.44772 3 5 3.44772 5 4V10C5 10.5523 5.44772 11 6 11C6.55228 11 7 10.5523 7 10ZM6 1C4.34315 1 3 2.34315 3 4V10C3 11.6569 4.34315 13 6 13C7.65685 13 9 11.6569 9 10V4C9 2.34315 7.65685 1 6 1Z" fill="#88A6FC"/>
<path fill-rule="evenodd" clip-rule="evenodd" d="M31 10V4C31 3.44772 30.5523 3 30 3C29.4477 3 29 3.44772 29 4V10C29 10.5523 29.4477 11 30 11C30.5523 11 31 10.5523 31 10ZM30 1C28.3431 1 27 2.34315 27 4V10C27 11.6569 28.3431 13 30 13C31.6569 13 33 11.6569 33 10V4C33 2.34315 31.6569 1 30 1Z" fill="#88A6FC"/>
<path fill-rule="evenodd" clip-rule="evenodd" d="M3.59999 5V9.3C3.59999 10.7912 4.80882 12 6.29999 12C7.79115 12 8.99999 10.7912 8.99999 9.3V5H27V9.3C27 10.7912 28.2088 12 29.7 12C31.1912 12 32.4 10.7912 32.4 9.3V5H34C35.1046 5 36 5.89543 36 7V15H0V7C0 5.89543 0.895431 5 2 5H3.59999Z" fill="#88A6FC"/>
<path fill-rule="evenodd" clip-rule="evenodd" d="M34.4142 26.5858C33.6332 25.8047 32.3668 25.8047 31.5858 26.5858C30.8047 27.3668 30.8047 28.6332 31.5858 29.4142L33.1716 31H16.4483C15.6484 31 15 31.8954 15 33C15 34.1046 15.6484 35 16.4483 35H33.1716L31.5858 36.5858C30.8047 37.3668 30.8047 38.6332 31.5858 39.4142C32.3668 40.1953 33.6332 40.1953 34.4142 39.4142L39.4142 34.4142C40.1953 33.6332 40.1953 32.3668 39.4142 31.5858L34.4142 26.5858Z" fill="#88A6FC"/>
<path d="M4 20C4 18.8954 4.89543 18 6 18H9C10.1046 18 11 18.8954 11 20V23C11 24.1046 10.1046 25 9 25H6C4.89543 25 4 24.1046 4 23V20Z" fill="#88A6FC"/>
<path d="M13 20C13 18.8954 13.8954 18 15 18H18C19.1046 18 20 18.8954 20 20V23C20 24.1046 19.1046 25 18 25H15C13.8954 25 13 24.1046 13 23V20Z" fill="#88A6FC"/>
<path d="M22 20C22 18.8954 22.8954 18 24 18H27C28.1046 18 29 18.8954 29 20V23C29 24.1046 28.1046 25 27 25H24C22.8954 25 22 24.1046 22 23V20Z" fill="#88A6FC"/>
<path d="M4 29C4 27.8954 4.89543 27 6 27H9C10.1046 27 11 27.8954 11 29V32C11 33.1046 10.1046 34 9 34H6C4.89543 34 4 33.1046 4 32V29Z" fill="#88A6FC"/>
</svg>
