<svg width="40" height="40" viewBox="0 0 40 40" fill="none" xmlns="http://www.w3.org/2000/svg">
<path d="M0 4C0 1.79086 1.79086 0 4 0H33V40H4C1.79086 40 0 38.2091 0 36V4Z" fill="#5C7FF3" fill-opacity="0.2"/>
<rect x="1" y="1" width="38" height="38" rx="3" stroke="#88A6FC" stroke-width="2"/>
<rect width="38" height="2" transform="matrix(1 0 0 -1 1 7)" fill="#88A6FC"/>
<path d="M13 14C14.7239 14 16.3772 14.6848 17.5962 15.9038C18.8152 17.1228 19.5 18.7761 19.5 20.5C19.5 22.2239 18.8152 23.8772 17.5962 25.0962C16.3772 26.3152 14.7239 27 13 27C11.2761 27 9.62279 26.3152 8.40381 25.0962C7.18482 23.8772 6.5 22.2239 6.5 20.5C6.5 18.7761 7.18482 17.1228 8.40381 15.9038C9.62279 14.6848 11.2761 14 13 14ZM13 30.25C20.1825 30.25 26 33.1588 26 36.75V40H0V36.75C0 33.1588 5.8175 30.25 13 30.25Z" fill="#3356E6"/>
<path fill-rule="evenodd" clip-rule="evenodd" d="M36 16C36 19.3137 33.3137 22 30 22C26.6863 22 24 19.3137 24 16C24 12.6863 26.6863 10 30 10C33.3137 10 36 12.6863 36 16ZM29 16C29 15.4477 29.4477 15 30 15C30.5523 15 31 15.4477 31 16V19C31 19.5523 30.5523 20 30 20C29.4477 20 29 19.5523 29 19V16ZM30 14C30.5523 14 31 13.5523 31 13C31 12.4477 30.5523 12 30 12C29.4477 12 29 12.4477 29 13C29 13.5523 29.4477 14 30 14Z" fill="#3356E6"/>
</svg>
