<svg width="40" height="40" viewBox="0 0 40 40" fill="none" xmlns="http://www.w3.org/2000/svg">
<path d="M0 4C0 1.79086 1.79086 0 4 0H31V40H4C1.79086 40 0 38.2091 0 36V4Z" fill="#5C7FF3" fill-opacity="0.2"/>
<rect x="1" y="1" width="36" height="38" rx="3" stroke="#88A6FC" stroke-width="2"/>
<rect width="37" height="2" transform="matrix(1 0 0 -1 1 7)" fill="#88A6FC"/>
<path d="M11 18C12.4587 18 13.8576 18.5795 14.8891 19.6109C15.9205 20.6424 16.5 22.0413 16.5 23.5C16.5 24.9587 15.9205 26.3576 14.8891 27.3891C13.8576 28.4205 12.4587 29 11 29C9.54131 29 8.14236 28.4205 7.11091 27.3891C6.07946 26.3576 5.5 24.9587 5.5 23.5C5.5 22.0413 6.07946 20.6424 7.11091 19.6109C8.14236 18.5795 9.54131 18 11 18V18ZM11 31.75C17.0775 31.75 22 34.2112 22 37.25V40H0V37.25C0 34.2112 4.9225 31.75 11 31.75Z" fill="#88A6FC"/>
<path fill-rule="evenodd" clip-rule="evenodd" d="M32.0571 28.5416C31.0956 28.8489 30.0709 29.0148 29.0074 29.0148C23.4805 29.0148 19 24.5343 19 19.0074C19 13.4805 23.4805 9 29.0074 9C34.5343 9 39.0148 13.4805 39.0148 19.0074C39.0148 21.7896 37.8794 24.3066 36.0467 26.1204L39.4749 30.5099C40.2626 31.5185 40.0835 32.9748 39.0749 33.7625C38.0663 34.5503 36.61 34.3712 35.8223 33.3625L32.0571 28.5416ZM35.6036 19.0495C35.6036 22.6692 32.6692 25.6036 29.0495 25.6036C25.4298 25.6036 22.4955 22.6692 22.4955 19.0495C22.4955 15.4298 25.4298 12.4955 29.0495 12.4955C32.6692 12.4955 35.6036 15.4298 35.6036 19.0495Z" fill="#88A6FC"/>
</svg>
