<svg width="40" height="40" viewBox="0 0 40 40" fill="none" xmlns="http://www.w3.org/2000/svg">
<path d="M1 3C1 1.89543 1.89543 1 3 1H32V39H5C2.79086 39 1 37.2091 1 35V3Z" fill="#D7E4FE"/>
<path fill-rule="evenodd" clip-rule="evenodd" d="M36 2H4C2.89543 2 2 2.89543 2 4V36C2 37.1046 2.89543 38 4 38H36C37.1046 38 38 37.1046 38 36V4C38 2.89543 37.1046 2 36 2ZM4 0C1.79086 0 0 1.79086 0 4V36C0 38.2091 1.79086 40 4 40H36C38.2091 40 40 38.2091 40 36V4C40 1.79086 38.2091 0 36 0H4Z" fill="#88A6FC"/>
<path fill-rule="evenodd" clip-rule="evenodd" d="M1 8V10H39V8H1Z" fill="#88A6FC"/>
<path fill-rule="evenodd" clip-rule="evenodd" d="M6 4H4V6H6V4Z" fill="#88A6FC"/>
<path fill-rule="evenodd" clip-rule="evenodd" d="M9 4H7V6H9V4Z" fill="#88A6FC"/>
<path fill-rule="evenodd" clip-rule="evenodd" d="M12 4H10V6H12V4Z" fill="#88A6FC"/>
<path d="M29.8908 22.7327L28.1486 28.5493C27.8917 29.4033 27.0623 30 26.1306 30H16.7C16.3129 30 16 29.7013 16 29.3333V20C16 19.8567 16.0483 19.7167 16.1386 19.602C16.1386 19.602 20.6667 15.7143 21.25 15.1429C21.8333 14.5714 22.3532 14 23 14C24.1682 14 24.1667 14.6016 24.1667 15.7143V19.7143H27.0833C27.9688 19.7143 28.8997 19.7193 29.4324 20.3927C29.9671 21.0673 30.1337 21.92 29.8908 22.7327Z" fill="#3356E6"/>
<path d="M12 21C12 20.4477 12.4477 20 13 20H14C14.5523 20 15 20.4477 15 21V29C15 29.5523 14.5523 30 14 30H13C12.4477 30 12 29.5523 12 29V21Z" fill="#3356E6"/>
</svg>
