<svg width="40" height="40" viewBox="0 0 40 40" fill="none" xmlns="http://www.w3.org/2000/svg">
<path d="M31 9H39V37C39 38.1046 38.1046 39 37 39H31V9Z" fill="#F0F5FE"/>
<path fill-rule="evenodd" clip-rule="evenodd" d="M28 2H4C2.89543 2 2 2.89543 2 4V36C2 37.1046 2.89543 38 4 38H30V4C30 2.89543 29.1046 2 28 2ZM4 0C1.79086 0 0 1.79086 0 4V36C0 38.2091 1.79086 40 4 40H32V4C32 1.79086 30.2091 0 28 0H4Z" fill="#88A6FC"/>
<path fill-rule="evenodd" clip-rule="evenodd" d="M38 10H32V38H36C37.1046 38 38 37.1046 38 36V10ZM30 8V40H36C38.2091 40 40 38.2091 40 36V8H30Z" fill="#88A6FC"/>
<path d="M25.675 13.491C26.1083 13.0578 26.1083 12.3356 25.675 11.9246L23.0754 9.32495C22.6644 8.89168 21.9422 8.89168 21.509 9.32495L19.4648 11.358L23.6309 15.5241L25.675 13.491ZM6 24.8339V29H10.1661L22.4533 16.7017L18.2872 12.5356L6 24.8339Z" fill="#88A6FC"/>
</svg>
