<svg width="40" height="40" viewBox="0 0 40 40" fill="none" xmlns="http://www.w3.org/2000/svg">
<path d="M0 14C0 11.7909 1.79086 10 4 10H33V40H4C1.79086 40 0 38.2091 0 36V14Z" fill="#D7E4FE"/>
<path fill-rule="evenodd" clip-rule="evenodd" d="M36 12H4C2.89543 12 2 12.8954 2 14V36C2 37.1046 2.89543 38 4 38H36C37.1046 38 38 37.1046 38 36V14C38 12.8954 37.1046 12 36 12ZM4 10C1.79086 10 0 11.7909 0 14V36C0 38.2091 1.79086 40 4 40H36C38.2091 40 40 38.2091 40 36V14C40 11.7909 38.2091 10 36 10H4Z" fill="#88A6FC"/>
<path fill-rule="evenodd" clip-rule="evenodd" d="M8 9V3C8 2.44772 7.55228 2 7 2C6.44772 2 6 2.44772 6 3V9C6 9.55228 6.44772 10 7 10C7.55228 10 8 9.55228 8 9ZM7 0C5.34315 0 4 1.34315 4 3V9C4 10.6569 5.34315 12 7 12C8.65685 12 10 10.6569 10 9V3C10 1.34315 8.65685 0 7 0Z" fill="#3356E6"/>
<path fill-rule="evenodd" clip-rule="evenodd" d="M34 9V3C34 2.44772 33.5523 2 33 2C32.4477 2 32 2.44772 32 3V9C32 9.55228 32.4477 10 33 10C33.5523 10 34 9.55228 34 9ZM33 0C31.3431 0 30 1.34315 30 3V9C30 10.6569 31.3431 12 33 12C34.6569 12 36 10.6569 36 9V3C36 1.34315 34.6569 0 33 0Z" fill="#3356E6"/>
<path fill-rule="evenodd" clip-rule="evenodd" d="M4 5V9C4 10.6569 5.34315 12 7 12C8.65685 12 10 10.6569 10 9V5H30V9C30 10.6569 31.3431 12 33 12C34.6569 12 36 10.6569 36 9V5H38C39.1046 5 40 5.89543 40 7V15H0V7C0 5.89543 0.895431 5 2 5H4Z" fill="#3356E6"/>
<path d="M4 20C4 18.8954 4.89543 18 6 18H9C10.1046 18 11 18.8954 11 20V23C11 24.1046 10.1046 25 9 25H6C4.89543 25 4 24.1046 4 23V20Z" fill="#3356E6"/>
<path d="M13 20C13 18.8954 13.8954 18 15 18H18C19.1046 18 20 18.8954 20 20V23C20 24.1046 19.1046 25 18 25H15C13.8954 25 13 24.1046 13 23V20Z" fill="#3356E6"/>
<path d="M22 20C22 18.8954 22.8954 18 24 18H27C28.1046 18 29 18.8954 29 20V23C29 24.1046 28.1046 25 27 25H24C22.8954 25 22 24.1046 22 23V20Z" fill="#3356E6"/>
<path d="M4 29C4 27.8954 4.89543 27 6 27H9C10.1046 27 11 27.8954 11 29V32C11 33.1046 10.1046 34 9 34H6C4.89543 34 4 33.1046 4 32V29Z" fill="#3356E6"/>
</svg>
