<svg width="40" height="40" viewBox="0 0 40 40" fill="none" xmlns="http://www.w3.org/2000/svg">
<path d="M0 10H33V40H4C1.79086 40 0 38.2091 0 36V10Z" fill="#F0F5FE"/>
<path fill-rule="evenodd" clip-rule="evenodd" d="M38 10H2V36C2 37.1046 2.89543 38 4 38H36C37.1046 38 38 37.1046 38 36V10ZM0 8V36C0 38.2091 1.79086 40 4 40H36C38.2091 40 40 38.2091 40 36V8H0Z" fill="#88A6FC"/>
<path d="M0 2C0 0.89543 0.895431 0 2 0H11L9 8.5L19 0H38C39.1046 0 40 0.895431 40 2V10H0V2Z" fill="#88A6FC"/>
<path fill-rule="evenodd" clip-rule="evenodd" d="M27 40C34.1797 40 40 34.1797 40 27C40 19.8203 34.1797 14 27 14C19.8203 14 14 19.8203 14 27C14 34.1797 19.8203 40 27 40ZM29.1213 22.0502C29.5118 21.6597 30.145 21.6597 30.5355 22.0502L31.9497 23.4644C32.3403 23.8549 32.3403 24.4881 31.9497 24.8786L29.8284 26.9999L31.9497 29.1212C32.3403 29.5118 32.3403 30.1449 31.9497 30.5355L30.5355 31.9497C30.145 32.3402 29.5118 32.3402 29.1213 31.9497L27 29.8284L24.8787 31.9497C24.4882 32.3402 23.855 32.3402 23.4645 31.9497L22.0503 30.5355C21.6597 30.1449 21.6597 29.5118 22.0503 29.1213L24.1716 26.9999L22.0503 24.8786C21.6597 24.4881 21.6597 23.8549 22.0503 23.4644L23.4645 22.0502C23.855 21.6597 24.4882 21.6597 24.8787 22.0502L27 24.1715L29.1213 22.0502Z" fill="#88A6FC"/>
</svg>
