<svg width="40" height="40" viewBox="0 0 40 40" fill="none" xmlns="http://www.w3.org/2000/svg">
<path d="M1 3C1 1.89543 1.89543 1 3 1H32V39H5C2.79086 39 1 37.2091 1 35V3Z" fill="#D7E4FE"/>
<path fill-rule="evenodd" clip-rule="evenodd" d="M36 2H4C2.89543 2 2 2.89543 2 4V36C2 37.1046 2.89543 38 4 38H36C37.1046 38 38 37.1046 38 36V4C38 2.89543 37.1046 2 36 2ZM4 0C1.79086 0 0 1.79086 0 4V36C0 38.2091 1.79086 40 4 40H36C38.2091 40 40 38.2091 40 36V4C40 1.79086 38.2091 0 36 0H4Z" fill="#88A6FC"/>
<path fill-rule="evenodd" clip-rule="evenodd" d="M1 8V10H39V8H1Z" fill="#88A6FC"/>
<path fill-rule="evenodd" clip-rule="evenodd" d="M6 4H4V6H6V4Z" fill="#88A6FC"/>
<path fill-rule="evenodd" clip-rule="evenodd" d="M9 4H7V6H9V4Z" fill="#88A6FC"/>
<path fill-rule="evenodd" clip-rule="evenodd" d="M12 4H10V6H12V4Z" fill="#88A6FC"/>
<path fill-rule="evenodd" clip-rule="evenodd" d="M21 17.8462C21 16.8262 21.7831 16 22.75 16C23.7169 16 24.5 16.8262 24.5 17.8462V25.6925L24.5 25.6925V25.2309C24.5 24.2109 25.2831 23.3848 26.25 23.3848C27.2169 23.3848 28 24.2109 28 25.2309V26.1473C28.0033 25.1307 28.7855 24.3076 29.75 24.3076C30.7165 24.3076 31.5 25.1342 31.5 26.1538L31.5 26.1541C31.5 26.1541 31.5513 26.2082 31.6665 26.2903C31.9465 25.6642 32.5503 25.231 33.25 25.231C34.2165 25.231 35 26.0575 35 27.0771L35 27.0888V36.3079C35 38.347 33.4329 40.0002 31.5 40.0002H25.6498C23.793 40.0002 22.0124 39.2221 20.6999 37.8375L17.9375 34.9233L14 33.0642C14.0064 31.3013 15.3157 30.7695 16.625 30.7695C17.7529 30.7695 18.767 30.955 21 32.1541V26.1538H21V17.8462ZM14 33.0642L14 33.0772V33.0642L14 33.0642Z" fill="#3356E6"/>
</svg>
