<svg width="30" height="30" viewBox="0 0 30 30" fill="none" xmlns="http://www.w3.org/2000/svg">
<path d="M13.532 0.59427C14.3503 -0.198089 15.6497 -0.19809 16.468 0.594269L17.5242 1.617C18.0484 2.12462 18.7977 2.32538 19.5055 2.14789L20.9315 1.79027C22.0364 1.51321 23.1617 2.16292 23.4742 3.25827L23.8775 4.67207C24.0777 5.3738 24.6262 5.9223 25.3279 6.12249L26.7417 6.52581C27.8371 6.83829 28.4868 7.96362 28.2097 9.06846L27.8521 10.4945C27.6746 11.2023 27.8754 11.9516 28.383 12.4758L29.4057 13.532C30.1981 14.3503 30.1981 15.6497 29.4057 16.468L28.383 17.5242C27.8754 18.0484 27.6746 18.7977 27.8521 19.5055L28.2097 20.9315C28.4868 22.0364 27.8371 23.1617 26.7417 23.4742L25.3279 23.8775C24.6262 24.0777 24.0777 24.6262 23.8775 25.3279L23.4742 26.7417C23.1617 27.8371 22.0364 28.4868 20.9315 28.2097L19.5055 27.8521C18.7977 27.6746 18.0484 27.8754 17.5242 28.383L16.468 29.4057C15.6497 30.1981 14.3503 30.1981 13.532 29.4057L12.4758 28.383C11.9516 27.8754 11.2023 27.6746 10.4945 27.8521L9.06845 28.2097C7.96362 28.4868 6.83829 27.8371 6.52581 26.7417L6.12249 25.3279C5.9223 24.6262 5.3738 24.0777 4.67207 23.8775L3.25827 23.4742C2.16292 23.1617 1.51321 22.0364 1.79027 20.9315L2.14789 19.5055C2.32538 18.7977 2.12462 18.0484 1.617 17.5242L0.59427 16.468C-0.198089 15.6497 -0.19809 14.3503 0.594269 13.532L1.617 12.4758C2.12462 11.9516 2.32538 11.2023 2.14789 10.4945L1.79027 9.06846C1.51321 7.96362 2.16292 6.83829 3.25827 6.52581L4.67207 6.12249C5.3738 5.9223 5.9223 5.3738 6.12249 4.67207L6.52581 3.25827C6.83829 2.16292 7.96362 1.51321 9.06846 1.79027L10.4945 2.14789C11.2023 2.32538 11.9516 2.12462 12.4758 1.617L13.532 0.59427Z" fill="#2ECC71"/>
<path d="M23 12.8129C23 12.9515 22.9167 13.1027 22.75 13.2665L19.2596 16.6125L20.0865 21.3384C20.0929 21.3825 20.0962 21.4455 20.0962 21.5274C20.0962 21.6597 20.0625 21.7716 19.9952 21.8629C19.9279 21.9543 19.8301 22 19.7019 22C19.5801 22 19.4519 21.9622 19.3173 21.8866L15 19.656L10.6827 21.8866C10.5417 21.9622 10.4135 22 10.2981 22C10.1635 22 10.0625 21.9543 9.99519 21.8629C9.92788 21.7716 9.89423 21.6597 9.89423 21.5274C9.89423 21.4896 9.90064 21.4266 9.91346 21.3384L10.7404 16.6125L7.24038 13.2665C7.08013 13.0964 7 12.9452 7 12.8129C7 12.5797 7.17949 12.4348 7.53846 12.3781L12.3654 11.6881L14.5288 7.38752C14.6506 7.12917 14.8077 7 15 7C15.1923 7 15.3494 7.12917 15.4712 7.38752L17.6346 11.6881L22.4615 12.3781C22.8205 12.4348 23 12.5797 23 12.8129Z" fill="white"/>
</svg>
