<svg width="41" height="41" viewBox="0 0 41 41" fill="none" xmlns="http://www.w3.org/2000/svg">
<path fill-rule="evenodd" clip-rule="evenodd" d="M10.4999 11.6446C11.7425 11.6446 12.7499 10.6456 12.7499 9.41322C12.7499 8.18085 11.7425 7.18182 10.4999 7.18182C9.25725 7.18182 8.24989 8.18085 8.24989 9.41322C8.24989 10.6456 9.25725 11.6446 10.4999 11.6446ZM10.1984 12.545C7.00578 12.7125 6 15.5124 6 15.5124V17H15V15.5124C15 15.5124 13.9942 12.7125 10.8016 12.545L11.4 15.5124L10.5 16.1074L9.60001 15.5124L10.1984 12.545Z" fill="#A0AEC0"/>
<path d="M6 22.1818L7.2 20.9091L9.6 23.4545L13.8 19L15 20.2727L9.6 26L6 22.1818Z" fill="#A0AEC0"/>
<circle cx="29.0619" cy="28.9218" r="9" transform="rotate(-0.595215 29.0619 28.9218)" stroke="#A0AEC0" stroke-width="4"/>
<rect x="23.9064" y="13.9745" width="10" height="2" transform="rotate(-0.595215 23.9064 13.9745)" fill="#A0AEC0"/>
<rect x="29.9164" y="14.9122" width="4" height="2" transform="rotate(89.4048 29.9164 14.9122)" fill="#A0AEC0"/>
<path fill-rule="evenodd" clip-rule="evenodd" d="M29.01 23.9221L29.0619 28.9218L25.4899 25.4232C24.5945 26.3373 24.0479 27.5931 24.0622 28.9737C24.0909 31.735 26.3526 33.9502 29.1139 33.9215C31.8751 33.8928 34.0903 31.6311 34.0617 28.8698C34.033 26.1086 31.7713 23.8934 29.01 23.9221Z" fill="#A0AEC0"/>
<path d="M16 30H2V2H18L23 7V12" stroke="#A0AEC0" stroke-width="4"/>
<rect x="15" width="2" height="8" fill="#A0AEC0"/>
<rect x="15" y="10" width="2" height="10" transform="rotate(-90 15 10)" fill="#A0AEC0"/>
</svg>
