<svg width="40" height="40" viewBox="0 0 40 40" fill="none" xmlns="http://www.w3.org/2000/svg">
<path fill-rule="evenodd" clip-rule="evenodd" d="M2 0H0V2V30V32H2H14V28H10L10 12L26 12V14H30V2V0H28H17.1667H2ZM8 12H4V28H8L8 12ZM26 10V4H17.1667H4V10L26 10ZM6 8V6H8V8H6ZM20 6V8H24V6H20ZM14 8V6H18V8H14Z" fill="#4A5568"/>
<path fill-rule="evenodd" clip-rule="evenodd" d="M30.5775 16.5792L29.1622 15.1772L27.7547 16.5869L21.1832 23.1685C20.6721 23.67 20.3062 24.302 20.1263 25.0001H20H18H16V27.0001V36V38H18H20H20.5373C21.2302 39.1945 22.5233 40 24 40H33C34.6506 40 36.0752 39.0035 36.6816 37.5601L39.6984 30.5176L39.7109 30.4884L39.7225 30.4588C39.8964 30.0144 40 29.5279 40 29.0001V27.0001C40 24.7955 38.2046 23.0001 36 23.0001H32.1485L32.5981 20.8371L32.6209 20.7278L32.6313 20.6167L32.6613 20.2967L32.67 20.2036V20.1101C32.67 19.1468 32.2728 18.2644 31.6442 17.6358L31.6442 17.6358L31.6375 17.6292L30.5775 16.5792ZM20 27.0001H18V36H20V27.0001ZM24.0053 26.0032L28.3415 21.6604L27.7319 24.593L27.2315 27.0001H29.69H36V28.9929L33.0016 35.9925L32.9984 36H24V26.0085L24.0053 26.0032Z" fill="#0575E6"/>
</svg>
