<svg width="40" height="40" viewBox="0 0 40 40" fill="none" xmlns="http://www.w3.org/2000/svg">
<path fill-rule="evenodd" clip-rule="evenodd" d="M20 38C27.732 38 34 31.732 34 24C34 16.268 27.732 10 20 10C12.268 10 6 16.268 6 24C6 31.732 12.268 38 20 38ZM20 40C28.8366 40 36 32.8366 36 24C36 15.1634 28.8366 8 20 8C11.1634 8 4 15.1634 4 24C4 32.8366 11.1634 40 20 40Z" fill="#88A6FC"/>
<path d="M32 24C32 30.6274 26.6274 36 20 36C13.3726 36 8 30.6274 8 24C8 17.3726 13.3726 12 20 12C26.6274 12 32 17.3726 32 24Z" fill="#5C7FF3" fill-opacity="0.2"/>
<path d="M39.675 8.49104C40.1083 8.05777 40.1083 7.33565 39.675 6.92459L37.0754 4.32495C36.6644 3.89168 35.9422 3.89168 35.509 4.32495L33.4648 6.35801L37.6309 10.5241L39.675 8.49104ZM20 19.8339V24H24.1661L36.4533 11.7017L32.2872 7.53562L20 19.8339Z" fill="#88A6FC"/>
<path fill-rule="evenodd" clip-rule="evenodd" d="M26 2H14C13.4477 2 13 2.44772 13 3C13 3.55228 13.4477 4 14 4H26C26.5523 4 27 3.55228 27 3C27 2.44772 26.5523 2 26 2ZM14 0C12.3431 0 11 1.34315 11 3C11 4.65685 12.3431 6 14 6H26C27.6569 6 29 4.65685 29 3C29 1.34315 27.6569 0 26 0H14Z" fill="#88A6FC"/>
<path fill-rule="evenodd" clip-rule="evenodd" d="M21 6H19V8H21V6ZM17 4V10H23V4H17Z" fill="#88A6FC"/>
</svg>
