<svg width="41" height="40" viewBox="0 0 41 40" fill="none" xmlns="http://www.w3.org/2000/svg">
<path fill-rule="evenodd" clip-rule="evenodd" d="M20.978 4H4.97803L4.97803 36H20.978V4ZM4.97803 0C2.76889 0 0.978027 1.79086 0.978027 4V36C0.978027 38.2091 2.76889 40 4.97803 40H20.978C23.1872 40 24.978 38.2091 24.978 36V4C24.978 1.79086 23.1872 0 20.978 0H4.97803Z" fill="#AFC7FD"/>
<path fill-rule="evenodd" clip-rule="evenodd" d="M36.978 16H24.978V36H30.978C34.2917 36 36.978 33.3137 36.978 30V16ZM24.978 12C22.7689 12 20.978 13.7909 20.978 16V40H30.978C36.5009 40 40.978 35.5228 40.978 30V16C40.978 13.7909 39.1872 12 36.978 12H24.978Z" fill="#AFC7FD"/>
<path d="M2.97803 8H22.978V12H2.97803V8Z" fill="#AFC7FD"/>
<path d="M2.97803 16H22.978V20H2.97803V16Z" fill="#AFC7FD"/>
<path d="M2.97803 24H22.978V28H2.97803V24Z" fill="#AFC7FD"/>
<path d="M10.978 38L10.978 2L14.978 2L14.978 38L10.978 38Z" fill="#AFC7FD"/>
<path d="M26.978 22C26.978 20.8954 27.8735 20 28.978 20H32.978C34.0826 20 34.978 20.8954 34.978 22C34.978 23.1046 34.0826 24 32.978 24H28.978C27.8735 24 26.978 23.1046 26.978 22Z" fill="#AFC7FD"/>
<path d="M26.978 30C26.978 28.8954 27.8735 28 28.978 28H32.978C34.0826 28 34.978 28.8954 34.978 30C34.978 31.1046 34.0826 32 32.978 32H28.978C27.8735 32 26.978 31.1046 26.978 30Z" fill="#AFC7FD"/>
</svg>
