<svg width="40" height="40" viewBox="0 0 40 40" fill="none" xmlns="http://www.w3.org/2000/svg">
<path d="M1 3C1 1.89543 1.89543 1 3 1H32V32H5C2.79086 32 1 30.2091 1 28V3Z" fill="#D7E4FE"/>
<path fill-rule="evenodd" clip-rule="evenodd" d="M36 2H4C2.89543 2 2 2.89543 2 4V29C2 30.1046 2.89543 31 4 31H36C37.1046 31 38 30.1046 38 29V4C38 2.89543 37.1046 2 36 2ZM4 0C1.79086 0 0 1.79086 0 4V29C0 31.2091 1.79086 33 4 33H36C38.2091 33 40 31.2091 40 29V4C40 1.79086 38.2091 0 36 0H4Z" fill="#88A6FC"/>
<path fill-rule="evenodd" clip-rule="evenodd" d="M29 37H11V38H29V37ZM11 35C9.89543 35 9 35.8954 9 37V40H31V37C31 35.8954 30.1046 35 29 35H11Z" fill="#88A6FC"/>
<path fill-rule="evenodd" clip-rule="evenodd" d="M25 33H15V35H25V33ZM13 31V37H27V31H13Z" fill="#88A6FC"/>
<path d="M5 7C5 5.89543 5.89543 5 7 5H22C23.1046 5 24 5.89543 24 7V26C24 27.1046 23.1046 28 22 28H7C5.89543 28 5 27.1046 5 26V7Z" fill="#3356E6"/>
<path d="M27 7C27 5.89543 27.8954 5 29 5H33C34.1046 5 35 5.89543 35 7V26C35 27.1046 34.1046 28 33 28H29C27.8954 28 27 27.1046 27 26V7Z" fill="#3356E6"/>
</svg>
