<svg width="40" height="40" viewBox="0 0 40 40" fill="none" xmlns="http://www.w3.org/2000/svg">
<path d="M16 1L21 1.5V11.5L31 12V37L26 35L21 37.5L16 35V1Z" fill="#F0F5FE"/>
<path fill-rule="evenodd" clip-rule="evenodd" d="M19.3431 2H4C2.89543 2 2 2.89543 2 4V36.263L4.3359 34.7057C5.3436 34.0339 6.6564 34.0339 7.6641 34.7057L10.6036 36.6653L14.5398 34.5183C15.4737 34.0089 16.6076 34.0322 17.5198 34.5795L21 36.6676L24.4284 34.6106C25.4225 34.0141 26.6713 34.0438 27.6359 34.6869L30 36.263V12.6569C30 12.1264 29.7893 11.6177 29.4142 11.2426L20.7574 2.58579C20.3823 2.21071 19.8736 2 19.3431 2ZM4 0C1.79086 0 0 1.79086 0 4V38.1315C0 38.9302 0.890145 39.4066 1.5547 38.9635L5.4453 36.3698C5.7812 36.1459 6.2188 36.1459 6.5547 36.3698L9.99708 38.6647C10.3063 38.8709 10.7044 38.8885 11.0306 38.7106L15.4975 36.2741C15.8088 36.1043 16.1868 36.1121 16.4908 36.2945L20.4855 38.6913C20.8022 38.8813 21.1978 38.8813 21.5145 38.6913L25.4574 36.3256C25.7887 36.1268 26.205 36.1367 26.5265 36.351L30.4453 38.9635C31.1099 39.4066 32 38.9302 32 38.1315V12.6569C32 11.596 31.5786 10.5786 30.8284 9.82843L22.1716 1.17157C21.4214 0.421427 20.404 0 19.3431 0H4Z" fill="#88A6FC"/>
<path fill-rule="evenodd" clip-rule="evenodd" d="M20 10V1.5H22V10C22 10.5523 22.4477 11 23 11H31V13H23C21.3431 13 20 11.6569 20 10Z" fill="#88A6FC"/>
<path d="M39.675 14.491C40.1083 14.0578 40.1083 13.3356 39.675 12.9246L37.0754 10.325C36.6644 9.89168 35.9422 9.89168 35.509 10.325L33.4648 12.358L37.6309 16.5241L39.675 14.491ZM20 25.8339V30H24.1661L36.4533 17.7017L32.2872 13.5356L20 25.8339Z" fill="#88A6FC"/>
<path d="M13 14.1015C13 14.8776 12.7318 15.5328 12.1954 16.067C11.6589 16.6012 10.9729 16.959 10.1373 17.1404V18.0778C10.1373 18.3398 10.0445 18.5565 9.8588 18.7279C9.68343 18.9093 9.46164 19 9.19342 19C8.93553 19 8.71889 18.9093 8.54352 18.7279C8.36815 18.5565 8.28046 18.3398 8.28046 18.0778V17.2311C7.7234 17.1807 7.21277 17.0648 6.74855 16.8834C6.29465 16.7019 5.85106 16.4298 5.41779 16.067C5.13926 15.8251 5 15.558 5 15.2657C5 15.0338 5.08769 14.8323 5.26306 14.6609C5.43843 14.4795 5.6499 14.3888 5.89749 14.3888C6.09349 14.3888 6.26886 14.4492 6.4236 14.5702C6.74339 14.8222 7.04771 15.0238 7.33656 15.1749C7.6254 15.3161 7.94004 15.4118 8.28046 15.4622V12.514C6.20696 12.1411 5.17021 11.1281 5.17021 9.47516C5.17021 8.63859 5.45906 7.9532 6.03675 7.41901C6.61444 6.87473 7.36235 6.54212 8.28046 6.42117V5.92225C8.28046 5.66019 8.36815 5.44348 8.54352 5.27214C8.72921 5.09071 8.95616 5 9.22437 5C9.48227 5 9.6989 5.09071 9.87427 5.27214C10.0496 5.44348 10.1373 5.66019 10.1373 5.92225V6.48164C11.0142 6.63283 11.7363 6.94528 12.3037 7.41901C12.6028 7.65083 12.7524 7.91793 12.7524 8.2203C12.7524 8.45212 12.6647 8.65875 12.4894 8.84017C12.314 9.01152 12.1077 9.09719 11.8704 9.09719C11.7157 9.09719 11.5764 9.05184 11.4526 8.96112C11.1431 8.70914 10.7047 8.49244 10.1373 8.31102V11.108C11.138 11.3398 11.8652 11.6825 12.3191 12.1361C12.773 12.5796 13 13.2347 13 14.1015ZM6.99613 9.39957C6.99613 9.73218 7.10445 10.0043 7.32108 10.216C7.53772 10.4176 7.85751 10.5788 8.28046 10.6998V8.19006C7.85751 8.2707 7.53772 8.41685 7.32108 8.62851C7.10445 8.84017 6.99613 9.09719 6.99613 9.39957ZM10.1373 15.3261C10.4365 15.2052 10.6789 15.049 10.8646 14.8575C11.0503 14.6559 11.1431 14.4392 11.1431 14.2073C11.1431 13.9251 11.0606 13.6832 10.8956 13.4816C10.7305 13.27 10.4778 13.0936 10.1373 12.9525V15.3261Z" fill="#88A6FC"/>
<path d="M5 24C5 23.4477 5.44772 23 6 23H16C16.5523 23 17 23.4477 17 24C17 24.5523 16.5523 25 16 25H6C5.44772 25 5 24.5523 5 24Z" fill="#88A6FC"/>
<path d="M5 29C5 28.4477 5.44772 28 6 28H16C16.5523 28 17 28.4477 17 29C17 29.5523 16.5523 30 16 30H6C5.44772 30 5 29.5523 5 29Z" fill="#88A6FC"/>
</svg>
