<svg width="40" height="40" viewBox="0 0 40 40" fill="none" xmlns="http://www.w3.org/2000/svg">
<path d="M31 9H39V37C39 38.1046 38.1046 39 37 39H31V9Z" fill="#F0F5FE"/>
<path fill-rule="evenodd" clip-rule="evenodd" d="M28 2H4C2.89543 2 2 2.89543 2 4V36C2 37.1046 2.89543 38 4 38H30V4C30 2.89543 29.1046 2 28 2ZM4 0C1.79086 0 0 1.79086 0 4V36C0 38.2091 1.79086 40 4 40H32V4C32 1.79086 30.2091 0 28 0H4Z" fill="#88A6FC"/>
<path d="M5 7C5 5.89543 5.89543 5 7 5H25C26.1046 5 27 5.89543 27 7V17C27 18.1046 26.1046 19 25 19H7C5.89543 19 5 18.1046 5 17V7Z" fill="#88A6FC"/>
<path d="M5 23C5 22.4477 5.44772 22 6 22H26C26.5523 22 27 22.4477 27 23V23C27 23.5523 26.5523 24 26 24H6C5.44772 24 5 23.5523 5 23V23Z" fill="#88A6FC"/>
<path d="M5 28C5 27.4477 5.44772 27 6 27H22C22.5523 27 23 27.4477 23 28V28C23 28.5523 22.5523 29 22 29H6C5.44772 29 5 28.5523 5 28V28Z" fill="#88A6FC"/>
<path fill-rule="evenodd" clip-rule="evenodd" d="M38 10H32V38H36C37.1046 38 38 37.1046 38 36V10ZM30 8V40H36C38.2091 40 40 38.2091 40 36V8H30Z" fill="#88A6FC"/>
</svg>
