<svg width="40" height="40" viewBox="0 0 40 40" fill="none" xmlns="http://www.w3.org/2000/svg">
<path d="M0 4C0 1.79086 1.79086 0 4 0H30V40H4C1.79086 40 0 38.2091 0 36V4Z" fill="#5C7FF3" fill-opacity="0.2"/>
<rect x="1" y="1" width="36" height="38" rx="3" stroke="#88A6FC" stroke-width="2"/>
<rect width="37" height="2" transform="matrix(1 0 0 -1 1 7)" fill="#88A6FC"/>
<path d="M11.5 17C13.025 17 14.4875 17.6058 15.5659 18.6841C16.6442 19.7625 17.25 21.225 17.25 22.75C17.25 24.275 16.6442 25.7375 15.5659 26.8159C14.4875 27.8942 13.025 28.5 11.5 28.5C9.97501 28.5 8.51247 27.8942 7.43414 26.8159C6.3558 25.7375 5.75 24.275 5.75 22.75C5.75 21.225 6.3558 19.7625 7.43414 18.6841C8.51247 17.6058 9.97501 17 11.5 17V17ZM11.5 31.375C17.8538 31.375 23 33.9481 23 37.125V40H0V37.125C0 33.9481 5.14625 31.375 11.5 31.375Z" fill="#3356E6"/>
<path fill-rule="evenodd" clip-rule="evenodd" d="M34.4142 15.5858C33.6332 14.8047 32.3668 14.8047 31.5858 15.5858C30.8047 16.3668 30.8047 17.6332 31.5858 18.4142L33.1716 20H21.1724C20.5249 20 20 20.8954 20 22C20 23.1046 20.5249 24 21.1724 24H33.1716L31.5858 25.5858C30.8047 26.3668 30.8047 27.6332 31.5858 28.4142C32.3668 29.1953 33.6332 29.1953 34.4142 28.4142L39.4142 23.4142C40.1953 22.6332 40.1953 21.3668 39.4142 20.5858L34.4142 15.5858Z" fill="#3356E6"/>
</svg>
