<svg width="40" height="40" viewBox="0 0 40 40" fill="none" xmlns="http://www.w3.org/2000/svg">
<path d="M1 3C1 1.89543 1.89543 1 3 1H32V39H5C2.79086 39 1 37.2091 1 35V3Z" fill="#5C7FF3" fill-opacity="0.2"/>
<path fill-rule="evenodd" clip-rule="evenodd" d="M36 2H4C2.89543 2 2 2.89543 2 4V36C2 37.1046 2.89543 38 4 38H36C37.1046 38 38 37.1046 38 36V4C38 2.89543 37.1046 2 36 2ZM4 0C1.79086 0 0 1.79086 0 4V36C0 38.2091 1.79086 40 4 40H36C38.2091 40 40 38.2091 40 36V4C40 1.79086 38.2091 0 36 0H4Z" fill="#88A6FC"/>
<path fill-rule="evenodd" clip-rule="evenodd" d="M1 8V10H39V8H1Z" fill="#88A6FC"/>
<path fill-rule="evenodd" clip-rule="evenodd" d="M6 4H4V6H6V4Z" fill="#88A6FC"/>
<path fill-rule="evenodd" clip-rule="evenodd" d="M9 4H7V6H9V4Z" fill="#88A6FC"/>
<path fill-rule="evenodd" clip-rule="evenodd" d="M12 4H10V6H12V4Z" fill="#88A6FC"/>
<path d="M21.75 22.2857H18.25C17.7859 22.2857 17.3408 22.1051 17.0126 21.7836C16.6844 21.4621 16.5 21.0261 16.5 20.5714C16.5 20.1168 16.6844 19.6807 17.0126 19.3592C17.3408 19.0378 17.7859 18.8571 18.25 18.8571H25.25C25.7141 18.8571 26.1592 18.6765 26.4874 18.355C26.8156 18.0335 27 17.5975 27 17.1429C27 16.6882 26.8156 16.2522 26.4874 15.9307C26.1592 15.6092 25.7141 15.4286 25.25 15.4286H21.75V13.7143C21.75 13.2596 21.5656 12.8236 21.2374 12.5021C20.9092 12.1806 20.4641 12 20 12C19.5359 12 19.0908 12.1806 18.7626 12.5021C18.4344 12.8236 18.25 13.2596 18.25 13.7143V15.4286C16.8576 15.4286 15.5223 15.9704 14.5377 16.9349C13.5531 17.8994 13 19.2075 13 20.5714C13 21.9354 13.5531 23.2435 14.5377 24.208C15.5223 25.1725 16.8576 25.7143 18.25 25.7143H21.75C22.2141 25.7143 22.6592 25.8949 22.9874 26.2164C23.3156 26.5379 23.5 26.9739 23.5 27.4286C23.5 27.8832 23.3156 28.3193 22.9874 28.6408C22.6592 28.9622 22.2141 29.1429 21.75 29.1429H14.75C14.2859 29.1429 13.8408 29.3235 13.5126 29.645C13.1844 29.9665 13 30.4025 13 30.8571C13 31.3118 13.1844 31.7478 13.5126 32.0693C13.8408 32.3908 14.2859 32.5714 14.75 32.5714H18.25V34.2857C18.25 34.7404 18.4344 35.1764 18.7626 35.4979C19.0908 35.8194 19.5359 36 20 36C20.4641 36 20.9092 35.8194 21.2374 35.4979C21.5656 35.1764 21.75 34.7404 21.75 34.2857V32.5714C23.1424 32.5714 24.4777 32.0296 25.4623 31.0651C26.4469 30.1006 27 28.7925 27 27.4286C27 26.0646 26.4469 24.7565 25.4623 23.792C24.4777 22.8276 23.1424 22.2857 21.75 22.2857Z" fill="#88A6FC"/>
</svg>
