<svg width="40" height="40" viewBox="0 0 40 40" fill="none" xmlns="http://www.w3.org/2000/svg">
<path d="M12 16H32V39H12V16Z" fill="#D7E4FE"/>
<path d="M2 4H8V39H2V4Z" fill="#D7E4FE"/>
<path fill-rule="evenodd" clip-rule="evenodd" d="M2 2H9C7.89543 2 7 2.89543 7 4V38H2L2 2ZM19 4C19 2.89543 18.1046 2 17 2H24V14H12C10.8954 14 10 14.8954 10 16V20C10 21.1046 10.8954 22 12 22V38H9V4H17V9H19V4ZM14 40H12H9H2C0.89543 40 0 39.1046 0 38V2C0 0.895431 0.895431 0 2 0H24C25.1046 0 26 0.895431 26 2V14H38C39.1046 14 40 14.8954 40 16V20C40 21.1046 39.1046 22 38 22V38C38 39.1046 37.1046 40 36 40H24H14ZM24 28V22H14V28H24ZM24 30H14V38H24V30ZM26 30H36V38H26V30ZM36 28H26V22H36V28ZM26 16H38V20H36H26V16ZM24 16V20H14H12V16H24Z" fill="#88A6FC"/>
<path d="M0 2C0 0.895431 0.895431 0 2 0H24C25.1046 0 26 0.895431 26 2V4H0V2Z" fill="#3356E6"/>
<path d="M21 14H29V40H21V14Z" fill="#3356E6"/>
<path fill-rule="evenodd" clip-rule="evenodd" d="M17 11C17 11.5523 17.4477 12 18 12H21.6113C21.1787 11.6978 20.7392 11.4024 20.3071 11.1309C19.7014 10.7502 19.1542 10.4447 18.6964 10.2404C18.2503 10.0414 18.0369 10.0063 18.0039 10.0009C17.9996 10.0002 17.9983 10 18 10C17.4477 10 17 10.4477 17 11ZM25 14V12C23 10.5 19.6569 8 18 8C16.3431 8 15 9.34315 15 11C15 12.6569 16.3431 14 18 14H25Z" fill="#3356E6"/>
<path fill-rule="evenodd" clip-rule="evenodd" d="M33 11C33 11.5523 32.5523 12 32 12H28.3887C28.8213 11.6978 29.2608 11.4024 29.6929 11.1309C30.2986 10.7502 30.8458 10.4447 31.3036 10.2404C31.7497 10.0414 31.9631 10.0063 31.9961 10.0009C32.0004 10.0002 32.0017 10 32 10C32.5523 10 33 10.4477 33 11ZM25 14V12C27 10.5 30.3431 8 32 8C33.6569 8 35 9.34315 35 11C35 12.6569 33.6569 14 32 14H25Z" fill="#3356E6"/>
</svg>
