<svg width="40" height="40" viewBox="0 0 40 40" fill="none" xmlns="http://www.w3.org/2000/svg">
<path d="M15 39C12.7909 39 11 37.2091 11 35L11 1L33 0.999999L33 35C33 37.2091 31.2091 39 29 39L15 39Z" fill="#F0F5FE"/>
<path fill-rule="evenodd" clip-rule="evenodd" d="M12 4L12 36C12 37.1046 12.8954 38 14 38L36 38C37.1046 38 38 37.1046 38 36L38 4C38 2.89543 37.1046 2 36 2L14 2C12.8954 2 12 2.89543 12 4ZM10 36C10 38.2091 11.7909 40 14 40L36 40C38.2091 40 40 38.2091 40 36L40 4C40 1.79086 38.2091 -1.23306e-06 36 -1.1365e-06L14 -1.74846e-07C11.7909 -7.8281e-08 10 1.79086 10 4L10 36Z" fill="#88A6FC"/>
<path fill-rule="evenodd" clip-rule="evenodd" d="M9 32L3 32C2.44772 32 2 32.4477 2 33C2 33.5523 2.44772 34 3 34L9 34C9.55228 34 10 33.5523 10 33C10 32.4477 9.55228 32 9 32ZM-1.31134e-07 33C-5.87108e-08 34.6569 1.34315 36 3 36L9 36C10.6569 36 12 34.6569 12 33C12 31.3431 10.6569 30 9 30L3 30C1.34315 30 -2.03558e-07 31.3431 -1.31134e-07 33Z" fill="#88A6FC"/>
<path fill-rule="evenodd" clip-rule="evenodd" d="M9 19L3 19C2.44772 19 2 19.4477 2 20C2 20.5523 2.44772 21 3 21L9 21C9.55228 21 10 20.5523 10 20C10 19.4477 9.55228 19 9 19ZM-1.31134e-07 20C-5.87108e-08 21.6569 1.34315 23 3 23L9 23C10.6569 23 12 21.6569 12 20C12 18.3431 10.6569 17 9 17L3 17C1.34315 17 -2.03558e-07 18.3431 -1.31134e-07 20Z" fill="#88A6FC"/>
<path fill-rule="evenodd" clip-rule="evenodd" d="M9 6L3 6C2.44772 6 2 6.44772 2 7C2 7.55228 2.44772 8 3 8L9 8C9.55228 8 10 7.55228 10 7C10 6.44771 9.55228 6 9 6ZM-1.31134e-07 7C-5.87108e-08 8.65685 1.34315 10 3 10L9 10C10.6569 10 12 8.65685 12 7C12 5.34315 10.6569 4 9 4L3 4C1.34315 4 -2.03558e-07 5.34315 -1.31134e-07 7Z" fill="#88A6FC"/>
<path fill-rule="evenodd" clip-rule="evenodd" d="M5 36L5 38C5 39.1046 5.89543 40 7 40L15 40L15 -4.37114e-07L7 -8.74228e-08C5.89543 -3.91405e-08 5 0.895432 5 2L5 4L9 4C10.6569 4 12 5.34315 12 7C12 8.65685 10.6569 10 9 10L5 10L5 17L9 17C10.6569 17 12 18.3431 12 20C12 21.6569 10.6569 23 9 23L5 23L5 30L9 30C10.6569 30 12 31.3431 12 33C12 34.6569 10.6569 36 9 36L5 36Z" fill="#88A6FC"/>
<path d="M27 12C28.0609 12 29.0783 12.4214 29.8284 13.1716C30.5786 13.9217 31 14.9391 31 16C31 17.0609 30.5786 18.0783 29.8284 18.8284C29.0783 19.5786 28.0609 20 27 20C25.9391 20 24.9217 19.5786 24.1716 18.8284C23.4214 18.0783 23 17.0609 23 16C23 14.9391 23.4214 13.9217 24.1716 13.1716C24.9217 12.4214 25.9391 12 27 12V12ZM27 22C31.42 22 35 23.79 35 26V28H19V26C19 23.79 22.58 22 27 22Z" fill="#88A6FC"/>
</svg>
