<svg width="40" height="40" viewBox="0 0 40 40" fill="none" xmlns="http://www.w3.org/2000/svg">
<path fill-rule="evenodd" clip-rule="evenodd" d="M20 38C27.732 38 34 31.732 34 24C34 16.268 27.732 10 20 10C12.268 10 6 16.268 6 24C6 31.732 12.268 38 20 38ZM20 40C28.8366 40 36 32.8366 36 24C36 15.1634 28.8366 8 20 8C11.1634 8 4 15.1634 4 24C4 32.8366 11.1634 40 20 40Z" fill="#88A6FC"/>
<path d="M32 23.9999C32 30.6274 26.6274 35.9999 20 35.9999C13.3726 35.9999 8 30.6274 8 23.9999C8 21.5303 8.74606 19.2349 10.0251 17.3268C10.3382 16.8597 10.9853 16.7983 11.4192 17.156C13.8977 19.1987 17.7551 22.2041 20 23.9999C20 20.8213 20 16.4055 20 12.9997C20 12.4474 20.4493 11.9956 20.9997 12.041C27.1594 12.549 32 17.7092 32 23.9999Z" fill="#88A6FC"/>
<path fill-rule="evenodd" clip-rule="evenodd" d="M26 2H14C13.4477 2 13 2.44772 13 3C13 3.55228 13.4477 4 14 4H26C26.5523 4 27 3.55228 27 3C27 2.44772 26.5523 2 26 2ZM14 0C12.3431 0 11 1.34315 11 3C11 4.65685 12.3431 6 14 6H26C27.6569 6 29 4.65685 29 3C29 1.34315 27.6569 0 26 0H14Z" fill="#88A6FC"/>
<path fill-rule="evenodd" clip-rule="evenodd" d="M21 6H19V8H21V6ZM17 4V10H23V4H17Z" fill="#88A6FC"/>
</svg>
