<svg width="40" height="40" viewBox="0 0 40 40" fill="none" xmlns="http://www.w3.org/2000/svg">
<path d="M0 14C0 11.7909 1.79086 10 4 10H33V40H4C1.79086 40 0 38.2091 0 36V14Z" fill="#F0F5FE"/>
<path fill-rule="evenodd" clip-rule="evenodd" d="M36 12H4C2.89543 12 2 12.8954 2 14V36C2 37.1046 2.89543 38 4 38H36C37.1046 38 38 37.1046 38 36V14C38 12.8954 37.1046 12 36 12ZM4 10C1.79086 10 0 11.7909 0 14V36C0 38.2091 1.79086 40 4 40H36C38.2091 40 40 38.2091 40 36V14C40 11.7909 38.2091 10 36 10H4Z" fill="#88A6FC"/>
<path fill-rule="evenodd" clip-rule="evenodd" d="M8 9V3C8 2.44772 7.55228 2 7 2C6.44772 2 6 2.44772 6 3V9C6 9.55228 6.44772 10 7 10C7.55228 10 8 9.55228 8 9ZM7 0C5.34315 0 4 1.34315 4 3V9C4 10.6569 5.34315 12 7 12C8.65685 12 10 10.6569 10 9V3C10 1.34315 8.65685 0 7 0Z" fill="#88A6FC"/>
<path fill-rule="evenodd" clip-rule="evenodd" d="M34 9V3C34 2.44772 33.5523 2 33 2C32.4477 2 32 2.44772 32 3V9C32 9.55228 32.4477 10 33 10C33.5523 10 34 9.55228 34 9ZM33 0C31.3431 0 30 1.34315 30 3V9C30 10.6569 31.3431 12 33 12C34.6569 12 36 10.6569 36 9V3C36 1.34315 34.6569 0 33 0Z" fill="#88A6FC"/>
<path fill-rule="evenodd" clip-rule="evenodd" d="M4 5V9C4 10.6569 5.34315 12 7 12C8.65685 12 10 10.6569 10 9V5H30V9C30 10.6569 31.3431 12 33 12C34.6569 12 36 10.6569 36 9V5H38C39.1046 5 40 5.89543 40 7V15H0V7C0 5.89543 0.895431 5 2 5H4Z" fill="#88A6FC"/>
<path fill-rule="evenodd" clip-rule="evenodd" d="M40 29C40 35.0751 35.0751 40 29 40C22.9249 40 18 35.0751 18 29C18 22.9249 22.9249 18 29 18C35.0751 18 40 22.9249 40 29ZM28 22C28 21.4477 28.4477 21 29 21C29.5523 21 30 21.4477 30 22V28H33C33.5523 28 34 28.4477 34 29C34 29.5523 33.5523 30 33 30H29C28.4477 30 28 29.5523 28 29V22Z" fill="#88A6FC"/>
</svg>
