<svg width="30" height="30" viewBox="0 0 30 30" fill="none" xmlns="http://www.w3.org/2000/svg">
<path fill-rule="evenodd" clip-rule="evenodd" d="M15 22C21.0751 22 26 17.0751 26 11C26 4.92487 21.0751 0 15 0C8.92487 0 4 4.92487 4 11C4 17.0751 8.92487 22 15 22ZM21 11C21 14.3137 18.3137 17 15 17C11.6863 17 9 14.3137 9 11C9 7.68629 11.6863 5 15 5C18.3137 5 21 7.68629 21 11ZM23 11C23 15.4183 19.4183 19 15 19C10.5817 19 7 15.4183 7 11C7 6.58172 10.5817 3 15 3C19.4183 3 23 6.58172 23 11Z" fill="#2ECC71"/>
<path fill-rule="evenodd" clip-rule="evenodd" d="M4.04251 17.998L0 24.9999L6.33013 24.0358L8.66025 29.9999L12.288 23.7165C8.83333 22.9833 5.88574 20.8781 4.04251 17.998Z" fill="#2ECC71"/>
<path fill-rule="evenodd" clip-rule="evenodd" d="M25.9575 17.998L30 24.9999L23.6699 24.0358L21.3397 29.9999L17.712 23.7165C21.1666 22.9833 24.1142 20.8781 25.9575 17.998Z" fill="#2ECC71"/>
</svg>
