<svg width="30" height="30" viewBox="0 0 30 30" fill="none" xmlns="http://www.w3.org/2000/svg">
<rect x="-0.000976562" width="30" height="30" rx="15" fill="#0575E6"/>
<path fill-rule="evenodd" clip-rule="evenodd" d="M19.999 7H21.999V9H19.999V12H19.999L19.999 12.0001L16.4287 15L19.999 18V21H21.999V23H19.999H18.3324H11.6657H9.99907H7.99902V21H9.99907V18.0002L9.99896 18L13.5694 15L9.99899 12L9.99907 11.9999V9H7.99902V7H9.99907H11.6657H18.3324H19.999ZM18.3324 9H11.6657V10.998L14.999 13.7988L18.3324 10.9979V9ZM11.6657 21H18.3324V19.0021L14.999 16.2013L11.6657 19.0021V21Z" fill="white"/>
</svg>
