<svg width="416" height="329" viewBox="0 0 416 329" fill="none" xmlns="http://www.w3.org/2000/svg">
<rect x="44" width="329" height="329" rx="20" fill="#F0F5FE"/>
<path d="M359.277 138.354C362.135 138.354 364.452 136.037 364.452 133.179C364.452 130.321 362.135 128.004 359.277 128.004C356.418 128.004 354.102 130.321 354.102 133.179C354.102 136.037 356.418 138.354 359.277 138.354Z" fill="#88A6FC"/>
<path d="M26.2695 154.708C20.7604 154.708 16.2695 150.193 16.2695 144.653C16.2695 139.113 20.7604 134.598 26.2695 134.598C31.7787 134.598 36.2695 139.113 36.2695 144.653C36.2695 150.193 31.7787 154.708 26.2695 154.708ZM26.2695 139.822C23.6325 139.822 21.4915 141.975 21.4915 144.627C21.4915 147.278 23.6325 149.431 26.2695 149.431C28.9066 149.431 31.0476 147.278 31.0476 144.627C31.0476 141.975 28.9066 139.822 26.2695 139.822Z" fill="#AFC7FD"/>
<path d="M57.9231 169.979H55.0691V172.849C55.0691 174.139 54.0293 175.185 52.7461 175.185C51.4629 175.185 50.4231 174.139 50.4231 172.849V169.979H47.5691C46.2859 169.979 45.2461 168.933 45.2461 167.643C45.2461 166.353 46.2859 165.307 47.5691 165.307H50.4231V162.437C50.4231 161.147 51.4629 160.102 52.7461 160.102C54.0293 160.102 55.0691 161.147 55.0691 162.437V165.307H57.9231C59.2063 165.307 60.2461 166.353 60.2461 167.643C60.2461 168.911 59.2063 169.979 57.9231 169.979Z" fill="#88A6FC"/>
<path d="M350 96C333.996 96 321 82.9874 321 67C321 51.0126 333.996 38 350 38C366.004 38 379 51.0126 379 67C379 82.9874 365.987 96 350 96ZM350 49.6332C340.428 49.6332 332.633 57.4109 332.633 67C332.633 76.5725 340.428 84.3668 350 84.3668C359.589 84.3668 367.383 76.5725 367.383 67C367.367 57.4109 359.572 49.6332 350 49.6332Z" fill="#D7E4FE"/>
<circle cx="44" cy="99" r="44" fill="#6F7475"/>
<ellipse cx="47.5" cy="100" rx="43.5" ry="43" fill="#8A9596"/>
<path d="M62.4261 103.445L61.6994 103.005C60.8344 102.483 60.3177 101.546 60.3177 100.5C60.3177 99.4542 60.8344 98.5169 61.6994 97.9948L62.4261 97.5551C64.4103 96.3545 65.0887 93.7047 63.9433 91.6276L62.5616 89.1224C61.4189 87.0497 58.8779 86.338 56.8994 87.5342L56.1726 87.9725C55.3076 88.4961 54.2727 88.4961 53.4092 87.9725C52.5442 87.4489 52.0275 86.513 52.0275 85.4673V84.5893C52.0275 82.1969 50.1677 80.25 47.8824 80.25H45.119C42.8337 80.25 40.9739 82.1969 40.9739 84.5893V85.4687C40.9739 86.5145 40.4571 87.4503 39.5922 87.9739C38.7273 88.4961 37.6937 88.4975 36.8288 87.9739L36.102 87.5342C34.1234 86.338 31.5825 87.0497 30.4384 89.1224L29.0567 91.6276C27.9113 93.7047 28.5897 96.356 30.5739 97.5551L31.302 97.9948C32.1669 98.5169 32.6837 99.4542 32.6837 100.5C32.6837 101.546 32.1669 102.483 31.302 103.005L30.5752 103.445C28.5911 104.644 27.9127 107.295 29.0581 109.372L30.4398 111.878C31.5839 113.95 34.1248 114.662 36.102 113.466L36.8288 113.028C37.6937 112.502 38.7273 112.505 39.5922 113.028C40.4571 113.551 40.9739 114.487 40.9739 115.533V116.411C40.9739 118.803 42.8337 120.75 45.119 120.75H47.8824C50.1677 120.75 52.0275 118.803 52.0275 116.411V115.531C52.0275 114.486 52.5442 113.55 53.4092 113.026C54.2727 112.504 55.3076 112.502 56.1726 113.026L56.8994 113.466C58.8779 114.661 61.4189 113.949 62.5616 111.878L63.9433 109.372C65.0887 107.295 64.4103 104.644 62.4261 103.445Z" stroke="white" stroke-width="4"/>
<circle cx="46.5" cy="100.5" r="4.75" stroke="white" stroke-width="4"/>
<path d="M108.774 291H307.226C310.426 291 313 290.108 313 289C313 287.892 310.426 287 307.226 287H108.774C105.574 287 103 287.892 103 289C103.037 290.108 105.611 291 108.774 291Z" fill="#AFC7FD"/>
<path d="M234.085 269.33L232.179 243.562H180.955L179.033 269.506C178.818 272.4 177.981 275.182 176.602 277.678H236.612C235.177 275.142 234.308 272.296 234.085 269.33Z" fill="#AFC7FD"/>
<path d="M232.643 249.805H180.493L179.473 263.637L233.536 263.279" fill="#AFC7FD"/>
<path d="M247.385 277.688H165.84C164.771 277.688 163.902 278.557 163.902 279.625V285.293C163.902 286.362 164.771 287.231 165.84 287.231H247.385C248.453 287.231 249.322 286.362 249.322 285.293V279.625C249.322 278.557 248.453 277.688 247.385 277.688Z" fill="#3356E6"/>
<path d="M74 224.957V241.421C74 246.037 77.7392 249.768 82.3474 249.768H330.977C335.593 249.768 339.324 246.029 339.324 241.421V224.957H74Z" fill="#5C7FF3"/>
<path d="M330.985 67H82.3474C77.7392 67 74 70.7392 74 75.3474V224.955H339.332V75.3474C339.332 70.7392 335.593 67 330.985 67Z" fill="#3356E6"/>
<path d="M327.403 77.5H84.9766V214.463H327.403V77.5Z" fill="white"/>
<path d="M264.069 77.5L127.105 214.463H327.404V77.5H264.069Z" fill="url(#paint0_linear)"/>
<path d="M370.919 194.334C370.111 197.349 367.011 199.14 363.996 198.332L329.468 189.08C326.452 188.272 323.352 190.061 322.544 193.077L310.167 239.267C309.359 242.284 311.149 245.383 314.165 246.191L384.33 264.992C387.346 265.8 390.445 264.011 391.254 260.994L406.557 203.883C407.365 200.867 405.575 197.767 402.559 196.959L377.843 190.336C374.827 189.528 371.727 191.318 370.919 194.334V194.334Z" fill="#E58E13"/>
<path d="M346.23 166.973L405.365 182.818L385.117 258.385L325.982 242.54L346.23 166.973Z" fill="white"/>
<path d="M340.645 149.758L399.779 165.603L386.344 215.746L327.209 199.901L340.645 149.758Z" fill="#F1F1F1"/>
<path d="M340.645 149.758L399.779 165.603L396.913 176.301L337.778 160.456L340.645 149.758Z" fill="white"/>
<path d="M327.199 161.871L386.334 177.716L376.827 213.197L317.692 197.352L327.199 161.871Z" fill="white"/>
<path d="M394.853 200.746L379.55 257.858C378.742 260.874 375.643 262.663 372.627 261.855L302.462 243.055C299.448 242.247 297.656 239.147 298.464 236.131L310.841 189.94C311.649 186.924 314.751 185.135 317.765 185.942L352.294 195.194C355.309 196.002 358.409 194.213 359.217 191.197C360.025 188.181 363.124 186.392 366.14 187.2L390.856 193.822C393.872 194.631 395.662 197.73 394.853 200.746V200.746Z" fill="#E58E13"/>
<path d="M392.488 200.112L377.185 257.224C376.377 260.24 373.277 262.029 370.261 261.221L302.462 243.055C299.448 242.247 297.656 239.147 298.464 236.131L310.841 189.94C311.649 186.924 314.751 185.135 317.765 185.942L352.294 195.194C355.309 196.002 358.408 194.213 359.217 191.197C360.025 188.181 363.124 186.392 366.14 187.2L388.49 193.189C391.507 193.997 393.296 197.096 392.488 200.112Z" fill="#F7D360"/>
<path d="M369.496 183.028L334.015 173.521C333.198 173.302 332.713 172.463 332.932 171.646C333.151 170.83 333.991 170.345 334.807 170.564L370.288 180.071C371.104 180.29 371.589 181.129 371.37 181.946C371.151 182.762 370.312 183.247 369.496 183.028Z" fill="#53C01E"/>
<path d="M352.33 186.354L332.034 180.916C331.218 180.697 330.733 179.858 330.951 179.042C331.17 178.225 332.01 177.74 332.827 177.959L353.123 183.397C353.939 183.616 354.424 184.456 354.205 185.272C353.986 186.089 353.147 186.573 352.33 186.354Z" fill="#53C01E"/>
<path d="M52 198.579C52 196.602 53.9642 195 56.3871 195H120V263H60.7742C55.9283 263 52 259.795 52 255.842V198.579Z" fill="white"/>
<path fill-rule="evenodd" clip-rule="evenodd" d="M114.8 196.6H57.2C55.2118 196.6 53.6 198.212 53.6 200.2V257.8C53.6 259.788 55.2118 261.4 57.2 261.4H114.8C116.788 261.4 118.4 259.788 118.4 257.8V200.2C118.4 198.212 116.788 196.6 114.8 196.6ZM57.2 193C53.2235 193 50 196.224 50 200.2V257.8C50 261.776 53.2236 265 57.2 265H114.8C118.776 265 122 261.776 122 257.8V200.2C122 196.224 118.776 193 114.8 193H57.2Z" fill="#88A6FC"/>
<path fill-rule="evenodd" clip-rule="evenodd" d="M51.8008 207.398V210.998H120.201V207.398H51.8008Z" fill="#88A6FC"/>
<path fill-rule="evenodd" clip-rule="evenodd" d="M60.7992 200.199H57.1992V203.799H60.7992V200.199Z" fill="#88A6FC"/>
<path fill-rule="evenodd" clip-rule="evenodd" d="M66.2016 200.199H62.6016V203.799H66.2016V200.199Z" fill="#88A6FC"/>
<path fill-rule="evenodd" clip-rule="evenodd" d="M71.6 200.199H68V203.799H71.6V200.199Z" fill="#88A6FC"/>
<path fill-rule="evenodd" clip-rule="evenodd" d="M82 225.846C82 224.826 82.7831 224 83.75 224C84.7169 224 85.5 224.826 85.5 225.846V233.693L85.5 233.693V233.231C85.5 232.211 86.2831 231.385 87.25 231.385C88.2169 231.385 89 232.211 89 233.231V234.147C89.0033 233.131 89.7855 232.308 90.75 232.308C91.7165 232.308 92.5 233.134 92.5 234.154L92.5 234.154C92.5 234.154 92.5513 234.208 92.6665 234.29C92.9465 233.664 93.5503 233.231 94.25 233.231C95.2165 233.231 96 234.058 96 235.077L96 235.089V244.308C96 246.347 94.4329 248 92.5 248H86.6498C84.793 248 83.0124 247.222 81.6999 245.837L78.9375 242.923L75 241.064C75.0064 239.301 76.3157 238.769 77.625 238.769C78.7529 238.769 79.767 238.955 82 240.154V234.154H82V225.846ZM75 241.064L75 241.077V241.064L75 241.064Z" fill="#3356E6"/>
<path d="M295.883 48.8725C295.623 48.8725 295.373 48.7725 295.173 48.5825L290.292 43.7025C289.903 43.3125 289.903 42.6825 290.292 42.2925C290.682 41.9025 291.313 41.9025 291.703 42.2925L296.582 47.1725C296.972 47.5625 296.972 48.1925 296.582 48.5825C296.392 48.7725 296.133 48.8725 295.883 48.8725Z" fill="#53C01E"/>
<path d="M304.492 57.4819C304.232 57.4819 303.982 57.3819 303.782 57.1919L298.902 52.3119C298.512 51.9219 298.512 51.2919 298.902 50.9019C299.292 50.5119 299.922 50.5119 300.312 50.9019L305.192 55.7819C305.582 56.1719 305.582 56.8019 305.192 57.1919C305.002 57.3819 304.742 57.4819 304.492 57.4819Z" fill="#53C01E"/>
<path d="M291.022 57.5008C290.762 57.5008 290.512 57.4008 290.312 57.2108C289.922 56.8208 289.922 56.1908 290.312 55.8008L295.082 51.0308C295.472 50.6408 296.102 50.6408 296.492 51.0308C296.882 51.4208 296.882 52.0508 296.492 52.4408L291.722 57.2108C291.542 57.4008 291.282 57.5008 291.022 57.5008Z" fill="#53C01E"/>
<path d="M299.452 49.0711C299.192 49.0711 298.942 48.9711 298.742 48.7811C298.352 48.3911 298.352 47.7611 298.742 47.3711L303.512 42.6011C303.902 42.2111 304.532 42.2111 304.922 42.6011C305.312 42.9911 305.312 43.6211 304.922 44.0111L300.152 48.7811C299.962 48.9811 299.712 49.0711 299.452 49.0711Z" fill="#53C01E"/>
<defs>
<linearGradient id="paint0_linear" x1="311.059" y1="133.631" x2="236.389" y2="193.801" gradientUnits="userSpaceOnUse">
<stop stop-color="#D3E3FF"/>
<stop offset="0.9859" stop-color="white" stop-opacity="0"/>
</linearGradient>
</defs>
</svg>
