<svg width="20" height="20" viewBox="0 0 20 20" fill="none" xmlns="http://www.w3.org/2000/svg">
<path fill-rule="evenodd" clip-rule="evenodd" d="M10 18C14.4183 18 18 14.4183 18 10C18 5.58172 14.4183 2 10 2C5.58172 2 2 5.58172 2 10C2 14.4183 5.58172 18 10 18ZM10 20C15.5228 20 20 15.5228 20 10C20 4.47715 15.5228 0 10 0C4.47715 0 0 4.47715 0 10C0 15.5228 4.47715 20 10 20Z" fill="#4A5568"/>
<path d="M10.008 5C8.64711 5 7.76564 5.63873 7.0736 6.77785C6.94806 6.98449 6.98677 7.26781 7.16189 7.41992L7.89739 8.05877C8.07425 8.21238 8.32589 8.17646 8.46435 7.97775C8.89144 7.36484 9.20825 7.01195 9.87536 7.01195C10.3999 7.01195 11.0487 7.39865 11.0487 7.98131C11.0487 8.42178 10.7313 8.64799 10.2133 8.98061C9.60938 9.3685 8.81015 9.85123 8.81015 11.0588V11.25C8.81015 11.5089 8.99335 11.7188 9.21935 11.7188H10.455C10.681 11.7188 10.8642 11.5089 10.8642 11.25V11.1372C10.8642 10.3001 13 10.2653 13 8C13 6.29406 11.4553 5 10.008 5ZM9.83717 12.2941C9.18593 12.2941 8.6561 12.9011 8.6561 13.6471C8.6561 14.3931 9.18593 15 9.83717 15C10.4884 15 11.0182 14.3931 11.0182 13.6471C11.0182 12.901 10.4884 12.2941 9.83717 12.2941Z" fill="#3499FE"/>
</svg>
