<svg width="20" height="20" viewBox="0 0 20 20" fill="none" xmlns="http://www.w3.org/2000/svg">
<path fill-rule="evenodd" clip-rule="evenodd" d="M7 0L9 2H18H20V4V18V20H18H2H0V18V2V0H2H7ZM9 4H18V6H2V2H6.17157L7.58579 3.41421L8.17157 4H9ZM2 7V18H18V7H2Z" fill="#4A5568"/>
<path d="M11 14.5V14H7.505L7.5 16C7.5 16.555 7.945 17 8.5 17H15.5C16.055 17 16.5 16.555 16.5 16V14H13V14.5H11ZM16 10H13.995V9L12.995 8H10.995L9.995 9V10H8C7.45 10 7 10.45 7 11V12.5C7 13.055 7.445 13.5 8 13.5H11V12.5H13V13.5H16C16.55 13.5 17 13.05 17 12.5V11C17 10.45 16.55 10 16 10ZM13 10H11V9H13V10Z" fill="#3499FE"/>
</svg>
