<svg width="40" height="40" viewBox="0 0 40 40" fill="none" xmlns="http://www.w3.org/2000/svg">
<path fill-rule="evenodd" clip-rule="evenodd" d="M2 0H0V2V30V32H2H14V28H10L10 12L26 12V14H30V2V0H28H17.1667H2ZM8 12H4V28H8L8 12ZM26 10V4H17.1667H4V10L26 10ZM6 8V6H8V8H6ZM20 6V8H24V6H20ZM14 8V6H18V8H14Z" fill="#4A5568"/>
<path fill-rule="evenodd" clip-rule="evenodd" d="M36 31.3137V24.6863L31.3137 20L24.6863 20L20 24.6863L20 31.3137L24.6863 36H31.3137L36 31.3137ZM32.9706 40L40 32.9706V23.0294L32.9706 16L23.0294 16L16 23.0294L16 32.9706L23.0294 40H32.9706ZM24.0273 25.1676L25.626 23.569L28.0239 25.9668L30.4217 23.569L32.0204 25.1677L29.6226 27.5655L32.0208 29.9637L30.4221 31.5624L28.0239 29.1642L25.6257 31.5624L24.027 29.9638L26.4252 27.5655L24.0273 25.1676Z" fill="#3499FE"/>
</svg>
