<svg width="20" height="20" viewBox="0 0 20 20" fill="none" xmlns="http://www.w3.org/2000/svg">
<path fill-rule="evenodd" clip-rule="evenodd" d="M12 0H6L4.5 2H1H0V3V17V18H1H9V16H2V4H3H5.44444H12.5556H15H16V9.5H18V3V2H17H13.5L12 0ZM9 3C9.55228 3 10 2.55228 10 2C10 1.44772 9.55228 1 9 1C8.44772 1 8 1.44772 8 2C8 2.55228 8.44772 3 9 3ZM6 6H4V8H6V6ZM6 9H4V11H6V9ZM7 6H14V8H7V6ZM9 11V9H7V11H9ZM4 12H6V14H4V12Z" fill="white"/>
<path fill-rule="evenodd" clip-rule="evenodd" d="M18 13.5C18 15.9853 15.9853 18 13.5 18C11.0147 18 9 15.9853 9 13.5C9 11.0147 11.0147 9 13.5 9C15.9853 9 18 11.0147 18 13.5ZM20 13.5C20 17.0899 17.0899 20 13.5 20C9.91015 20 7 17.0899 7 13.5C7 9.91015 9.91015 7 13.5 7C17.0899 7 20 9.91015 20 13.5ZM11.05 13.25L12.45 14.75L15.95 11L17 12.125L12.45 17L10 14.375L11.05 13.25Z" fill="white"/>
</svg>
