<svg width="40" height="40" viewBox="0 0 40 40" fill="none" xmlns="http://www.w3.org/2000/svg">
<path fill-rule="evenodd" clip-rule="evenodd" d="M20 7L20 1L21 1L21 7L20 7Z" fill="#A0AEC0"/>
<path fill-rule="evenodd" clip-rule="evenodd" d="M39 7L1 7L1 6L39 6L39 7Z" fill="#A0AEC0"/>
<path fill-rule="evenodd" clip-rule="evenodd" d="M2 38H38V6.82843L33.1716 2H6.82843L2 6.82843V38ZM0 6L6 0H34L40 6V40H0V6Z" fill="#A0AEC0"/>
<path fill-rule="evenodd" clip-rule="evenodd" d="M20.5 12.0132L23.8902 17.8338L30.4736 19.2594L25.9855 24.2824L26.664 30.9841L20.5 28.2679L14.336 30.9841L15.0145 24.2824L10.5264 19.2594L17.1098 17.8338L20.5 12.0132ZM20.5 15.987L18.3944 19.602L14.3057 20.4874L17.0931 23.607L16.6717 27.7693L20.5 26.0823L24.3283 27.7693L23.9069 23.607L26.6943 20.4874L22.6056 19.602L20.5 15.987Z" fill="#A0AEC0"/>
</svg>
