<svg width="20" height="20" viewBox="0 0 20 20" fill="none" xmlns="http://www.w3.org/2000/svg">
<path fill-rule="evenodd" clip-rule="evenodd" d="M12.2228 8.27273C12.2228 9.52792 11.2278 10.5455 10.0005 10.5455C8.77324 10.5455 7.77832 9.52792 7.77832 8.27273C7.77832 7.01753 8.77324 6 10.0005 6C11.2278 6 12.2228 7.01753 12.2228 8.27273ZM6 14.4848C6 14.4848 6.95 11.4545 10 11.4545C13.05 11.4545 14 14.4848 14 14.4848V16H6V14.4848Z" fill="#718096"/>
<path fill-rule="evenodd" clip-rule="evenodd" d="M4 0H5V2H15V0H16V2H20V20H0V2H4V0ZM15 4V6H16V4H18V18H2V4H4V6H5V4H15Z" fill="#718096"/>
</svg>
