<svg width="20" height="20" viewBox="0 0 20 20" fill="none" xmlns="http://www.w3.org/2000/svg">
<path fill-rule="evenodd" clip-rule="evenodd" d="M8.99981 3C8.99981 4.65685 7.65666 6 5.99981 6C4.34296 6 2.99981 4.65685 2.99981 3C2.99981 1.34315 4.34296 0 5.99981 0C7.65666 0 8.99981 1.34315 8.99981 3ZM0 11.2C0 11.2 1.34103 7.43573 5.59788 7.21054L4.79999 11.2L5.99999 12L7.19999 11.2L6.40209 7.21054C7.76107 7.28242 8.82287 7.715 9.63874 8.27065C8.11302 9.39909 7.09859 11.1793 7.0068 13.2H0V11.2Z" fill="#08D0EA"/>
<path d="M14 11C14.5933 11 15.1734 11.1759 15.6667 11.5056C16.1601 11.8352 16.5446 12.3038 16.7716 12.8519C16.9987 13.4001 17.0581 14.0033 16.9424 14.5853C16.8266 15.1672 16.5409 15.7018 16.1213 16.1213C15.7018 16.5409 15.1672 16.8266 14.5853 16.9424C14.0033 17.0581 13.4001 16.9987 12.8519 16.7716C12.3038 16.5446 11.8352 16.1601 11.5056 15.6667C11.1759 15.1734 11 14.5933 11 14L14 14L14 11Z" fill="#08D0EA"/>
<path fill-rule="evenodd" clip-rule="evenodd" d="M14 18C16.2091 18 18 16.2091 18 14C18 11.7909 16.2091 10 14 10C11.7909 10 10 11.7909 10 14C10 16.2091 11.7909 18 14 18ZM14 20C17.3137 20 20 17.3137 20 14C20 10.6863 17.3137 8 14 8C10.6863 8 8 10.6863 8 14C8 17.3137 10.6863 20 14 20Z" fill="#08D0EA"/>
<rect x="11" y="6" width="6" height="2" fill="#08D0EA"/>
</svg>
