<svg width="20" height="20" viewBox="0 0 20 20" fill="none" xmlns="http://www.w3.org/2000/svg">
<path fill-rule="evenodd" clip-rule="evenodd" d="M0 18V0H0.000977393H2H13H15H15.001V0.000976563L18 3V5V7H16V5H13V2H2L2 16H8.00098V18H2H0.000977393H0ZM11 4H4V5H11V4ZM4 7H9V8H4V7Z" fill="#718096"/>
<path fill-rule="evenodd" clip-rule="evenodd" d="M14 18C16.2091 18 18 16.2091 18 14C18 11.7909 16.2091 10 14 10C11.7909 10 10 11.7909 10 14C10 16.2091 11.7909 18 14 18ZM14 20C17.3137 20 20 17.3137 20 14C20 10.6863 17.3137 8 14 8C10.6863 8 8 10.6863 8 14C8 17.3137 10.6863 20 14 20Z" fill="#718096"/>
<path fill-rule="evenodd" clip-rule="evenodd" d="M13.9997 11V13.9999L11.3161 12.6581C11.1138 13.0619 11 13.5176 11 14C11 15.6569 12.3431 17 14 17C15.6569 17 17 15.6569 17 14C17 12.3431 15.6569 11 14 11C13.9999 11 13.9998 11 13.9997 11Z" fill="#718096"/>
</svg>
