<svg width="21" height="21" viewBox="0 0 21 21" fill="none" xmlns="http://www.w3.org/2000/svg">
<path fill-rule="evenodd" clip-rule="evenodd" d="M10.751 6.77775C10.751 7.75958 9.96747 8.55551 9.00098 8.55551C8.03448 8.55551 7.25098 7.75958 7.25098 6.77775C7.25098 5.79593 8.03448 5 9.00098 5C9.96747 5 10.751 5.79593 10.751 6.77775ZM5.50098 11.8149C5.50098 11.8149 6.33223 9.44455 9.00098 9.44455C11.6697 9.44455 12.501 11.8149 12.501 11.8149V13.0001H5.50098V11.8149Z" fill="#A0AEC0"/>
<path fill-rule="evenodd" clip-rule="evenodd" d="M1.50098 0.899414H0.500977V1.89941V10.8994V16.8994C0.500977 19.1086 2.29184 20.8994 4.50098 20.8994H6.50098H16.501C18.7101 20.8994 20.501 19.1086 20.501 16.8994L20.501 14.8994L18.501 14.8994L17.501 14.8994V1.89941V0.899414H16.501H1.50098ZM15.501 14.8995V2.89941H2.50098V10.8994V16.8994C2.50098 18.004 3.39641 18.8994 4.50098 18.8994V18.8994C7.00098 18.8994 7.50098 17.3994 7.50098 14.8995L15.501 14.8995ZM18.501 16.8994L9.35811 16.8995C9.23775 17.5956 9.02033 18.2864 8.63293 18.8994H16.501C17.6055 18.8994 18.501 18.004 18.501 16.8994Z" fill="#A0AEC0"/>
</svg>
