<svg width="20" height="20" viewBox="0 0 20 20" fill="none" xmlns="http://www.w3.org/2000/svg">
<path fill-rule="evenodd" clip-rule="evenodd" d="M4 6V4L3 4L2 4V8H16V4H14V6H13V4H10L7 4L6 4H5V6H4ZM13 2H5V0H4V2H1H0V3V17V18H1H9V16H2V9H16H17H18V3V2H17H14V0H13V2Z" fill="#718096"/>
<path fill-rule="evenodd" clip-rule="evenodd" d="M13.5 18C15.9853 18 18 15.9853 18 13.5C18 11.0147 15.9853 9 13.5 9C11.0147 9 9 11.0147 9 13.5C9 15.9853 11.0147 18 13.5 18ZM13.5 20C17.0899 20 20 17.0899 20 13.5C20 9.91015 17.0899 7 13.5 7C9.91015 7 7 9.91015 7 13.5C7 17.0899 9.91015 20 13.5 20ZM14 10V13H16V14H14H13V10H14Z" fill="#718096"/>
</svg>
