<svg width="20" height="20" viewBox="0 0 20 20" fill="none" xmlns="http://www.w3.org/2000/svg">
<path fill-rule="evenodd" clip-rule="evenodd" d="M18 2H2V18H18V2ZM0 0V20H20V0H0Z" fill="#A0AEC0"/>
<path d="M12.5455 11.1429C12.3609 11.1429 12.1509 11.1429 11.9282 11.175C12.6664 11.715 13.1818 12.4286 13.1818 13.3929V15H17V13.3929C17 11.895 14.0282 11.1429 12.5455 11.1429ZM7.45455 11.1429C5.97182 11.1429 3 11.895 3 13.3929V15H11.9091V13.3929C11.9091 11.895 8.93727 11.1429 7.45455 11.1429ZM7.45455 9.85714C7.96087 9.85714 8.44645 9.65395 8.80448 9.29228C9.1625 8.9306 9.36364 8.44006 9.36364 7.92857C9.36364 7.41708 9.1625 6.92654 8.80448 6.56487C8.44645 6.20319 7.96087 6 7.45455 6C6.94822 6 6.46264 6.20319 6.10461 6.56487C5.74659 6.92654 5.54545 7.41708 5.54545 7.92857C5.54545 8.44006 5.74659 8.9306 6.10461 9.29228C6.46264 9.65395 6.94822 9.85714 7.45455 9.85714ZM12.5455 9.85714C13.0518 9.85714 13.5374 9.65395 13.8954 9.29228C14.2534 8.9306 14.4545 8.44006 14.4545 7.92857C14.4545 7.41708 14.2534 6.92654 13.8954 6.56487C13.5374 6.20319 13.0518 6 12.5455 6C12.0391 6 11.5535 6.20319 11.1955 6.56487C10.8375 6.92654 10.6364 7.41708 10.6364 7.92857C10.6364 8.44006 10.8375 8.9306 11.1955 9.29228C11.5535 9.65395 12.0391 9.85714 12.5455 9.85714Z" fill="#A0AEC0"/>
</svg>
