<svg width="20" height="20" viewBox="0 0 20 20" fill="none" xmlns="http://www.w3.org/2000/svg">
<path d="M18 9.2C18 8.312 17.3455 7.6 16.5455 7.6H11.9491L12.6473 3.944C12.6618 3.864 12.6691 3.776 12.6691 3.688C12.6691 3.36 12.5455 3.056 12.3491 2.84L11.5782 2L6.79273 7.264C6.52364 7.56 6.36364 7.96 6.36364 8.4V16.4C6.36364 16.8243 6.51688 17.2313 6.78966 17.5314C7.06244 17.8314 7.43241 18 7.81818 18H14.3636C14.9673 18 15.4836 17.6 15.7018 17.024L17.8982 11.384C17.9636 11.2 18 11.008 18 10.8V9.2ZM2 18H4.90909V8.4H2V18Z" fill="#A0AEC0"/>
<rect x="2" y="8" width="3" height="10" fill="#A0AEC0"/>
</svg>
