<svg width="20" height="20" viewBox="0 0 20 20" fill="none" xmlns="http://www.w3.org/2000/svg">
<path d="M20 14.5C20 13.945 19.55 13.5 19 13.5H15.84L16.32 11.215C16.33 11.165 16.335 11.11 16.335 11.055C16.335 10.85 16.25 10.66 16.115 10.525L15.585 10L12.295 13.29C12.11 13.475 12 13.725 12 14V19C12 19.2652 12.1054 19.5196 12.2929 19.7071C12.4804 19.8946 12.7348 20 13 20H17.5C17.915 20 18.27 19.75 18.42 19.39L19.93 15.865C19.975 15.75 20 15.63 20 15.5V14.5ZM9 20H11V14H9V20Z" fill="#A0AEC0"/>
<path fill-rule="evenodd" clip-rule="evenodd" d="M7.5 7.55556C9.57107 7.55556 11.25 5.86419 11.25 3.77778C11.25 1.69137 9.57107 0 7.5 0C5.42893 0 3.75 1.69137 3.75 3.77778C3.75 5.86419 5.42893 7.55556 7.5 7.55556ZM7.5 9.44436C1.78125 9.44436 0 14.4814 0 14.4814V16.9999H8V13H11L12.7039 11.2961C11.5341 10.2944 9.8493 9.44436 7.5 9.44436Z" fill="#A0AEC0"/>
</svg>
