<svg width="20" height="20" viewBox="0 0 20 20" fill="none" xmlns="http://www.w3.org/2000/svg">
<path d="M4.28562 18.0953H15.7142C16.2194 18.0953 17.619 18.0953 17.619 18.0953C17.619 18.0953 17.619 19.4949 17.619 20H2.38086C2.38086 19.4949 2.38086 18.0953 2.38086 18.0953C2.38086 18.0953 3.78045 18.0953 4.28562 18.0953ZM9.99991 3.80957C11.5154 3.80957 12.9689 4.41161 14.0405 5.48325C15.1122 6.55488 15.7142 8.00833 15.7142 9.52386V17.1429H4.28562V9.52386C4.28562 8.00833 4.88766 6.55488 5.9593 5.48325C7.03093 4.41161 8.48438 3.80957 9.99991 3.80957ZM9.99991 5.71433C8.98956 5.71433 8.02059 6.11569 7.30617 6.83012C6.59174 7.54454 6.19038 8.51351 6.19038 9.52386V15.2381H13.8094V9.52386C13.8094 8.51351 13.4081 7.54454 12.6936 6.83012C11.9792 6.11569 11.0103 5.71433 9.99991 5.71433Z" fill="#A0AEC0"/>
<path d="M2.85714 10.9526V9.04785H0V10.9526H2.85714Z" fill="#A0AEC0"/>
<path d="M2.25684 3.60018L4.28541 5.61923L5.61874 4.2859L3.59969 2.25732L2.25684 3.60018Z" fill="#A0AEC0"/>
<path d="M10.9526 2.85714V0H9.04785V2.85714H10.9526Z" fill="#A0AEC0"/>
<path d="M15.7142 5.61923L17.7428 3.60018L16.3999 2.25732L14.3809 4.2859L15.7142 5.61923Z" fill="#A0AEC0"/>
<path d="M20 10.9526V9.04785H17.1429V10.9526H20Z" fill="#A0AEC0"/>
</svg>
