<svg width="20" height="20" viewBox="0 0 20 20" fill="none" xmlns="http://www.w3.org/2000/svg">
<path fill-rule="evenodd" clip-rule="evenodd" d="M9.99937 5V11L5.75705 6.75766C4.67145 7.84342 4 9.3433 4 11C4 14.3137 6.68628 17 9.99996 17C13.3137 17 15.9999 14.3137 15.9999 11C15.9999 7.68629 13.3137 5 9.99996 5C9.99977 5 9.99957 5 9.99937 5Z" fill="#A0AEC0"/>
<path fill-rule="evenodd" clip-rule="evenodd" d="M6.0001 0H14.0001V2H11.0002V2.05495C15.5001 2.55248 19 6.36751 19 11C19 15.9706 14.9706 20 10 20C5.02944 20 1 15.9706 1 11C1 6.36738 4.50015 2.55226 9.0002 2.05491V2H6.0001V0ZM10 18C13.866 18 17 14.866 17 11C17 7.13401 13.866 4 10 4C6.13401 4 3 7.13401 3 11C3 14.866 6.13401 18 10 18Z" fill="#A0AEC0"/>
</svg>
