<svg width="20" height="20" viewBox="0 0 20 20" fill="none" xmlns="http://www.w3.org/2000/svg">
<path d="M5.53269 1.66667C6.26205 1.66667 6.97578 1.86979 7.59573 2.25521L8.13233 2.58854L8.75749 2.48437C9.20031 2.40625 9.65356 2.36979 10.1068 2.36979C12.2167 2.36979 14.1964 3.17708 15.6812 4.64583C17.1607 6.10417 17.9786 8.04688 17.9786 10.1094C17.9786 10.6667 17.9161 11.224 17.7963 11.7656L17.6661 12.3438L17.9318 12.875C18.1974 13.401 18.3329 13.9635 18.3329 14.5521C18.3329 16.6406 16.5981 18.3385 14.4673 18.3385C13.8161 18.3385 13.2014 18.1875 12.6335 17.8854L12.1229 17.6146L11.5551 17.7188C11.081 17.8073 10.5913 17.849 10.1068 17.849C7.99687 17.849 6.01719 17.0417 4.53243 15.5729C3.05288 14.1146 2.23496 12.1719 2.23496 10.1094C2.23496 9.58854 2.28705 9.0625 2.39125 8.55208L2.52149 7.91667L2.18807 7.35938C1.84944 6.78125 1.6671 6.125 1.6671 5.45312C1.6671 3.36458 3.40193 1.66667 5.53269 1.66667ZM5.53269 0C2.47981 0 0 2.44271 0 5.45312C0 6.46354 0.276113 7.40625 0.760615 8.21354C0.635582 8.82292 0.567856 9.45833 0.567856 10.1042C0.567856 15.3021 4.8398 19.5104 10.1068 19.5104C10.7059 19.5104 11.2894 19.4583 11.852 19.3542C12.6335 19.7656 13.5244 20 14.4673 20C17.5254 20 20 17.5573 20 14.5469C20 13.6771 19.7916 12.8542 19.4217 12.125C19.5676 11.474 19.6405 10.8021 19.6405 10.1094C19.6405 4.91667 15.3686 0.703125 10.0964 0.703125C9.53894 0.703125 8.99713 0.75 8.46575 0.838542C7.62178 0.307292 6.61631 0 5.53269 0Z" fill="#4A5568"/>
<path d="M14.9992 14.5884C14.5563 15.203 13.9051 15.6925 13.0612 16.0363C12.2224 16.38 11.2221 16.5519 10.076 16.5519C8.70585 16.5519 7.55972 16.3123 6.65845 15.8436C6.01765 15.4998 5.49148 15.0415 5.08512 14.4686C4.67876 13.8957 4.47559 13.3228 4.47559 12.7707C4.47559 12.4269 4.61104 12.13 4.87152 11.88C5.13201 11.6405 5.47064 11.5155 5.86657 11.5155C6.19478 11.5155 6.47611 11.6092 6.70533 11.8019C6.92414 11.9842 7.11169 12.255 7.26277 12.6092C7.43469 12.9894 7.61703 13.3123 7.815 13.5675C8.00255 13.8123 8.26824 14.0155 8.61208 14.1769C8.96113 14.3384 9.42479 14.4217 9.99786 14.4217C10.7845 14.4217 11.4305 14.255 11.915 13.9269C12.3943 13.6092 12.6235 13.2238 12.6235 12.755C12.6235 12.3853 12.5037 12.0936 12.2537 11.8644C11.9932 11.6248 11.6545 11.4373 11.2326 11.3123C10.8002 11.1769 10.2115 11.0363 9.4821 10.8853C8.49226 10.6769 7.6535 10.4269 6.98145 10.1457C6.29898 9.85921 5.74675 9.45817 5.34039 8.96338C4.94967 8.46338 4.74128 7.82796 4.74128 7.08317C4.74128 6.36963 4.96009 5.73421 5.38728 5.18213C5.81448 4.63525 6.43443 4.20817 7.24193 3.9165C8.0338 3.62484 8.97676 3.479 10.0395 3.479C10.8939 3.479 11.6389 3.57796 12.2641 3.76546C12.8944 3.95817 13.4206 4.21859 13.8426 4.5415C14.2594 4.86442 14.572 5.20817 14.7699 5.56754C14.9679 5.93213 15.0669 6.2915 15.0669 6.64046C15.0669 6.9738 14.9366 7.28109 14.6762 7.54671C14.4157 7.81234 14.0875 7.95296 13.6967 7.95296C13.3425 7.95296 13.0664 7.86963 12.8736 7.70296C12.6965 7.54671 12.5089 7.30713 12.3058 6.95817C12.0661 6.51546 11.7796 6.1613 11.4514 5.9113C11.1284 5.67171 10.597 5.54671 9.8572 5.54671C9.17473 5.54671 8.61729 5.68213 8.20572 5.94775C7.80979 6.20296 7.61703 6.49984 7.61703 6.8488C7.61703 7.06234 7.67955 7.23942 7.80979 7.39567C7.94524 7.55713 8.13279 7.70296 8.37764 7.82275C8.62771 7.94775 8.88819 8.04671 9.14347 8.11442C9.40916 8.18734 9.85199 8.29671 10.4615 8.43213C11.2378 8.59359 11.9463 8.78109 12.5714 8.97379C13.207 9.17692 13.754 9.42171 14.2021 9.70817C14.6605 9.99984 15.02 10.38 15.2805 10.828C15.5358 11.2759 15.666 11.8384 15.666 12.4842C15.666 13.2655 15.442 13.9738 14.9992 14.5884Z" fill="#0575E6"/>
</svg>
