<svg width="20" height="20" viewBox="0 0 20 20" fill="none" xmlns="http://www.w3.org/2000/svg">
<path fill-rule="evenodd" clip-rule="evenodd" d="M17.26 10C17.26 10.9912 17.07 11.8932 16.72 12.7357L15.91 13.6971H11.08V15.3524L16.38 15.9471L19.94 12.7059H20V12.6663V12.6465V8.19604H18.89C18.54 6.48128 17.69 4.88546 16.42 3.63656C14.71 1.94163 12.4 1 10 1C5.6 1 1.93 4.09251 1.09 8.19604H0V12.7059H1.33C1.76 14.0738 2.53 15.3326 3.57 16.3634C5.27 18.0584 7.58 19 10 19C10.87 19 12.14 18.7324 13.78 18.1872C13.8 18.1872 13.54 17.652 12.97 16.5716C12.06 16.978 11.05 17.2059 10 17.2059C8.07188 17.2059 6.22272 16.4468 4.85933 15.0954C3.49594 13.744 2.73 11.9111 2.73 10C2.73 9.74229 2.73 9.47467 2.77 9.22687C4.91 8.27533 6.61 6.53084 7.5 4.38987C9.15 6.69934 11.86 8.19604 14.92 8.19604C15.63 8.19604 16.31 8.11674 16.96 7.96806C17.15 8.60242 17.26 9.28634 17.26 10ZM7.26988 9.77192C7.56988 9.77192 7.85988 9.89087 8.06988 10.1089C8.27988 10.3171 8.39988 10.6045 8.39988 10.9019C8.39988 11.1992 8.27988 11.4867 8.06988 11.6948C7.85988 11.903 7.56988 12.0219 7.26988 12.0219C6.63988 12.0219 6.12988 11.5263 6.12988 10.9019C6.12988 10.2774 6.63988 9.77192 7.26988 9.77192ZM12.7199 9.77192C13.3499 9.77192 13.8499 10.2774 13.8499 10.9019C13.8499 11.5263 13.3499 12.0219 12.7199 12.0219C12.0899 12.0219 11.5799 11.5263 11.5799 10.9019C11.5799 10.6022 11.7 10.3148 11.9138 10.1029C12.1276 9.89097 12.4175 9.77192 12.7199 9.77192Z" fill="white"/>
<path d="M17.2601 9.9999C17.2601 11.1012 17.0701 12.1034 16.7201 13.0395L15.9101 14.1078H11.0801V15.947L16.3801 16.6078L19.9401 13.0065H20.0001V12.9625V12.9404V7.99549H18.8901L16.9601 7.74219C17.1501 8.44703 17.2601 9.20695 17.2601 9.9999Z" fill="white"/>
</svg>
