<svg width="20" height="20" viewBox="0 0 20 20" fill="none" xmlns="http://www.w3.org/2000/svg">
<path d="M4.35143 15.7461C2.52549 14.0975 2.55952 11.4391 4.39474 9.79659L10.9497 3.9297C12.3346 2.69015 14.5857 2.69005 15.9707 3.9297C17.3423 5.15727 17.3439 7.13791 15.9707 8.36693L10.2567 13.4762C9.32371 14.3111 7.7994 14.2995 6.88224 13.4489C5.99865 12.6294 6.02699 11.3305 6.92762 10.5244L11.4196 6.50936C11.6128 6.33671 11.9293 6.33376 12.1266 6.50277L12.8411 7.1147C13.0384 7.28373 13.0417 7.56073 12.8486 7.73337L8.35708 11.748C8.20296 11.886 8.19346 12.1152 8.33683 12.2482C8.47346 12.3749 8.68824 12.377 8.82708 12.2527L14.5411 7.14349C15.154 6.59492 15.154 5.70179 14.5408 5.15292C13.9411 4.61625 12.9796 4.61597 12.3797 5.15292L5.82468 11.0198C4.73834 11.9921 4.72159 13.566 5.78746 14.5283C6.85027 15.4879 8.56824 15.4891 9.63302 14.5362L15.0099 9.7237C15.2029 9.55091 15.5195 9.54779 15.717 9.7167L16.4319 10.3282C16.6293 10.4971 16.6329 10.7741 16.4399 10.9469L11.063 15.7593C9.20124 17.4256 6.18977 17.4059 4.35143 15.7461V15.7461Z" fill="#4A5568"/>
</svg>
