<svg width="20" height="20" viewBox="0 0 20 20" fill="none" xmlns="http://www.w3.org/2000/svg">
<path fill-rule="evenodd" clip-rule="evenodd" d="M2 2H18V3H2V2ZM2 4V18H18V4H2ZM0 20V0H20V20H0Z" fill="#718096"/>
<path d="M14.5901 11.585C14.6133 11.3975 14.6287 11.2025 14.6287 11C14.6287 10.7975 14.6133 10.6025 14.5824 10.415L15.8861 9.425C16.0019 9.335 16.0327 9.17 15.9633 9.0425L14.729 6.965C14.6518 6.83 14.4898 6.785 14.351 6.83L12.8158 7.43C12.4918 7.19 12.1523 6.995 11.7743 6.845L11.5429 5.255C11.5198 5.105 11.3886 5 11.2343 5H8.76569C8.6114 5 8.48797 5.105 8.46482 5.255L8.23339 6.845C7.85538 6.995 7.50823 7.1975 7.19193 7.43L5.65676 6.83C5.51789 6.7775 5.35589 6.83 5.27875 6.965L4.04443 9.0425C3.96729 9.1775 3.99815 9.335 4.12158 9.425L5.42532 10.415C5.39446 10.6025 5.37132 10.805 5.37132 11C5.37132 11.195 5.38675 11.3975 5.41761 11.585L4.11386 12.575C3.99814 12.665 3.96729 12.83 4.03672 12.9575L5.27103 15.035C5.34818 15.17 5.51018 15.215 5.64904 15.17L7.18422 14.57C7.50823 14.81 7.84766 15.005 8.22567 15.155L8.45711 16.745C8.48796 16.895 8.6114 17 8.76569 17H11.2343C11.3886 17 11.5198 16.895 11.5352 16.745L11.7666 15.155C12.1446 15.005 12.4918 14.8025 12.8081 14.57L14.3432 15.17C14.4821 15.2225 14.6441 15.17 14.7213 15.035L15.9556 12.9575C16.0327 12.8225 16.0019 12.665 15.8784 12.575L14.5901 11.585V11.585ZM10 13.25C8.72711 13.25 7.68566 12.2375 7.68566 11C7.68566 9.7625 8.72711 8.75 10 8.75C11.2729 8.75 12.3143 9.7625 12.3143 11C12.3143 12.2375 11.2729 13.25 10 13.25Z" fill="#718096"/>
</svg>
