<svg width="80" height="80" viewBox="0 0 80 80" fill="none" xmlns="http://www.w3.org/2000/svg">
<path fill-rule="evenodd" clip-rule="evenodd" d="M71.9684 27.6349L65.9278 49.532L65.5228 51.0001H63.9999H19.0558L20.1997 58H64V62H18.5H16.8003L16.5262 60.3225L8.3003 9.98438H0V5.98438H10H11.6997L11.9738 7.66183L13.6632 18.0001H54.0721C54.4795 19.4398 55.109 20.7863 55.9213 22.0001H14.3169L18.4022 47.0001H62.4769L67.6377 28.2921C67.656 28.2921 67.6744 28.2922 67.6927 28.2922C69.183 28.2922 70.6194 28.0619 71.9684 27.6349ZM21 73C21 74.6569 19.6569 76 18 76C16.3431 76 15 74.6569 15 73C15 71.3431 16.3431 70 18 70C19.6569 70 21 71.3431 21 73ZM25 73C25 76.866 21.866 80 18 80C14.134 80 11 76.866 11 73C11 69.134 14.134 66 18 66C21.866 66 25 69.134 25 73ZM60 76C61.6569 76 63 74.6569 63 73C63 71.3431 61.6569 70 60 70C58.3431 70 57 71.3431 57 73C57 74.6569 58.3431 76 60 76ZM60 80C63.866 80 67 76.866 67 73C67 69.134 63.866 66 60 66C56.134 66 53 69.134 53 73C53 76.866 56.134 80 60 80ZM27.9997 35V43H29.9997V35H39.9997V43H41.9997V35H51.9997V43H53.9997V35H60.9997V33H53.9997V25H51.9997V33H41.9997V25H39.9997V33H29.9997V25H27.9997L27.9997 33H20.9997V35H27.9997Z" fill="#CBD5E0"/>
<path fill-rule="evenodd" clip-rule="evenodd" d="M68 24C74.6274 24 80 18.6274 80 12C80 5.37258 74.6274 0 68 0C61.3726 0 56 5.37258 56 12C56 18.6274 61.3726 24 68 24ZM66.0004 5.0001H70.0004V10.0001H75.0004V14.0001H70.0004V19.0001H66.0004V14.0001H61.0004V10.0001L66.0004 10.0001V5.0001Z" fill="#CBD5E0"/>
</svg>
