<svg width="20" height="20" viewBox="0 0 20 20" fill="none" xmlns="http://www.w3.org/2000/svg">
<path fill-rule="evenodd" clip-rule="evenodd" d="M16 6C17.1046 6 18 5.10457 18 4C18 2.89543 17.1046 2 16 2C14.8954 2 14 2.89543 14 4C14 5.10457 14.8954 6 16 6ZM16 8C18.2091 8 20 6.20914 20 4C20 1.79086 18.2091 0 16 0C13.7909 0 12 1.79086 12 4C12 4.26708 12.0262 4.52805 12.0761 4.78047L4.02832 9.25146L4.50923 10.1171L4.04199 10.9264L12.0266 15.5363C12.009 15.6884 12 15.8432 12 16C12 18.2091 13.7909 20 16 20C18.2091 20 20 18.2091 20 16C20 13.7909 18.2091 12 16 12C14.6684 12 13.4888 12.6506 12.7618 13.6514L6.61485 10.1024L12.947 6.58455C13.6807 7.4504 14.7762 8 16 8ZM18 16C18 17.1046 17.1046 18 16 18C14.8954 18 14 17.1046 14 16C14 14.8954 14.8954 14 16 14C17.1046 14 18 14.8954 18 16Z" fill="#A0AEC0"/>
<circle cx="5" cy="10" r="5" fill="#A0AEC0"/>
</svg>
