<svg width="150" height="150" viewBox="0 0 150 150" fill="none" xmlns="http://www.w3.org/2000/svg">
<path fill-rule="evenodd" clip-rule="evenodd" d="M106.968 67.6349L100.928 89.532L100.523 91.0001H98.9999H54.0558L55.1997 98H99V102H53.5H51.8003L51.5262 100.323L43.3003 49.9844H35V45.9844H45H46.6997L46.9738 47.6618L48.6632 58.0001H89.0721C89.4795 59.4398 90.109 60.7863 90.9213 62.0001H49.3169L53.4022 87.0001H97.4769L102.638 68.2921C102.656 68.2921 102.674 68.2922 102.693 68.2922C104.183 68.2922 105.619 68.0619 106.968 67.6349ZM56 113C56 114.657 54.6569 116 53 116C51.3431 116 50 114.657 50 113C50 111.343 51.3431 110 53 110C54.6569 110 56 111.343 56 113ZM60 113C60 116.866 56.866 120 53 120C49.134 120 46 116.866 46 113C46 109.134 49.134 106 53 106C56.866 106 60 109.134 60 113ZM95 116C96.6569 116 98 114.657 98 113C98 111.343 96.6569 110 95 110C93.3431 110 92 111.343 92 113C92 114.657 93.3431 116 95 116ZM95 120C98.866 120 102 116.866 102 113C102 109.134 98.866 106 95 106C91.134 106 88 109.134 88 113C88 116.866 91.134 120 95 120ZM62.9997 75V83H64.9997V75H74.9997V83H76.9997V75H86.9997V83H88.9997V75H95.9997V73H88.9997V65H86.9997V73H76.9997V65H74.9997V73H64.9997V65H62.9997L62.9997 73H55.9997V75H62.9997Z" fill="#CBD5E0"/>
<path fill-rule="evenodd" clip-rule="evenodd" d="M103 64C109.627 64 115 58.6274 115 52C115 45.3726 109.627 40 103 40C96.3726 40 91 45.3726 91 52C91 58.6274 96.3726 64 103 64ZM100.678 57.44C101.329 57.92 102.102 58.16 102.998 58.16C103.894 58.16 104.662 57.92 105.302 57.44C105.953 56.96 106.443 56.288 106.774 55.424C107.105 54.5493 107.27 53.5413 107.27 52.4C107.27 51.2587 107.105 50.256 106.774 49.392C106.443 48.5173 105.953 47.84 105.302 47.36C104.662 46.88 103.894 46.64 102.998 46.64C102.102 46.64 101.329 46.88 100.678 47.36C100.038 47.84 99.5526 48.5173 99.2219 49.392C98.8913 50.256 98.7259 51.2587 98.7259 52.4C98.7259 53.5413 98.8913 54.5493 99.2219 55.424C99.5526 56.288 100.038 56.96 100.678 57.44ZM104.598 55.264C104.214 55.9147 103.681 56.24 102.998 56.24C102.315 56.24 101.777 55.9147 101.382 55.264C100.998 54.6133 100.806 53.6587 100.806 52.4C100.806 51.1413 100.998 50.1867 101.382 49.536C101.777 48.8853 102.315 48.56 102.998 48.56C103.681 48.56 104.214 48.8853 104.598 49.536C104.993 50.1867 105.19 51.1413 105.19 52.4C105.19 53.6587 104.993 54.6133 104.598 55.264Z" fill="#CBD5E0"/>
<circle cx="75" cy="75" r="74.5" stroke="#CBD5E0"/>
</svg>
