<svg width="20" height="20" viewBox="0 0 20 20" fill="none" xmlns="http://www.w3.org/2000/svg">
<path fill-rule="evenodd" clip-rule="evenodd" d="M13 7H18V9H13V7ZM11 10V9V7V5H13H18H20V7V18V20H18H13H11V18V16V15V13V12V10ZM13 16V18H18V16H13ZM18 15H13V13H18V15ZM18 10V12H13V10H18Z" fill="#718096"/>
<path fill-rule="evenodd" clip-rule="evenodd" d="M7 2H11V4H7V2ZM7 5H11V7H7V5ZM6 7V5H2V7H6ZM2 8V10H6V8H2ZM7 8H11V10H7V8ZM6 2V4H2V2H6ZM6 11H2V13H6V11ZM6 14H2V18H6V14ZM7 18H11V14H7L7 18ZM7 13V11H11V13H7ZM0 0H2H11H13V2V18V20H11H2H0V18V2V0Z" fill="#718096"/>
</svg>
