<svg width="20" height="20" viewBox="0 0 20 20" fill="none" xmlns="http://www.w3.org/2000/svg">
<path fill-rule="evenodd" clip-rule="evenodd" d="M11.2856 15.6875V17.7939C12.5059 17.4344 13.7021 16.6101 14.7111 15.3637C16.0956 13.6533 17 11.2842 17 8.74982C17 4.97456 14.0272 2 10.5 2C6.97162 2 4 4.97434 4 8.74982C4 12.1459 6.46645 14.9714 9.57951 15.434L11.2856 15.6875ZM11.2856 19.8554C15.5303 18.9721 19 14.1604 19 8.74982C19 3.92476 15.1857 0 10.5 0C5.81286 0 2 3.92476 2 8.74982C2 13.1011 5.1571 16.7989 9.28556 17.4123V20H9.89269C10.3637 20 10.8291 19.9504 11.2856 19.8554Z" fill="#4A5568"/>
<path d="M10 10.1452C10 10.1452 10 11.4437 8.00017 12V9.99998H6V6.0001V6H10V10.1452Z" fill="#0575E6"/>
<path d="M15 10.1452C15 10.1452 15 11.4437 13 12V9.99998H11V6.0001V6H15V10.1452Z" fill="#0575E6"/>
</svg>
