<svg width="20" height="20" viewBox="0 0 20 20" fill="none" xmlns="http://www.w3.org/2000/svg">
<path d="M17.6199 4.99379C17.7401 4.88568 17.8355 4.7571 17.9007 4.61545C17.9659 4.4738 17.9997 4.32185 18 4.16834C18.0003 4.01483 17.9673 3.86276 17.9027 3.72087C17.8381 3.57899 17.7432 3.45007 17.6235 3.34152C17.5039 3.23297 17.3618 3.14692 17.2054 3.08831C17.049 3.02971 16.8814 2.9997 16.7122 3C16.5429 3.00031 16.3755 3.03092 16.2193 3.09009C16.0632 3.14926 15.9214 3.23582 15.8023 3.34481L14.8807 4.18083C13.4971 3.41202 11.9065 3.0045 10.284 3.00314C5.53648 3.00314 2.63926 6.05516 0.216542 9.35318C0.0753643 9.54459 0 9.76971 0 10C0 10.2303 0.0753643 10.4555 0.216542 10.6469C1.18529 12.0137 2.32168 13.2765 3.60394 14.4112L2.94808 15.0062C2.82795 15.1143 2.73254 15.2429 2.66731 15.3846C2.60209 15.5262 2.56834 15.6781 2.56801 15.8317C2.56767 15.9852 2.60075 16.1372 2.66535 16.2791C2.72995 16.421 2.8248 16.5499 2.94446 16.6585C3.06411 16.767 3.20621 16.8531 3.36261 16.9117C3.51901 16.9703 3.68663 17.0003 3.85585 17C4.02506 16.9997 4.19255 16.9691 4.34869 16.9099C4.50483 16.8507 4.64656 16.7642 4.76573 16.6552L17.6199 4.99379ZM2.8426 10C5.42601 6.65532 7.5575 5.33544 10.284 5.33544C11.2231 5.33344 12.1508 5.52227 12.9989 5.88805L10.9437 7.75255C10.7292 7.69647 10.5072 7.66791 10.284 7.66771C9.60238 7.66832 8.94886 7.91424 8.46688 8.3515C7.9849 8.78875 7.71383 9.38163 7.71315 10C7.71338 10.2025 7.74486 10.4039 7.80667 10.5984L5.42083 12.7629C4.45613 11.9272 3.59188 11.0011 2.8426 10Z" fill="#A0AEC0"/>
<path d="M19.7888 9.1157C19.2824 8.38667 18.748 7.67719 18.1859 7L16.4002 8.71338C16.672 9.04758 16.9462 9.39761 17.2277 9.7829C14.8129 13.0894 12.7975 14.4627 10.2935 14.5725L8 16.7731C8.64584 16.9191 9.30667 16.9952 9.97016 17C14.6004 17 17.426 13.8519 19.7888 10.4501C19.9265 10.2527 20 10.0204 20 9.78289C20 9.54534 19.9265 9.31313 19.7888 9.1157Z" fill="#A0AEC0"/>
</svg>
