<svg width="20" height="20" viewBox="0 0 20 20" fill="none" xmlns="http://www.w3.org/2000/svg">
<path fill-rule="evenodd" clip-rule="evenodd" d="M15.7016 14L18 15.8388V2H2V14H15.7016ZM20 20L15 16H0V0H20V20Z" fill="white"/>
<path fill-rule="evenodd" clip-rule="evenodd" d="M6 6L6 4H8V6L6 6ZM12 6V4H14V6L12 6ZM14.1424 7.4855C12.8619 9.61969 11.2312 10 9.9999 10C9.44022 10 8.60067 9.80374 7.78298 9.36765C6.97118 8.93468 6.27625 8.31664 5.89432 7.55279L4.10547 8.44721C4.72354 9.68336 5.77862 10.5653 6.84181 11.1324C7.89913 11.6963 9.05957 12 9.9999 12C11.7686 12 14.1379 11.3803 15.8574 8.5145L14.1424 7.4855Z" fill="white"/>
</svg>
