<svg width="20" height="20" viewBox="0 0 21 20" fill="none" xmlns="http://www.w3.org/2000/svg">
<rect x="10" y="7" width="2" height="6" rx="1" fill="#5C7FF3"/>
<rect x="10" y="14" width="2" height="2" rx="1" fill="#5C7FF3"/>
<path d="M2.98901 19H18.989C19.5413 19 19.989 18.5523 19.989 18V5C19.989 4.44771 19.5413 4 18.989 4H2.98901C2.43673 4 1.98901 4.44772 1.98901 5V18C1.98901 18.5523 2.43673 19 2.98901 19Z" stroke="#5C7FF3" stroke-width="2"/>
<path fill-rule="evenodd" clip-rule="evenodd" d="M0.989014 2V6H2.98901V2H18.989V6H20.989V2C20.989 0.89543 20.0936 0 18.989 0H2.98901C1.88444 0 0.989014 0.895431 0.989014 2Z" fill="#5C7FF3"/>
</svg>
