<svg width="12" height="12" viewBox="0 0 12 12" fill="none" xmlns="http://www.w3.org/2000/svg">
<path d="M3.10554 1.69328C2.71502 1.30276 2.08186 1.30276 1.69133 1.69328C1.30081 2.08381 1.30081 2.71697 1.69133 3.1075L3.10554 1.69328ZM8.89133 10.3075C9.28186 10.698 9.91502 10.698 10.3055 10.3075C10.6961 9.91697 10.6961 9.28381 10.3055 8.89328L8.89133 10.3075ZM1.69133 3.1075L8.89133 10.3075L10.3055 8.89328L3.10554 1.69328L1.69133 3.1075Z" fill="#5C7FF3"/>
<path d="M3.10554 10.3067C2.71502 10.6972 2.08186 10.6972 1.69133 10.3067C1.30081 9.91619 1.30081 9.28303 1.69133 8.8925L3.10554 10.3067ZM8.89133 1.6925C9.28186 1.30198 9.91502 1.30198 10.3055 1.6925C10.6961 2.08303 10.6961 2.71619 10.3055 3.10672L8.89133 1.6925ZM1.69133 8.8925L8.89133 1.6925L10.3055 3.10672L3.10554 10.3067L1.69133 8.8925Z" fill="#5C7FF3"/>
</svg>
