<svg width="20" height="20" viewBox="0 0 20 20" fill="none" xmlns="http://www.w3.org/2000/svg">
<path fill-rule="evenodd" clip-rule="evenodd" d="M0 3C0 1.34315 1.34315 0 3 0H17C18.6569 0 20 1.34315 20 3V9C20 9.55229 19.5523 10 19 10C18.4477 10 18 9.55229 18 9V3C18 2.44771 17.5523 2 17 2H3C2.44772 2 2 2.44772 2 3V13C2 13.5523 2.44771 14 3 14H11.45V16H3C1.34314 16 0 14.6569 0 13V3Z" fill="#5C7FF3"/>
<path fill-rule="evenodd" clip-rule="evenodd" d="M4.29289 4.29289C4.68342 3.90237 5.31658 3.90237 5.70711 4.29289L11.7071 10.2929C12.0976 10.6834 12.0976 11.3166 11.7071 11.7071C11.3166 12.0976 10.6834 12.0976 10.2929 11.7071L4.29289 5.70711C3.90237 5.31658 3.90237 4.68342 4.29289 4.29289Z" fill="#5C7FF3"/>
<path fill-rule="evenodd" clip-rule="evenodd" d="M4.29289 11.7071C4.68342 12.0976 5.31658 12.0976 5.70711 11.7071L11.7071 5.70711C12.0976 5.31658 12.0976 4.68342 11.7071 4.29289C11.3166 3.90237 10.6834 3.90237 10.2929 4.29289L4.29289 10.2929C3.90237 10.6834 3.90237 11.3166 4.29289 11.7071Z" fill="#5C7FF3"/>
<path fill-rule="evenodd" clip-rule="evenodd" d="M14.2929 10.2929C13.9024 10.6834 13.9024 11.3166 14.2929 11.7071L17.5858 15L14.2929 18.2929C13.9024 18.6834 13.9024 19.3166 14.2929 19.7071C14.6834 20.0976 15.3166 20.0976 15.7071 19.7071L19.7071 15.7071C20.0976 15.3166 20.0976 14.6834 19.7071 14.2929L15.7071 10.2929C15.3166 9.90237 14.6834 9.90237 14.2929 10.2929Z" fill="#5C7FF3"/>
<path fill-rule="evenodd" clip-rule="evenodd" d="M7 15C7 14.4477 7.44772 14 8 14L17 14C17.5523 14 18 14.4477 18 15C18 15.5523 17.5523 16 17 16L8 16C7.44772 16 7 15.5523 7 15Z" fill="#5C7FF3"/>
</svg>
