<svg width="20" height="20" viewBox="0 0 20 20" fill="none" xmlns="http://www.w3.org/2000/svg">
<path d="M17.0783 11.3089L16.7553 11.1134C16.3709 10.8814 16.1412 10.4648 16.1412 10C16.1412 9.53521 16.3709 9.11864 16.7553 8.88657L17.0783 8.69114C17.9601 8.15757 18.2616 6.97986 17.7526 6.05671L17.1385 4.94329C16.6306 4.02207 15.5013 3.70579 14.6219 4.23743L14.2989 4.43221C13.9145 4.66493 13.4546 4.66493 13.0707 4.43221C12.6863 4.1995 12.4567 3.78357 12.4567 3.31879V2.92857C12.4567 1.86529 11.6301 1 10.6144 1H9.38622C8.37052 1 7.54395 1.86529 7.54395 2.92857V3.31943C7.54395 3.78421 7.31429 4.20014 6.92987 4.43286C6.54545 4.66493 6.08611 4.66557 5.70169 4.43286L5.37868 4.23743C4.4993 3.70579 3.37 4.02207 2.86153 4.94329L2.24744 6.05671C1.73836 6.97986 2.03988 8.15821 2.92171 8.69114L3.24534 8.88657C3.62976 9.11864 3.85942 9.53521 3.85942 10C3.85942 10.4648 3.62976 10.8814 3.24534 11.1134L2.92233 11.3089C2.0405 11.8418 1.73898 13.0201 2.24806 13.9433L2.86215 15.0567C3.37061 15.9779 4.49992 16.2942 5.37868 15.7626L5.70169 15.5678C6.08611 15.3344 6.54545 15.3357 6.92987 15.5678C7.31429 15.8005 7.54395 16.2164 7.54395 16.6812V17.0714C7.54395 18.1347 8.37052 19 9.38622 19H10.6144C11.6301 19 12.4567 18.1347 12.4567 17.0714V16.6806C12.4567 16.2158 12.6863 15.7999 13.0707 15.5671C13.4546 15.3351 13.9145 15.3344 14.2989 15.5671L14.6219 15.7626C15.5013 16.2936 16.6306 15.9773 17.1385 15.0567L17.7526 13.9433C18.2616 13.0201 17.9601 11.8418 17.0783 11.3089Z" stroke="#5C7FF3" stroke-width="2"/>
<circle cx="10" cy="10" r="2" stroke="#5C7FF3" stroke-width="2"/>
</svg>
