<svg width="20" height="20" viewBox="0 0 20 20" fill="none" xmlns="http://www.w3.org/2000/svg">
<path fill-rule="evenodd" clip-rule="evenodd" d="M18 2H2V18H18V2ZM2 0C0.895431 0 0 0.895431 0 2V18C0 19.1046 0.895431 20 2 20H18C19.1046 20 20 19.1046 20 18V2C20 0.895431 19.1046 0 18 0H2Z" fill="#5C7FF3"/>
<path fill-rule="evenodd" clip-rule="evenodd" d="M4.3134 8.42551C3.43264 8.72046 2.59113 9.19913 1.62 9.96645C1.18666 10.3088 0.557804 10.2351 0.215408 9.80178C-0.126987 9.36844 -0.0532611 8.73958 0.380079 8.39719C1.47996 7.52814 2.52306 6.9159 3.6783 6.52903C4.83072 6.1431 6.03959 6 7.44578 6C12.1803 6 16 9.87685 16 14.6364C16 16.4674 15.4345 18.1688 14.4691 19.5679C14.1554 20.0225 13.5326 20.1367 13.0781 19.8231C12.6235 19.5094 12.5093 18.8866 12.8229 18.4321C13.5645 17.3574 14 16.0502 14 14.6364C14 10.961 11.0554 8 7.44578 8C6.17546 8 5.19696 8.12962 4.3134 8.42551Z" fill="#5C7FF3"/>
<path d="M3 4C3 3.44772 3.44772 3 4 3H10C10.5523 3 11 3.44772 11 4C11 4.55228 10.5523 5 10 5H4C3.44772 5 3 4.55228 3 4Z" fill="#5C7FF3"/>
<path d="M6 8L6 4L8 4L8 8L6 8Z" fill="#5C7FF3"/>
<path d="M7 16C6.44772 16 6 15.5523 6 15L6 11C6 10.4477 6.44772 10 7 10C7.55228 10 8 10.4477 8 11L8 15C8 15.5523 7.55228 16 7 16Z" fill="#5C7FF3"/>
<path d="M10 15C10 15.5523 9.55228 16 9 16L7 16C6.44772 16 6 15.5523 6 15C6 14.4477 6.44772 14 7 14L9 14C9.55228 14 10 14.4477 10 15Z" fill="#5C7FF3"/>
</svg>
