<svg width="20" height="20" viewBox="0 0 20 20" fill="none" xmlns="http://www.w3.org/2000/svg">
<path fill-rule="evenodd" clip-rule="evenodd" d="M11.2815 8.7185C11.6569 9.09385 12.2654 9.09385 12.6408 8.7185L14 7.35932L15.3593 8.71863C15.7346 9.09397 16.3432 9.09397 16.7185 8.71863C17.0939 8.34328 17.0939 7.73472 16.7185 7.35938L15.3592 6.00007L16.7185 4.64076C17.0939 4.26541 17.0939 3.65686 16.7185 3.28151C16.3432 2.90616 15.7346 2.90616 15.3593 3.28151L14 4.64082L12.6408 3.28163C12.2654 2.90628 11.6569 2.90628 11.2815 3.28163C10.9062 3.65698 10.9062 4.26553 11.2815 4.64088L12.6407 6.00007L11.2815 7.35926C10.9062 7.7346 10.9062 8.34316 11.2815 8.7185Z" fill="#5C7FF3"/>
<path d="M1 2C1 1.44772 1.44772 1 2 1H18C18.5523 1 19 1.44772 19 2V18C19 18.5523 18.5523 19 18 19H2C1.44772 19 1 18.5523 1 18V2Z" stroke="#5C7FF3" stroke-width="2"/>
<circle cx="7" cy="10" r="2" stroke="#5C7FF3" stroke-width="2"/>
<path d="M4 18.9864C2.98471 18.9864 2.32036 18.5076 2.00163 18.2049C2.05701 16.4255 3.51693 15 5.30979 15H8.10202C10.2548 15 12 16.7452 12 18.898V18.898V18.898V18.8981V18.8982V18.8983V18.8983V18.8985V18.8986V18.8987V18.8989V18.8991V18.8992V18.8994V18.8997V18.8999V18.9001V18.9004V18.9007V18.901V18.9013V18.9016V18.9019V18.9022V18.9026V18.903V18.9034V18.9038V18.9042V18.9046V18.905V18.9055V18.906V18.9065V18.907V18.9075V18.908V18.9085V18.9091V18.9097V18.9102V18.9108V18.9114V18.9121V18.9127V18.9133V18.914V18.9147V18.9154V18.9161V18.9168V18.9175V18.9182V18.919V18.9197V18.9205V18.9213V18.9221V18.9229V18.9238V18.9246V18.9255V18.9263V18.9272V18.9281V18.929V18.9299V18.9309V18.9318V18.9328V18.9337V18.9347V18.9357V18.9367V18.9377V18.9387V18.9398V18.9408V18.9419V18.943V18.9441V18.9452V18.9463V18.9474V18.9485V18.9497V18.9508V18.952V18.9532V18.9544V18.9556V18.9568V18.958V18.9593V18.9605V18.9618V18.9631V18.9643V18.9656V18.9669V18.9683V18.9696V18.9709V18.9723V18.9736V18.975V18.9764V18.9778V18.9792V18.9806V18.982V18.9835V18.9849V18.9864V18.9879V18.9893V18.9908V18.9923V18.9938V18.9954V18.9969V18.998C11.842 18.9985 11.6687 18.999 11.4829 18.9993C10.656 19.0007 9.58573 18.9998 8.51342 18.9979C7.09179 18.9953 5.6634 18.9911 4.8007 18.9886C4.36462 18.9873 4.07308 18.9864 4 18.9864Z" stroke="#5C7FF3" stroke-width="2"/>
</svg>
