<svg width="20" height="20" viewBox="0 0 20 20" fill="none" xmlns="http://www.w3.org/2000/svg">
<path d="M5 6C4.44772 6 4 5.55228 4 5L4 1C4 0.447715 4.44772 -1.95703e-08 5 -4.37114e-08C5.55228 -6.78525e-08 6 0.447715 6 1L6 5C6 5.55228 5.55228 6 5 6Z" fill="#5C7FF3"/>
<path d="M20 8C20 8.55228 19.5523 9 19 9L1 9C0.447716 9 -3.91406e-08 8.55229 -8.74229e-08 8C-1.35705e-07 7.44772 0.447716 7 1 7L19 7C19.5523 7 20 7.44771 20 8Z" fill="#5C7FF3"/>
<path d="M15 6C14.4477 6 14 5.55228 14 5L14 1C14 0.447715 14.4477 -1.95703e-08 15 -4.37114e-08C15.5523 -6.78525e-08 16 0.447715 16 1L16 5C16 5.55228 15.5523 6 15 6Z" fill="#5C7FF3"/>
<path fill-rule="evenodd" clip-rule="evenodd" d="M18 4H2V16C2 17.1046 2.89543 18 4 18H16C17.1046 18 18 17.1046 18 16V4ZM2 2C0.895431 2 0 2.89543 0 4V16C0 18.2091 1.79086 20 4 20H16C18.2091 20 20 18.2091 20 16V4C20 2.89543 19.1046 2 18 2H2Z" fill="#5C7FF3"/>
<path d="M3.98901 12C3.98901 11.4477 4.43673 11 4.98901 11H7.98901C8.5413 11 8.98901 11.4477 8.98901 12V15C8.98901 15.5523 8.5413 16 7.98901 16H4.98901C4.43673 16 3.98901 15.5523 3.98901 15V12Z" fill="#5C7FF3"/>
</svg>
