<svg width="20" height="20" viewBox="0 0 20 20" fill="none" xmlns="http://www.w3.org/2000/svg">
<rect x="1" y="1" width="18" height="14" rx="1" stroke="#5C7FF3" stroke-width="2"/>
<rect x="6" y="18" width="8" height="2" rx="1" fill="#5C7FF3"/>
<rect x="9" y="19" width="4" height="2" transform="rotate(-90 9 19)" fill="#5C7FF3"/>
<path d="M7.70711 4.29289C7.31658 3.90237 6.68342 3.90237 6.29289 4.29289C5.90237 4.68342 5.90237 5.31658 6.29289 5.70711L7.70711 4.29289ZM12.2929 11.7071C12.6834 12.0976 13.3166 12.0976 13.7071 11.7071C14.0976 11.3166 14.0976 10.6834 13.7071 10.2929L12.2929 11.7071ZM6.29289 5.70711L12.2929 11.7071L13.7071 10.2929L7.70711 4.29289L6.29289 5.70711Z" fill="#5C7FF3"/>
<path d="M7.70711 11.7071C7.31658 12.0976 6.68342 12.0976 6.29289 11.7071C5.90237 11.3166 5.90237 10.6834 6.29289 10.2929L7.70711 11.7071ZM12.2929 4.29289C12.6834 3.90237 13.3166 3.90237 13.7071 4.29289C14.0976 4.68342 14.0976 5.31658 13.7071 5.70711L12.2929 4.29289ZM6.29289 10.2929L12.2929 4.29289L13.7071 5.70711L7.70711 11.7071L6.29289 10.2929Z" fill="#5C7FF3"/>
</svg>
