<svg width="20" height="20" viewBox="0 0 20 20" fill="none" xmlns="http://www.w3.org/2000/svg">
<path d="M5 2C5 1.44772 5.44772 1 6 1H14.1716C14.4368 1 14.6911 1.10536 14.8787 1.29289L18.7071 5.12132C18.8946 5.30886 19 5.56321 19 5.82843V14C19 14.5523 18.5523 15 18 15H6C5.44772 15 5 14.5523 5 14V2Z" stroke="#5C7FF3" stroke-width="2"/>
<path fill-rule="evenodd" clip-rule="evenodd" d="M5 4H2C0.895431 4 0 4.89543 0 6V18C0 19.1046 0.895431 20 2 20H14C15.1046 20 16 19.1046 16 18V15H14V18H2V6H5V4Z" fill="#5C7FF3"/>
<path d="M14 5V1L19 6H15C14.4477 6 14 5.55228 14 5Z" fill="#5C7FF3"/>
</svg>
