<svg width="30" height="30" viewBox="0 0 30 30" fill="none" xmlns="http://www.w3.org/2000/svg">
<ellipse cx="14.9998" cy="15" rx="14.9998" ry="15" fill="#F44336"/>
<path d="M22 16.6C22 17.266 21.4682 17.8 20.8182 17.8H17.0836L17.6509 20.542C17.6627 20.602 17.6686 20.668 17.6686 20.734C17.6686 20.98 17.5682 21.208 17.4086 21.37L16.7823 22L12.8941 18.052C12.6755 17.83 12.5455 17.53 12.5455 17.2V11.2C12.5455 10.8817 12.67 10.5765 12.8916 10.3515C13.1132 10.1264 13.4138 10 13.7273 10H19.0455C19.5359 10 19.9555 10.3 20.1327 10.732L21.9173 14.962C21.9705 15.1 22 15.244 22 15.4V16.6ZM9 10H11.3636V17.2H9V10Z" fill="white"/>
</svg>
