<svg width="217" height="205" viewBox="0 0 217 205" fill="none" xmlns="http://www.w3.org/2000/svg">
<path d="M213.661 21.3434L183.794 108.692C183.294 110.165 181.693 110.952 180.229 110.439L131.652 93.6471C130.188 93.1448 129.405 91.5353 129.916 90.0627L159.783 2.71386C160.283 1.2413 161.884 0.453658 163.348 0.955925L211.925 17.7476C213.389 18.2613 214.161 19.8709 213.661 21.3434Z" fill="#6F7475"/>
<path d="M215.852 22.0968L185.985 109.446C185.485 110.918 183.884 111.706 182.42 111.192L133.843 94.4005C132.379 93.8983 131.596 92.2887 132.107 90.8162L161.974 3.46728C162.474 1.99472 164.075 1.20708 165.539 1.70934L214.116 18.5011C215.58 19.0147 216.352 20.6243 215.852 22.0968Z" fill="#8A9596"/>
<path d="M209.665 24.1172L198.313 57.3011V57.3125L189.061 84.4007V84.4121L184.849 96.7177L183.862 99.6171C183.601 100.416 182.726 100.839 181.932 100.565L158.728 92.5397L140.757 86.3299C139.951 86.0559 139.542 85.1883 139.803 84.3893L150.815 52.1643L165.607 8.90078C165.868 8.13596 166.663 7.70219 167.446 7.93049C167.48 7.9419 167.514 7.94191 167.548 7.96474L174.564 10.3962L190.185 15.7955L208.723 22.1995C209.518 22.4506 209.938 23.3181 209.665 24.1172Z" fill="#F0F7F7"/>
<path d="M158.921 100.508C157.547 100.028 156.809 98.5215 157.286 97.1403C157.763 95.759 159.261 95.017 160.635 95.4965C162.009 95.9759 162.746 97.4827 162.27 98.864C161.793 100.245 160.294 100.987 158.921 100.508Z" fill="white"/>
<path d="M170.829 7.45111C170.273 7.25706 169.978 6.64064 170.159 6.08129C170.352 5.52195 170.965 5.21374 171.522 5.4078C172.078 5.60186 172.373 6.21827 172.192 6.77762C171.999 7.34838 171.385 7.64517 170.829 7.45111Z" fill="#C7D8E2"/>
<path d="M180.547 80.1887L179.355 79.7777L181.148 74.5496C181.989 72.0953 181.83 69.4584 180.694 67.1183L177.402 60.3377C176.358 58.1916 177.243 55.589 179.389 54.5388L186.132 51.2284C188.448 50.0869 190.196 48.112 191.036 45.6464L192.83 40.4182L194.022 40.8292L192.228 46.0573C191.275 48.8312 189.311 51.08 186.688 52.3699L179.945 55.6803C178.435 56.4223 177.811 58.2601 178.549 59.7783L181.841 66.5589C183.124 69.1959 183.305 72.1866 182.352 74.9605L180.547 80.1887Z" fill="#CEE8EF"/>
<path d="M155.481 71.5246L154.289 71.1136L156.083 65.8855C157.036 63.1116 159 60.8628 161.623 59.5729L168.366 56.2625C169.876 55.5205 170.5 53.6827 169.762 52.1645L166.47 45.3839C165.187 42.747 165.006 39.7562 165.959 36.9823L167.753 31.7542L168.945 32.1651L167.151 37.3932C166.311 39.8475 166.47 42.4844 167.605 44.8245L170.897 51.6051C171.942 53.7512 171.056 56.3538 168.911 57.404L162.167 60.7144C159.852 61.8559 158.103 63.8308 157.263 66.2964L155.481 71.5246Z" fill="#CEE8EF"/>
<path d="M194.181 42.1533C194.045 42.1533 193.908 42.1305 193.772 42.0848L167.174 32.8842C166.515 32.6559 166.163 31.9368 166.39 31.2633C166.618 30.6012 167.333 30.2473 168.003 30.4756L194.601 39.6762C195.259 39.9045 195.611 40.6237 195.384 41.2972C195.191 41.8223 194.703 42.1533 194.181 42.1533Z" fill="#B2CAD3"/>
<path d="M180.717 81.5127C180.581 81.5127 180.445 81.4899 180.308 81.4442L153.71 72.2436C153.052 72.0153 152.7 71.2961 152.927 70.6226C153.154 69.9606 153.869 69.6067 154.539 69.835L181.137 79.0356C181.796 79.2639 182.147 79.9831 181.92 80.6566C181.739 81.1817 181.239 81.5127 180.717 81.5127Z" fill="#B2CAD3"/>
<path d="M169.683 42.2332L174.644 52.4384C174.871 52.9064 175.438 53.1005 175.904 52.8722L186.053 47.8837C186.813 47.507 186.745 46.4112 185.95 46.1258L170.841 40.8976C170.046 40.6465 169.319 41.4684 169.683 42.2332Z" fill="#5C7FF3"/>
<path d="M165.164 69.6181L169.49 67.4949C169.955 67.2666 170.523 67.4606 170.75 67.9287L172.861 72.2778C173.236 73.0427 172.498 73.8646 171.703 73.5906L165.255 71.3646C164.483 71.0907 164.415 69.9948 165.164 69.6181Z" fill="#5C7FF3"/>
<path d="M172.214 64.801C172.033 65.3376 171.442 65.6229 170.909 65.4403C170.375 65.2577 170.091 64.6641 170.273 64.1275C170.455 63.591 171.045 63.3057 171.578 63.4883C172.112 63.6709 172.396 64.2531 172.214 64.801Z" fill="#5C7FF3"/>
<path d="M173.679 60.5203C173.497 61.0568 172.907 61.3422 172.373 61.1595C171.84 60.9769 171.556 60.3833 171.737 59.8468C171.919 59.3103 172.509 59.0249 173.043 59.2075C173.577 59.3902 173.86 59.9838 173.679 60.5203Z" fill="#5C7FF3"/>
<path d="M175.132 56.251C174.95 56.7875 174.36 57.0729 173.826 56.8902C173.293 56.7076 173.009 56.114 173.191 55.5775C173.372 55.041 173.962 54.7556 174.496 54.9382C175.03 55.1209 175.325 55.7031 175.132 56.251Z" fill="#5C7FF3"/>
<path opacity="0.3" d="M184.849 96.7064L183.862 99.6059C183.601 100.405 182.726 100.827 181.932 100.553L158.728 92.5285L150.815 52.153L165.607 8.88955C165.868 8.12473 166.663 7.69096 167.446 7.91926L184.849 96.7064Z" fill="white"/>
<path opacity="0.3" d="M198.313 57.2899V57.3013L189.061 84.3895L174.564 10.3735L190.174 15.7729L198.313 57.2899Z" fill="white"/>
<path d="M208.984 98.898L211.436 124.377C211.573 125.758 210.562 126.979 209.189 127.116L174.473 130.507C173.1 130.644 171.885 129.628 171.749 128.246L169.285 102.768C169.149 101.387 170.159 100.165 171.533 100.028L206.248 96.6378C207.633 96.5122 208.848 97.5168 208.984 98.898Z" fill="#CAD3DB"/>
<path d="M209.529 94.5488L213.593 119.811C213.809 121.18 212.889 122.47 211.527 122.687L177.096 128.292C175.733 128.509 174.451 127.584 174.235 126.214L170.171 100.953C169.955 99.5829 170.875 98.293 172.237 98.0761L206.668 92.4712C208.031 92.2543 209.314 93.179 209.529 94.5488Z" fill="#D8E1EA"/>
<path d="M209.529 94.5488L210.426 100.154L171.068 106.558L170.171 100.953C169.955 99.5829 170.875 98.293 172.237 98.0761L206.668 92.4712C208.031 92.2543 209.314 93.179 209.529 94.5488Z" fill="#53C01E"/>
<path d="M210.438 100.169L171.08 106.572L171.373 108.397L210.732 101.995L210.438 100.169Z" fill="white"/>
<path d="M182.443 99.5031C182.704 101.135 181.603 102.676 179.968 102.95C178.344 103.213 176.812 102.106 176.539 100.462C176.278 98.8296 177.38 97.2885 179.014 97.0146C180.649 96.752 182.182 97.8593 182.443 99.5031Z" fill="#237506"/>
<path d="M203.331 96.1012C203.592 97.7336 202.491 99.2746 200.856 99.5486C199.233 99.8111 197.7 98.7039 197.428 97.0601C197.167 95.4277 198.268 93.8866 199.902 93.6127C201.537 93.3501 203.07 94.4688 203.331 96.1012Z" fill="#237506"/>
<path d="M179.491 102.037C178.503 102.037 177.641 101.318 177.482 100.313L176.778 95.9185C176.596 94.7998 177.357 93.7496 178.469 93.567C179.605 93.3844 180.626 94.1492 180.808 95.2679L181.512 99.6627C181.693 100.781 180.933 101.832 179.82 102.014C179.707 102.026 179.605 102.037 179.491 102.037Z" fill="#399A10"/>
<path d="M200.379 98.6354C199.392 98.6354 198.529 97.9163 198.37 96.9117L197.666 92.5169C197.484 91.3982 198.245 90.348 199.358 90.1654C200.481 89.9941 201.514 90.7475 201.696 91.8662L202.4 96.2611C202.582 97.3797 201.821 98.4299 200.708 98.6126C200.595 98.624 200.493 98.6354 200.379 98.6354Z" fill="#399A10"/>
<path d="M180.238 110.154L176.406 110.778L176.932 114.046L180.764 113.422L180.238 110.154Z" fill="#A5BDD6"/>
<path d="M206.712 105.853L202.879 106.477L203.406 109.745L207.238 109.121L206.712 105.853Z" fill="#A5BDD6"/>
<path d="M200.094 106.927L196.261 107.551L196.787 110.819L200.62 110.195L200.094 106.927Z" fill="#A5BDD6"/>
<path d="M193.486 108L189.653 108.624L190.179 111.892L194.012 111.268L193.486 108Z" fill="#A5BDD6"/>
<path d="M186.88 109.085L183.047 109.708L183.573 112.977L187.406 112.353L186.88 109.085Z" fill="#A5BDD6"/>
<path d="M181.123 115.465L177.29 116.089L177.816 119.357L181.649 118.733L181.123 115.465Z" fill="#A5BDD6"/>
<path d="M207.563 111.162L203.73 111.786L204.256 115.054L208.089 114.43L207.563 111.162Z" fill="#A5BDD6"/>
<path d="M200.93 112.232L197.098 112.856L197.624 116.123L201.457 115.5L200.93 112.232Z" fill="#A5BDD6"/>
<path d="M194.339 113.32L190.506 113.944L191.032 117.212L194.865 116.588L194.339 113.32Z" fill="#A5BDD6"/>
<path d="M187.73 114.394L183.898 115.018L184.424 118.286L188.256 117.662L187.73 114.394Z" fill="#A5BDD6"/>
<path d="M181.975 120.786L178.143 121.41L178.669 124.678L182.501 124.054L181.975 120.786Z" fill="#A5BDD6"/>
<path d="M208.416 116.482L204.584 117.105L205.11 120.373L208.942 119.75L208.416 116.482Z" fill="#A5BDD6"/>
<path d="M201.808 117.555L197.975 118.179L198.501 121.447L202.334 120.823L201.808 117.555Z" fill="#A5BDD6"/>
<path d="M195.2 118.628L191.368 119.252L191.894 122.52L195.726 121.896L195.2 118.628Z" fill="#A5BDD6"/>
<path d="M188.582 119.702L184.749 120.325L185.275 123.593L189.108 122.97L188.582 119.702Z" fill="#A5BDD6"/>
<path d="M12.5 81C14.9853 81 17 78.9853 17 76.5C17 74.0147 14.9853 72 12.5 72C10.0147 72 8 74.0147 8 76.5C8 78.9853 10.0147 81 12.5 81Z" fill="#88A6FC"/>
<path d="M50.7561 36.046C48.3607 36.046 46.4081 34.0826 46.4081 31.674C46.4081 29.2654 48.3607 27.302 50.7561 27.302C53.1514 27.302 55.104 29.2654 55.104 31.674C55.104 34.0826 53.1514 36.046 50.7561 36.046ZM50.7561 29.5736C49.6095 29.5736 48.6786 30.5097 48.6786 31.6626C48.6786 32.8155 49.6095 33.7516 50.7561 33.7516C51.9026 33.7516 52.8335 32.8155 52.8335 31.6626C52.8335 30.5097 51.9026 29.5736 50.7561 29.5736Z" fill="#AFC7FD"/>
<path d="M21.3877 36.6627L10.9436 57.2328C10.3646 58.3743 10.8187 59.767 11.9426 60.3491L51.3464 80.5882C52.4816 81.1704 53.8666 80.7138 54.4456 79.5837L64.8897 59.0136C65.1962 58.4086 65.2075 57.7351 64.9918 57.1415C64.7875 56.6164 64.4242 56.1712 63.8793 55.8972L24.4869 35.6467C23.9533 35.3727 23.3744 35.3385 22.8408 35.4755C22.2391 35.6467 21.6942 36.0577 21.3877 36.6627Z" fill="#6F7475"/>
<path d="M22.8408 35.4755L32.7059 57.3469C34.2498 60.7601 37.9507 62.655 41.6061 61.913L65.0145 57.1186C64.8102 56.5935 64.4469 56.1484 63.902 55.8744L24.4869 35.6467C23.9533 35.3727 23.3743 35.3385 22.8408 35.4755Z" fill="#8A9596"/>
<path d="M48.3267 22.4164L54.6045 37.2447C54.9564 38.0666 55.8987 38.4433 56.716 38.1008L85.0968 25.9437C85.9141 25.5898 86.2887 24.6423 85.9482 23.8204L79.6704 8.99214C79.4887 8.55836 79.1368 8.25015 78.7168 8.10176C78.3535 7.97619 77.9448 7.97619 77.5588 8.136L49.1781 20.2932C48.7921 20.453 48.5083 20.7498 48.3494 21.1036C48.1678 21.5032 48.1451 21.9826 48.3267 22.4164Z" fill="#53C01E"/>
<path d="M48.338 21.1036L64.3902 25.5784C66.899 26.2747 69.5668 25.1332 70.8042 22.8387L78.7281 8.10176C78.3648 7.97619 77.9562 7.97619 77.5702 8.136L49.1781 20.2932C48.7921 20.453 48.5083 20.7498 48.338 21.1036Z" fill="#95DB67"/>
<path d="M72.8931 47.5869H71.4286V49.0594C71.4286 49.7215 70.895 50.258 70.2366 50.258C69.5782 50.258 69.0446 49.7215 69.0446 49.0594V47.5869H67.5802C66.9217 47.5869 66.3882 47.0504 66.3882 46.3883C66.3882 45.7262 66.9217 45.1897 67.5802 45.1897H69.0446V43.7171C69.0446 43.0551 69.5782 42.5186 70.2366 42.5186C70.895 42.5186 71.4286 43.0551 71.4286 43.7171V45.1897H72.8931C73.5515 45.1897 74.085 45.7262 74.085 46.3883C74.085 47.039 73.5515 47.5869 72.8931 47.5869Z" fill="#88A6FC"/>
<path d="M19.8097 197C8.87749 197 0 188.062 0 177.081C0 166.099 8.87749 157.161 19.8097 157.161C30.742 157.161 39.6195 166.099 39.6195 177.081C39.6195 188.062 30.7306 197 19.8097 197ZM19.8097 165.152C13.2708 165.152 7.9466 170.494 7.9466 177.081C7.9466 183.656 13.2708 189.009 19.8097 189.009C26.36 189.009 31.6842 183.656 31.6842 177.081C31.6729 170.494 26.3487 165.152 19.8097 165.152Z" fill="#D7E4FE"/>
<path d="M8.56848 128.281C8.25013 128.281 8 128.031 8 127.712C8 121.882 8.63669 116.062 9.87598 110.426C11.57 102.796 14.3669 95.4623 18.2212 88.6411C18.3804 88.3678 18.7215 88.2653 18.9944 88.4247C19.2672 88.5841 19.3695 88.9258 19.2104 89.1991C15.4129 95.9178 12.6501 103.149 10.9902 110.665C9.76228 116.233 9.13695 121.973 9.13695 127.712C9.13695 128.031 8.88682 128.281 8.56848 128.281Z" fill="#AFC7FD"/>
<path d="M11.1721 148.472C10.922 148.472 10.6946 148.301 10.6264 148.05C10.0238 145.784 9.52352 143.45 9.12559 141.127C9.06874 140.819 9.28476 140.523 9.59174 140.466C9.89871 140.409 10.1943 140.626 10.2512 140.933C10.6377 143.222 11.138 145.522 11.7292 147.766C11.8088 148.073 11.6269 148.381 11.3199 148.46C11.2631 148.46 11.2176 148.472 11.1721 148.472Z" fill="#AFC7FD"/>
<path d="M161 127.712C161 168.423 128.051 201.424 87.4049 201.424C46.7588 201.424 13.8098 168.423 13.8098 127.712C13.7985 87.0014 46.7474 54 87.3936 54C128.04 54 161 87.0014 161 127.712Z" fill="#3356E6"/>
<path d="M153.837 127.712C153.837 149.713 143.184 169.22 126.755 181.337C121.866 184.946 116.454 187.896 110.678 190.059C108.086 191.039 105.426 191.847 102.697 192.496C97.7853 193.669 92.669 194.273 87.4049 194.273C80.5264 194.273 73.8979 193.237 67.6674 191.289C40.6079 182.874 20.9613 157.593 20.9613 127.712C20.9613 117.315 23.3375 107.499 27.5784 98.742C32.7743 87.9921 40.7671 78.8706 50.6245 72.2886C52.9325 70.7398 55.3428 69.3392 57.8555 68.0979C63.2446 65.4104 69.0772 63.4176 75.194 62.2902C79.1506 61.55 83.2437 61.1628 87.4163 61.1628C124.094 61.1742 153.837 90.9643 153.837 127.712Z" fill="#AFC7FD"/>
<path d="M152.109 127.712C152.109 149.144 141.729 168.138 125.732 179.936C120.968 183.454 115.704 186.324 110.076 188.431C107.552 189.387 104.959 190.173 102.299 190.8C97.5124 191.938 92.5326 192.53 87.4049 192.53C80.7082 192.53 74.2504 191.517 68.179 189.627C41.8244 181.427 22.6895 156.807 22.6895 127.712C22.6895 117.588 25.0088 108.023 29.136 99.4935C34.1954 89.0283 41.9836 80.1345 51.5795 73.7347C53.8306 72.2315 56.1728 70.865 58.6172 69.6579C63.87 67.0387 69.5434 65.1028 75.501 63.9982C79.3553 63.2808 83.3346 62.905 87.4049 62.905C123.139 62.905 152.109 91.9207 152.109 127.712Z" fill="#EFF4F4"/>
<path d="M102.299 190.8C97.5124 191.938 92.5326 192.531 87.4049 192.531C80.7082 192.531 74.2503 191.517 68.179 189.627L29.136 99.4937C34.1954 89.0285 41.9836 80.1347 51.5795 73.7349L102.299 190.8Z" fill="white"/>
<path d="M125.732 179.936C120.968 183.455 115.704 186.324 110.076 188.431L58.6172 69.6579C63.87 67.0388 69.5434 65.1029 75.501 63.9983L125.732 179.936Z" fill="white"/>
<path d="M87.4049 131.129C86.177 131.129 84.9832 130.457 84.3806 129.295C83.5052 127.621 84.1532 125.56 85.8246 124.683L120.559 106.486C122.23 105.609 124.288 106.258 125.163 107.932C126.039 109.606 125.391 111.667 123.719 112.544L88.9739 130.741C88.4737 131.003 87.9279 131.129 87.4049 131.129Z" fill="#5C7FF3"/>
<path d="M100.685 127.712C100.685 135.057 94.7383 141.013 87.4049 141.013C80.0715 141.013 74.1253 135.057 74.1253 127.712C74.1253 120.367 80.0715 114.411 87.4049 114.411C94.7383 114.411 100.685 120.367 100.685 127.712Z" fill="#AFC7FD"/>
<path d="M87.4049 131.128C86.2566 131.128 85.1424 130.559 84.4943 129.511L57.1278 85.1224C56.1387 83.5167 56.6389 81.41 58.242 80.4193C59.8451 79.4286 61.9485 79.9296 62.9376 81.5353L90.3041 125.924C91.2933 127.53 90.793 129.637 89.1899 130.627C88.6328 130.969 88.0075 131.128 87.4049 131.128Z" fill="#AFC7FD"/>
<path d="M56.7185 205H118.069C119.058 205 119.854 204.203 119.854 203.212C119.854 202.221 119.058 201.424 118.069 201.424H56.7185C55.7294 201.424 54.9335 202.221 54.9335 203.212C54.9449 204.203 55.7407 205 56.7185 205Z" fill="#AFC7FD"/>
</svg>
