<svg width="20" height="20" viewBox="0 0 20 20" fill="none" xmlns="http://www.w3.org/2000/svg">
<path fill-rule="evenodd" clip-rule="evenodd" d="M9.98901 18C13.855 18 16.989 14.866 16.989 11C16.989 7.13401 13.855 4 9.98901 4C6.12302 4 2.98901 7.13401 2.98901 11C2.98901 14.866 6.12302 18 9.98901 18ZM9.98901 20C14.9596 20 18.989 15.9706 18.989 11C18.989 6.02944 14.9596 2 9.98901 2C5.01845 2 0.989014 6.02944 0.989014 11C0.989014 15.9706 5.01845 20 9.98901 20Z" fill="#9FA5B7"/>
<path d="M15 11C15 13.7614 12.7614 16 10 16C7.57879 16 5.55953 14.279 5.09873 11.9936C4.98957 11.4522 5.44745 11 5.99973 11C7.67216 11 10 11 10 11C10 11 10 8.67216 10 6.99973C10 6.44745 10.4522 5.98957 10.9936 6.09873C13.279 6.55953 15 8.57879 15 11Z" fill="#9FA5B7"/>
<rect x="4.98901" width="10" height="2" rx="1" fill="#9FA5B7"/>
<rect x="7.98901" y="3" width="2" height="4" transform="rotate(-90 7.98901 3)" fill="#9FA5B7"/>
</svg>
