<svg width="20" height="20" viewBox="0 0 20 20" fill="none" xmlns="http://www.w3.org/2000/svg">
<path d="M5 6C4.44772 6 4 5.55228 4 5L4 1C4 0.447715 4.44772 -1.95703e-08 5 -4.37114e-08C5.55228 -6.78525e-08 6 0.447715 6 1L6 5C6 5.55228 5.55228 6 5 6Z" fill="#9FA5B7"/>
<path d="M20 8C20 8.55228 19.5523 9 19 9L1 9C0.447716 9 -3.91406e-08 8.55229 -8.74229e-08 8C-1.35705e-07 7.44772 0.447716 7 1 7L19 7C19.5523 7 20 7.44771 20 8Z" fill="#9FA5B7"/>
<path d="M15 6C14.4477 6 14 5.55228 14 5L14 1C14 0.447715 14.4477 -1.95703e-08 15 -4.37114e-08C15.5523 -6.78525e-08 16 0.447715 16 1L16 5C16 5.55228 15.5523 6 15 6Z" fill="#9FA5B7"/>
<path fill-rule="evenodd" clip-rule="evenodd" d="M13.7071 10.2929C14.0976 10.6834 14.0976 11.3166 13.7071 11.7071L9.70711 15.7071C9.31658 16.0976 8.68342 16.0976 8.29289 15.7071L6.29289 13.7071C5.90237 13.3166 5.90237 12.6834 6.29289 12.2929C6.68342 11.9024 7.31658 11.9024 7.70711 12.2929L9 13.5858L12.2929 10.2929C12.6834 9.90237 13.3166 9.90237 13.7071 10.2929Z" fill="#9FA5B7"/>
<path fill-rule="evenodd" clip-rule="evenodd" d="M18 4H2V16C2 17.1046 2.89543 18 4 18H16C17.1046 18 18 17.1046 18 16V4ZM2 2C0.895431 2 0 2.89543 0 4V16C0 18.2091 1.79086 20 4 20H16C18.2091 20 20 18.2091 20 16V4C20 2.89543 19.1046 2 18 2H2Z" fill="#9FA5B7"/>
</svg>
