<svg width="20" height="20" viewBox="0 0 20 20" fill="none" xmlns="http://www.w3.org/2000/svg">
    <path d="M0 20V15.442L2.66667 15.442C4.08889 13.6188 5.82411 13.163 6.51395 13.163H12.4444C14.5778 13.8923 13.3333 14.9862 12.4444 15.442H9.33333C8.62222 16.1713 9.03704 16.6575 9.33333 16.8094L13.3333 16.8094C13.7778 16.8094 16.4444 14.8342 17.7778 13.6188C19.5556 12.1602 20 13.6188 20 14.5304L15.1111 18.6326C14.7556 18.9972 13.4815 19.6961 12.8889 20H0Z" fill="#9FA5B7"/>
    <rect y="15" width="2" height="5" fill="#9FA5B7"/>
    <path d="M14.5901 6.585C14.6133 6.3975 14.6287 6.2025 14.6287 6C14.6287 5.7975 14.6133 5.6025 14.5824 5.415L15.8861 4.425C16.0019 4.335 16.0327 4.17 15.9633 4.0425L14.729 1.965C14.6518 1.83 14.4898 1.785 14.351 1.83L12.8158 2.43C12.4918 2.19 12.1523 1.995 11.7743 1.845L11.5429 0.255C11.5198 0.105 11.3886 0 11.2343 0H8.76569C8.6114 0 8.48797 0.105 8.46482 0.255L8.23339 1.845C7.85538 1.995 7.50823 2.1975 7.19193 2.43L5.65676 1.83C5.51789 1.7775 5.35589 1.83 5.27875 1.965L4.04443 4.0425C3.96729 4.1775 3.99815 4.335 4.12158 4.425L5.42532 5.415C5.39446 5.6025 5.37132 5.805 5.37132 6C5.37132 6.195 5.38675 6.3975 5.41761 6.585L4.11386 7.575C3.99814 7.665 3.96729 7.83 4.03672 7.9575L5.27103 10.035C5.34818 10.17 5.51018 10.215 5.64904 10.17L7.18422 9.57C7.50823 9.81 7.84766 10.005 8.22567 10.155L8.45711 11.745C8.48797 11.895 8.6114 12 8.76569 12H11.2343C11.3886 12 11.5198 11.895 11.5352 11.745L11.7666 10.155C12.1446 10.005 12.4918 9.8025 12.8081 9.57L14.3432 10.17C14.4821 10.2225 14.6441 10.17 14.7213 10.035L15.9556 7.9575C16.0327 7.8225 16.0019 7.665 15.8784 7.575L14.5901 6.585ZM10 8.25C8.72711 8.25 7.68566 7.2375 7.68566 6C7.68566 4.7625 8.72711 3.75 10 3.75C11.2729 3.75 12.3143 4.7625 12.3143 6C12.3143 7.2375 11.2729 8.25 10 8.25Z" fill="#9FA5B7"/>
</svg>
