<svg width="20" height="20" viewBox="0 0 20 20" fill="none" xmlns="http://www.w3.org/2000/svg">
<rect x="6" y="16" width="6" height="2" rx="1" transform="rotate(180 6 16)" fill="#9FA5B7"/>
<rect x="6" y="6" width="6" height="2" rx="1" transform="rotate(180 6 6)" fill="#9FA5B7"/>
<rect x="6" y="11" width="6" height="2" rx="1" transform="rotate(180 6 11)" fill="#9FA5B7"/>
<path d="M3 18L3 2C3 1.44772 3.44771 1 4 1L16 0.999999C17.6569 0.999999 19 2.34314 19 4L19 16C19 17.6569 17.6569 19 16 19L4 19C3.44772 19 3 18.5523 3 18Z" stroke="#9FA5B7" stroke-width="2"/>
<path d="M14.0479 11.0084L14.3211 10.7352L15.135 11.5491L14.5689 12.1152L14.3907 12.2935C14.3778 12.3064 14.3679 12.3157 14.3604 12.3224C14.3596 12.3231 14.3589 12.3237 14.3582 12.3243C14.2193 12.3798 13.8764 12.4806 13.3595 12.3791C12.805 12.2703 11.9594 11.9111 10.8903 10.842C9.82119 9.77294 9.46196 8.92733 9.35318 8.37285C9.25175 7.85586 9.35249 7.51299 9.40795 7.37412C9.40858 7.37341 9.40923 7.37267 9.40993 7.37189C9.41661 7.3644 9.42589 7.35454 9.43879 7.34164L9.61706 7.16337L10.1832 6.59726L10.9971 7.41118L10.7239 7.68439C10.3777 8.03055 10.0231 8.67009 10.2724 9.40865C10.3961 9.77543 10.6312 10.2284 11.0676 10.6647C11.5039 11.1011 11.9569 11.3362 12.3237 11.4599C13.0622 11.7092 13.7017 11.3546 14.0479 11.0084Z" stroke="#9FA5B7" stroke-width="2"/>
</svg>
