<svg width="20" height="20" viewBox="0 0 20 20" fill="none" xmlns="http://www.w3.org/2000/svg">
<rect x="4" y="6" width="6" height="2" rx="1" transform="rotate(-90 4 6)" fill="#9FA5B7"/>
<rect x="14" y="6" width="6" height="2" rx="1" transform="rotate(-90 14 6)" fill="#9FA5B7"/>
<path fill-rule="evenodd" clip-rule="evenodd" d="M18 4H2V16C2 17.1046 2.89543 18 4 18H16C17.1046 18 18 17.1046 18 16V4ZM2 2C0.895431 2 0 2.89543 0 4V16C0 18.2091 1.79086 20 4 20H16C18.2091 20 20 18.2091 20 16V4C20 2.89543 19.1046 2 18 2H2Z" fill="#9FA5B7"/>
<path d="M9.53829 7.26377C9.72266 6.91208 10.2554 6.91208 10.4397 7.26377L11.5954 9.46835C11.6687 9.60801 11.8102 9.70481 11.9739 9.7272L14.5581 10.0807C14.9704 10.1371 15.135 10.6141 14.8367 10.8878L12.9667 12.6039C12.8482 12.7126 12.7942 12.8692 12.8222 13.0227L13.2636 15.4458C13.334 15.8323 12.9031 16.1271 12.5343 15.9446L10.2229 14.8006C10.0765 14.7281 9.90155 14.7281 9.75512 14.8006L7.44371 15.9446C7.07497 16.1271 6.64401 15.8323 6.71443 15.4458L7.15587 13.0227C7.18384 12.8692 7.12978 12.7126 7.01132 12.6039L5.14135 10.8878C4.84303 10.6141 5.00765 10.1371 5.41991 10.0807L8.00414 9.7272C8.16785 9.70481 8.30938 9.60801 8.38259 9.46835L9.53829 7.26377Z" fill="#9FA5B7"/>
</svg>
