<svg width="20" height="20" viewBox="0 0 20 20" fill="none" xmlns="http://www.w3.org/2000/svg">
<path fill-rule="evenodd" clip-rule="evenodd" d="M10 8C11.6569 8 13 6.65685 13 5C13 3.34315 11.6569 2 10 2C8.34315 2 7 3.34315 7 5C7 6.65685 8.34315 8 10 8ZM10 10C12.7614 10 15 7.76142 15 5C15 2.23858 12.7614 0 10 0C7.23858 0 5 2.23858 5 5C5 7.76142 7.23858 10 10 10Z" fill="#9FA5B7"/>
<path fill-rule="evenodd" clip-rule="evenodd" d="M11.4613 13H8.53873C6.21143 13 4.29324 14.7517 4.03064 17.0085C5.30318 17.4371 7.46212 18 10 18C12.5379 18 14.6968 17.4371 15.9694 17.0085C15.7068 14.7517 13.7886 13 11.4613 13ZM8.53873 11C4.92749 11 2 13.9275 2 17.5387C2 18.0427 2.29073 18.5004 2.76207 18.6789C4.01798 19.1543 6.71368 20 10 20C13.2863 20 15.982 19.1543 17.2379 18.6789C17.7093 18.5004 18 18.0427 18 17.5387C18 13.9275 15.0725 11 11.4613 11H8.53873Z" fill="#9FA5B7"/>
</svg>
