<svg width="30" height="30" viewBox="0 0 30 30" fill="none" xmlns="http://www.w3.org/2000/svg">
<path d="M14.999 0L18.1049 3.40889L22.499 2.00962L23.4843 6.51472L27.9894 7.5L26.5901 11.8942L29.999 15L26.5901 18.1058L27.9894 22.5L23.4843 23.4853L22.499 27.9904L18.1049 26.5911L14.999 30L11.8932 26.5911L7.49902 27.9904L6.51374 23.4853L2.00864 22.5L3.40791 18.1058L-0.000976562 15L3.40791 11.8942L2.00864 7.5L6.51374 6.51472L7.49902 2.00962L11.8932 3.40889L14.999 0Z" fill="#CBD5E0"/>
<path fill-rule="evenodd" clip-rule="evenodd" d="M16.999 8H12.999V18H16.999V8ZM14.999 23C16.1036 23 16.999 22.1046 16.999 21C16.999 19.8954 16.1036 19 14.999 19C13.8945 19 12.999 19.8954 12.999 21C12.999 22.1046 13.8945 23 14.999 23Z" fill="white"/>
</svg>
