<svg width="20" height="20" viewBox="0 0 20 20" fill="none" xmlns="http://www.w3.org/2000/svg">
<rect x="4" y="6.00012" width="6" height="2" rx="1" transform="rotate(-90 4 6.00012)" fill="white"/>
<rect x="14" y="6.00012" width="6" height="2" rx="1" transform="rotate(-90 14 6.00012)" fill="white"/>
<path d="M1 4.00012C1 3.44784 1.44772 3.00012 2 3.00012H18C18.5523 3.00012 19 3.44784 19 4.00012V16.0001C19 17.657 17.6569 19.0001 16 19.0001H4C2.34315 19.0001 1 17.657 1 16.0001V4.00012Z" stroke="white" stroke-width="2"/>
<path d="M9.53756 7.26389C9.72193 6.9122 10.2546 6.9122 10.439 7.26389L11.5947 9.46847C11.6679 9.60813 11.8094 9.70493 11.9732 9.72733L14.5574 10.0808C14.9696 10.1372 15.1343 10.6142 14.8359 10.888L12.966 12.604C12.8475 12.7127 12.7935 12.8693 12.8214 13.0228L13.2629 15.4459C13.3333 15.8324 12.9023 16.1272 12.5336 15.9447L10.2222 14.8007C10.0757 14.7282 9.90082 14.7282 9.75439 14.8007L7.44298 15.9447C7.07424 16.1272 6.64328 15.8324 6.7137 15.4459L7.15514 13.0228C7.1831 12.8693 7.12905 12.7127 7.01059 12.604L5.14062 10.888C4.8423 10.6142 5.00692 10.1372 5.41918 10.0808L8.00341 9.72733C8.16712 9.70493 8.30864 9.60813 8.38186 9.46847L9.53756 7.26389Z" fill="white"/>
</svg>
