<svg width="20" height="20" viewBox="0 0 20 20" fill="none" xmlns="http://www.w3.org/2000/svg">
<g clip-path="url(#clip0)">
<path fill-rule="evenodd" clip-rule="evenodd" d="M4 2H16C17.1046 2 18 2.89543 18 4V12C18 13.1046 17.1046 14 16 14H7C6.06425 14 5.15812 14.3281 4.43926 14.9271L2 16.865V4C2 2.89543 2.89543 2 4 2ZM16 0C18.2091 0 20 1.79086 20 4V12C20 14.2091 18.2091 16 16 16H7C6.53213 16 6.07906 16.164 5.71963 16.4636L1.64018 19.7682C0.988857 20.311 0 19.8478 0 19V4C0 1.79086 1.79086 0 4 0H16Z" fill="white"/>
<rect x="4" y="7" width="6" height="3" fill="white"/>
<rect x="9" y="6" width="3" height="1" fill="white"/>
<rect x="11" y="7" width="6" height="3" fill="white"/>
<rect x="5" y="11" width="5" height="5" fill="white"/>
<rect x="11" y="11" width="5" height="5" fill="white"/>
<path fill-rule="evenodd" clip-rule="evenodd" d="M8 5.5C8 5.77614 8.22386 6 8.5 6C8.77614 6 9 5.77614 9 5.5C9 5.22386 8.77614 5 8.5 5C8.22386 5 8 5.22386 8 5.5ZM8.5 3C7.11929 3 6 4.11929 6 5.5C6 6.88071 7.11929 8 8.5 8C9.22038 8 9.54379 7.48754 10 7C10.4182 6.5531 11 6.16033 11 5.5C11 4.11929 9.88071 3 8.5 3Z" fill="white"/>
<path fill-rule="evenodd" clip-rule="evenodd" d="M12 5.5C12 5.77614 12.2239 6 12.5 6C12.7761 6 13 5.77614 13 5.5C13 5.22386 12.7761 5 12.5 5C12.2239 5 12 5.22386 12 5.5ZM12.5 3C11.1193 3 10 4.11929 10 5.5C10 6.20032 10.536 6.54614 11 7C11.4508 7.44094 11.8196 8 12.5 8C13.8807 8 15 6.88071 15 5.5C15 4.11929 13.8807 3 12.5 3Z" fill="white"/>
</g>
<defs>
<clipPath id="clip0">
<rect width="20" height="20" fill="white"/>
</clipPath>
</defs>
</svg>
