<svg width="20" height="20" viewBox="0 0 20 20" fill="none" xmlns="http://www.w3.org/2000/svg">
<path fill-rule="evenodd" clip-rule="evenodd" d="M1 11C1 9.34315 2.34315 8 4 8H16C17.6569 8 19 9.34315 19 11V17C19 18.6569 17.6569 20 16 20H4C2.34315 20 1 18.6569 1 17V11ZM4 10C3.44772 10 3 10.4477 3 11V17C3 17.5523 3.44772 18 4 18H16C16.5523 18 17 17.5523 17 17V11C17 10.4477 16.5523 10 16 10H4Z" fill="white"/>
<path fill-rule="evenodd" clip-rule="evenodd" d="M14 8V6C14 3.79086 12.2091 2 10 2C7.79086 2 6 3.79086 6 6V8H14ZM10 0C6.68629 0 4 2.68629 4 6V10H16V6C16 2.68629 13.3137 0 10 0Z" fill="white"/>
<path d="M9 13C9 12.4477 9.44772 12 10 12V12C10.5523 12 11 12.4477 11 13V15C11 15.5523 10.5523 16 10 16V16C9.44772 16 9 15.5523 9 15V13Z" fill="white"/>
</svg>
