<svg width="21" height="18" viewBox="0 0 21 18" fill="none" xmlns="http://www.w3.org/2000/svg">
<path d="M7.96256 18C6.58356 17.9927 5.23742 17.6003 4.09248 16.872C2.94755 16.1436 2.05462 15.1115 1.52537 13.9048C0.996112 12.6981 0.854014 11.3703 1.11684 10.0875C1.37967 8.8047 2.03576 7.62377 3.00307 6.69241L8.6639 1.38515C9.60293 0.498103 10.8748 0 12.2007 0C13.5266 0 14.7984 0.498103 15.7374 1.38515C16.6705 2.27458 17.1942 3.47774 17.1942 4.73185C17.1942 5.98597 16.6705 7.18913 15.7374 8.07856L10.0766 13.4238C9.51344 13.9543 8.75163 14.252 7.95755 14.252C7.16347 14.252 6.40166 13.9543 5.8385 13.4238C5.5557 13.1562 5.33207 12.8378 5.18068 12.4873C5.02929 12.1368 4.95318 11.7612 4.95681 11.3825C4.95485 10.6288 5.2683 9.90496 5.82848 9.36977L11.4893 4.02454C11.5825 3.93555 11.6933 3.86492 11.8154 3.81672C11.9374 3.76851 12.0684 3.7437 12.2007 3.7437C12.3329 3.7437 12.4639 3.76851 12.586 3.81672C12.7081 3.86492 12.8189 3.93555 12.912 4.02454C13.0986 4.20242 13.2034 4.44305 13.2034 4.69388C13.2034 4.9447 13.0986 5.18533 12.912 5.36322L7.2512 10.7085C7.06459 10.8863 6.95985 11.127 6.95985 11.3778C6.95985 11.6286 7.06459 11.8692 7.2512 12.0471C7.43892 12.224 7.69286 12.3232 7.95755 12.3232C8.22224 12.3232 8.47618 12.224 8.6639 12.0471L14.3247 6.69241C14.8785 6.15956 15.1889 5.44172 15.1889 4.69388C15.1889 3.94603 14.8785 3.22819 14.3247 2.69535C13.7612 2.16196 12.9972 1.86236 12.2007 1.86236C11.4041 1.86236 10.6402 2.16196 10.0766 2.69535L4.41577 8.03109C3.49788 8.91846 2.98375 10.1115 2.98375 11.3541C2.98375 12.5966 3.49788 13.7897 4.41577 14.677C5.3548 15.5641 6.62663 16.0622 7.95254 16.0622C9.27845 16.0622 10.5503 15.5641 11.4893 14.677L19.2742 7.32852C19.3673 7.23953 19.4782 7.1689 19.6003 7.1207C19.7223 7.0725 19.8533 7.04768 19.9856 7.04768C20.1178 7.04768 20.2488 7.0725 20.3709 7.1207C20.493 7.1689 20.6038 7.23953 20.6969 7.32852C20.8835 7.5064 20.9883 7.74704 20.9883 7.99786C20.9883 8.24868 20.8835 8.48931 20.6969 8.6672L12.912 16.0252C12.2644 16.6463 11.4939 17.1405 10.6447 17.4793C9.79541 17.8181 8.88401 17.9951 7.96256 18Z" fill="#53C01E"/>
</svg>
