<svg width="409" height="285" viewBox="0 0 409 285" fill="none" xmlns="http://www.w3.org/2000/svg">
<path d="M152.5 249.5H249.5V266.5H152.5V249.5Z" stroke="#A0AEC0" stroke-width="3"/>
<path d="M124 268H278V282H124V268Z" stroke="#A0AEC0" stroke-width="6"/>
<rect x="29" y="22" width="344" height="226" rx="7" stroke="#A0AEC0" stroke-width="6"/>
<path d="M67.1989 65C63.7712 64.9998 60.4662 63.7714 57.927 61.5536C55.3878 59.3359 53.7962 56.2876 53.4618 53.0019H39.3437C38.9874 53.0019 38.6456 52.8656 38.3936 52.6229C38.1416 52.3801 38 52.0509 38 51.7077C38 47.6121 39.2609 43.6084 41.6234 40.203C43.9859 36.7976 47.3438 34.1435 51.2725 32.5762C55.2011 31.0089 59.5241 30.5989 63.6948 31.398C67.8654 32.1971 71.6963 34.1694 74.7031 37.0655C76.7057 38.9839 78.2934 41.2658 79.3742 43.7791C80.455 46.2925 81.0076 48.9873 80.9999 51.7077C80.9999 59.0375 74.8086 65 67.1989 65ZM56.1641 53.0019C56.8205 58.3542 61.4799 62.4116 67.1989 62.4116C73.3271 62.4116 78.3124 57.61 78.3124 51.7077C78.3124 41.7169 69.873 33.5886 59.4999 33.5886C49.5791 33.5886 41.4266 41.0245 40.7352 50.4134H53.5122C53.8065 48.6102 54.6752 46.9396 55.9981 45.6326C56.8261 44.8026 57.8191 44.1417 58.9178 43.6891C60.0166 43.2365 61.1987 43.0015 62.3937 42.9982H62.4394C63.627 42.998 64.803 43.2232 65.9003 43.6608C66.9976 44.0984 67.9946 44.7399 68.8344 45.5487C69.6743 46.3575 70.3405 47.3176 70.795 48.3744C71.2495 49.4312 71.4835 50.5638 71.4835 51.7077C71.4835 52.0509 71.3419 52.3801 71.0899 52.6229C70.8379 52.8656 70.4961 53.0019 70.1397 53.0019H56.1641ZM56.2481 50.4134H68.6549C68.3466 49.0466 67.5621 47.8225 66.4317 46.9445C65.3013 46.0664 63.893 45.5873 62.4407 45.5867H62.4085C61.5711 45.5899 60.7429 45.7553 59.9732 46.0732C59.2036 46.391 58.5082 46.8547 57.9284 47.4367C57.0939 48.2607 56.5124 49.2909 56.2481 50.4134Z" fill="#A0AEC0"/>
<circle cx="201" cy="230" r="6" fill="#A0AEC0"/>
<line x1="29" y1="72.5" x2="373" y2="72.5" stroke="#A0AEC0" stroke-width="3"/>
<line x1="106.5" y1="212" x2="106.5" y2="73" stroke="#A0AEC0" stroke-width="3"/>
<rect x="178.5" y="41.5" width="152" height="171" fill="#E2E8F0" stroke="#A0AEC0" stroke-width="3"/>
<rect x="330.5" y="55.5" width="15" height="157" fill="#E2E8F0" stroke="#A0AEC0" stroke-width="3"/>
<rect x="185" y="48" width="50" height="50" fill="#A0AEC0"/>
<path d="M210 79C215.249 79 219.5 74.7487 219.5 69.5C219.5 64.2512 215.249 60 210 60C204.751 60 200.5 64.2512 200.5 69.5C200.5 74.7487 204.751 79 210 79ZM210 83.75C203.659 83.75 191 86.9325 191 93.25V98H229V93.25C229 86.9325 216.341 83.75 210 83.75Z" fill="#E2E8F0"/>
<rect x="239" y="56" width="38" height="6" fill="#A0AEC0"/>
<rect x="283" y="56" width="31" height="6" fill="#A0AEC0"/>
<rect x="239" y="68" width="19" height="6" fill="#A0AEC0"/>
<rect x="264" y="68" width="31" height="6" fill="#A0AEC0"/>
<rect x="185" y="110" width="16" height="16" fill="#A0AEC0"/>
<rect x="207" y="110" width="18" height="6" fill="#A0AEC0"/>
<rect x="232" y="110" width="31" height="6" fill="#A0AEC0"/>
<rect x="207" y="123" width="70" height="6" fill="#A0AEC0"/>
<rect x="283" y="123" width="31" height="6" fill="#A0AEC0"/>
<rect width="31" height="6" transform="matrix(-1 0 0 1 300 110)" fill="#A0AEC0"/>
<rect x="207" y="135" width="31" height="6" fill="#A0AEC0"/>
<rect width="25" height="6" transform="matrix(-1 0 0 1 269 135)" fill="#A0AEC0"/>
<rect x="185" y="157" width="16" height="16" fill="#A0AEC0"/>
<rect width="18" height="6" transform="matrix(1 0 0 -1 207 188)" fill="#A0AEC0"/>
<rect width="31" height="6" transform="matrix(1 0 0 -1 232 188)" fill="#A0AEC0"/>
<rect width="21" height="6" transform="matrix(1 0 0 -1 207 175)" fill="#A0AEC0"/>
<rect width="54" height="6" transform="matrix(1 0 0 -1 235 175)" fill="#A0AEC0"/>
<rect x="300" y="188" width="31" height="6" transform="rotate(-180 300 188)" fill="#A0AEC0"/>
<rect width="31" height="6" transform="matrix(1 0 0 -1 207 163)" fill="#A0AEC0"/>
<rect x="269" y="163" width="25" height="6" transform="rotate(-180 269 163)" fill="#A0AEC0"/>
<rect x="318" y="163" width="43" height="6" transform="rotate(-180 318 163)" fill="#A0AEC0"/>
<path fill-rule="evenodd" clip-rule="evenodd" d="M123.071 211L121.474 199.976C117.573 198.485 114.229 196.458 111.009 194.072L95.5906 200.096C94.2284 200.573 92.5565 200.096 91.8135 198.784L79.4293 178.147C78.6243 176.835 78.9959 175.224 80.1724 174.33L93.2376 164.429C92.99 162.52 92.8042 160.612 92.8042 158.644C92.8042 156.675 92.99 154.707 93.2376 152.679L80.1724 142.957C78.9959 142.063 78.6243 140.452 79.4293 139.14L91.8135 118.503C92.5565 117.191 94.2284 116.654 95.5906 117.191L111.009 123.156C114.229 120.83 117.573 118.802 121.474 117.311L123.765 101.505C124.012 100.074 125.313 99 126.861 99H151.629C153.177 99 154.477 100.074 154.725 101.505L157.016 117.311C160.917 118.802 164.261 120.83 167.481 123.156L177 119.473V197.791L167.481 194.072C164.261 196.458 160.917 198.426 157.016 199.976L155.418 211H123.071ZM165.942 158.643C165.942 173.252 153.983 185.094 139.231 185.094C124.479 185.094 112.52 173.252 112.52 158.643C112.52 144.035 124.479 132.193 139.231 132.193C153.983 132.193 165.942 144.035 165.942 158.643Z" fill="#A0AEC0"/>
<path d="M40.4068 126.479L39 122.678L37.5932 126.479L29.7299 147.73L8.47945 155.593L4.67769 157L8.47945 158.407L29.7299 166.27L37.5932 187.521L39 191.322L40.4068 187.521L48.2701 166.27L69.5206 158.407L73.3223 157L69.5206 155.593L48.2701 147.73L40.4068 126.479Z" fill="#A0AEC0" stroke="#E2E8F0" stroke-width="3"/>
<path d="M162.411 50.5093L161 54.4175L159.589 50.5093L154.421 36.1948L140.468 30.9025L136.77 29.5L140.468 28.0975L154.421 22.8052L159.589 8.49066L161 4.5825L162.411 8.49066L167.579 22.8052L181.532 28.0975L185.23 29.5L181.532 30.9025L167.579 36.1948L162.411 50.5093Z" fill="#A0AEC0" stroke="#E2E8F0" stroke-width="3"/>
<path d="M383.407 131.521L382 135.322L380.593 131.521L375.971 119.029L363.479 114.407L359.678 113L363.479 111.593L375.971 106.971L380.593 94.4794L382 90.6777L383.407 94.4794L388.029 106.971L400.521 111.593L404.322 113L400.521 114.407L388.029 119.029L383.407 131.521Z" fill="#A0AEC0" stroke="#E2E8F0" stroke-width="3"/>
<rect x="29" y="211" width="344" height="3" fill="#A0AEC0"/>
</svg>
