<svg width="20" height="20" viewBox="0 0 20 20" fill="none" xmlns="http://www.w3.org/2000/svg">
<path fill-rule="evenodd" clip-rule="evenodd" d="M18 2H4V5H6V6H4V8H6V9H4V11H6V12H4V14H6V15H4V18H18V2ZM2 15V18V20H4H18H20V18V2V0H18H4H2V2V5H0V6H2V8H0V9H2V11H0V12H2V14H0V15H2Z" fill="#4A5568"/>
<path fill-rule="evenodd" clip-rule="evenodd" d="M14 7C14 8.10457 13.1046 9 12 9C10.8954 9 10 8.10457 10 7C10 5.89543 10.8954 5 12 5C13.1046 5 14 5.89543 14 7ZM8 12.6667C8 12.6667 8.95 10 12 10C15.05 10 16 12.6667 16 12.6667V14H8V12.6667Z" fill="#3499FE"/>
</svg>
