<svg width="40" height="41" viewBox="0 0 40 41" fill="none" xmlns="http://www.w3.org/2000/svg">
<path fill-rule="evenodd" clip-rule="evenodd" d="M11.1897 0.843384L9.25781 1.36102L10.5008 6H10.4142L7.41421 3L6 4.41422L7.58578 6H2H0V8V31V33H2H14V29H4V14L21 14V16H25V8V6H23H18H17.1569L18.7427 4.41422L17.3285 3L14.3285 6H14.2419L15.4849 1.36102L13.553 0.843384L12.3713 5.25345L11.1897 0.843384ZM21 12V10H18H4V12L21 12Z" fill="#4A5568"/>
<path fill-rule="evenodd" clip-rule="evenodd" d="M19.662 18.8791C18.9293 20.1481 19.0645 21.6624 20.4961 23H20H16V27V37V41H20H36H40V37V27V23H36H35.4248C36.8564 21.6624 36.9916 20.1481 36.2589 18.8791C35.3409 17.289 33.408 16.6863 30.758 18.2163C29.5808 18.896 28.6412 20.1959 27.9604 21.4309C27.2797 20.1959 26.3401 18.896 25.1629 18.2163C22.5129 16.6863 20.58 17.289 19.662 18.8791ZM26.41 22.775C25.7511 21.4879 24.9513 20.4035 24.1629 19.9483C23.0998 19.3345 22.4292 19.293 22.0986 19.3493C21.8177 19.3971 21.588 19.5431 21.3941 19.8791C21.2001 20.215 21.1885 20.4869 21.2875 20.7541C21.4041 21.0686 21.7753 21.6285 22.8385 22.2423C23.6269 22.6975 24.9659 22.8479 26.41 22.775ZM27 27H20V28H27V27ZM29 27V28H36V27H29ZM27 30H20V37H27V30ZM29 37H36V30H29V37ZM31.758 19.9483C30.9696 20.4035 30.1698 21.4879 29.5109 22.775C30.955 22.8479 32.294 22.6975 33.0824 22.2423C34.1456 21.6285 34.5168 21.0686 34.6334 20.7541C34.7324 20.4869 34.7208 20.215 34.5268 19.8791C34.3329 19.5431 34.1032 19.3971 33.8223 19.3493C33.4917 19.293 32.8211 19.3345 31.758 19.9483Z" fill="#3499FE"/>
</svg>
