<svg width="40" height="40" viewBox="0 0 40 40" fill="none" xmlns="http://www.w3.org/2000/svg">
<path fill-rule="evenodd" clip-rule="evenodd" d="M2 0H0V2V30V32H2H14V28H10L10 12L26 12V14H30V2V0H28H17.1667H2ZM8 12H4V28H8L8 12ZM26 10V4H17.1667H4V10L26 10ZM6 8V6H8V8H6ZM20 6V8H24V6H20ZM14 8V6H18V8H14Z" fill="#4A5568"/>
<path fill-rule="evenodd" clip-rule="evenodd" d="M40 34.3431V40L36 36H20H16V32V20V16H20H36H40V20V34.3431ZM36 20H20V32H36V20ZM28 26C29.1046 26 30 25.1046 30 24C30 22.8954 29.1046 22 28 22C26.8954 22 26 22.8954 26 24C26 25.1046 26.8954 26 28 26ZM24 29.6667C24 29.6667 24.95 27 28 27C31.05 27 32 29.6667 32 29.6667V31H24V29.6667Z" fill="#3499FE"/>
</svg>
