<svg width="40" height="40" viewBox="0 0 40 40" fill="none" xmlns="http://www.w3.org/2000/svg">
<path fill-rule="evenodd" clip-rule="evenodd" d="M2 0H0V2V30V32H2H14V28H10L10 12L26 12V14H30V2V0H28H17.1667H2ZM8 12H4V28H8L8 12ZM26 10V4H17.1667H4V10L26 10ZM6 8V6H8V8H6ZM20 6V8H24V6H20ZM14 8V6H18V8H14Z" fill="#4A5568"/>
<path fill-rule="evenodd" clip-rule="evenodd" d="M30.5775 16.5791L29.1622 15.1772L27.7547 16.5869L21.1832 23.1684C20.6721 23.6699 20.3062 24.3019 20.1263 25H20H18H16V27V36V38H18H20H20.5373C21.2302 39.1945 22.5233 40 24 40H33C34.6506 40 36.0752 39.0034 36.6816 37.56L39.6984 30.5175L39.7109 30.4883L39.7225 30.4588C39.8964 30.0144 40 29.5278 40 29V27C40 24.7954 38.2046 23 36 23H32.1485L32.5981 20.837L32.6209 20.7278L32.6313 20.6167L32.6613 20.2967L32.67 20.2035V20.11C32.67 19.1467 32.2728 18.2644 31.6442 17.6358L31.6442 17.6358L31.6375 17.6291L30.5775 16.5791ZM20 27H18V36H20V27ZM24.0053 26.0031L28.3415 21.6603L27.7319 24.5929L27.2315 27H29.69H36V28.9928L33.0016 35.9925L32.9984 36H24V26.0084L24.0053 26.0031Z" fill="#3499FE"/>
</svg>
